<?xml version="1.0" encoding="utf-8"?>
<!-- Generator: Adobe Illustrator 24.0.0, SVG Export Plug-In . SVG Version: 6.00 Build 0)  -->
<svg version="1.1" id="Layer_1" xmlns="http://www.w3.org/2000/svg" xmlns:xlink="http://www.w3.org/1999/xlink" x="0px" y="0px"
	 viewBox="0 0 256 256" style="enable-background:new 0 0 256 256;" xml:space="preserve">
<style type="text/css">
	.st0{fill:#FFFFFF;}
</style>
<g>
	<path class="st0" d="M228.6,250.87h-41.43c-1.43,0-2.59-1.16-2.59-2.59v-95.81h-33.66c-1.43,0-2.59-1.16-2.59-2.59V30.77
		c0-1.43,1.16-2.59,2.59-2.59h77.68c1.43,0,2.59,1.16,2.59,2.59v217.51C231.19,249.71,230.03,250.87,228.6,250.87z M189.76,245.69
		h36.25V33.36h-72.5V147.3h33.66c1.43,0,2.59,1.16,2.59,2.59L189.76,245.69L189.76,245.69z"/>
	<path class="st0" d="M187.17,250.87h-82.86c-1.43,0-2.59-1.16-2.59-2.59v-98.4c0-1.43,1.16-2.59,2.59-2.59h82.86
		c1.43,0,2.59,1.16,2.59,2.59v98.4C189.76,249.71,188.6,250.87,187.17,250.87z M106.9,245.69h77.68v-93.22H106.9V245.69z"/>
	<path class="st0" d="M150.92,152.47h-46.61c-1.43,0-2.59-1.16-2.59-2.59V95.51H68.06c-1.43,0-2.59-1.16-2.59-2.59V61.85
		c0-1.43,1.16-2.59,2.59-2.59h82.86c1.43,0,2.59,1.16,2.59,2.59v88.04C153.51,151.32,152.35,152.47,150.92,152.47z M106.9,147.3
		h41.43V64.43H70.65v25.89h33.66c1.43,0,2.59,1.16,2.59,2.59V147.3L106.9,147.3z"/>
	<path class="st0" d="M104.31,250.87H26.63c-1.43,0-2.59-1.16-2.59-2.59V92.92c0-1.43,1.16-2.59,2.59-2.59h77.68
		c1.43,0,2.59,1.16,2.59,2.59v155.37C106.9,249.71,105.74,250.87,104.31,250.87z M29.22,245.69h72.5V95.51h-72.5V245.69z"/>
	<path class="st0" d="M130.2,64.43H83.59c-1.43,0-2.59-1.16-2.59-2.59V41.13c0-1.43,1.16-2.59,2.59-2.59h46.61
		c1.43,0,2.59,1.16,2.59,2.59v20.72C132.79,63.28,131.63,64.43,130.2,64.43z M86.18,59.26h41.43V43.72H86.18V59.26z"/>
	<path class="st0" d="M114.67,43.72c-1.43,0-2.59-1.16-2.59-2.59V10.06c0-1.43,1.16-2.59,2.59-2.59c1.43,0,2.59,1.16,2.59,2.59
		v31.07C117.26,42.56,116.1,43.72,114.67,43.72z"/>
	<path class="st0" d="M99.13,43.72c-1.43,0-2.59-1.16-2.59-2.59V20.42c0-1.43,1.16-2.59,2.59-2.59s2.59,1.16,2.59,2.59v20.71
		C101.72,42.56,100.56,43.72,99.13,43.72z"/>
	<path class="st0" d="M238.96,250.87H16.27c-1.43,0-2.59-1.16-2.59-2.59c0-1.43,1.16-2.59,2.59-2.59h222.69
		c1.43,0,2.59,1.16,2.59,2.59C241.55,249.71,240.39,250.87,238.96,250.87z"/>
	<rect x="36.98" y="108.45" class="st0" width="10.36" height="20.72"/>
	<rect x="52.52" y="108.45" class="st0" width="10.36" height="20.72"/>
	<rect x="68.06" y="108.45" class="st0" width="10.36" height="20.72"/>
	<rect x="83.59" y="108.45" class="st0" width="10.36" height="20.72"/>
	<rect x="130.2" y="72.2" class="st0" width="10.36" height="10.36"/>
	<rect x="114.67" y="72.2" class="st0" width="10.36" height="10.36"/>
	<rect x="130.2" y="87.74" class="st0" width="10.36" height="10.36"/>
	<rect x="114.67" y="87.74" class="st0" width="10.36" height="10.36"/>
	<rect x="130.2" y="103.28" class="st0" width="10.36" height="10.36"/>
	<rect x="114.67" y="103.28" class="st0" width="10.36" height="10.36"/>
	<rect x="130.2" y="118.81" class="st0" width="10.36" height="10.36"/>
	<rect x="114.67" y="118.81" class="st0" width="10.36" height="10.36"/>
	<rect x="99.13" y="72.2" class="st0" width="10.36" height="10.36"/>
	<rect x="83.59" y="72.2" class="st0" width="10.36" height="10.36"/>
	<rect x="161.28" y="46.31" class="st0" width="10.36" height="88.04"/>
	<rect x="176.81" y="46.31" class="st0" width="10.36" height="88.04"/>
	<rect x="192.35" y="46.31" class="st0" width="10.36" height="88.04"/>
	<rect x="207.88" y="46.31" class="st0" width="10.36" height="160.54"/>
	<rect x="36.98" y="134.35" class="st0" width="10.36" height="20.71"/>
	<rect x="52.52" y="134.35" class="st0" width="10.36" height="20.71"/>
	<rect x="68.06" y="134.35" class="st0" width="10.36" height="20.71"/>
	<rect x="83.59" y="134.35" class="st0" width="10.36" height="20.71"/>
	<rect x="119.85" y="165.42" class="st0" width="51.79" height="10.36"/>
	<rect x="119.85" y="180.96" class="st0" width="51.79" height="10.36"/>
	<rect x="119.85" y="196.49" class="st0" width="51.79" height="10.36"/>
	<rect x="119.85" y="212.03" class="st0" width="51.79" height="10.36"/>
	<rect x="36.98" y="160.24" class="st0" width="10.36" height="20.71"/>
	<rect x="52.52" y="160.24" class="st0" width="10.36" height="20.71"/>
	<rect x="68.06" y="160.24" class="st0" width="10.36" height="20.71"/>
	<rect x="83.59" y="160.24" class="st0" width="10.36" height="20.71"/>
	<rect x="36.98" y="186.14" class="st0" width="10.36" height="20.72"/>
	<rect x="52.52" y="186.14" class="st0" width="10.36" height="20.72"/>
	<rect x="68.06" y="186.14" class="st0" width="10.36" height="20.72"/>
	<rect x="83.59" y="186.14" class="st0" width="10.36" height="20.72"/>
	<rect x="36.98" y="212.03" class="st0" width="10.36" height="20.72"/>
	<rect x="52.52" y="212.03" class="st0" width="10.36" height="20.72"/>
	<rect x="68.06" y="212.03" class="st0" width="10.36" height="20.72"/>
	<rect x="83.59" y="212.03" class="st0" width="10.36" height="20.72"/>
	<path class="st0" d="M213.06,33.36h-46.61c-1.43,0-2.59-1.16-2.59-2.59V15.24c0-1.43,1.16-2.59,2.59-2.59h46.61
		c1.43,0,2.59,1.16,2.59,2.59v15.54C215.65,32.2,214.49,33.36,213.06,33.36z M169.04,28.18h41.43V17.83h-41.43V28.18z"/>
</g>
</svg>
