<?xml version="1.0" encoding="utf-8"?>
<!-- Generator: Adobe Illustrator 24.0.0, SVG Export Plug-In . SVG Version: 6.00 Build 0)  -->
<svg version="1.1" id="Layer_1" xmlns="http://www.w3.org/2000/svg" xmlns:xlink="http://www.w3.org/1999/xlink" x="0px" y="0px"
	 viewBox="0 0 256 256" style="enable-background:new 0 0 256 256;" xml:space="preserve">
<style type="text/css">
	.st0{fill:#FFFFFF;stroke:#FFFFFF;stroke-miterlimit:10;}
	.st1{fill:none;stroke:#FFFFFF;stroke-miterlimit:10;}
</style>
<path class="st0" d="M59.7,246.45c-2.51-0.54-5.07-0.92-7.53-1.64c-22.79-6.63-36.76-21.61-41.02-44.94
	c-5.29-28.98,15.44-57.94,44.5-62.91c30.02-5.14,57.61,13.08,64.03,42.85c6.82,31.67-14.7,60.59-44.07,65.75
	c-1.33,0.23-2.63,0.59-3.95,0.89C67.67,246.45,63.69,246.45,59.7,246.45z M79.55,197.04c11.34,5.08,18.55,13.66,21.67,25.71
	c15.92-16.74,17.47-47.52-3.33-66.76c-20.21-18.69-52.62-16.15-69.73,5.54c-16.76,21.23-10.88,48.88,1.96,61.1
	c3.09-12.02,10.34-20.55,21.69-25.62c-11.59-10.7-8.97-25.27-1.46-32.58c8.22-8,21.21-8.3,29.81-0.75
	C87.82,170.4,91.81,185.54,79.55,197.04z M65.76,239.09c8.81-0.2,17.13-2.29,24.62-7.02c4.85-3.06,4.59-1.68,3.37-7.72
	c-2.66-13.22-15.77-23.23-29.17-22.46c-14.44,0.84-26.1,11.7-27.55,25.53c-0.17,1.59,0.38,2.35,1.55,3.15
	C46.78,236.19,55.86,238.91,65.76,239.09z M51.4,180.09c0.03,7.88,6.54,14.31,14.38,14.21c7.94-0.1,14.2-6.47,14.18-14.42
	c-0.03-7.89-6.5-14.28-14.39-14.19C57.62,165.79,51.37,172.13,51.4,180.09z"/>
<path class="st0" d="M245.96,102.47c-2.48,3.34-4.19,3.52-7.3,0.78c-6.5-5.72-13.01-11.44-19.52-17.15
	c-0.73-0.64-1.5-1.25-2.47-2.05c0,18.62,0,36.96,0,55.49c3.48,0,7.03,0,10.89,0c0-0.76,0-1.57,0-2.39c0-8.05,0-16.1,0-24.15
	c0-2.98,1.25-4.53,3.62-4.56c2.4-0.03,3.72,1.53,3.72,4.46c0.01,9.89,0.01,19.78,0,29.67c0,3.31-1.22,4.5-4.61,4.5
	c-34.95,0-69.9,0-104.85,0c-3.37,0-4.58-1.19-4.58-4.53c-0.01-9.89-0.01-19.78,0-29.67c0-2.94,1.33-4.48,3.75-4.43
	c2.3,0.04,3.59,1.58,3.6,4.36c0.01,8.05,0,16.1,0,24.15c0,0.83,0,1.66,0,2.63c3.72,0,7.27,0,10.93,0c0-18.46,0-36.83,0-55.66
	c-0.83,0.69-1.5,1.21-2.13,1.78c-6.45,5.77-12.9,11.56-19.36,17.33c-0.68,0.61-1.38,1.24-2.16,1.69c-1.61,0.92-3.14,0.58-4.38-0.71
	c-1.26-1.31-1.42-2.87-0.49-4.42c0.38-0.64,0.98-1.17,1.55-1.67c8.51-7.61,17.02-15.23,25.58-22.78c1.15-1.02,1.62-2.05,1.53-3.55
	c-0.11-1.83-0.08-3.68-0.01-5.52c0.08-2.18,1.56-3.6,3.63-3.62c2.07-0.01,3.56,1.41,3.69,3.56c0.04,0.61,0.01,1.23,0.01,1.84
	c0,22.92,0,45.84,0,68.76c0,0.92,0,1.83,0,2.93c20.81,0,41.53,0,62.55,0c0-0.85,0-1.74,0-2.63c0-23.07,0-46.15,0-69.22
	c0-0.69-0.05-1.39,0.03-2.07c0.22-1.86,1.71-3.16,3.6-3.18c1.89-0.02,3.41,1.25,3.69,3.09c0.05,0.3,0.08,0.62,0.02,0.92
	c-1.22,5.79,1.68,9.39,5.98,12.84c7.11,5.7,13.8,11.92,20.64,17.95c1.01,0.89,1.89,1.94,2.83,2.91
	C245.96,100.94,245.96,101.71,245.96,102.47z"/>
<path class="st0" d="M117.65,246.45c-1.64-1.2-2.85-2.65-2.14-4.82c0.72-2.18,2.49-2.56,4.59-2.56c28.11,0.04,56.23,0.04,84.34,0.02
	c9.26-0.01,16.53-5.42,18.75-13.93c0.35-1.32,0.63-2.71,0.63-4.07c0.04-16.55,0.03-33.09,0.03-49.98c-0.62,0.49-1.08,0.79-1.47,1.17
	c-2.19,2.14-4.3,4.37-6.55,6.44c-1.61,1.48-3.74,1.37-5.17-0.05c-1.41-1.4-1.54-3.64-0.05-5.16c4.71-4.82,9.48-9.59,14.29-14.31
	c1.57-1.54,3.59-1.61,5.16-0.1c5.35,5.15,10.6,10.39,15.89,15.59c0,1.07,0,2.15,0,3.22c-2.79,2.69-4.38,2.69-7.16-0.01
	c-2.38-2.31-4.76-4.61-7.56-7.31c0,1.48,0,2.3,0,3.12c0,15.64,0.02,31.28-0.01,46.91c-0.02,11.32-7.18,21.1-17.95,24.61
	c-1.36,0.44-2.74,0.81-4.11,1.22C178.66,246.45,148.15,246.45,117.65,246.45z"/>
<path class="st0" d="M33.11,115.73c2.39-2.46,4.76-4.95,7.19-7.38c1.98-1.98,3.98-2.13,5.66-0.53c1.74,1.66,1.61,3.76-0.44,5.83
	c-4.48,4.52-8.97,9.02-13.49,13.5c-2.19,2.17-4.04,2.19-6.18,0.08c-4.63-4.58-9.24-9.19-13.82-13.82c-1.89-1.9-2.04-4.09-0.5-5.68
	c1.59-1.64,3.87-1.51,5.84,0.51c2.44,2.5,4.77,5.09,7.15,7.65c0.24-0.16,0.47-0.31,0.71-0.47c0-0.81,0-1.62,0-2.43
	c0-25.14,0-50.29,0-75.43c0-13.84,8.58-24.03,22.25-26.43c0.97-0.17,1.98-0.17,2.98-0.17c31.81-0.01,63.61-0.01,95.42-0.01
	c2.61,0,4.11,1.06,4.41,3.06c0.28,1.82-0.79,3.68-2.52,4.13c-0.8,0.21-1.67,0.15-2.51,0.15c-19.54,0.01-39.09,0.01-58.63,0.01
	c-11.42,0-22.84-0.01-34.26,0c-11.92,0.01-19.77,7.8-19.78,19.66c-0.02,25.14,0,50.29,0,75.43c0,0.68,0,1.35,0,2.03
	C32.75,115.52,32.93,115.62,33.11,115.73z"/>
<path class="st0" d="M166.86,80.85c-2.6,0-4.96,0.02-7.32-0.01c-3.47-0.04-5.52-2.11-5.55-5.61c-0.03-3.6-0.02-7.2,0-10.81
	c0.02-3.61,2.08-5.62,5.74-5.65c2.29-0.02,4.57,0,7.13,0c0-2.51-0.02-4.86,0-7.21c0.03-3.62,2.08-5.65,5.72-5.67
	c3.6-0.02,7.2-0.03,10.81,0c3.46,0.03,5.5,2.11,5.53,5.62c0.02,2.3,0,4.59,0,7.25c2.41,0,4.75-0.01,7.09,0
	c3.77,0.02,5.77,2.03,5.78,5.84c0.02,3.53,0.02,7.05,0,10.58c-0.03,3.61-2.08,5.63-5.74,5.65c-2.29,0.02-4.57,0-7.14,0
	c0,2.51,0.02,4.86,0,7.2c-0.03,3.62-2.08,5.65-5.72,5.67c-3.6,0.02-7.2,0.03-10.81,0c-3.46-0.03-5.5-2.12-5.53-5.62
	C166.84,85.81,166.86,83.51,166.86,80.85z M174.21,53.36c0,2.84,0.01,5.58,0,8.32c-0.02,3.21-1.24,4.43-4.43,4.45
	c-2.8,0.01-5.59,0-8.31,0c0,2.65,0,4.92,0,7.37c2.79,0,5.46-0.01,8.13,0c3.47,0.01,4.61,1.18,4.62,4.72c0.01,2.66,0,5.31,0,8.01
	c2.58,0,4.9,0,7.36,0c0-2.9-0.01-5.65,0-8.39c0.02-3.06,1.26-4.31,4.31-4.33c2.8-0.02,5.61,0,8.39,0c0-2.62,0-4.94,0-7.37
	c-2.92,0-5.67,0.02-8.43,0c-3.02-0.02-4.26-1.29-4.28-4.36c-0.02-2.8,0-5.6,0-8.4C178.97,53.36,176.71,53.36,174.21,53.36z"/>
<path class="st0" d="M178.02,19.63c-5.29,4.72-10.54,9.4-15.78,14.09c-9.65,8.62-19.31,17.24-28.96,25.87
	c-1.46,1.3-3.03,1.78-4.81,0.72c-1.5-0.9-2.03-2.32-1.6-3.94c0.22-0.83,0.77-1.69,1.41-2.27c15.62-14.02,31.26-28.01,46.92-41.97
	c2.01-1.79,3.68-1.72,5.89,0.25c10.87,9.67,21.72,19.37,32.57,29.06c4.68,4.18,9.38,8.35,14.03,12.57c2.03,1.85,2.22,3.92,0.67,5.62
	c-1.61,1.77-3.67,1.71-5.86-0.25c-6.06-5.4-12.1-10.83-18.15-16.24C195.62,35.35,186.88,27.55,178.02,19.63z"/>
<path class="st1" d="M174.21,53.36c2.49,0,4.76,0,7.36,0c0,2.8-0.01,5.6,0,8.4c0.02,3.08,1.25,4.34,4.28,4.36
	c2.75,0.02,5.5,0,8.43,0c0,2.42,0,4.75,0,7.37c-2.78,0-5.59-0.01-8.39,0c-3.04,0.02-4.29,1.27-4.31,4.33c-0.02,2.75,0,5.49,0,8.39
	c-2.46,0-4.79,0-7.36,0c0-2.69,0-5.35,0-8.01c-0.01-3.54-1.15-4.71-4.62-4.72c-2.67-0.01-5.33,0-8.13,0c0-2.45,0-4.72,0-7.37
	c2.72,0,5.52,0.01,8.31,0c3.19-0.02,4.41-1.24,4.43-4.45C174.22,58.94,174.21,56.21,174.21,53.36z"/>
</svg>
