<?xml version="1.0" encoding="utf-8"?>
<!-- Generator: Adobe Illustrator 24.0.0, SVG Export Plug-In . SVG Version: 6.00 Build 0)  -->
<svg version="1.1" id="Layer_1" xmlns="http://www.w3.org/2000/svg" xmlns:xlink="http://www.w3.org/1999/xlink" x="0px" y="0px"
	 viewBox="0 0 512 512" style="enable-background:new 0 0 512 512;" xml:space="preserve">
<style type="text/css">
	.st0{clip-path:url(#SVGID_2_);}
</style>
<g>
	<defs>
		<rect id="SVGID_1_" width="512" height="512"/>
	</defs>
	<clipPath id="SVGID_2_">
		<use xlink:href="#SVGID_1_"  style="overflow:visible;"/>
	</clipPath>
	<path class="st0" d="M472,472H264v-72c0-4.42-3.58-8-8-8h-64c-4.42,0-8,3.58-8,8v12.69L139.31,368L184,323.31V336
		c0,4.42,3.58,8,8,8h64c4.42,0,8-3.58,8-8v-72h64v48h-24c-3.23,0-6.16,1.94-7.39,4.94c-1.24,2.99-0.55,6.43,1.74,8.72l64,64
		c3.13,3.13,8.18,3.13,11.31,0l64-64c2.29-2.29,2.98-5.73,1.74-8.72c-1.23-2.99-4.16-4.94-7.39-4.94h-24v-48h64V472z M40,264h72
		c4.42,0,8-3.58,8-8v-64c0-4.42-3.58-8-8-8H99.31L144,139.31L188.69,184H176c-4.42,0-8,3.58-8,8v64c0,4.42,3.58,8,8,8h72v64h-48v-24
		c0-3.23-1.94-6.16-4.94-7.39c-2.99-1.24-6.43-0.55-8.72,1.74l-64,64c-3.13,3.13-3.13,8.18,0,11.31l64,64
		c2.3,2.3,5.73,2.98,8.72,1.74c2.99-1.23,4.94-4.16,4.94-7.39v-24h48v64H40V264z M40,40h208v72c0,4.42,3.58,8,8,8h64
		c4.42,0,8-3.58,8-8V99.31L372.69,144L328,188.69V176c0-4.42-3.58-8-8-8h-64c-4.42,0-8,3.58-8,8v72h-64v-48h24
		c3.23,0,6.16-1.94,7.39-4.94c1.24-2.99,0.55-6.43-1.74-8.72l-64-64c-3.13-3.13-8.18-3.13-11.31,0l-64,64
		c-2.29,2.29-2.98,5.73-1.74,8.72c1.23,2.99,4.16,4.94,7.39,4.94h24v48H40V40z M472,248h-72c-4.42,0-8,3.58-8,8v64
		c0,4.42,3.58,8,8,8h12.69L368,372.69L323.31,328H336c4.42,0,8-3.58,8-8v-64c0-4.42-3.58-8-8-8h-72v-64h48v24
		c0,3.23,1.94,6.16,4.94,7.39c2.99,1.25,6.43,0.56,8.72-1.74l64-64c3.13-3.13,3.13-8.18,0-11.31l-64-64
		c-2.28-2.29-5.72-2.98-8.72-1.74C313.94,73.84,312,76.77,312,80v24h-48V40h208V248z M488,480V256V32c0-4.42-3.58-8-8-8H256H32
		c-4.42,0-8,3.58-8,8v224v224c0,4.42,3.58,8,8,8h224h224C484.42,488,488,484.42,488,480z"/>
</g>
</svg>
