<?xml version="1.0" encoding="utf-8"?>
<!-- Generator: Adobe Illustrator 23.1.0, SVG Export Plug-In . SVG Version: 6.00 Build 0)  -->
<svg version="1.1" id="Layer_1" xmlns="http://www.w3.org/2000/svg" xmlns:xlink="http://www.w3.org/1999/xlink" x="0px" y="0px"
	 viewBox="0 0 275 275" style="enable-background:new 0 0 275 275;" xml:space="preserve">
<style type="text/css">
	.st0{fill:#2E2F2F;}
</style>
<g>
	<path class="st0" d="M54.15,139c-1.92,0-3.22-0.35-3.9-1.04c-0.68-0.69-1.02-2.02-1.02-3.96v-4.22l3.48-0.74v7.03h11.35v-18.22
		h3.52v16.16c0,1.94-0.34,3.25-1.03,3.95c-0.69,0.7-1.99,1.05-3.91,1.05H54.15z"/>
	<path class="st0" d="M83.5,139l11.55-21.16h3.78L110.59,139h-3.88l-2.7-5.21H89.69l-2.7,5.21H83.5z M91.17,131.09h11.39
		l-5.71-10.83L91.17,131.09z"/>
	<path class="st0" d="M134.21,139l-11.55-21.16h3.8l9.35,17.64l8.93-17.64h3.5L137.17,139H134.21z"/>
	<path class="st0" d="M164.42,139v-21.16h3.54V139H164.42z"/>
	<path class="st0" d="M188.29,139v-21.16h2.22l15.84,14.15c0.36,0.32,0.74,0.71,1.15,1.16c0.41,0.45,0.82,0.95,1.25,1.5
		c-0.11-0.68-0.19-1.39-0.24-2.13c-0.05-0.74-0.08-1.76-0.08-3.07v-11.61h3.24V139h-1.98l-16.26-14.71
		c-0.08-0.07-0.2-0.17-0.36-0.32c-0.8-0.72-1.39-1.41-1.78-2.06c0.08,0.64,0.14,1.32,0.18,2.05c0.04,0.73,0.06,1.59,0.06,2.57V139
		H188.29z"/>
</g>
</svg>
