<?xml version="1.0" encoding="utf-8"?>
<!-- Generator: Adobe Illustrator 23.1.0, SVG Export Plug-In . SVG Version: 6.00 Build 0)  -->
<svg version="1.1" id="Layer_1" xmlns="http://www.w3.org/2000/svg" xmlns:xlink="http://www.w3.org/1999/xlink" x="0px" y="0px"
	 viewBox="0 0 100 25" style="enable-background:new 0 0 100 25;" xml:space="preserve">
<style type="text/css">
	.st0{display:none;fill:url(#SVGID_1_);}
	.st1{fill:#00A651;}
	.st2{fill:#808285;stroke:#808285;stroke-width:0.35;stroke-miterlimit:10;}
	.st3{fill:#808285;stroke:#808285;stroke-width:0.2;stroke-miterlimit:10;}
	.st4{fill:#808285;stroke:#808285;stroke-width:0.3;stroke-miterlimit:10;}
	.st5{fill:#808285;}
	.st6{fill:#808285;stroke:#808285;stroke-width:0.4;stroke-miterlimit:10;}
	.st7{fill:url(#SVGID_2_);}
	.st8{fill:url(#SVGID_3_);}
	.st9{fill:url(#SVGID_4_);}
</style>
<g>
	<g>
		<linearGradient id="SVGID_1_" gradientUnits="userSpaceOnUse" x1="68.5611" y1="6.5046" x2="68.5611" y2="17.0404">
			<stop  offset="5.618000e-03" style="stop-color:#A4CD39"/>
			<stop  offset="0.4775" style="stop-color:#00A651"/>
			<stop  offset="1" style="stop-color:#008E3C"/>
		</linearGradient>
		<path class="st0" d="M68.88,2.87l-4.2,3.49l3.76,3.58l4.2-3.5L68.88,2.87z M73.85,7.33l-4.2,3.49l3.76,3.58l4.2-3.49L73.85,7.33z
			 M59.51,10.83l3.76,3.58l4.2-3.49l-3.76-3.58L59.51,10.83z"/>
		<g>
			<path class="st1" d="M16.9,5.49h11.39v1.92h-4.37v13.94h-2.65V7.41H16.9V5.49z"/>
			<path class="st1" d="M29.97,8.44c1.36-1.31,2.86-2.18,4.5-2.62c0.38-0.12,1.56-0.33,2.86-0.33h1.96v1.92c0,0-0.83,0-1.57,0
				c-0.95,0-2.29,0.25-3.07,0.52c-1.03,0.36-1.88,0.88-2.55,1.56c-1.18,1.21-1.79,2.51-1.8,3.92c0,0.03,0,0.06,0,0.08
				c0,0.32,0.05,0.7,0.14,1.16c0.09,0.45,0.26,0.91,0.51,1.38c0.41,0.84,1.11,1.61,2.1,2.3c0.99,0.7,2.4,1.04,4.24,1.04h2v1.98H36.1
				c-2.61-0.08-4.63-0.88-6.04-2.39c-1.42-1.51-2.13-3.38-2.13-5.61C27.93,11.38,28.61,9.74,29.97,8.44z"/>
			<path class="st1" d="M41.54,21.35v-1.98l6.4,0c0.79,0,1.42-0.14,1.9-0.43c0.48-0.28,0.77-0.74,0.86-1.35
				c0-0.53-0.2-1.03-0.59-1.48c-0.4-0.45-2.09-1.34-2.25-1.4c-0.16-0.07-3.31-1.52-4.47-2.22c-0.53-0.32-0.94-0.69-1.23-1.11
				c-0.21-0.3-0.47-0.9-0.47-1.93s0.43-2.04,1.13-2.67c0.82-0.75,1.55-0.97,2.44-1.16c0.05-0.01,0.86-0.1,2.12-0.13
				c2.04-0.03,4.9,0,4.9,0v1.92h-5.81c-0.66,0-1.26,0.08-1.66,0.43c-0.48,0.42-0.69,0.77-0.67,1.44c0.02,0.57,0.08,0.87,0.72,1.39
				c0.64,0.53,1.5,0.88,2.18,1.18c0.68,0.3,2.71,1.22,2.86,1.3c0.13,0.07,1.26,0.76,1.47,0.93c0.34,0.29,0.67,0.61,0.98,0.97
				c0.5,0.58,0.75,1.31,0.75,2.18c0,0.22-0.01,0.46-0.04,0.73c-0.03,0.27-0.09,0.53-0.18,0.8c-0.21,0.65-0.63,1.24-1.28,1.78
				c-0.65,0.53-1.67,0.8-3.06,0.8C48.51,21.35,41.57,21.32,41.54,21.35z"/>
		</g>
		<path class="st2" d="M67.34,18.29c0.2,0.19,0.3,0.45,0.3,0.75v2.35h-0.36V19.1c0-0.02,0-0.04,0-0.06c0-0.02,0-0.04,0-0.06
			c-0.04-0.2-0.18-0.4-0.4-0.58c-0.23-0.18-0.52-0.27-0.88-0.27c-0.31,0-0.59,0.11-0.84,0.32c-0.25,0.21-0.37,0.45-0.37,0.7v2.23
			h-0.36v-2.4c0-0.07,0.01-0.14,0.04-0.22c0.02-0.08,0.07-0.16,0.12-0.25c0.1-0.17,0.28-0.33,0.51-0.48
			c0.23-0.15,0.54-0.24,0.91-0.28h0.1c0.09,0,0.18,0.01,0.28,0.03c0.1,0.02,0.21,0.05,0.31,0.09C66.92,17.95,67.14,18.1,67.34,18.29
			z M72.52,17.87c-0.19,0.03-0.38,0.1-0.56,0.2c-0.16,0.09-0.29,0.2-0.39,0.34v-0.58h-0.36v3.56h0.36v-1.87
			c0-0.46,0.14-0.79,0.43-1.02c0.14-0.12,0.3-0.21,0.47-0.26c0.29-0.09,0.49-0.08,0.62-0.08l0.06,0v-0.32l-0.02,0
			C73,17.82,72.74,17.82,72.52,17.87z M82.44,19.74c-0.27-0.23-1.01-0.37-1.45-0.46c-0.08-0.02-0.15-0.03-0.2-0.04
			c-0.39-0.09-0.84-0.24-0.78-0.71c0.06-0.45,0.56-0.44,0.92-0.43c0.04,0,0.08,0,0.12,0h1.41v-0.28h-1.87c-0.52,0-0.84,0.2-0.95,0.6
			c-0.1,0.35-0.11,0.86,0.97,1.15c0.12,0.03,0.24,0.07,0.35,0.09c0.92,0.25,1.33,0.36,1.38,0.71c0.03,0.24,0,0.41-0.12,0.52
			c-0.13,0.13-0.36,0.2-0.7,0.21c-0.76,0.01-1.88,0-1.89,0l-0.03,0v0.29h2.05c0.64,0,0.97-0.3,1.06-0.55
			C82.77,20.67,82.95,20.17,82.44,19.74z M68.87,16.83h-0.39v3.52c0,0.31,0.09,0.55,0.26,0.7c0.06,0.05,0.12,0.1,0.19,0.14l0,0
			c0.01,0.01,0.03,0.01,0.04,0.02c0.02,0.01,0.05,0.03,0.07,0.04c0.01,0,0.02,0.01,0.03,0.01c0.04,0.02,0.08,0.03,0.12,0.04
			c0.11,0.03,0.23,0.05,0.37,0.07c0.26,0.03,0.74,0.03,0.74,0.03l0.01-0.3c0,0-0.32,0.01-0.66-0.03c-0.19-0.03-0.38-0.11-0.54-0.2
			c-0.16-0.1-0.24-0.27-0.24-0.51v-2.24h1.44v-0.29h-1.44V16.83z M77.4,18.87c0.09,0.22,0.13,0.47,0.13,0.72
			c0,0.25-0.04,0.5-0.13,0.72c-0.09,0.23-0.22,0.43-0.39,0.6c-0.17,0.17-0.39,0.31-0.64,0.41c-0.25,0.1-0.54,0.15-0.87,0.15
			c-0.33,0-0.62-0.05-0.87-0.15c-0.25-0.1-0.47-0.24-0.64-0.41c-0.17-0.17-0.3-0.37-0.39-0.6c-0.09-0.23-0.13-0.47-0.13-0.72
			c0-0.25,0.04-0.5,0.13-0.72c0.09-0.22,0.22-0.43,0.39-0.6c0.17-0.17,0.39-0.31,0.64-0.41c0.25-0.1,0.54-0.15,0.87-0.15
			c0.32,0,0.62,0.05,0.87,0.15c0.25,0.1,0.47,0.24,0.64,0.41C77.18,18.45,77.31,18.65,77.4,18.87z M77.04,19
			c-0.07-0.19-0.18-0.36-0.32-0.51c-0.14-0.15-0.31-0.27-0.51-0.35C76,18.04,75.77,18,75.5,18c-0.27,0-0.5,0.04-0.71,0.13
			c-0.2,0.09-0.38,0.21-0.51,0.35c-0.14,0.15-0.24,0.32-0.32,0.51c-0.07,0.19-0.11,0.39-0.11,0.6c0,0.21,0.04,0.41,0.11,0.6
			c0.07,0.19,0.18,0.36,0.32,0.51c0.14,0.15,0.31,0.27,0.51,0.35c0.2,0.09,0.44,0.13,0.71,0.13c0.26,0,0.5-0.04,0.71-0.13
			c0.2-0.09,0.38-0.21,0.51-0.35c0.14-0.15,0.24-0.32,0.32-0.51c0.07-0.19,0.11-0.39,0.11-0.6C77.15,19.39,77.11,19.19,77.04,19z
			 M63.53,18.87c0.09,0.22,0.13,0.47,0.13,0.72c0,0.25-0.04,0.5-0.13,0.72c-0.09,0.23-0.22,0.43-0.39,0.6
			c-0.17,0.17-0.39,0.31-0.64,0.41c-0.25,0.1-0.54,0.15-0.87,0.15c-0.33,0-0.62-0.05-0.87-0.15c-0.25-0.1-0.47-0.24-0.64-0.41
			c-0.17-0.17-0.3-0.37-0.39-0.6c-0.09-0.23-0.13-0.47-0.13-0.72c0-0.25,0.04-0.5,0.13-0.72c0.09-0.22,0.22-0.43,0.39-0.6
			c0.17-0.17,0.39-0.31,0.64-0.41c0.25-0.1,0.54-0.15,0.87-0.15c0.32,0,0.62,0.05,0.87,0.15c0.25,0.1,0.47,0.24,0.64,0.41
			C63.31,18.45,63.44,18.65,63.53,18.87z M63.17,19c-0.07-0.19-0.18-0.36-0.32-0.51c-0.14-0.15-0.31-0.27-0.51-0.35
			c-0.2-0.09-0.44-0.13-0.71-0.13c-0.27,0-0.5,0.04-0.71,0.13c-0.2,0.09-0.38,0.21-0.51,0.35c-0.14,0.15-0.24,0.32-0.32,0.51
			c-0.07,0.19-0.11,0.39-0.11,0.6c0,0.21,0.04,0.41,0.11,0.6c0.07,0.19,0.18,0.36,0.32,0.51c0.14,0.15,0.31,0.27,0.51,0.35
			c0.2,0.09,0.44,0.13,0.71,0.13c0.26,0,0.5-0.04,0.71-0.13c0.2-0.09,0.38-0.21,0.51-0.35c0.14-0.15,0.24-0.32,0.32-0.51
			c0.07-0.19,0.11-0.39,0.11-0.6C63.27,19.39,63.24,19.19,63.17,19z M78.31,21.39h0.41V16.1h-0.41V21.39z M55.81,17.47
			c-0.31,0.45-0.44,1.08-0.36,1.68c0.05,0.33,0.17,0.61,0.28,0.84c0.09,0.19,0.37,0.6,0.83,0.87c0.63,0.39,1.46,0.61,2.31,0.61
			c0.11,0,0.23,0,0.35-0.01l0.03,0v-0.35h-0.03c-0.01,0-0.02,0-0.04,0c-0.69,0.02-1.96-0.06-2.74-0.84
			c-0.57-0.59-0.61-1.55-0.4-2.19c0.3-0.81,0.89-1.17,1.21-1.32c0.51-0.23,1.12-0.32,1.97-0.29l0.03,0V16.1l-0.03,0
			C57.39,16.07,56.53,16.42,55.81,17.47z"/>
		<g>
			<g>
				<path class="st3" d="M64.43,21.37v-2.39c0-0.07,0.01-0.14,0.04-0.22c0.02-0.08,0.06-0.16,0.12-0.24c0.1-0.17,0.27-0.33,0.5-0.47
					c0.23-0.15,0.53-0.24,0.9-0.28h0.1c0.09,0,0.18,0.01,0.28,0.03c0.1,0.02,0.2,0.05,0.31,0.09c0.23,0.09,0.45,0.23,0.65,0.42
					c0.2,0.19,0.3,0.44,0.3,0.74v2.33H67.3V19.1c0-0.02,0-0.04,0-0.06c0-0.02,0-0.04,0-0.06c-0.04-0.21-0.18-0.41-0.41-0.59
					s-0.53-0.27-0.9-0.27c-0.32,0-0.6,0.11-0.85,0.32c-0.25,0.22-0.38,0.45-0.38,0.72v2.21H64.43z"/>
				<path class="st3" d="M71.55,18.47c0.1-0.16,0.24-0.29,0.42-0.39c0.18-0.1,0.36-0.16,0.55-0.2c0.23-0.05,0.5-0.05,0.6-0.04
					c0,0.06,0,0.23,0,0.29c-0.13,0-0.34-0.01-0.66,0.08c-0.17,0.06-0.33,0.15-0.48,0.27c-0.29,0.23-0.43,0.57-0.43,1.04v1.85h-0.32
					v-3.53h0.32V18.47z"/>
			</g>
			<path class="st4" d="M79.66,18.43c-0.1,0.35-0.1,0.83,0.95,1.12c1.16,0.32,1.7,0.41,1.76,0.83c0.06,0.41-0.07,0.75-0.84,0.76
				c-0.77,0.01-1.89,0-1.89,0v0.23c0,0,1.39,0,2.02,0c0.63,0,0.95-0.3,1.03-0.53c0.08-0.23,0.2-0.68-0.27-1.07
				c-0.31-0.26-1.32-0.42-1.63-0.49c-0.31-0.07-0.87-0.22-0.8-0.74c0.07-0.53,0.7-0.46,1.06-0.46c0.37,0,1.38,0,1.38,0v-0.22
				c0,0-1.18,0-1.84,0C79.92,17.85,79.72,18.19,79.66,18.43z"/>
			<path class="st5" d="M70.31,18.11v-0.29h-1.44v-1h-0.39v3.52c0,0.31,0.09,0.55,0.26,0.7c0.06,0.05,0.12,0.1,0.19,0.14l0,0
				c0.01,0.01,0.03,0.01,0.04,0.02c0.02,0.01,0.05,0.03,0.07,0.04c0.01,0,0.02,0.01,0.03,0.01c0.04,0.02,0.08,0.03,0.12,0.04
				c0.11,0.03,0.23,0.05,0.37,0.07c0.26,0.03,0.74,0.03,0.74,0.03l0.01-0.3c0,0-0.32,0.01-0.66-0.03c-0.19-0.03-0.38-0.11-0.54-0.2
				c-0.16-0.1-0.24-0.27-0.24-0.51v-2.24H70.31z"/>
			<path class="st4" d="M73.5,19.6c0-0.25,0.04-0.49,0.13-0.71c0.09-0.22,0.22-0.42,0.39-0.59c0.17-0.17,0.38-0.3,0.63-0.4
				c0.25-0.1,0.53-0.15,0.86-0.15c0.32,0,0.61,0.05,0.86,0.15c0.25,0.1,0.46,0.23,0.63,0.4c0.17,0.17,0.3,0.37,0.39,0.59
				c0.09,0.22,0.13,0.46,0.13,0.71c0,0.25-0.04,0.49-0.13,0.72c-0.09,0.22-0.22,0.42-0.39,0.59c-0.17,0.17-0.38,0.3-0.63,0.4
				c-0.25,0.1-0.53,0.15-0.86,0.15c-0.32,0-0.61-0.05-0.86-0.15c-0.25-0.1-0.46-0.23-0.63-0.4c-0.17-0.17-0.3-0.36-0.39-0.59
				C73.54,20.09,73.5,19.85,73.5,19.6z M73.82,19.6c0,0.21,0.04,0.41,0.11,0.61c0.07,0.19,0.18,0.37,0.32,0.52
				c0.14,0.15,0.32,0.27,0.53,0.36c0.21,0.09,0.45,0.13,0.72,0.13c0.27,0,0.51-0.04,0.72-0.13c0.21-0.09,0.38-0.21,0.53-0.36
				c0.14-0.15,0.25-0.32,0.32-0.52c0.07-0.19,0.11-0.4,0.11-0.61c0-0.21-0.04-0.41-0.11-0.61c-0.07-0.19-0.18-0.37-0.32-0.52
				c-0.14-0.15-0.32-0.27-0.53-0.36c-0.21-0.09-0.45-0.13-0.72-0.13c-0.27,0-0.51,0.04-0.72,0.13c-0.21,0.09-0.38,0.21-0.53,0.36
				c-0.14,0.15-0.25,0.32-0.32,0.52C73.86,19.18,73.82,19.38,73.82,19.6z"/>
			<path class="st4" d="M59.63,19.6c0-0.25,0.04-0.49,0.13-0.71c0.09-0.22,0.22-0.42,0.39-0.59c0.17-0.17,0.38-0.3,0.63-0.4
				c0.25-0.1,0.53-0.15,0.86-0.15c0.32,0,0.61,0.05,0.86,0.15c0.25,0.1,0.46,0.23,0.63,0.4c0.17,0.17,0.3,0.37,0.39,0.59
				c0.09,0.22,0.13,0.46,0.13,0.71c0,0.25-0.04,0.49-0.13,0.72c-0.09,0.22-0.22,0.42-0.39,0.59c-0.17,0.17-0.38,0.3-0.63,0.4
				c-0.25,0.1-0.53,0.15-0.86,0.15c-0.32,0-0.61-0.05-0.86-0.15c-0.25-0.1-0.46-0.23-0.63-0.4c-0.17-0.17-0.3-0.36-0.39-0.59
				C59.67,20.09,59.63,19.85,59.63,19.6z M59.95,19.6c0,0.21,0.04,0.41,0.11,0.61c0.07,0.19,0.18,0.37,0.32,0.52
				c0.14,0.15,0.32,0.27,0.53,0.36c0.21,0.09,0.45,0.13,0.72,0.13c0.27,0,0.51-0.04,0.72-0.13c0.21-0.09,0.38-0.21,0.53-0.36
				c0.14-0.15,0.25-0.32,0.32-0.52c0.07-0.19,0.11-0.4,0.11-0.61c0-0.21-0.04-0.41-0.11-0.61c-0.07-0.19-0.18-0.37-0.32-0.52
				c-0.14-0.15-0.32-0.27-0.53-0.36c-0.21-0.09-0.45-0.13-0.72-0.13c-0.27,0-0.51,0.04-0.72,0.13c-0.21,0.09-0.38,0.21-0.53,0.36
				c-0.14,0.15-0.25,0.32-0.32,0.52C59.99,19.18,59.95,19.38,59.95,19.6z"/>
			<rect x="78.35" y="16.14" class="st6" width="0.32" height="5.22"/>
			<path class="st4" d="M59.22,16.13c-1.85-0.03-2.68,0.33-3.38,1.36c-0.32,0.48-0.43,1.12-0.35,1.67c0.04,0.32,0.16,0.6,0.28,0.84
				c0.08,0.17,0.35,0.58,0.82,0.86c0.67,0.42,1.63,0.66,2.64,0.59c0-0.15,0-0.24,0-0.3c-0.13,0-1.83,0.12-2.81-0.85
				c-0.55-0.57-0.64-1.51-0.41-2.22c0.27-0.72,0.78-1.13,1.23-1.33c0.45-0.2,1.03-0.32,1.99-0.29
				C59.22,16.29,59.22,16.13,59.22,16.13z"/>
		</g>
	</g>
	<g>
		<linearGradient id="SVGID_2_" gradientUnits="userSpaceOnUse" x1="69.1215" y1="5.8629" x2="69.1215" y2="18.1729">
			<stop  offset="0.0349" style="stop-color:#A4CD39"/>
			<stop  offset="0.117" style="stop-color:#8CC63F"/>
			<stop  offset="0.2893" style="stop-color:#3CB54A"/>
			<stop  offset="0.4575" style="stop-color:#00A651"/>
			<stop  offset="0.604" style="stop-color:#00A04C"/>
			<stop  offset="0.8716" style="stop-color:#009542"/>
			<stop  offset="1" style="stop-color:#008E3C"/>
		</linearGradient>
		<polygon class="st7" points="69.12,10.03 65.09,6.44 69.12,2.85 73.15,6.44 		"/>
		<linearGradient id="SVGID_3_" gradientUnits="userSpaceOnUse" x1="74.2725" y1="5.8629" x2="74.2725" y2="18.1729">
			<stop  offset="0.0349" style="stop-color:#A4CD39"/>
			<stop  offset="0.117" style="stop-color:#8CC63F"/>
			<stop  offset="0.2893" style="stop-color:#3CB54A"/>
			<stop  offset="0.4575" style="stop-color:#00A651"/>
			<stop  offset="0.604" style="stop-color:#00A04C"/>
			<stop  offset="0.8716" style="stop-color:#009542"/>
			<stop  offset="1" style="stop-color:#008E3C"/>
		</linearGradient>
		<polygon class="st8" points="74.27,14.61 70.24,11.03 74.27,7.44 78.3,11.03 		"/>
		
			<linearGradient id="SVGID_4_" gradientUnits="userSpaceOnUse" x1="-263.2029" y1="5.8629" x2="-263.2029" y2="18.1729" gradientTransform="matrix(-1 0 0 1 -199.2835 0)">
			<stop  offset="0.0349" style="stop-color:#A4CD39"/>
			<stop  offset="0.117" style="stop-color:#8CC63F"/>
			<stop  offset="0.2893" style="stop-color:#3CB54A"/>
			<stop  offset="0.4575" style="stop-color:#00A651"/>
			<stop  offset="0.604" style="stop-color:#00A04C"/>
			<stop  offset="0.8716" style="stop-color:#009542"/>
			<stop  offset="1" style="stop-color:#008E3C"/>
		</linearGradient>
		<polygon class="st9" points="63.92,14.61 67.95,11.03 63.92,7.44 59.89,11.03 		"/>
	</g>
</g>
</svg>
