<?xml version="1.0" encoding="utf-8"?>
<!-- Generator: Adobe Illustrator 24.0.0, SVG Export Plug-In . SVG Version: 6.00 Build 0)  -->
<svg version="1.1" id="Layer_1" xmlns="http://www.w3.org/2000/svg" xmlns:xlink="http://www.w3.org/1999/xlink" x="0px" y="0px"
	 viewBox="0 0 2761 991" style="enable-background:new 0 0 2761 991;" xml:space="preserve">
<style type="text/css">
	.st0{fill:#1B2A4E;}
	.st1{fill:none;}
</style>
<g>
	<path class="st0" d="M1346.6,632.28c-1.68-0.47-3.51-0.37-3.6-2.65c-0.01-0.36-0.91-0.92-1.44-0.98c-1.85-0.21-1.33-1.93-2.01-2.86
		c-0.78-1.05-2.8,0.04-3.16-1.62c-0.31-1.44-0.9-2.26-2.43-2.49c-0.5-0.08-0.94-0.75-1.33-1.22c-0.4-0.47-0.66-1.44-1.04-1.47
		c-1.98-0.17-2.13-2.22-3.37-3c-1.37-0.87-2.33-2.08-3.48-3.09c-1.88-1.65-3.96-3.08-5.73-4.91c-1.86-1.91-3.86-3.68-5.83-5.47
		c-2.07-1.87-3.61-4.25-6.13-5.73c-1.41-0.83-2.59-2.35-3.42-3.81c-1.58-2.79-4.12-4.72-6.07-7.17c-1.28-1.61-2.94-3.04-4.43-4.56
		c-0.78-0.8-1.62-1.42-2.05-2.51c-0.2-0.51-0.78-1.07-1.29-1.2c-1.37-0.36-1.59-1.32-1.81-2.49c-0.09-0.5-0.67-1.24-1.09-1.29
		c-1.53-0.18-2.2-0.9-2.41-2.42c-0.19-1.44-1.83-1-2.68-1.7c-0.29-0.85-0.58-1.74-0.86-2.56c-0.91-0.25-1.67-0.45-2.5-0.68
		c-0.15-0.41-0.33-0.84-0.47-1.28c-0.09-0.3-0.11-0.63-0.19-0.93c-0.42-1.58-2.48-0.71-3.02-1.93c-0.44-0.99-0.35-2.24-1.82-2.48
		c-0.45-0.07-1.2-0.29-1.25-0.54c-0.34-2.1-1.9-3.03-3.5-4c-0.19-0.12-0.1-0.63-0.25-0.9c-0.29-0.55-0.56-1.41-1-1.52
		c-2.02-0.5-2.46-2.22-3.3-3.71c-0.45-0.81-1-1.71-1.75-2.18c-1.28-0.81-1.16-2.18-1.77-3.22c-0.48-0.82-1.73-1.16-2.51-1.85
		c-0.29-0.25-0.11-0.97-0.34-1.35c-0.3-0.5-0.74-1.17-1.22-1.25c-1.42-0.25-2.4-0.72-2.46-2.37c-0.01-0.34-0.54-0.9-0.88-0.94
		c-1.62-0.19-2.1-1.2-2.22-2.62c-0.02-0.29-0.2-0.75-0.41-0.82c-2.95-1.01-3-3.82-3.88-6.15c-0.79-0.86-2.72-0.3-2.79-2.1
		c-0.06-1.46-0.61-2.4-2.19-2.61c-0.35-0.05-0.91-0.58-0.91-0.9c-0.04-1.56-1.16-1.96-2.21-2.74c-0.89-0.66-1.29-2.11-1.67-3.29
		c-0.39-1.23-0.53-2.42-2.13-2.83c-0.5-0.13-1-1.21-1.07-1.9c-0.18-1.8-1.57-1.75-3-2.13c-0.6-2.31-1.14-4.77-3.26-6.54
		c-0.71-0.59-0.71-2.02-1.03-3.04c-0.97-0.36-1.84-0.69-2.83-1.06c-0.98-6.21-0.07-12.39-0.05-18.58c1.1-0.56,2.24-0.77,2.66-1.45
		c0.54-0.86,0.61-2.07,0.68-3.15c0.15-2.23,0.17-4.47,0.23-6.7c0.06-1.9,0.65-3.46,2.94-4.03c0.04-1.86,0.07-3.59,0.12-5.32
		c0.04-1.44,0.05-2.88,0.15-4.31c0.14-2.03,0.49-3.95,3.12-3.91c0.16-3.59,0.24-6.78,0.46-9.96c0.1-1.42,0.35-2.81,2.08-3.43
		c0.52-0.18,0.91-1.23,1.01-1.93c0.18-1.26,0.08-2.55,0.12-3.83c0.07-2.2-0.01-4.27,2-6.04c1-0.88,1.14-2.89,1.39-4.44
		c0.25-1.57,0.17-3.19,0.18-4.78c0.01-1.91,0.43-3.52,2.76-3.75c0.17-2.7,0.35-5.08,0.45-7.46c0.08-1.99,0.53-3.82,2.26-5.01
		c1.08-0.74,1.22-1.77,1.26-2.92c0.09-2.38,0.22-4.76,0.33-7.04c1.06-0.6,1.87-1.06,2.96-1.69c0.11-2.4,0.19-4.93,0.38-7.45
		c0.06-0.75,0.22-1.89,0.69-2.13c2.36-1.18,2.07-3.38,2.36-5.38c0.05-0.31,0.05-0.64,0.02-0.96c-0.32-3.43,0.79-6.26,3.53-8.21
		c0.13-2.28,0.19-4.36,0.39-6.42c0.12-1.25,0.21-2.56,1.78-3.07c1.1-0.36,1.13-1.43,1.19-2.39c0.11-1.59,0.11-3.2,0.32-4.77
		c0.31-2.3,0.37-2.3,2.96-4.03c0.22-2.89,0.44-5.89,0.67-8.93c1.01-0.47,1.86-0.86,2.95-1.36c0.09-1.28,0.16-2.69,0.28-4.1
		c0.12-1.43,0.29-2.85,0.44-4.38c0.86-0.65,1.72-1.31,2.54-1.93c0.23-2.96,0.45-5.8,0.65-8.48c1.06-0.65,1.86-1.14,2.52-1.55
		c0.18-0.47,0.37-0.76,0.4-1.06c0.16-2.07,0.41-4.14,0.4-6.21c-0.01-1.87,1.26-2.35,2.81-2.95c0.28-1.93,0.57-3.95,0.86-6.01
		c1.96-0.81,3.88-0.65,5.76-0.72c1.28-0.05,2.57-0.02,3.82-0.22c1.77-0.28,3.48-0.79,4.11-2.98c3.95-0.08,7.76-0.14,11.58-0.23
		c2.24-0.05,4.48-0.09,6.71-0.21c0.59-0.03,1.48-0.16,1.71-0.55c1.3-2.22,3.47-2.04,5.5-2.13c3.83-0.16,7.67-0.25,11.51-0.25
		c40.14,0,80.27,0.01,120.41,0.04c4,0,7.99,0.18,11.99,0.3c1.93,0.06,3.77,0.24,5.31,1.74c0.59,0.58,1.72,0.79,2.62,0.83
		c3.19,0.16,6.39,0.2,9.59,0.22c3.67,0.03,7.35,0.01,10.94,0.01c1.31,1.39,1.66,3.43,3.82,3.55c0.4,0.02,0.94,0.83,1.08,1.37
		c0.3,1.1,1,1.54,2.02,1.75c0.29,0.06,0.66,0.24,0.79,0.48c0.8,1.42,0.33,3.61,2.55,4.17c0.41,1.51,0.84,3.02,1.21,4.54
		c0.15,0.62,0.26,1.26,0.26,1.89c0,1.92,1.19,2.82,3.04,3.42c0.16,2.01,0.25,4.06,0.52,6.09c0.18,1.38,0.26,2.87,2,3.5
		c1.01,0.37,1.11,1.46,1.17,2.44c0.11,1.59,0.15,3.2,0.39,4.77c0.2,1.36,0.16,2.91,2.07,3.41c0.42,0.11,0.71,1.3,0.79,2.03
		c0.25,2.37,0.37,4.75,0.54,7.1c1.12,0.67,2.04,1.22,3.02,1.81c0.19,2.94,0.37,5.8,0.56,8.71c0.83,0.57,1.6,1.09,2.58,1.76
		c0.21,2.69,0.43,5.55,0.66,8.5c0.89,0.64,1.76,1.28,2.83,2.05c0.17,2.76,0.35,5.61,0.54,8.69c0.7,0.44,1.48,0.92,2.59,1.61
		c0.26,1.79,0.66,3.81,0.81,5.86c0.19,2.56,0.13,5.09,2.56,6.86c0.49,0.36,0.55,1.45,0.61,2.21c0.19,2.38,0.28,4.77,0.4,7.02
		c2.92,2.24,2.96,2.24,3.12,5.53c0.09,1.74,0.02,3.49,0.02,5.22c0.97,0.67,1.99,1.05,2.44,1.77c0.56,0.9,0.78,2.08,0.9,3.16
		c0.18,1.58,0.13,3.19,0.21,4.79c0.12,2.32,0.7,4.38,3.31,5.31c0,3.04,0,5.9,0,8.7c0.96,0.9,2.02,1.5,2.46,2.4
		c0.54,1.11,0.66,2.46,0.77,3.72c0.17,1.91,0.31,3.83,0.23,5.74c-0.09,2.16,0.99,3.25,3.19,3.79c0.14,3.21,0.29,6.38,0.43,9.56
		c0.07,1.6,0.01,3.13,2.02,3.88c0.59,0.22,0.96,1.6,1.04,2.49c0.26,2.7,0.46,5.42,0.43,8.12c-0.02,1.78,0.93,2.55,2.52,3.2
		c0.99,3.98,0.33,8.17,0.92,12.25c0.18,0.26,0.31,0.57,0.54,0.77c0.78,0.71,2.3,0.69,2.31,2.14c0.01,1.45-0.17,2.95-1.4,3.91
		c-1.06,0.83-1.83,1.67-2,3.08c-0.05,0.41-0.84,0.76-1.33,1.08c-0.39,0.25-1.18,0.39-1.2,0.63c-0.19,2.77-2.82,4.13-3.67,6.49
		c-0.32,0.88-0.5,1.82-0.77,2.86c-0.84,0.26-1.73,0.53-2.76,0.85c-0.41,1.58-0.45,3.49-2.59,4.07c-0.28,0.08-0.44,0.79-0.57,1.24
		c-0.35,1.22-0.65,2.46-1.02,3.87c-1.56,0.58-3.04,1.3-3.29,3.42c-0.06,0.5-1.56,0.83-2.57,1.32c-0.28,1.59-0.73,3.18-2.24,4.39
		c-1.09,0.86-1.9,2.15-2,3.7c-0.06,0.96-0.72,1.33-1.59,1.44c-2.06,0.26-1.05,2.46-2.12,3.35c-0.89,0.74-2.74,0.02-2.89,1.92
		c-0.03,0.46-0.16,1.26-0.38,1.32c-2.14,0.54-2.93,2.18-3.53,4.02c-2.29,0.88-2.54,3.06-3.21,4.98c-0.1,0.3-0.26,0.58-0.46,1.02
		c-0.92,0.91-3.27,0.41-3.18,2.78c0.01,0.37-0.81,0.91-1.35,1.12c-1.01,0.39-1.56,1.02-1.7,2.08c-0.04,0.31-0.11,0.79-0.3,0.87
		c-1.75,0.78-3.29,1.68-3.57,3.85c-0.03,0.22-0.81,0.42-1.26,0.48c-1.12,0.13-1.64,0.71-1.86,1.81c-0.11,0.54-0.55,1.33-0.97,1.42
		c-1.54,0.34-2.07,1.26-2.18,2.71c-0.03,0.37-0.5,0.95-0.83,1c-1.69,0.23-2.51,1.21-2.78,2.79c-2.72,1.77-3.44,5.18-5.89,7.2
		c-1.48,1.22-1.93,3.54-4.23,3.96c-0.27,0.05-0.51,0.79-0.58,1.23c-0.16,1.05-0.55,1.73-1.73,1.93c-0.5,0.09-1.21,0.65-1.29,1.1
		c-0.24,1.28-0.94,1.86-2.1,2.31c-0.62,0.24-1.06,1.04-1.49,1.65c-0.26,0.36-0.36,1.21-0.53,1.21c-2.52-0.01-2.75,2.08-3.68,3.66
		c-0.49,0.84-2.37,0.22-2.57,1.71c-0.17,1.33-0.83,1.89-2.12,2.13c-0.46,0.09-0.83,0.84-1.18,1.33c-0.17,0.25-0.2,0.6-0.29,0.91
		c-0.47,1.6-2.48,0.62-3.1,1.81c-0.55,1.06-0.24,2.62-2.03,2.85c-1.07,0.13-1.69,0.84-1.78,1.94c-0.08,0.98-0.69,1.4-1.58,1.4
		c-1.91,0.01-1.34,1.89-2.13,2.73c-0.85,0.9-2.87,0.31-3.06,1.88c-0.2,1.63-1.16,1.89-2.35,2.51c-0.97,0.5-1.27,2.18-2.21,2.84
		c-0.99,0.69-2.43,0.67-2.61,2.36c-0.04,0.4-0.86,0.76-1.38,1.05c-0.41,0.23-0.98,0.21-1.32,0.49c-1.23,1.03-0.99,3.31-3.39,3.48
		c-1.62,0.12-2.55,1.71-3.66,2.87c-0.7,0.74-1.99,0.89-2.87,1.5c-0.73,0.51-0.33,1.94-1.55,2.2c-0.76,0.16-1.52,0.34-2.3,0.51
		c-0.28,1-0.54,1.89-0.78,2.72c-1.1,0.84-3.14,0.34-3.14,2.52c0,0.38-0.82,0.99-1.33,1.08c-1.24,0.21-2.09,0.66-2.33,1.99
		c-0.05,0.29-0.25,0.74-0.46,0.79c-3.15,0.77-4.42,4.57-7.86,4.87c-0.9,0.08-1.41,0.66-1.55,1.55c-0.11,0.69-0.44,1.28-1.17,1.27
		c-1.53-0.02-2.27,0.65-2.65,2.14c-0.14,0.54-1.16,0.86-1.79,1.26c-0.52,0.33-1.47,0.58-1.52,0.96c-0.26,2.14-1.98,2.2-3.44,2.72
		c-1.32,0.47-2.8,0.7-3.23,2.47c-0.1,0.4-1,0.89-1.51,0.86c-1.95-0.1-2.26,1.35-2.85,2.88c-3.88,0.68-7.82,0.61-11.85,0.02
		c-1.06-0.95-0.97-3.2-3.17-2.92c-0.27,0.03-0.76-0.15-0.84-0.35c-1.1-2.86-3.86-2.92-6.17-3.67c-1.12-0.85-0.79-2.93-2.73-3.04
		c-0.42-0.02-1.13-0.35-1.18-0.62c-0.35-2.12-1.8-2.72-3.66-2.96c-0.26-0.03-0.53-0.73-0.62-1.15c-0.18-0.89-0.66-1.37-1.53-1.59
		c-0.61-0.15-1.59-0.32-1.7-0.7c-0.79-2.59-3.15-2.8-5.11-3.68c-0.65-0.29-1.07-1.09-1.63-1.61c-0.55-0.51-1.08-1.16-1.75-1.4
		c-0.81-0.3-1.45-0.58-1.61-1.49c-0.14-0.87-0.62-1.6-1.5-1.61C1346.85,635.6,1347,633.95,1346.6,632.28z"/>
	<path class="st0" d="M1156.78,160.68c0.6-1.15,1.03-1.97,1.49-2.85c1.84-0.15,3.58-0.3,5.5-0.46c0.39-0.78,0.8-1.59,1.34-2.68
		c1.69-0.26,3.55-0.55,5.44-0.84c2.93-2.89,2.93-2.89,10.52-3.42c0.38-0.68,0.82-1.47,1.44-2.58c1.67-0.18,3.55-0.34,5.42-0.6
		c1.96-0.28,3.78-0.84,4.21-3.15c1.3-0.11,2.41-0.32,3.51-0.27c2.2,0.1,4.18-0.46,5.65-2.07c0.98-1.07,2.07-1.34,3.39-1.39
		c1.59-0.06,3.19-0.18,4.77-0.4c0.76-0.11,1.91-0.34,2.12-0.84c0.9-2.14,2.67-1.92,4.4-2c0.8-0.03,1.6-0.02,2.4-0.08
		c3.17-0.27,3.2-0.29,5.33-3.68c2.32,0,4.88,0.05,7.42-0.03c0.75-0.02,1.91-0.17,2.15-0.64c1.27-2.52,3.58-2.34,5.76-2.47
		c2.39-0.15,4.78-0.17,7.28-0.25c0.58-0.97,1.13-1.89,1.84-3.06c4.02-0.12,8.15-0.25,12.47-0.38c1.55-2.87,4.21-3.47,7.24-3.44
		c3.03,0.03,6.07-0.15,9.16-0.23c0.77-0.84,1.36-1.94,2.26-2.34c1.11-0.5,2.48-0.53,3.75-0.55c4.95-0.05,9.91-0.02,14.75-0.02
		c0.99-1.17,1.62-2.47,2.63-2.96c1.22-0.6,2.77-0.68,4.19-0.7c6.88-0.11,13.75-0.12,20.63-0.17c2.86-0.02,5.57,0.09,8-2.23
		c1.44-1.38,3.89-0.75,6.23-0.53c0.13,1.83,0.31,3.38,0.31,4.94c0,0.55-0.33,1.36-0.76,1.6c-2.45,1.38-2.37,3.95-3.09,6.24
		c-0.83,0.28-1.71,0.57-2.56,0.85c-0.44,1.93-0.87,3.77-1.27,5.51c-0.86,0.43-1.56,0.78-2.38,1.2c-0.35,1.53-0.06,3.53-2.36,4.09
		c-0.35,0.09-0.54,1.07-0.71,1.67c-0.35,1.21-0.64,2.44-0.96,3.66c-0.55,0.21-0.98,0.37-1.41,0.54c-0.43,0.16-0.86,0.31-1.45,0.52
		c-0.19,1.88-0.37,3.76-0.57,5.72c-0.97,0.38-1.82,0.72-2.83,1.12c-0.28,1.81-0.57,3.68-0.85,5.5c-0.81,0.45-1.49,0.82-2.28,1.26
		c-0.37,1.76-0.76,3.61-1.12,5.35c-1.01,0.53-1.83,0.95-2.66,1.38c-0.22,1.35-0.38,2.61-0.65,3.85c-0.13,0.61-0.33,1.52-0.75,1.68
		c-2.02,0.81-2.12,2.55-2.44,4.29c-0.34,1.82-1.93,2.8-2.94,4.17c-0.97,1.31-0.34,3.49-1.66,4.86c-0.66,0.69-1.46,1.24-1.92,1.62
		c-0.3,1.68-0.49,2.95-0.77,4.18c-0.14,0.6-0.32,1.52-0.73,1.68c-2.04,0.82-2.06,2.54-2.27,4.28c-0.22,1.88-1.3,3.2-3.14,3.69
		c-0.3,1.92-0.58,3.65-0.87,5.49c-0.76,0.46-1.55,0.95-2.36,1.44c-0.36,1.88-0.71,3.74-1.04,5.49c-0.95,0.63-1.73,1.15-2.53,1.68
		c-0.23,1.94-0.46,3.82-0.69,5.74c-0.96,0.41-1.82,0.79-2.88,1.25c-0.22,1.78-0.45,3.66-0.7,5.74c-0.74,0.34-1.57,0.72-2.67,1.22
		c-0.12,1.74-0.25,3.62-0.38,5.55c-1.2,0.96-2.95,1.38-2.91,3.37c0.02,0.94-0.24,1.89-0.42,2.83c-0.15,0.78-0.36,1.55-0.6,2.3
		c-0.49,1.54-2.66,1.82-2.76,3.73c-0.09,1.58-0.37,3.16-0.58,4.81c-0.9,0.45-1.72,0.85-2.71,1.34c-0.12,1.82-0.25,3.72-0.38,5.59
		c-0.87,1.11-2.02,2.09-2.49,3.32c-0.82,2.16-0.9,4.48-3.13,6.11c-1.07,0.79-1.23,2.83-1.8,4.32c-2.23,1.08-5.02,1.29-6.24,4.13
		c-3.27,0-6.46,0-9.75,0c-1.33,3.06-3.85,3.62-6.71,3.64c-2.55,0.02-5.11,0.13-7.66,0.31c-1.27,0.09-2.46,0.36-3.19,1.72
		c-0.29,0.54-1.26,0.95-1.95,1.01c-2.23,0.19-4.48,0.1-6.71,0.29c-2.15,0.18-4.52-0.14-5.77,2.48c-0.27,0.56-1.69,0.73-2.59,0.79
		c-2.71,0.19-5.43,0.23-8.14,0.36c-0.62,0.03-1.24,0.17-2.01,0.28c-0.37,0.69-0.74,1.37-1.22,2.25c-1.65,0.67-3.55,0.75-5.46,0.81
		c-1.92,0.06-3.84,0.14-5.74,0.32c-0.57,0.06-1.51,0.4-1.6,0.77c-0.58,2.47-2.56,2.05-4.22,2.14c-3.03,0.17-6.07,0.2-9.27,0.29
		c-0.72,2.38-2.53,3.05-4.77,3.12c-2.24,0.06-4.47,0.29-6.7,0.29c-1.9,0-2.86,1.05-3.49,2.93c-1.87,0.11-3.76,0.23-5.66,0.34
		c-1.27,0.08-2.55,0.13-3.82,0.24c-1.9,0.16-3.29,1.08-3.95,3.03c-2.98,0-5.83,0-8.93,0c-0.44-1.47-0.97-2.79-1.21-4.16
		c-0.21-1.21-0.61-2-1.8-2.54c-0.56-0.26-1.03-1.18-1.13-1.87c-0.22-1.41-0.18-2.86-0.23-4.3c-0.04-1.12,0-2.24-0.11-3.35
		c-0.2-2.12-0.74-4.09-3.16-5.04c-0.12-5.34-0.24-10.59-0.36-15.92c-0.87-0.68-2.01-1.17-2.47-2.03c-0.58-1.08-0.77-2.44-0.82-3.7
		c-0.15-4.15-0.08-8.31-0.26-12.46c-0.07-1.56-0.59-3.09-0.91-4.64c-2.55-1.94-2.15-4.76-2.19-7.43c-0.07-4.95-0.09-9.91-0.19-14.86
		c-0.03-1.57,0.08-3.14-1.68-4.19c-0.64-0.38-0.9-1.65-1.03-2.56c-0.28-2.05-0.48-4.13-0.52-6.2c-0.11-5.75-0.11-11.5-0.17-17.26
		c-0.02-1.44-0.04-2.88-0.16-4.31c-0.22-2.63-0.25-2.63-2.62-5.04c0.89-0.62,1.91-1.05,2.51-1.82c0.65-0.83,0.91-1.97,1.37-3.06
		c1.79-0.19,3.53-0.38,5.49-0.59c0.93-3.76,4.57-2.43,7.09-3.55c0.35-0.68,0.71-1.37,1.23-2.37c1.68-0.25,3.55-0.52,5.62-0.82
		c1.05-1.95,2.74-3.2,5.16-3.37c1.92-0.13,3.78-0.34,4.99-2.26c0.33-0.53,1.34-0.76,2.07-0.88
		C1153.7,160.9,1155.14,160.84,1156.78,160.68z"/>
	<path class="st0" d="M1564.63,284.45c-2.27-2.81-2.43-2.95-5.2-3.15c-1.91-0.14-3.84-0.04-5.75-0.15c-2.06-0.11-4.1-0.33-5.96-0.49
		c-0.63-0.93-1.07-1.59-1.55-2.31c-0.42-0.09-0.88-0.28-1.34-0.29c-2.4-0.06-4.79-0.07-7.19-0.11c-5.25-0.1-5.25-0.11-9.12-3.68
		c-2.33,0-4.88-0.03-7.43,0.01c-1.85,0.02-3.57-0.28-4.62-1.96c-0.96-1.54-2.76-1.44-3.97-2.11c-0.86-2.22-0.92-4.53-3.01-6.02
		c-0.67-0.47-0.71-2.03-0.76-3.1c-0.11-1.93-0.12-3.65-2.16-4.89c-0.83-0.5-1.04-2.23-1.28-3.45c-0.31-1.55-0.37-3.15-0.54-4.71
		c-0.92-0.54-1.95-0.83-2.45-1.52c-0.51-0.7-0.53-1.77-0.67-2.7c-0.16-1.09-0.22-2.2-0.34-3.36c-0.88-0.46-1.7-0.89-2.67-1.4
		c-0.17-1.84-0.35-3.73-0.53-5.64c-0.96-0.4-1.81-0.75-2.85-1.18c-0.3-1.81-0.6-3.68-0.93-5.67c-1.46-0.66-2.45-1.73-2.62-3.5
		c-0.25-2.58-0.96-4.89-3-6.81c-0.76-0.72-0.77-2.34-0.91-3.57c-0.23-1.94-1.08-3.3-3.08-3.68c-0.3-1.57-0.56-2.97-0.84-4.36
		c-0.09-0.46-0.14-1.21-0.41-1.32c-3.3-1.31-2.15-4.57-3.04-6.96c-0.79-0.51-1.57-1.02-2.42-1.58c-0.36-1.68-0.71-3.38-1.1-5.21
		c-0.75-0.45-1.55-0.92-2.44-1.46c-0.5-2.72-0.43-5.8-3.52-7.01c-0.33-1.98-0.61-3.71-0.93-5.61c-0.64-0.32-1.33-0.67-2.09-1.05
		c-0.39-1.31-0.73-2.69-1.22-4.01c-0.27-0.71-0.64-1.64-1.23-1.92c-1.19-0.56-1.72-1.28-1.69-2.55c0.02-1-0.45-1.7-1.21-2.44
		c-0.88-0.84-1.6-1.99-2.01-3.15c-0.51-1.46-0.25-3.23-2.38-3.72c-0.36-0.08-0.62-1.05-0.74-1.65c-0.27-1.24-0.41-2.51-0.66-4.11
		c-0.75-0.24-1.61-0.52-2.61-0.84c-1.05-1.61-0.54-3.62-1.08-5.83c-0.58-0.27-1.4-0.64-2.34-1.07c-0.4-1.24-0.8-2.6-1.28-3.93
		c-0.21-0.58-0.51-1.46-0.93-1.56c-2.19-0.55-1.66-2.46-2.14-4.04c-0.77-0.34-1.61-0.71-2.59-1.14c-0.37-1.79-0.76-3.64-1.16-5.51
		c-0.78-0.28-1.5-0.54-2.45-0.88c-0.19-0.96-0.33-2.04-0.61-3.09c-0.21-0.76-0.39-1.85-0.93-2.15c-3.48-1.91-2.05-4.76-2.08-7.52
		c4.24-0.76,8.05-0.33,11.84-0.01c0.56,0.05,1.32,0.45,1.56,0.91c0.83,1.57,2.3,1.63,3.7,1.72c2.23,0.14,4.47,0.13,6.71,0.14
		c4.31,0.02,8.62,0.01,12.97,0.01c1.83,2.85,4.33,3.78,7.43,3.71c3.83-0.08,7.67,0.09,11.5,0.17c0.95,0.02,1.94-0.01,2.61,0.88
		c1.41,1.9,3.51,2.04,5.6,2.11c2.88,0.09,5.75,0.13,8.63,0.12c2.73-0.01,5.03,0.77,6.52,3.43c3.18,0.07,6.36,0.11,9.54,0.22
		c1.71,0.06,3.54-0.13,4.24,2.17c0.14,0.47,1.34,0.8,2.07,0.86c2.86,0.24,5.74,0.36,8.61,0.49c1.33,0.06,2.54,0.24,3.13,1.68
		c0.34,0.84,1.12,1.06,1.95,1.11c1.75,0.12,3.5,0.3,5.26,0.33c2.84,0.05,5.59,0.17,6.34,3.47c3.3,0.19,6.16,0.35,9.18,0.52
		c0.53,0.78,1.05,1.54,1.75,2.57c2.81,0.21,5.81,0.43,8.86,0.65c0.55,0.83,1.07,1.61,1.81,2.71c2.59,0.28,5.41,0.59,8.36,0.91
		c0.41,0.87,0.8,1.71,1.28,2.74c0.81,0.12,1.73,0.31,2.66,0.38c2.04,0.15,4.11-0.11,5.51,2.1c0.47,0.73,1.96,0.96,3.03,1.12
		c1.57,0.23,3.18,0.19,4.99,0.28c0.43,0.74,0.89,1.52,1.52,2.6c1.35,0.22,2.92,0.4,4.46,0.75c0.73,0.17,1.64,0.47,2.03,1.03
		c1.25,1.78,3.02,2.22,4.99,2.36c2.22,0.16,3.95,1.12,5.06,3.18c1.89,0.24,3.77,0.49,5.82,0.75c0.3,0.69,0.61,1.4,1.02,2.36
		c1.88,0.28,3.9,0.58,5.96,0.89c0.37,0.95,0.71,1.81,1.13,2.9c1.81,0.17,3.68,0.35,5.53,0.53c0.45,0.98,0.84,1.82,1.3,2.81
		c1.86,0.26,3.73,0.52,5.65,0.79c0.49,0.9,0.93,1.71,1.43,2.62c1.85,0.17,3.74,0.34,5.53,0.5c1.28,3.02,1.28,3.02,3.73,4.25
		c0.33,2.59,0.41,5.15-1.55,7.48c-1.31,1.55-1.21,3.56-1.21,5.49c-0.01,7.51-0.06,15.01-0.12,22.52c-0.01,1.44-0.01,2.89-0.22,4.3
		c-0.18,1.24-0.37,2.64-1.69,3.26c-1.45,0.69-1.51,1.9-1.53,3.21c-0.06,3.99-0.09,7.98-0.18,11.97c-0.05,2.23-0.11,4.47-0.29,6.7
		c-0.06,0.74-0.29,1.85-0.79,2.1c-2.2,1.12-1.96,3.14-2.05,4.99c-0.15,3.03-0.06,6.07-0.15,9.1c-0.06,1.75-0.23,3.5-0.46,5.24
		c-0.08,0.59-0.37,1.51-0.76,1.63c-2.33,0.73-1.98,2.68-2.06,4.34c-0.18,3.51-0.2,7.02-0.27,10.53c-0.03,1.34-0.21,2.46-1.75,3.04
		c-0.55,0.21-0.95,1.22-1.11,1.93c-0.31,1.39-0.46,2.82-0.59,4.25c-0.18,2.06-0.29,4.12-0.42,6.03c-2.16,1.17-4.07,2.23-6.01,3.26
		c-1.57,0.83-2.07,0.87-3.19-0.64c-0.78-1.05-1.62-1.4-2.8-1.42c-2.55-0.05-5.1-0.14-7.81-0.21c-1.67-2.87-4.38-3.45-7.42-3.34
		c-1.11,0.04-2.24-0.04-3.35-0.14c-2.29-0.21-2.29-0.23-4.31-2.97c-2.92-0.11-6.09-0.21-9.27-0.35c-1.55-0.07-3.21,0.2-4.07-1.76
		c-0.23-0.53-1.31-0.82-2.04-0.96c-1.4-0.26-2.84-0.39-4.27-0.48c-1.91-0.12-3.84-0.05-5.74-0.28c-1.07-0.13-2.68-0.38-3.03-1.09
		c-1.34-2.69-3.65-2.13-5.82-2.2C1570.15,284.6,1567.28,284.53,1564.63,284.45z"/>
	<path class="st0" d="M1294.97,254.19c2.64-1.63,3.78-3.91,3.87-6.84c0.04-1.41,0.43-2.83,2.01-3.54c1.25-0.57,0.94-1.89,1.14-2.94
		c0.37-1.91,0.81-3.78,3.09-4.21c0.27-1.94,0.51-3.67,0.77-5.57c0.88-0.51,1.81-1.04,2.82-1.63c0.25-1.42,0.41-2.84,0.79-4.21
		c0.19-0.69,0.64-1.51,1.22-1.85c1.11-0.65,1.6-1.45,1.58-2.69c-0.04-2.49,1.02-4.27,3.38-4.91c0.7-2.7-0.35-5.94,3.33-6.95
		c0.42-2.68,0.29-5.59,3.38-6.82c0.23-1.32,0.32-2.62,0.72-3.81c0.28-0.83,0.97-1.55,1.56-2.25c0.39-0.47,1.33-0.82,1.33-1.23
		c0.02-2.31,1.83-3.6,2.78-5.37c0.44-0.81,0.52-1.81,0.84-2.69c0.25-0.71,0.43-1.64,0.96-2.03c2.01-1.5,2.34-3.69,2.8-6.03
		c0.72-0.41,1.53-0.88,2.4-1.38c0.35-1.68,0.7-3.39,1.1-5.29c0.8-0.51,1.71-1.09,2.65-1.69c0.28-1.78,0.54-3.51,0.81-5.26
		c0.87-0.42,1.72-0.82,2.59-1.23c0.27-1.78,0.53-3.49,0.81-5.35c0.89-0.39,1.74-0.77,2.8-1.23c0.26-1.76,0.53-3.62,0.82-5.64
		c0.83-0.4,1.66-0.81,2.49-1.21c0.14-0.29,0.33-0.57,0.39-0.86c0.4-2.14,0.18-4.55,2.78-5.66c0.31-0.13,0.53-0.84,0.52-1.27
		c-0.08-2.08,1.36-2.67,3.05-2.96c0.38-1.89,0.72-3.6,1.11-5.56c0.67-0.28,1.51-0.64,2.58-1.09c0.1-1.64,0.83-3.06,2.08-4.43
		c1.11-1.22,1.59-3.01,2.66-5.2c0.53-0.41,2.7-0.06,2.72-2.35c0-0.44,0.66-1.05,1.15-1.26c0.77-0.32,1.59-0.55,1.64-1.47
		c0.1-1.56,0.85-2.22,2.4-2.36c1.42-0.13,1.08-1.8,2.03-2.68c0.61-0.08,1.39-0.28,2.17-0.29c8.15-0.11,16.3-0.18,24.46-0.28
		c1.97-0.02,3.47,0.27,4.76,2.28c1.49,2.31,1.76,2.12,2.69,4.01c0.36,0.73,1.35,1.14,2.5,2.06c0.25,1.28,0.61,3.13,1.01,5.18
		c0.78,0.27,1.65,0.57,2.74,0.95c0.16,0.8,0.33,1.72,0.53,2.64c0.14,0.62,0.12,1.43,0.51,1.82c1.52,1.53,2.81,3.1,3.35,5.29
		c0.12,0.49,1.31,0.72,2.18,1.15c0.34,1.63,0.69,3.33,1.08,5.21c0.78,0.32,1.64,0.68,2.63,1.09c0.31,1.3,0.67,2.68,0.96,4.08
		c0.2,0.99,0.48,1.84,1.65,2.05c0.28,0.05,0.71,0.3,0.73,0.51c0.24,1.99,1.43,3.22,2.78,4.63c1.06,1.11,1.03,3.26,1.55,5.15
		c1.03,0.7,2.97,0.7,2.88,2.93c-0.05,1.24,0.39,2.5,0.62,3.77c0.82,0.3,1.56,0.56,2.51,0.9c0.31,1.75,0.64,3.61,1.01,5.68
		c0.62,0.26,1.32,0.56,2.02,0.86c0.16,0.27,0.38,0.51,0.45,0.8c0.29,1.24,0.43,2.52,0.85,3.71c0.23,0.66,0.78,1.44,1.39,1.7
		c1.03,0.45,1.49,1.07,1.58,2.12c0.17,1.97,0.83,3.66,2.46,4.98c0.54,0.44,0.71,1.36,1,2.08c0.47,1.17,0.59,2.68,1.41,3.46
		c1.26,1.2,1.95,2.37,2,4.09c0.01,0.53,0.56,1.1,0.96,1.56c0.41,0.47,1.16,0.74,1.4,1.26c0.76,1.71,0.89,3.98,2.11,5.12
		c1.44,1.35,2.06,2.77,2.28,4.48c0.18,1.35,0.54,2.35,1.74,3.19c0.7,0.49,1.23,1.53,1.42,2.41c0.44,1.99,0.47,4.12,2.79,5.04
		c0.53,1.82,0.87,3.72,1.64,5.43c0.7,1.55,2.6,2.47,2.73,4.38c0.15,2.34,0.89,4.3,2.69,5.9c0.51,0.45,0.65,1.39,0.82,2.14
		c0.28,1.24,0.45,2.51,0.67,3.79c0.44,0.26,0.83,0.51,1.23,0.74c0.4,0.23,0.8,0.44,1.31,0.71c0.22,1.9,0.44,3.79,0.67,5.76
		c0.89,0.44,1.71,0.84,2.73,1.35c0.46,2.88,0.55,5.87,0.18,9.19c-1.24,0.21-2.44,0.49-3.66,0.6c-1.6,0.14-3.07,0.23-4.32,1.61
		c-0.63,0.7-2.01,0.93-3.07,1c-2.87,0.19-5.75,0.24-8.63,0.24c-39.65,0.06-79.3,0.13-118.96,0.15c-12.47,0.01-24.94-0.09-37.41-0.16
		c-1.76-0.01-3.52-0.02-5.27-0.16c-3.01-0.24-4.23-1.49-4.41-4.54C1294.9,257.44,1294.97,255.84,1294.97,254.19z"/>
	<path class="st0" d="M1147.6,326.58c1.99-0.35,3.56-0.62,5.35-0.93c0.42-0.83,0.9-1.78,1.46-2.88c1.9-0.16,3.79-0.31,5.84-0.48
		c0.64-0.77,1.17-1.86,2.05-2.35c0.91-0.51,2.14-0.54,3.25-0.61c1.59-0.09,3.19-0.02,4.53-0.02c1.52-1.1,2.67-2.34,4.08-2.85
		c1.6-0.57,3.43-0.53,5.17-0.67c1.27-0.1,2.58,0.06,3.83-0.13c0.69-0.11,1.67-0.58,1.87-1.12c0.55-1.49,1.58-1.88,2.95-1.95
		c2.71-0.15,5.42-0.27,8.13-0.49c2.05-0.16,2.05-0.22,3.6-2.82c3.93-0.72,8.1-0.2,12.3-0.56c0.54-0.79,1.07-1.55,1.62-2.35
		c2.93-0.94,5.99-0.62,9.01-0.81c1.58-0.1,3.15-0.36,4.71-0.65c0.59-0.11,1.46-0.39,1.63-0.82c0.85-2.16,2.69-1.96,4.39-1.98
		c4.45-0.05,8.9-0.02,13.48-0.02c1.04,2.87,0,5.54,0.08,8.18c0.08,2.7-0.12,5.4-0.21,8.15c-0.96,0.54-1.77,0.99-2.86,1.61
		c-0.17,1.37-0.39,2.93-0.55,4.5c-0.15,1.42-0.24,2.85-0.37,4.32c-0.76,0.44-1.44,0.84-2.37,1.38c-0.15,1.22-0.37,2.62-0.49,4.03
		c-0.12,1.43-0.15,2.87-0.22,4.47c-0.78,0.64-1.95,1.16-2.36,2.03c-0.59,1.25-0.71,2.75-0.88,4.16c-0.17,1.42-0.17,2.87-0.24,4.44
		c-0.8,0.64-1.88,1.17-2.4,2.03c-0.55,0.91-0.64,2.13-0.77,3.23c-0.15,1.27-0.05,2.56-0.18,3.83c-0.2,1.91-0.45,3.82-2.39,4.92
		c-0.99,0.56-0.9,1.6-0.95,2.54c-0.11,2.07-0.21,4.14-0.33,6.22c-0.02,0.31-0.15,0.61-0.3,1.18c-0.56,0.23-1.55,0.34-1.91,0.87
		c-0.49,0.72-0.6,1.76-0.68,2.68c-0.2,2.36-0.29,4.74-0.42,7.02c-1.02,0.47-1.74,0.8-2.52,1.16c-0.12,0.41-0.33,0.86-0.37,1.32
		c-0.17,2.07-0.29,4.14-0.43,6.21c-0.15,2.09-0.36,4.07-2.37,5.44c-0.62,0.42-0.87,1.64-0.96,2.52c-0.2,1.9-0.2,3.82-0.28,5.74
		c-0.05,1.2-0.38,2.07-1.74,2.49c-0.53,0.17-1.07,1.14-1.16,1.8c-0.26,2.05-0.29,4.14-0.44,6.21c-0.15,2.07-0.32,4.09-2.48,5.32
		c-0.51,0.29-0.77,1.33-0.83,2.05c-0.15,1.91-0.12,3.83-0.17,5.75c-0.03,1.28-0.11,2.38-1.43,3.28c-1.57,1.07-1.51,3.07-1.66,4.78
		c-0.18,2.06-0.14,4.15-0.19,6.22c-0.03,1.15-0.26,2.18-1.24,2.97c-1.58,1.28-2.22,2.99-2.33,5.03c-0.07,1.22-0.61,2.42-0.99,3.8
		c-1.58,0-2.97,0-4.56,0c-0.63-1.81-1.25-3.59-1.9-5.45c-1.27-0.65-3.18-0.78-2.89-3.02c0.03-0.26-0.19-0.74-0.41-0.82
		c-3.15-1.14-2.4-4.1-3.07-6.66c-0.81-0.42-1.75-0.92-2.89-1.52c-0.16-1.79-0.32-3.67-0.49-5.61c-1.04-0.32-1.92-0.59-2.95-0.9
		c-0.31-1.83-0.62-3.69-0.95-5.65c-0.72-0.31-1.42-0.61-2.39-1.02c-0.18-1.74-0.37-3.61-0.61-5.89c-0.64-0.28-1.47-0.64-2.69-1.18
		c-0.27-1.75-0.58-3.76-0.91-5.9c-0.77-0.42-1.58-0.87-2.62-1.43c-0.23-1.58-0.47-3.3-0.75-5.25c-1.61-1.04-3.09-2.36-3.16-4.71
		c-0.07-2.38-0.13-4.81-2.64-6.25c-0.39-0.23-0.46-1.14-0.55-1.76c-0.21-1.41-0.35-2.83-0.51-4.26c-0.95-0.48-1.8-0.9-2.87-1.44
		c-0.12-1.45-0.17-3.03-0.43-4.57c-0.12-0.7-0.51-1.72-1.04-1.92c-1.49-0.57-1.73-1.81-2.01-3.02c-0.32-1.39-0.41-2.83-0.64-4.24
		c-0.1-0.62-0.13-1.61-0.49-1.78c-3.32-1.49-2.12-4.56-2.61-7.03c-0.03-0.15-0.1-0.3-0.26-0.75c-0.61-0.31-1.43-0.73-2.29-1.17
		c-1.47-2.63-0.66-5.64-1.4-8.62c-0.66-0.42-1.44-0.91-2.28-1.44c-0.1-0.42-0.26-0.88-0.31-1.34c-0.22-1.9-0.34-3.82-0.64-5.7
		c-0.12-0.74-0.44-1.88-0.93-2.04c-2.04-0.66-2.04-2.22-2.06-3.83C1147.21,335.5,1146.89,331.2,1147.6,326.58z"/>
	<path class="st0" d="M1545.26,302.72c0.47,0.68,1,1.45,1.76,2.56c2.63,0.11,5.48,0.23,8.34,0.36c2.37,0.1,4.67-0.01,6.54,2.15
		c0.75,0.87,2.63,0.94,4.02,1.03c3.34,0.21,6.69,0.21,10.05,0.29c0.65,0.92,1.03,1.95,1.76,2.36c0.91,0.52,2.11,0.64,3.2,0.74
		c1.75,0.16,3.51,0.16,5.27,0.21c2.33,0.07,4.41,0.58,5.34,3.13c2.55,0.11,4.94,0.26,7.33,0.31c2.69,0.06,4.98,0.86,6.48,3.26
		c3.08,0.16,6.1,0.32,9.18,0.48c0.42,0.86,0.76,1.55,1.19,2.44c0.97,0.13,2.05,0.38,3.15,0.41c2.33,0.07,4.26,0.73,5.91,2.57
		c0.84,0.94,2.39,1.24,3.84,1.94c0.54,4.8,0.29,9.75,0.13,14.68c-0.02,0.58-0.23,1.37-0.65,1.69c-2.18,1.66-2.42,4.01-2.48,6.44
		c-0.05,1.95-0.16,3.71-2.28,4.85c-0.73,0.39-1.01,1.92-1.18,2.98c-0.28,1.72-0.29,3.48-0.42,5.29c-0.86,0.53-1.64,1.02-2.69,1.68
		c-0.25,2.02-0.5,4.22-0.79,6.42c-0.22,1.64-0.49,3.27-2.79,3.07c-0.14,2.27-0.25,4.16-0.37,6.16c-1.01,0.55-1.95,1.07-3.09,1.7
		c-0.17,1.84-0.28,3.74-0.53,5.62c-0.12,0.93-0.25,2.41-0.8,2.64c-2.97,1.25-2.13,3.92-2.59,6.1c-0.07,0.31-0.16,0.62-0.3,1.12
		c-0.7,0.36-1.52,0.78-2.6,1.33c-0.17,1.88-0.36,3.92-0.57,6.19c-2.34,1-3.24,3.06-3.4,5.59c-0.06,0.95-0.22,1.91-0.49,2.82
		c-0.16,0.56-0.52,1.34-0.96,1.48c-1.59,0.5-1.69,1.69-1.76,3.01c-0.06,1.11-0.22,2.21-0.35,3.41c-0.89,0.44-1.71,0.85-2.76,1.37
		c-0.23,1.75-0.47,3.62-0.74,5.69c-0.86,0.45-1.81,0.95-2.86,1.5c-0.17,1.92-0.33,3.81-0.5,5.72c-0.97,0.5-1.78,0.93-2.76,1.43
		c-0.22,1.65-0.46,3.38-0.73,5.38c-0.7,0.32-1.54,0.71-2.67,1.23c-0.31,1.64-0.66,3.48-1.06,5.57c-0.68,0.29-1.51,0.64-2.47,1.05
		c-0.34,1.77-0.69,3.63-1.09,5.78c-1.73,0.28-3.41,0.55-5.2,0.84c-1.23-1.69-1.17-4.34-4.06-4.32c-0.18-3.06-0.35-5.9-0.54-8.94
		c-0.74-0.59-1.85-1.09-2.34-1.95c-0.52-0.91-0.5-2.15-0.61-3.26c-0.22-2.22-0.29-4.45-0.58-6.65c-0.09-0.71-0.52-1.79-1.04-1.97
		c-2.05-0.7-1.97-2.3-2-3.9c-0.04-2.07-0.01-4.15-0.01-5.92c-3.36-3.87-3.35-3.87-3.55-8.84c-0.06-1.59-0.18-3.18-0.28-5.06
		c-0.69-0.47-1.45-0.98-2.43-1.64c-0.91-2.88-0.27-6.13-0.72-9.15c-3.31-3.53-3.29-3.53-3.52-8.5c-0.07-1.59-0.25-3.17-0.37-4.76
		c-0.86-0.6-1.62-1.13-2.57-1.79c-0.15-2.76-0.3-5.62-0.47-8.74c-0.78-0.53-1.66-1.15-2.91-2.01c-0.18-2.54-0.37-5.38-0.58-8.35
		c-0.82-0.8-2.04-1.52-2.49-2.57c-0.61-1.41-0.71-3.07-0.89-4.64c-0.21-1.85,0.27-3.85-2.07-4.94c-0.61-0.28-0.85-1.65-1.01-2.57
		c-0.2-1.09-0.24-2.23-0.18-3.34c0.12-2.19-0.4-4.22-1.97-5.69c-1.21-1.14-1.4-2.39-1.47-3.85c-0.08-1.59-0.39-3.18-0.39-4.76
		c0-1.82-1.3-2.35-2.85-3.12c-0.1-2.41-0.22-4.95-0.31-7.48c-0.04-1.15-0.13-2.28-1.44-2.73c-1.28-0.44-1.56-1.51-1.7-2.64
		c-0.39-3.32-0.39-6.65-0.14-9.88C1533.01,301.75,1539.26,301.73,1545.26,302.72z"/>
	<path class="st0" d="M1412.11,806.98c1.43,0.38,2.19,0.58,3.2,0.85c0.2,1.64,0.57,3.33,2.65,3.87c0.35,0.09,0.45,1.1,0.69,1.67
		c0.72,1.71,0.85,3.77,3.06,4.57c0.38,0.14,0.47,1.07,0.7,1.63c0.17,0.43,0.35,1.26,0.51,1.25c3.35-0.12,2.49,4.29,5.2,4.78
		c0.59,1.62,1.19,3.24,1.95,5.33c0.4,0.16,1.25,0.49,2.1,0.82c1,3.1,1,3.1,3.22,4.05c1.59,4.9,1.59,4.9,4.08,6.59
		c0.34,2.42,0.39,5.01,2.6,6.85c0.61,0.5,0.21,1.79-0.54,1.98c-1.54,0.38-3.11,0.83-4.67,0.88c-3.83,0.12-7.67,0.02-11.5,0.01
		c-5.27-0.01-10.55,0-15.31,0c-2.06-0.74-1.8-3.19-3.84-3.35c-0.36-0.03-0.96-0.92-0.93-1.39c0.11-2.02-1.67-2.07-2.87-2.91
		c-0.31-0.96-0.66-2.01-0.98-3.06c-0.28-0.91-0.37-1.97-1.43-2.33c-1.8-0.61-1.22-2.43-1.97-3.66c-0.83-0.31-1.7-0.63-2.74-1.02
		c-0.48-2.42-0.91-4.88-3.28-6.47c-0.6-0.4-0.55-1.75-0.85-2.83c-0.78-0.29-1.64-0.61-2.78-1.04c-0.03-1.64-0.72-2.97-2.14-4.26
		c-1.28-1.16-1.67-3.29-2.55-5.19c-0.92-0.53-2.79-0.42-2.51-2.57c0.05-0.37-0.35-1.05-0.68-1.16c-2.18-0.72-2.46-2.73-3.2-4.44
		c-0.18-0.43-0.31-1.2-0.55-1.23c-2.52-0.39-2.27-2.75-3.03-4.52c-2,0-3.89,0-5.85,0c-1.11,1.02-1.4,2.89-3.24,3.26
		c-0.34,0.07-0.82,0.75-0.78,1.11c0.23,2.38-2.09,1.98-3.32,3.07c-0.11,3.07-0.15,6.26-0.36,9.44c-0.17,2.67-0.03,5.41-2.04,7.7
		c-0.63,0.72-0.61,2.12-0.64,3.22c-0.13,5.74-0.18,11.49-0.24,17.24c-0.02,1.9,0,3.8,0,5.78c-1.07,0.25-1.82,0.54-2.58,0.59
		c-5.78,0.37-17.93,0.08-21.07-0.46c-1.01-1.39-0.59-3.04-0.59-4.58c-0.04-12.3-0.02-24.6-0.02-36.91c0-26.2,0-52.4,0-78.61
		c0-1.91,0-3.82,0-5.49c0.51-0.45,0.74-0.84,0.98-0.84c7.5-0.03,15-0.03,22.44-0.03c1.3,1.22,0.91,2.76,0.94,4.13
		c0.16,7.03,0.24,14.06,0.33,21.09c0.05,3.68,0.25,7.27,1.52,10.84c0.77,2.18,0.42,4.74,0.77,7.09c0.09,0.61,0.86,1.37,1.48,1.59
		c0.9,0.32,1.9,0.09,2.45-0.92c0.08-0.14,0.17-0.28,0.19-0.43c0.15-1.24,0.67-2.09,2.07-2.13c0.3-0.01,0.81-0.13,0.87-0.31
		c0.63-2.03,2.77-2.86,3.68-4.44c0.71-1.23,1.21-1.98,2.55-2.35c0.47-0.13,0.95-0.85,1.09-1.39c0.26-1.04,0.68-1.76,1.82-1.88
		c1.17-0.12,1.59-0.89,1.75-1.93c0.14-0.89,0.67-1.4,1.56-1.55c1.07-0.18,1.7-0.79,1.81-1.9c0.01-0.16,0.06-0.31,0.09-0.47
		c0.27-1.73,2.43-0.61,2.94-1.91c0.39-1,0.3-2.3,1.81-2.47c0.32-0.04,0.79-0.03,0.91-0.22c0.64-1.02,0.97-2.37,1.83-3.08
		c0.88-0.72,2.59-0.37,2.74-2.14c0.1-1.14,0.8-1.64,1.89-1.76c0.96-0.11,1.29-0.8,1.36-1.66c0.17-2.12,2.49-1,3.28-2.17
		c0.71-1.05,0.02-3.11,2.25-3.07c0.29,0.01,0.82-0.14,0.85-0.3c0.44-2.17,2.16-2.87,3.92-3.53c1.44-3.12,4.29-2.85,6.99-2.87
		c6.4-0.03,12.79-0.02,19.19-0.03c2.24,0,4.48-0.04,6.72,0.03c1.41,0.05,2.91-0.05,4.21,1.45c-0.97,0.92-2.16,1.69-2.83,2.78
		c-0.71,1.15-1.37,2.12-2.73,2.42c-0.92,2.08-3.35,2.93-4.28,4.73c-0.79,1.54-2.63,1.42-3.08,2.74c-0.52,1.54-1.59,2.31-2.91,2.93
		c-0.8,2.49-3.99,3-4.71,5.62c-0.12,0.44-0.97,0.66-1.48,1c-0.51,0.34-1.35,0.62-1.45,1.06c-0.53,2.3-3.86,2.41-3.89,5.08
		c0,0.22-0.74,0.53-1.17,0.63c-1.03,0.24-1.75,0.74-1.93,1.83c-0.14,0.86-0.55,1.5-1.44,1.69c-1.05,0.22-1.69,0.83-1.92,1.87
		c-0.2,0.89-0.77,1.34-1.65,1.46c-0.88,0.12-1.61,0.59-1.64,1.46c-0.06,1.55-0.67,2.32-2.27,2.48c-0.44,0.04-0.84,0.8-1.17,1.28
		c-0.17,0.24-0.03,0.75-0.23,0.9c-0.94,0.76-2.31,1.24-2.82,2.2c-0.56,1.03-0.23,2.5-1.5,3.33c-2.15,1.4-2.63,3.48-2.32,5.87
		c0.12,0.94,0.17,1.89,0.27,3.02c0.92,0.3,1.78,0.58,2.71,0.89c1,1.05,0.22,3.3,2.42,3.69c0.43,0.08,0.88,0.83,1.07,1.37
		c0.76,2.03,0.82,4.44,3.4,5.35c0.26,0.09,0.28,0.86,0.42,1.31c0.14,0.45,0.26,1.26,0.45,1.28c3.06,0.31,2.9,3.43,4.47,5.02
		C1411.37,803.15,1412.49,804.71,1412.11,806.98z"/>
	<path class="st0" d="M960.67,732.67c0.22,1.86,0.43,3.6,0.67,5.61c3.77,2.3,3.23,6.34,3.39,10.25c0.86,0.45,1.67,0.87,2.84,1.47
		c0.27,2.3,0.67,4.81,0.81,7.33c0.09,1.62,1.1,2.14,2.67,2.73c0.23,2.69,0.47,5.53,0.73,8.69c0.7,0.5,1.57,1.12,2.63,1.88
		c0.35,2.67,0.72,5.49,1.09,8.28c0.9,0.56,1.69,1.05,2.38,1.48c1.13,3.58-0.72,8.06,3.79,10.33c0.07,1.28,0.18,2.55,0.19,3.82
		c0.01,1.49,0.17,2.8,1.56,3.77c1.27,0.89,1.51,2.38,1.6,3.84c0.1,1.59,0.17,3.17,0.26,4.84c0.88,0.49,1.69,0.93,2.86,1.58
		c0.17,1.31,0.44,2.85,0.55,4.41c0.1,1.42,0.02,2.85,0.02,4.26c1.04,0.63,1.99,0.96,2.56,1.62c0.47,0.55,0.62,1.47,0.69,2.25
		c0.17,1.74,0.21,3.5,0.31,5.25c0.06,1,0.31,1.91,1.38,2.28c1.07,0.38,1.31,1.27,1.49,2.24c0.55,2.94,0.41,16.98-0.29,20.78
		c-4.84,0.71-9.77,0.44-14.7,0.14c-0.61-0.04-1.25-0.29-1.77-0.62c-1.06-0.67-1.96-1.63-3.08-2.15c-0.97-0.45-2.15-0.47-3.48-0.72
		c-0.35-2.31-0.8-4.64-2.71-6.36c-0.49-0.44-0.61-1.42-0.7-2.18c-0.17-1.42-0.2-2.85-0.28-4.17c-2.89-3.06-2.89-3.06-4.13-6.53
		c-1.52-0.93-3.29-0.96-5.03-0.96c-13.27-0.04-26.53-0.04-39.8-0.03c-0.77,0-1.54,0.22-2.35,0.34c-0.97,2.56-0.65,5.68-3.76,6.9
		c-0.08,1.71-0.13,3.3-0.24,4.89c-0.03,0.47-0.11,1.23-0.36,1.33c-2.86,1.07-2.41,4.29-4.6,6.5c-1.12,0.22-2.82,0.55-4.85,0.95
		c-0.29,0.56-0.71,1.38-1.3,2.52c-3.88,0.8-7.98,0.57-11.99,0.15c-1.61-2.34-1.61-2.34-4.1-3.39c-0.58-3.98-0.38-8.1-0.03-12.2
		c0.17-2.05,0.91-4.07,3.24-4.88c0.07-1.4,0.16-2.67,0.18-3.94c0.04-2.3,0.43-4.39,2.47-5.91c0.53-0.4,0.78-1.34,0.9-2.08
		c0.17-1.1,0-2.25,0.19-3.34c0.22-1.23,0.32-3.02,1.12-3.52c2.28-1.42,1.98-3.48,2.04-5.5c0.05-1.5,0.29-2.71,1.71-3.67
		c1.38-0.93,1.78-2.59,1.9-4.21c0.11-1.43,0.17-2.86,0.25-4.45c0.72-0.5,1.48-1.01,2.46-1.69c0.35-2.8,0.72-5.78,1.09-8.76
		c0.86-0.37,1.58-0.69,2.57-1.12c0.25-2.84,0.5-5.83,0.76-8.77c1.01-0.52,1.86-0.95,2.93-1.5c0.5-1.72,0.3-3.64,0.39-5.52
		c0.1-2.2,0.75-4.04,2.99-4.87c0.09-1.45,0.2-2.72,0.23-3.98c0.03-1.31,0.29-2.35,1.43-3.33c1.33-1.15,1.93-2.88,2-4.71
		c0.05-1.27,0.19-2.53,0.3-3.93c0.84-0.48,1.64-0.95,2.61-1.51c0.18-1.3,0.4-2.7,0.56-4.12c0.24-2.06,0.42-4.08,2.57-5.29
		c0.51-0.29,0.75-1.31,0.85-2.04c0.26-1.9,0.39-3.66,2.48-4.8c0.91-0.5,1.21-2.13,1.82-3.33c8.56-0.99,17.17-0.21,25.95-0.24
		c0.38,0.92,0.72,1.75,1.12,2.73c1.51,0.51,3.31,0.81,3.38,3.19C958.14,731.51,959.56,731.97,960.67,732.67z M926.95,800.16
		c0.6,0.22,1.02,0.47,1.46,0.51c2.34,0.26,4.74,0.08,6.53,2.22c0.49,0.59,1.78,0.7,2.71,0.73c3.03,0.09,6.06,0.13,9.08,0.01
		c1.06-0.04,2.5-0.3,3.08-1.01c1.17-1.45,3.03-1.55,4.27-2.41c0-3.46,0-6.62,0-10.01c-1.95,0-2.7-1.03-2.76-2.71
		c-0.05-1.59-0.23-3.18-0.28-4.77c-0.05-1.46-0.21-2.66-1.7-3.64c-0.89-0.58-1.34-2.11-1.61-3.29c-0.32-1.38-0.22-2.85-0.35-4.28
		c-0.04-0.46-0.22-0.9-0.32-1.31c-0.92-0.44-1.76-0.85-2.6-1.25c-0.43-2.08-0.84-4.05-1.23-5.96c-4.88,0.24-5.76,0.98-6.28,5.04
		c-0.14,1.11-0.13,2.24-0.38,3.32c-0.12,0.51-0.63,1.18-1.1,1.32c-1.34,0.4-1.68,1.31-1.72,2.52c-0.08,2.54,0,5.1-1.16,7.49
		c-0.77,0.47-1.54,0.94-2.16,1.33c-0.2,3.14-0.38,5.98-0.56,8.73c-1.17,0.65-2.11,1.18-3.11,1.73
		C926.65,796.44,926.35,798.31,926.95,800.16z"/>
	<path class="st0" d="M1078.48,759.53c6.91,0,13.28,0,19.75,0c0.48,0.88,0.91,1.68,1.53,2.81c1.53,0.07,3.27,0.31,4.98,0.17
		c1.39-0.12,2.88-0.46,3.73-1.84c0.56-0.91,1.41-1.26,2.42-1.26c1.06,0.01,1.78-0.49,2.38-1.33c1.11-1.58,2.8-2.1,4.6-2.12
		c5.76-0.05,11.51-0.05,17.27,0.03c0.91,0.01,1.9,0.36,2.7,0.83c1.72,1.01,2.88,2.99,5.26,2.91c0.28-0.01,0.67,0.63,0.85,1.05
		c0.35,0.8,0.89,1.22,1.74,1.43c2.01,0.49,3.94,0.99,4.83,3.33c0.39,1.03,3.1,0.99,3.28,0.05c0.48-2.53,2.44-2.64,4.25-3.13
		c0.61-0.16,1.24-0.25,1.8-0.36c0.93-1.05,0.98-2.71,2.98-2.76c1.33-0.03,3.01-0.63,3.85-1.58c1.36-1.53,2.84-1.84,4.66-1.82
		c5.6,0.05,11.19,0.06,16.79,0.05c2.11,0,3.8,0.54,4.27,2.89c1.88,0.32,3.6,0.61,5.48,0.92c1.08,0.76,0.64,3.02,2.95,3.06
		c1.56,0.03,0.79,2.22,1.78,3.14c0.7,0.2,1.46,0.42,2.51,0.72c0.19,1.92,0.39,3.96,0.61,6.28c2.42,1.39,3.34,3.75,3.31,6.67
		c-0.04,4.47,0.04,8.95,0.1,13.42c0.03,2.08,0.07,4.16,0.27,6.22c0.12,1.26,0.18,2.76,0.9,3.67c1.76,2.24,1.67,4.75,1.69,7.29
		c0.03,3.2,0.04,6.39-0.02,9.59c-0.03,1.89-0.11,3.66-1.53,5.35c-0.9,1.08-1.03,2.98-1.11,4.53c-0.2,3.83-0.11,7.67-0.27,11.5
		c-0.09,2.2-0.46,4.39-0.69,6.52c-1.93,0.77-3.66,1.38-3.19,3.62c-4.31,1.19-8.28,0.67-12.41,0.56c-0.29-0.62-0.55-1.15-0.79-1.69
		c-0.19-0.43-0.34-0.88-0.5-1.3c-0.78-0.32-1.52-0.61-2.3-0.93c-0.14-0.43-0.39-0.87-0.42-1.32c-0.15-2.39-0.3-4.78-0.34-7.17
		c-0.15-9.1-0.24-18.21-0.38-27.31c-0.03-2.06-0.04-4.02-1.61-5.81c-0.83-0.95-0.92-2.69-1.02-4.09c-0.28-3.82-0.37-7.66-0.59-11.48
		c-0.1-1.75-0.28-3.5-0.55-5.23c-0.09-0.56-0.52-1.47-0.89-1.52c-2.36-0.32-1.41-2.61-2.53-3.97c-1.68-0.22-3.56-0.47-5.55-0.73
		c-0.53-0.7-1.08-1.44-1.71-2.28c-2.15-0.04-4.43-0.68-5.9,1.84c-0.24,0.41-1.13,0.51-1.74,0.6c-1.42,0.21-2.85,0.32-4.24,0.46
		c-1.56,1.22-0.6,4.03-3.05,4.56c-0.39,1.52-1.03,3.02-1.13,4.56c-0.23,3.5-0.15,7.03-0.3,10.54c-0.13,3.01-0.23,5.95-2.17,8.65
		c-0.91,1.27-0.9,3.36-0.93,5.09c-0.18,9.1-0.21,18.21-0.34,27.31c-0.03,2.37-0.24,4.74-0.35,6.92c-2.5,1.33-2.5,1.33-3.64,3.96
		c-3.83,0.95-7.79,0.49-11.95,0.24c-0.49-0.93-0.98-1.88-1.52-2.93c-0.7-0.18-1.46-0.38-2.29-0.6c-0.14-0.41-0.41-0.84-0.43-1.29
		c-0.13-2.23-0.24-4.47-0.26-6.7c-0.08-9.75-0.1-19.49-0.22-29.24c-0.04-2.87-0.35-5.74-0.54-8.6c-0.12-1.77-0.56-3.39-1.39-5.01
		c-0.7-1.35-0.92-3.03-1.04-4.58c-0.24-3.01-0.25-6.03-0.36-9.04c-1.76-0.53-3.32-0.86-3.54-2.88c-0.04-0.42-0.92-1.1-1.36-1.06
		c-2,0.19-2.08-1.72-3.45-2.88c-1.85-0.11-4.06-0.32-6.27-0.36c-2.11-0.04-4.02,0.27-5.5,2.23c-0.64,0.84-2.2,0.98-3.67,1.57
		c-0.47,2-0.67,4.45-2.83,5.98c-1,0.71-0.95,1.94-0.99,3.07c-0.12,4.15-0.24,8.3-0.4,12.45c-0.08,2.06-0.16,4.05-1.68,5.83
		c-0.71,0.82-0.72,2.39-0.74,3.62c-0.18,9.58-0.27,19.17-0.41,28.75c-0.04,2.55-0.12,5.09-0.19,7.75c-1.13,0.43-2.29,0.61-3.04,1.26
		c-0.63,0.54-0.78,1.63-1.15,2.5c-4.07,0.71-8.04,0.57-12.2,0.19c-0.33-0.9-0.43-1.96-1-2.56c-0.59-0.62-1.65-0.81-2.8-1.31
		c-0.09-1.75-0.28-3.64-0.28-5.54c-0.03-26.36-0.05-52.73-0.05-79.09C1078.28,762.22,1078.39,761.13,1078.48,759.53z"/>
	<path class="st0" d="M1447.27,840.76c-0.45-1.47-0.91-2.98-1.41-4.6c-1.05-0.88-3.1-0.99-2.89-3.15c0.18-1.83-1.55-1.69-2.75-2.55
		c-0.24-2.15-0.52-4.51-0.76-6.87c-0.1-0.99-0.24-1.97-1.27-2.38c-1.27-0.5-1.57-1.53-1.62-2.68c-0.39-9.08-0.79-18.16,0.3-27.23
		c0.02-0.15,0.14-0.28,0.24-0.49c0.64-0.33,1.34-0.68,2.1-1.07c0.1-0.42,0.28-0.87,0.32-1.34c0.18-2.07,0.33-4.13,0.48-6.2
		c0.06-0.86,0.39-1.55,1.25-1.84c1.23-0.42,1.65-1.28,1.75-2.53c0.16-1.97,0.74-3.71,2.85-4.57c0.43-0.17,0.75-1.02,0.82-1.59
		c0.15-1.14,0.75-1.66,1.81-1.88c1.09-0.22,1.56-1.01,1.67-2.06c0.1-0.93,0.62-1.42,1.55-1.45c1.16-0.03,1.73-0.61,1.79-1.76
		c0.02-0.31,0.12-0.64,0.29-0.9c0.16-0.25,0.46-0.58,0.7-0.59c3.02-0.08,3.93-4.1,7.31-3.72c2.06,0.23,4.06-0.46,5.43-2.4
		c0.37-0.53,1.34-0.8,2.08-0.88c1.42-0.16,2.87-0.15,4.31-0.14c7.19,0.01,14.38,0.04,21.57,0.06c1.46,0,2.71,0.18,3.82,1.46
		c1.28,1.49,3.16,2.04,5.19,1.98c1.1-0.03,2.21,0.16,3.39,0.26c0.47,0.88,0.91,1.7,1.4,2.61c1.01,0.23,2.11,0.4,3.15,0.73
		c1.06,0.33,2.15,0.67,2.65,1.85c0.41,0.95,1.11,1.51,2.19,1.56c0.95,0.04,1.38,0.63,1.52,1.52c0.05,0.31,0.11,0.78,0.31,0.88
		c2.03,0.95,3.33,2.54,4.2,4.54c2.11,0.51,2.41,2.33,2.87,4.01c0.17,0.6,0.23,1.23,0.34,1.82c0.91,0.47,1.73,0.89,2.6,1.33
		c0.15,1.98,0.3,3.88,0.44,5.69c2.83,2.11,3.18,2.41,3.2,5.39c0.06,8.94-0.01,17.88-0.06,26.81c-0.01,1.12-0.08,2.25-1.16,2.98
		c-1.65,1.1-1.89,2.86-2.14,4.6c-0.2,1.42-0.31,2.85-0.47,4.33c-0.97,1.06-3.13,0.99-2.89,3.22c0.18,1.72-1.49,1.79-2.72,2.38
		c-0.5,1.55-1.02,3.2-1.61,5.02c-2.18,0.81-4.37,1.6-5.89,3.7c-0.6,0.82-2.26,0.87-3.46,1.28c-0.28,0.72-0.56,1.44-0.84,2.14
		c-0.33,0.14-0.62,0.34-0.91,0.36c-1.43,0.12-2.87,0.14-4.3,0.3c-1.72,0.19-3.48,0.23-4.56,2.07c-0.31,0.53-1.34,0.81-2.07,0.9
		c-1.58,0.21-3.18,0.3-4.78,0.31c-9.11,0.03-18.21,0.04-27.32,0.02c-1.26,0-2.54-0.15-3.79-0.38c-1.08-0.2-2.22-0.45-2.66-1.74
		c-0.1-0.28-0.32-0.64-0.57-0.73c-1.16-0.43-2.57-0.5-3.46-1.24c-0.96-0.79-1.73-1.7-2.95-2.26c-1.47-0.68-3.29-1.02-3.79-3.21
		C1449.91,841.75,1448.31,841.36,1447.27,840.76z M1482.81,830.74c4.54-3.22,10.11-1.71,15.18-2.94c0.33-0.82,0.45-1.72,0.97-2.22
		c0.64-0.61,1.6-0.88,2.26-1.21c0.33-1.63,0.8-3.02,0.85-4.43c0.08-1.97,2.49-1.34,3.08-3.67c0-0.76,0-2.35,0-3.94
		c-0.01-5.43,0.04-10.85-0.04-16.28c-0.03-2.21-0.04-4.5-2.57-5.73c-0.53-0.26-0.64-1.33-1-2c-0.43-0.81-0.85-1.63-1.37-2.39
		c-1.7-2.45-4.88-3.34-6.06-5.96c-6.23-0.69-12.13-0.67-18.03-0.21c-1.79,0.14-3.85,0.32-4.53,2.08c-1.1,2.83-4.42,4.25-4.55,7.63
		c-0.02,0.41-0.96,0.72-1.33,1.19c-0.57,0.71-1.24,1.45-1.49,2.29c-0.35,1.2-0.46,2.51-0.47,3.77c-0.05,6.06-0.04,12.13,0,18.19
		c0.01,1.26,0.19,2.54,0.43,3.79c0.11,0.57,0.43,1.43,0.85,1.56c1.86,0.61,2.26,2.01,2.45,3.68c0.04,0.34,0.6,0.89,0.93,0.9
		c1.98,0.08,1.58,2.22,2.98,3.2c1.29,0.09,2.87,0.22,4.46,0.31C1479.74,828.59,1479.74,828.59,1482.81,830.74z"/>
	<path class="st0" d="M1849.25,824.14c-3.71,2.51-3.5,6.37-3.92,10.16c-1.71,0.48-3.42,1.02-3.46,3.26c0,0.27-0.67,0.68-1.08,0.77
		c-1.08,0.23-1.69,0.79-1.79,1.91c-0.01,0.16-0.08,0.31-0.12,0.46c-0.34,1.68-2.33,0.79-3.01,1.94c-0.53,0.9-0.28,2.54-1.75,2.54
		c-2.2,0-2.26,1.9-3.18,3.18c-1.09,0.1-2.19,0.26-3.3,0.3c-1.48,0.05-2.64,0.34-3.76,1.62c-0.83,0.95-2.49,1.3-3.85,1.61
		c-1.22,0.28-2.54,0.18-3.82,0.18c-8.79,0.01-17.58,0.01-26.38,0c-1.28,0-2.57-0.02-3.83-0.2c-0.75-0.1-1.78-0.31-2.12-0.84
		c-1.34-2.05-3.35-2.21-5.45-2.37c-1.26-0.09-2.52-0.3-3.63-0.44c-1.03-1.2-1.15-2.92-2.92-3.16c-1.09-0.15-1.54-0.9-1.78-1.95
		c-0.11-0.51-0.67-1.2-1.12-1.29c-1.3-0.24-1.93-0.86-2.13-2.16c-0.09-0.58-0.45-1.29-0.91-1.6c-2.22-1.47-2.98-3.62-2.94-6.27
		c-0.8-0.35-1.5-0.65-2.21-0.95c-0.17-0.26-0.44-0.5-0.49-0.78c-0.26-1.41-0.4-2.84-0.7-4.24c-0.36-1.68-0.41-3.5-2.22-4.53
		c-0.96-0.55-0.84-1.65-0.86-2.6c-0.11-3.99-0.27-7.98-0.26-11.97c0.02-7.48,0.15-14.96,0.23-22.66c0.78-0.4,1.45-0.73,2.39-1.21
		c0.36-1.66,0.75-3.5,1.19-5.55c0.76-0.31,1.6-0.65,2.74-1.11c0.1-0.6,0.16-1.38,0.39-2.1c0.29-0.9,0.67-1.78,1.12-2.61
		c0.21-0.39,0.61-0.78,1.02-0.96c2.36-1.04,3.56-3.63,6.01-4.48c0.83-0.29,1.44-0.6,1.65-1.47c0.3-1.23,1.05-1.82,2.36-1.96
		c0.71-0.08,1.77-0.48,1.99-1.01c0.78-1.89,2.4-1.91,3.96-2.13c1.26-0.18,2.55-0.19,3.81-0.4c0.58-0.1,1.46-0.39,1.6-0.8
		c0.81-2.45,2.82-2.28,4.71-2.29c7.83-0.03,15.67,0.03,23.5-0.03c2.91-0.02,5.34,0.78,6.91,3.21c2.05,0.25,3.93,0.49,5.7,0.71
		c0.88,1.24,0.92,2.97,2.95,2.84c1.63-0.1,1.95,1.37,2.44,2.79c2.38,0.76,5.31,1.05,6.19,4.22c2.61,1.28,3.03,3.9,3.58,6.2
		c1.09,0.47,1.93,0.84,2.84,1.23c0.19,1.83,0.37,3.57,0.57,5.51c0.74,0.55,1.87,1.02,2.37,1.87c0.53,0.9,0.57,2.14,0.63,3.25
		c0.11,2.23,0.12,4.47,0.13,6.71C1849.26,804.19,1849.25,813.93,1849.25,824.14z M1784.37,787.76c-0.27,3.4-0.5,6.58-0.79,9.74
		c-0.12,1.25-0.32,2.36-1.48,3.33c-1.65,1.37-1.96,4.62-0.35,5.9c1.69,1.33,1.76,2.91,1.94,4.59c0.31,2.99,0.5,6,0.76,9.22
		c1.82,0.15,2.8,0.95,2.86,2.7c0.02,0.48,0.64,1.35,0.98,1.35c2.11-0.04,2.34,1.79,3.24,3.2c1.98,0.23,4.03,0.42,6.07,0.72
		c1.39,0.2,2.72,0.3,3.69,1.77c0.75,1.14,2.24,1.13,2.76,0.03c0.81-1.7,2.16-1.71,3.56-1.85c2.35-0.22,4.7-0.38,6.81-0.54
		c0.97-1.39,0.64-3.41,2.85-3.18c0.3,0.03,0.94-0.55,0.96-0.88c0.14-2.12,2.02-2.58,3.36-3.36c0.13-3.14,0.21-6.01,0.4-8.87
		c0.09-1.41,0.11-2.94,1.34-3.96c1.59-1.32,1.35-2.79,0.36-4.23c-1.53-2.23-1.74-4.74-1.86-7.3c-0.13-2.69-0.29-5.39-0.42-7.88
		c-1.34-1.26-3.27-1.55-3.2-3.61c0.01-0.36-0.51-1.05-0.76-1.04c-2.46,0.09-2.14-2.31-3.08-3.61c-2.15-0.16-4.21-0.29-6.26-0.49
		c-1.42-0.14-2.7-0.35-3.71-1.74c-0.88-1.2-2.31-1.12-3.16,0.19c-0.85,1.3-1.88,1.53-3.18,1.61c-2.22,0.13-4.45,0.28-6.67,0.43
		c-0.84,1.51-0.76,3.68-3.21,3.67c-0.3,0-0.86,0.95-0.87,1.46C1787.24,786.87,1785.76,786.97,1784.37,787.76z"/>
	<path class="st0" d="M1305.08,848.17c-1.2,0.71-2.43,1.16-3.27,2c-1.93,1.93-4.05,1.27-6.21,0.79c-2.29-2.65-5.46-2.18-8.45-2.39
		c-0.47-0.03-0.95-0.1-1.74-0.19c-0.33-0.7-0.71-1.53-1.15-2.46c-1.54-0.96-3.32-0.5-5.04-0.46c-0.45,0.01-1.14,0.16-1.31,0.47
		c-1.46,2.74-4.13,2.66-6.85,2.88c-0.72,2.34-2.69,2.88-4.81,3.16c-0.16,0.02-0.32,0.04-0.48,0.04c-8.31,0-16.62,0-24.7,0
		c-2.67-2.95-2.67-2.95-7.31-3.65c-0.77-1.05-0.6-3.09-2.72-3.22c-0.92-0.06-1.16-0.88-1.32-1.73c-0.11-0.57-0.46-1.51-0.81-1.55
		c-2.26-0.31-2.21-2-2.35-3.59c-0.18-2.06-0.3-4.13-0.45-6.29c-0.83-0.51-1.62-0.99-2.41-1.48c-0.12-0.29-0.34-0.57-0.35-0.87
		c-0.07-1.59-0.11-3.19-0.12-4.78c-0.01-1.46,0.19-2.76,1.49-3.82c1.45-1.19,1.42-3.12,1.67-4.82c0.21-1.41,0.18-2.85,0.28-4.56
		c1.4-0.68,3.36-1.06,3.2-3.35c-0.02-0.28,0.59-0.83,0.96-0.88c1.31-0.18,1.86-1.01,2.26-2.14c0.14-0.38,0.65-0.91,0.99-0.9
		c2.26,0.04,2.9-1.57,3.39-3.35c1.85-0.22,3.59-0.42,5.55-0.65c1.19-2.53,3.53-3.21,6.22-3.22c1.12,0,2.27,0.08,3.35-0.14
		c1.22-0.24,2.85-0.43,3.49-1.26c1.44-1.87,3.26-1.78,5.15-1.81c1.91-0.04,3.83-0.01,5.54-0.01c1.16-1.22,1.95-2.5,3.1-3.13
		c1.04-0.57,2.48-0.43,3.73-0.63c1.08-0.17,2.16-0.39,3.1-0.56c1.73-4.96,1.83-6.61,0.84-12.4c-3.63-0.88-11.52-1.03-19.44-0.37
		c-0.15,0.06-0.38,0.09-0.42,0.19c-0.32,0.73-0.6,1.47-0.94,2.33c-1.74,0.23-3.42,0.67-3.47,3.02c-0.01,0.29-0.65,0.8-1,0.8
		c-2.12,0-1.65,2.02-2.43,3.02c-4.59,1.08-15.15,0.93-19.54-0.3c-1.07-3.85-0.63-7.85-0.43-11.8c0.06-1.14,0.88-2.48,1.75-3.28
		c1.27-1.16,1.87-2.5,1.96-4.1c1.93-0.49,4.02-0.51,3.51-3.14c1.64-0.62,2.94-1.21,4.29-1.61c1.54-0.45,1.59-2.82,3.7-2.59
		c1.41,0.15,2.86-0.16,4.49-0.28c0.56-0.84,1.16-1.74,1.9-2.85c1.43-0.1,3.02-0.3,4.6-0.31c7.99-0.04,15.99-0.04,23.98-0.03
		c2.24,0,4.35,0.09,6.14,1.96c1.05,1.1,2.7,1.59,4.41,1.54c1.1-0.03,2.21,0.24,3.43,0.39c0.32,0.72,0.45,1.7,0.99,2.05
		c1.01,0.66,2.36,0.8,3.38,1.45c0.86,0.55,0.2,2.29,1.7,2.61c0.44,0.09,0.86,0.33,1.35,0.53c0.27,1.43,0.54,2.83,0.79,4.22
		c0.17,0.95,0.31,1.91,1.37,2.34c1.24,0.5,1.47,1.56,1.5,2.73c0.05,1.76,0.14,3.51,0.15,5.27c0.03,7.51,0.02,15.02,0.07,22.53
		c0.02,2.39,0.14,4.79,0.3,7.18c0.06,0.94,0.04,2.19,0.6,2.74c2.23,2.18,2.04,4.94,2.11,7.6c0.15,5.59,0.18,11.18,0.17,16.77
		c0,1.73,0.02,3.5-1.82,4.64c-0.55,0.34-0.76,1.36-0.95,2.11C1305.45,845.84,1305.28,847.11,1305.08,848.17z M1268.68,831.84
		c2.08-0.26,3.8-0.47,5.33-0.65c0.79-1.23,0.64-2.82,2.41-2.91c0.87-0.04,1.47-0.72,1.49-1.59c0.04-1.99,1.82-1.89,3.18-2.67
		c0.23-3.53,0.57-7.17,0.67-10.83c0.05-2.03-0.37-4.03-2.59-5.54c-1.5,2.83-4.11,2.85-6.63,3.02c-2.68,0.18-5.37,0.26-8,0.39
		c-0.53,1.05-0.95,1.88-1.41,2.77c-1.75,0.24-3.48,0.47-5.07,0.69c-1.18,0.97-2.16,2.05-3.37,2.71c-1.19,0.65-2.61,0.87-4.03,1.31
		c-0.11,1.93-0.2,3.67-0.31,5.41c-0.14,2.29-0.05,4.48,2.5,5.56c0.37,1.81,1.87,1.7,3.21,2.2c1.31,0.5,2.25,1.92,3.45,2.8
		c0.48,0.35,1.2,0.49,1.82,0.52c2.04,0.09,4.11,0.37,6.12-0.28C1267.87,833.76,1268.23,832.91,1268.68,831.84z"/>
	<path class="st0" d="M1601.42,851.58c-0.04-1.93-0.09-3.66-0.11-5.38c-0.13-11.98-0.24-23.95-0.4-35.93
		c-0.03-2.52,0.16-5.06-1.86-7.18c-0.63-0.67-0.55-2.12-0.6-3.22c-0.16-3.67-0.24-7.34-0.33-11.01c-0.04-1.59-0.01-3.17-0.01-4.84
		c-1.1-0.43-1.95-0.76-2.81-1.1c-0.34-0.89-0.68-1.77-1.07-2.81c-6.52-1.35-12.99-0.46-19.57-0.04c-0.47,1.13-0.88,2.13-1.28,3.11
		c-0.81,0.24-1.58,0.46-2.55,0.74c-0.28,1.77-0.58,3.64-0.91,5.73c-0.64,0.25-1.36,0.53-2.16,0.85c-0.77,1.76-0.56,3.7-0.64,5.59
		c-0.16,3.83-0.21,7.66-0.4,11.49c-0.16,3.18-0.53,6.28-1.98,9.27c-0.79,1.64-0.84,3.72-0.88,5.61c-0.15,6.71-0.15,13.42-0.2,20.12
		c-0.02,2.86,0,5.73,0,8.84c-1.33,0.26-2.37,0.68-3.39,0.64c-6.65-0.22-13.37,0.77-19.87-0.78c-1.08-2.58-0.85-5-0.85-7.37
		c-0.02-26.36-0.03-52.71-0.04-79.07c0-1.58,0-3.16,0-4.9c4-1.09,7.82-0.47,11.59-0.55c3.82-0.09,7.65,0.05,11.41,0.09
		c1.52,1.96,0.72,4.26,1.78,6.39c0.76-0.11,2.19,0.01,2.37-0.4c0.89-2.08,2.69-2.53,4.53-3.04c0.61-0.17,1.23-0.29,1.79-0.42
		c0.43-0.8,0.8-1.5,1.24-2.31c1.62-0.26,3.29-0.43,4.54-2.02c0.98-1.25,2.61-1.72,4.31-1.71c6.87,0.02,13.75,0,20.62-0.03
		c2.43-0.01,4.35,0.75,5.05,3.21c1.95,0.25,3.69,0.47,5.3,0.67c1.26,0.84,0.87,2.97,2.87,3.03c0.47,0.01,1.3,0.72,1.31,1.11
		c0.02,2.09,1.48,2.62,3.21,2.89c0.3,2.08,0.58,3.96,0.89,6.09c2.52,0.87,3.14,3.08,3.19,5.59c0.04,2.08,0.11,4.15,0.12,6.23
		c0.03,18.36,0.03,36.73,0.06,55.09c0.01,3.82,0.41,7.64-0.33,11.64c-0.74,0.2-1.48,0.56-2.22,0.57
		c-6.55,0.04-13.11,0.02-19.66-0.01C1603.02,852.05,1602.57,851.85,1601.42,851.58z"/>
	<path class="st0" d="M1673.68,831.18c2.3,0.18,4.34,0.33,6.55,0.5c1.3,2.63,3.74,3.59,6.83,3.91c0.67,5.27,0.44,10.48,0.19,15.99
		c-1.63,0.19-3.02,0.47-4.41,0.48c-6.4,0.04-12.79,0.01-19.19-0.01c-1.93-0.01-3.59-0.25-5.1-1.95c-1.02-1.15-3.08-1.37-5.51-2.34
		c-0.35-0.37,0.1-2.69-2.16-2.62c-0.14,0-0.4-0.09-0.42-0.19c-0.9-3.57-4.67-5.63-4.36-10.08c0.52-7.31,0.16-14.69,0.09-22.04
		c-0.06-6.87-0.23-13.74-0.36-20.6c-0.04-2.08-0.07-4.1-1.78-5.76c-0.58-0.56-0.65-1.75-0.78-2.68c-0.3-2.21-0.51-4.42-0.78-6.89
		c-1.06-0.23-2.12-0.44-3.16-0.7c-1.08-0.27-2.25-0.44-2.77-1.63c-0.7-1.58-2.35-1.44-3.72-2.07c-0.7-4.21-0.52-8.44-0.14-12.86
		c2.24-0.16,4.12-0.3,6.08-0.44c2.1-1.64,4.25-3.29,4.58-6.28c3.51-2.65,2.69-6.53,2.82-10.11c0.13-3.48-0.15-6.98,0.35-10.72
		c2.66-0.55,5.2-0.37,7.71-0.39c2.56-0.03,5.12-0.03,7.68,0c2.53,0.03,5.05,0.11,7.75,0.18c0.59,2.12,0.46,4.02,0.51,5.9
		c0.09,3.19,0.12,6.39,0.27,9.58c0.08,1.76,0.35,3.5,1.76,4.81c0.34,0.31,0.77,0.78,0.76,1.17c-0.06,3.03,3.13,3.34,4.41,5.26
		c0.32,0.48,1.44,0.52,2.21,0.59c2.36,0.22,4.73,0.35,7.12,0.52c1.64,4.43,1.13,8.63,0.26,12.9c-2,0.38-3.86,0.73-5.72,1.08
		c-0.42,0.77-0.79,1.47-1.28,2.38c-1.71,0.31-3.57,0.65-5.5,1c-0.96,1.57-0.8,3.37-0.84,5.09c-0.27,11.82-0.59,23.64-0.69,35.46
		C1672.91,822.06,1673.41,826.51,1673.68,831.18z"/>
	<path class="st0" d="M1886.92,851.59c-4.75,0.71-19.42,0.69-23.64-0.01c-0.11-0.81-0.31-1.71-0.33-2.61
		c-0.05-2.39-0.02-4.79-0.02-7.19c0-36.89,0-73.78,0.01-110.67c0-1.88-0.19-3.78,0.26-5.56c3.81-0.67,16.9-0.82,23.38-0.27
		c0.15,0.81,0.46,1.69,0.47,2.58c0.05,4.63,0.03,9.26,0.03,13.89c0,24.27-0.01,48.54,0,72.82c0,11.33,0.04,22.66,0.04,34
		C1887.12,849.5,1887,850.44,1886.92,851.59z"/>
	<path class="st0" d="M1698.3,759.46c6.61-0.12,12.96-0.24,19.46,0.11c0.5,2.15,0.96,4.13,1.45,6.22c1.01,0.15,1.94,0.36,2.87,0.41
		c0.94,0.05,1.88-0.07,3.07-0.12c0.45-1.64,0.65-3.58,2.98-3.63c0.26-0.01,0.53-0.71,0.74-1.12c0.14-0.28,0.12-0.64,0.28-0.9
		c0.15-0.25,0.43-0.61,0.66-0.61c2.82-0.05,3.49-3.66,6.3-3.74c4.12-0.12,8.25-0.72,12.49,0.66c0.28,1.25,0.68,2.46,0.8,3.7
		c0.39,4.04,0.05,15.54-0.51,18.88c-0.8,0.14-1.7,0.35-2.6,0.45c-0.95,0.1-1.92,0.08-2.87,0.14c-2.31,0.14-4.38,0.73-5.19,3.14
		c-1.98,0.19-3.73,0.36-5.47,0.54c-3.8,3.7-3.8,3.7-4.65,6.16c-0.72,0.27-1.44,0.55-2.21,0.84c-0.13,0.46-0.33,0.91-0.36,1.37
		c-0.28,5.74-0.52,11.48-0.8,17.21c-0.1,1.92-0.47,3.68-1.68,5.37c-0.75,1.05-0.87,2.7-0.91,4.09c-0.15,5.58-0.18,11.17-0.2,16.75
		c-0.02,4.47,0.04,8.94,0.02,13.41c0,0.92-0.21,1.84-0.33,2.84c-0.77,0.19-1.38,0.45-1.99,0.46c-6.71,0.01-13.42-0.01-20.13-0.07
		c-0.44,0-0.87-0.32-1.27-0.48C1697.72,847.45,1697.73,764.19,1698.3,759.46z"/>
	<path class="st0" d="M1049.85,758.54c0.46-0.73,0.96-1.53,1.53-2.44c4.11-0.22,8.21-0.68,12.51,0.52c0.93,3.85,0.5,7.68,0.54,11.46
		c0.03,3.65,0.21,7.31-0.23,10.94c-1.63,1.04-3.27,0.65-4.81,0.82c-2.34,0.27-4.74,0.13-6.46,2.4c-0.54,0.71-2.01,0.86-3.09,1
		c-1.74,0.22-3.5,0.22-5.49,0.33c-0.35,0.8-0.56,1.78-1.14,2.42c-0.6,0.66-1.56,0.98-2.63,1.6c-0.12,3.64-0.24,7.45-0.37,11.26
		c-0.1,3.04-0.22,6.03-2.05,8.72c-0.57,0.84-0.59,2.13-0.65,3.22c-0.22,3.82-0.45,7.65-0.5,11.48c-0.09,6.23,0,12.46-0.07,18.69
		c-0.03,2.21-0.33,4.41-0.49,6.41c-1.23,0.77-2.64,1.14-2.97,1.95c-0.82,2.01-2.37,2.58-4.14,2.58c-3.5,0.01-7.01-0.2-10.51-0.38
		c-0.97-0.05-1.68-0.47-2.21-1.5c-0.62-1.22-0.81-1.13-3.21-1.91c-0.77-2.2-0.58-4.6-0.59-6.96c-0.03-18.37-0.02-36.74-0.03-55.11
		c0-7.03,0-14.06,0-21.09c0-1.58,0-3.17,0-4.71c0.63-0.34,1.03-0.75,1.43-0.75c6.06-0.04,12.13-0.03,17.93-0.03
		c1.5,1.07,1.08,3.47,3.37,3.39c0.91-0.03,1.21,0.9,1.3,1.74c0.13,1.18,0.86,1.61,1.95,1.61c1.05,0,1.8-0.29,2.03-1.51
		c0.1-0.54,0.55-1.29,1.01-1.45c1.45-0.5,2.2-1.65,3.24-2.61C1046.26,759.55,1048.17,759.23,1049.85,758.54z"/>
	<path class="st1" d="M926.95,800.16c-0.6-1.84-0.3-3.72-0.2-5.7c1-0.56,1.94-1.08,3.11-1.73c0.18-2.75,0.36-5.59,0.56-8.73
		c0.62-0.38,1.39-0.85,2.16-1.33c1.16-2.38,1.08-4.95,1.16-7.49c0.04-1.21,0.38-2.11,1.72-2.52c0.47-0.14,0.98-0.81,1.1-1.32
		c0.26-1.08,0.24-2.21,0.38-3.32c0.52-4.07,1.4-4.81,6.28-5.04c0.4,1.91,0.8,3.89,1.23,5.96c0.84,0.4,1.68,0.81,2.6,1.25
		c0.1,0.4,0.28,0.85,0.32,1.31c0.13,1.43,0.03,2.9,0.35,4.28c0.28,1.19,0.72,2.71,1.61,3.29c1.49,0.98,1.65,2.17,1.7,3.64
		c0.06,1.59,0.23,3.18,0.28,4.77c0.06,1.68,0.8,2.71,2.76,2.71c0,3.39,0,6.55,0,10.01c-1.24,0.86-3.09,0.95-4.27,2.41
		c-0.58,0.71-2.01,0.97-3.08,1.01c-3.02,0.12-6.06,0.09-9.08-0.01c-0.93-0.03-2.21-0.14-2.71-0.73c-1.79-2.14-4.19-1.97-6.53-2.22
		C927.97,800.63,927.55,800.38,926.95,800.16z"/>
	<path class="st1" d="M1482.81,830.74c-3.07-2.15-3.08-2.15-7.02-2.39c-1.58-0.1-3.17-0.22-4.46-0.31c-1.4-0.98-1-3.12-2.98-3.2
		c-0.34-0.01-0.89-0.55-0.93-0.9c-0.19-1.67-0.59-3.07-2.45-3.68c-0.42-0.14-0.74-0.99-0.85-1.56c-0.24-1.25-0.42-2.52-0.43-3.79
		c-0.04-6.06-0.04-12.13,0-18.19c0.01-1.26,0.13-2.57,0.47-3.77c0.24-0.84,0.91-1.58,1.49-2.29c0.38-0.47,1.32-0.78,1.33-1.19
		c0.13-3.38,3.45-4.81,4.55-7.63c0.68-1.75,2.74-1.94,4.53-2.08c5.9-0.46,11.8-0.48,18.03,0.21c1.18,2.62,4.36,3.51,6.06,5.96
		c0.52,0.75,0.95,1.57,1.37,2.39c0.35,0.67,0.47,1.75,1,2c2.53,1.23,2.54,3.52,2.57,5.73c0.08,5.43,0.04,10.85,0.04,16.28
		c0,1.59,0,3.18,0,3.94c-0.59,2.33-3.01,1.7-3.08,3.67c-0.05,1.41-0.52,2.8-0.85,4.43c-0.66,0.33-1.62,0.6-2.26,1.21
		c-0.51,0.49-0.63,1.4-0.97,2.22C1492.93,829.03,1487.35,827.52,1482.81,830.74z"/>
	<path class="st1" d="M1784.37,787.76c1.4-0.79,2.87-0.88,2.9-2.64c0.01-0.51,0.57-1.46,0.87-1.46c2.45,0.01,2.36-2.16,3.21-3.67
		c2.22-0.14,4.45-0.3,6.67-0.43c1.3-0.07,2.33-0.3,3.18-1.61c0.85-1.31,2.28-1.39,3.16-0.19c1.02,1.39,2.29,1.6,3.71,1.74
		c2.05,0.2,4.12,0.32,6.26,0.49c0.95,1.3,0.62,3.7,3.08,3.61c0.25-0.01,0.77,0.69,0.76,1.04c-0.07,2.07,1.86,2.36,3.2,3.61
		c0.13,2.49,0.3,5.18,0.42,7.88c0.12,2.56,0.34,5.07,1.86,7.3c0.99,1.44,1.23,2.92-0.36,4.23c-1.23,1.02-1.24,2.55-1.34,3.96
		c-0.19,2.86-0.26,5.73-0.4,8.87c-1.33,0.78-3.22,1.24-3.36,3.36c-0.02,0.33-0.66,0.91-0.96,0.88c-2.21-0.23-1.88,1.79-2.85,3.18
		c-2.1,0.16-4.46,0.31-6.81,0.54c-1.4,0.13-2.75,0.15-3.56,1.85c-0.53,1.1-2.01,1.12-2.76-0.03c-0.97-1.48-2.3-1.57-3.69-1.77
		c-2.04-0.29-4.09-0.49-6.07-0.72c-0.9-1.41-1.13-3.23-3.24-3.2c-0.33,0.01-0.96-0.87-0.98-1.35c-0.06-1.75-1.04-2.55-2.86-2.7
		c-0.26-3.22-0.45-6.23-0.76-9.22c-0.17-1.69-0.25-3.26-1.94-4.59c-1.62-1.28-1.3-4.53,0.35-5.9c1.16-0.97,1.37-2.08,1.48-3.33
		C1783.87,794.33,1784.09,791.16,1784.37,787.76z"/>
	<path class="st1" d="M1268.68,831.84c-0.45,1.07-0.81,1.92-1.23,2.9c-2.01,0.64-4.07,0.37-6.12,0.28
		c-0.62-0.03-1.34-0.16-1.82-0.52c-1.2-0.89-2.13-2.31-3.45-2.8c-1.33-0.51-2.84-0.4-3.21-2.2c-2.55-1.08-2.64-3.27-2.5-5.56
		c0.11-1.74,0.2-3.48,0.31-5.41c1.42-0.44,2.84-0.66,4.03-1.31c1.21-0.66,2.19-1.73,3.37-2.71c1.59-0.22,3.32-0.45,5.07-0.69
		c0.45-0.9,0.87-1.72,1.41-2.77c2.62-0.12,5.31-0.21,8-0.39c2.52-0.17,5.13-0.19,6.63-3.02c2.22,1.51,2.64,3.52,2.59,5.54
		c-0.1,3.65-0.44,7.3-0.67,10.83c-1.37,0.78-3.14,0.68-3.18,2.67c-0.02,0.87-0.62,1.55-1.49,1.59c-1.77,0.09-1.63,1.68-2.41,2.91
		C1272.48,831.38,1270.76,831.59,1268.68,831.84z"/>
</g>
</svg>
