<?xml version="1.0" encoding="utf-8"?>
<!-- Generator: Adobe Illustrator 24.0.0, SVG Export Plug-In . SVG Version: 6.00 Build 0)  -->
<svg version="1.1" id="Layer_1" xmlns="http://www.w3.org/2000/svg" xmlns:xlink="http://www.w3.org/1999/xlink" x="0px" y="0px"
	 viewBox="0 0 2761 991" style="enable-background:new 0 0 2761 991;" xml:space="preserve">
<style type="text/css">
	.st0{fill:#1B2A4E;}
	.st1{fill:none;}
</style>
<g>
	<path class="st0" d="M1386.56,219.7c61.38,60.28,121.56,119.39,182.83,179.57c-61.09,59.99-121.27,119.1-182.79,179.51
		c-60.94-59.82-121.35-119.11-182.87-179.5C1264.78,339.31,1324.97,280.19,1386.56,219.7z"/>
	<path class="st0" d="M1181.86,577.83c-61.41-60.31-121.14-118.99-181.83-178.59c60.82-59.72,120.8-118.62,181.42-178.14
		c26.62,28.15,52.55,55.58,78.04,82.53c-29.07,30.04-60.61,62.62-91.42,94.45c31.55,32.59,63.13,65.21,93.34,96.41
		C1234.9,522.28,1208.64,549.78,1181.86,577.83z"/>
	<path class="st0" d="M1590.52,578.55c-26.86-28.44-52.58-55.67-77.3-81.85c29.82-31,61.3-63.73,91.7-95.33
		c-31.57-32.96-62.93-65.72-92.66-96.75c26.27-27.6,52.46-55.11,79.45-83.47c60.54,59.45,120.51,118.33,181.39,178.12
		C1712.23,459.03,1652.23,517.95,1590.52,578.55z"/>
	<path class="st0" d="M1216.59,755.93c-3.62,2.96-7.56,5.93-11.21,9.24c-5.31,4.81-9.54,6.02-15.64,0.03
		c-8.08-7.94-18.28-9.61-28.74-3.79c-9.89,5.51-15.59,19.58-12.68,32.4c2.49,10.99,8.84,18.85,20.56,20.85
		c9.65,1.64,17.82-1.36,25.9-9.21c-6.33-1.1-11.02-1.91-16.27-2.82c0-6.15,0-11.81,0-18.29c13.87,0,27.94,0,42.05,0
		c5.3,23.52-9.1,47.64-32.59,54.48c-28.9,8.41-57.73-5.43-66.84-32.1c-10.09-29.53,2-58.4,29.09-69.46
		C1176.14,726.67,1206.6,734.87,1216.59,755.93z"/>
	<path class="st0" d="M1028.59,839.31c-6.29,0-10.53-0.42-14.67,0.08c-10.86,1.31-18.81-0.56-19.98-13.79
		c-0.2-2.29-4.88-5.45-7.87-5.96c-5.62-0.96-11.63-0.94-17.27-0.02c-3.03,0.5-7.86,3.53-8.03,5.73
		c-1.03,13.15-8.7,15.44-19.75,14.04c-4.14-0.52-8.4-0.08-13.86-0.08c0.99-3.95,1.47-6.84,2.43-9.58
		c10.4-29.79,20.65-59.64,31.66-89.2c1.26-3.38,6.95-7.26,10.52-7.19c7.26,0.14,17.21-5.04,21.19,5.92
		C1004.77,771.76,1016.19,804.39,1028.59,839.31z M977.16,766.48c-3.88,12.97-6.76,22.59-9.74,32.54c6.9,0,12.73,0,19.58,0
		C983.85,788.61,981.02,779.25,977.16,766.48z"/>
	<path class="st0" d="M1847.69,745.14c-6.16,18.7-6.84,18.93-23.63,13.58c-5.07-1.62-10.73-3.31-15.75-2.54
		c-4.5,0.69-8.5,4.71-12.72,7.26c3.05,3.48,5.44,8.38,9.27,10.15c7.62,3.51,16.15,4.99,24.1,7.86c17.99,6.5,25.74,18.15,22.93,33.77
		c-2.99,16.64-14.32,25.75-32.61,26.57c-18.7,0.84-36.98,0.04-54.29-12.21c3.37-6.55,6.77-13.15,9.32-18.12
		c13.62,3.27,26,6.93,38.64,8.84c3.58,0.54,7.93-4.01,11.93-6.23c-2.99-3.48-5.33-8.33-9.12-10.16c-7.55-3.64-16.02-5.3-23.88-8.36
		c-15.73-6.13-22.69-14.96-22.32-27.46c0.46-15.34,9.85-28.08,25.37-32.04C1813.7,731.26,1831.36,735,1847.69,745.14z"/>
	<path class="st0" d="M1670.27,829.56c1.64-3.45,3.29-6.43,4.52-9.57c3.12-8.01,7.27-9.74,15.91-6.05
		c8.95,3.82,19.13,5.24,28.92,6.34c3.13,0.35,6.76-3.66,10.15-5.68c-2.44-3.45-4.15-8.5-7.48-10.03
		c-8.68-3.99-18.13-6.26-27.16-9.53c-12.15-4.41-20.68-11.7-20.38-26.09c0.3-14.59,6.55-25.35,20.12-30.91
		c20.27-8.3,39.16-3.07,58.94,7.15c-3.55,6.77-6.79,12.97-9.42,17.98c-11.6-2.73-21.5-6.04-31.62-6.93
		c-3.89-0.34-8.26,4.81-12.41,7.46c3.14,3.46,5.64,8.35,9.54,10.08c8.04,3.55,16.95,5.07,25.27,8.05
		c16.57,5.93,23.62,17.49,21.23,33.83c-2.2,15.04-12.95,24.78-29.45,25.91C1707.22,842.93,1687.78,842.25,1670.27,829.56z"/>
	<path class="st0" d="M1612.31,774.22c10.32,0,20.21,0,31.03,0c0,6.13,0,11.28,0,17.78c-9.8,0-19.96,0-30.93,0
		c0,9.92,0,18.52,0,28.59c8.73,0,17.09,0,25.46,0c8.08,0,16.15,0,25.48,0c0.35,6.97,0.66,13.26,1.01,20.34c-26.06,0-50.96,0-77.67,0
		c0-8.67,0-17.38,0-26.09c0-23.15-0.24-46.3,0.28-69.44c0.08-3.34,3.74-9.41,5.89-9.47c22.64-0.7,45.32-0.43,68.71-0.43
		c0,6.93,0,12.56,0,19.68c-15.95,0-32.27,0-49.26,0C1612.31,762.18,1612.31,767.69,1612.31,774.22z"/>
	<path class="st0" d="M1265.96,841.66c9.19-25.11,17.86-48.87,26.6-72.6c2.53-6.86,5.82-13.49,7.78-20.5
		c2.95-10.54,9.75-14.63,19.84-12.36c4.04,0.91,9.55,3.74,10.86,7.08c11.94,30.44,23.11,61.17,34.45,91.85
		c0.51,1.39,0.45,2.98,0.65,4.43c-18.75,5.6-22.9,3.91-29.02-13.27c-2.14-6-4.94-9.18-11.56-8.13c-2.26,0.36-4.66,0.35-6.93,0.01
		c-13.43-2.02-22.98,0.97-25.27,16.63c-0.4,2.71-6.12,5.76-9.84,6.58C1278.43,842.51,1272.89,841.66,1265.96,841.66z
		 M1329.42,799.99c-4.06-11.95-7.76-22.81-11.46-33.67c-0.87,0.13-1.73,0.25-2.6,0.38c-3.62,10.7-7.23,21.39-11.25,33.29
		C1313.15,799.99,1320.55,799.99,1329.42,799.99z"/>
	<path class="st0" d="M1576.89,754.06c-10.5,7.46-16.1,11.44-21.5,15.28c-1.17-0.55-2.01-0.71-2.5-1.21
		c-14.23-14.35-30.57-16.27-42.87-5.01c-12.26,11.23-13.39,34.19-2.33,47.65c9.77,11.89,26.18,13.3,39.55,3.92
		c3.43-2.4,8.37-5.29,11.76-4.47c4.77,1.17,8.75,5.59,13.06,8.63c-3,4.2-5.23,9.38-9.12,12.45c-20.97,16.48-53.93,14.2-71.87-4.44
		c-20.26-21.06-21.83-51.8-3.76-73.66c17-20.57,49.66-25.1,72.54-10.09C1564.99,746.48,1570.19,749.75,1576.89,754.06z"/>
	<path class="st0" d="M1466.32,757.57c-5.4,3.91-10.92,7.9-19.04,13.77c-0.76-1.96-1-4.26-2.27-5.56
		c-10.74-11.01-24.9-13.03-36.63-5.47c-11.87,7.64-16.9,25.02-11.7,40.39c4.62,13.66,16.28,21.58,30.22,19.77
		c4.43-0.58,9.05-2.26,12.87-4.61c13.6-8.33,14.29-8.44,26.95,2.83c-5.45,18.55-30.22,25.85-54.93,22.72
		c-21.38-2.71-40.78-26.29-42.14-50.34c-1.45-25.62,14.5-48,38.97-54.69C1432.63,729.83,1456.05,738.13,1466.32,757.57z"/>
	<path class="st0" d="M1052.37,838.57c0-26.87,0-52.91,0-79.98c-10.47,0-19.96,0-31.3,0c0-7.35-0.46-13.74,0.26-20.01
		c0.24-2.06,3.49-5.39,5.4-5.41c28.41-0.35,56.82-0.24,85.9-0.24c0,8.61,0,16.14,0,24.86c-9.43,0-18.86,0-29.78,0
		c0,27.44,0,53.76,0,80.78C1072.31,838.57,1063.27,838.57,1052.37,838.57z"/>
	<path class="st1" d="M977.16,766.48c3.86,12.77,6.69,22.12,9.84,32.54c-6.85,0-12.68,0-19.58,0
		C970.4,789.07,973.28,779.45,977.16,766.48z"/>
	<path class="st1" d="M1329.42,799.99c-8.87,0-16.27,0-25.31,0c4.02-11.89,7.64-22.59,11.25-33.29c0.87-0.13,1.73-0.25,2.6-0.38
		C1321.66,777.18,1325.36,788.04,1329.42,799.99z"/>
</g>
</svg>
