<?xml version="1.0" encoding="utf-8"?>
<!-- Generator: Adobe Illustrator 24.0.0, SVG Export Plug-In . SVG Version: 6.00 Build 0)  -->
<svg version="1.1" id="Layer_1" xmlns="http://www.w3.org/2000/svg" xmlns:xlink="http://www.w3.org/1999/xlink" x="0px" y="0px"
	 viewBox="0 0 2761 991" style="enable-background:new 0 0 2761 991;" xml:space="preserve">
<style type="text/css">
	.st0{fill:#1B2A4E;}
	.st1{fill:none;}
</style>
<path class="st0" d="M2349.81,781.1c-17.14-40.32-34.34-80.03-50.93-119.99c-16.37-39.42-32.15-79.1-50.37-118.47
	c0,78.71,0,157.42,0,237.29c-17.44,0-33.31,0-50.15,0c-0.26-4.19-0.73-8.34-0.73-12.49c-0.04-94.5,0.18-189-0.3-283.5
	c-0.06-12.07,3.58-15.91,15.36-15.3c16.66,0.86,33.41,0.74,50.1,0.25c8.97-0.26,13.41,3.05,16.79,11.49
	c29.2,72.85,58.87,145.51,88.45,218.21c1.02,2.51,2.51,4.82,4.64,8.84c12.67-28.93,24.33-56.36,36.65-83.49
	c21.45-47.23,43.56-94.17,64.76-141.51c4.3-9.6,9.41-14.11,20.25-13.46c14.27,0.86,28.66,0.86,42.93,0.03
	c12.01-0.7,15.55,3.93,15.47,15.62c-0.38,56.79-0.02,113.59,0.04,170.38c0.04,37.23-0.26,74.46,0.21,111.68
	c0.13,10.84-2.79,15.48-14.53,14.65c-14.63-1.02-29.39-0.25-45.99-0.25c0-80.58,0-159.98,0-239.37c-1.22-0.33-2.45-0.67-3.67-1
	c-1.84,3.33-3.98,6.54-5.49,10.01c-30.58,70.24-61.49,140.35-91.27,210.92c-6.24,14.78-13.77,22.73-30.31,19.54
	C2358.07,780.5,2354.17,781.1,2349.81,781.1z"/>
<path class="st0" d="M1590.4,778.64c0-3.5,0-7.69,0-11.89c0-93.98,0.25-187.97-0.3-281.94c-0.07-12.62,3.39-16.55,15.95-16.18
	c40.52,1.17,81.19-0.46,121.58,2.3c63.66,4.35,124.63,37.06,137.03,111c18.53,110.4-41.17,189.24-144.98,196.24
	C1677.51,781.01,1635,778.64,1590.4,778.64z M1652.54,739.46c20.32,0,38.94,1,57.43-0.2c42.35-2.75,74.96-26.62,84.75-66.77
	c6.09-24.98,8.11-51.96,6.26-77.63c-2.46-34.2-20.41-61.02-52.98-75.75c-30.69-13.88-63.01-9.72-95.46-9.56
	C1652.54,586.77,1652.54,662.36,1652.54,739.46z"/>
<path class="st0" d="M730.66,622.38c-0.32,75.65-40.18,136.98-103.87,156.42c-97.01,29.61-192.15-22.75-206.27-130.39
	c-8.25-62.91,9.28-115.72,59.97-154.14c51.84-39.28,109.86-41.61,166.96-13.78C705.29,508.68,729.78,559.39,730.66,622.38z
	 M486.42,618.34c-0.2,29.87,3.72,56.1,16.75,80.18c15.09,27.9,38.62,42.86,70.57,43.19c31.86,0.33,57.15-13.02,71.39-41.52
	c24.33-48.7,26.41-98.88,2.39-148.53c-14.52-30.02-40.63-44.01-73.05-43.94c-32.51,0.07-57.5,15.05-73.01,44.42
	C490.03,573.78,485.78,596.93,486.42,618.34z"/>
<path class="st0" d="M921.22,463.88c83.19-3.32,157.69,65.43,155.89,163.86c-1.71,93.2-68.24,160.51-160.24,159.19
	c-89.42-1.28-157.93-71.8-152.08-176.56C769.27,530,831.1,461.42,921.22,463.88z M1011.59,622.36c-4.2-19.87-6.13-40.58-13.09-59.43
	c-12.66-34.32-38.34-54.26-75.86-55.08c-34.58-0.75-61.63,14.26-76.07,45.93c-22.72,49.86-21.7,100.79,4.97,148.5
	c30.26,54.14,106.21,53.43,138.18,0.28C1004.42,678.14,1008.86,651.07,1011.59,622.36z"/>
<path class="st0" d="M192.76,465.29c49.37,2.22,97.88,2.67,146,7.23c28.36,2.69,50.49,19.64,55.71,49.56
	c5.52,31.62-5.14,58.31-32.97,76.42c-7.09,4.61-14.78,8.3-23.23,12.99c5.81,1.52,10.62,2.63,15.36,4.03
	c32.69,9.67,56.29,29.31,61.01,64.22c4.79,35.43-11.12,62.67-40.47,82.39c-19.67,13.22-42.22,18.03-64.99,18.86
	c-38.47,1.4-77.04,0.39-116.42,0.39C192.76,677.1,192.76,573.35,192.76,465.29z M255.43,741.39c16.59,0,32.36,1.61,47.68-0.35
	c27.35-3.5,44.74-23.68,45.86-50.12c1.06-25.12-14.25-45.94-41.07-50.47c-16.87-2.85-34.61-0.53-52.47-0.53
	C255.43,673.41,255.43,706.61,255.43,741.39z M255.43,598.03c26.43,1.98,50.32,0.32,68.39-20.12c11.64-13.18,14.69-28.62,9.57-45.33
	c-4.81-15.7-17.52-22.71-32.35-24.25c-14.89-1.54-30.06-0.34-45.61-0.34C255.43,538.09,255.43,567.48,255.43,598.03z"/>
<path class="st0" d="M1365.41,468.39c0,104.14,0,207.91,0,313.47c-13.3,0-26.56,0.85-39.6-0.46c-4.59-0.46-9.49-5.56-12.8-9.7
	c-54.89-68.43-109.55-137.05-164.27-205.62c-1.44-1.81-2.97-3.54-7.44-8.86c0,77.01,0,149.97,0,223.81c-17.8,0-33.22,0-49.35,0
	c0-104.27,0-208.05,0-313.65c13.6,0,26.9-0.99,39.92,0.5c5.05,0.57,10.39,5.98,14.02,10.47c53.91,66.78,107.54,133.78,161.26,200.71
	c2.04,2.54,4.17,5,9.02,10.81c0-75.97,0-148.2,0-221.47C1333.72,468.39,1349.13,468.39,1365.41,468.39z"/>
<path class="st0" d="M1868.11,781.1c11.07-27.53,21.39-53.47,31.91-79.34c29.57-72.74,59.42-145.37,88.6-218.27
	c4.36-10.9,10.06-15.06,21.95-14.92c35.78,0.44,35.71-0.03,48.4,33.67c33.02,87.69,66.13,175.35,99.15,263.04
	c1.79,4.75,3.07,9.69,4.98,15.81c-21.13,0-40.67,0.53-60.15-0.44c-3.95-0.2-9.54-5.28-11.09-9.36
	c-8.27-21.77-15.87-43.83-22.88-66.04c-2.48-7.86-6.48-10.3-14.37-10.21c-30.07,0.36-60.14,0.48-90.2-0.07
	c-8.83-0.16-12.51,3.28-15.31,11.13c-7.67,21.5-16.78,42.5-24.05,64.13c-3.07,9.12-7.74,11.49-16.56,11.03
	C1895.72,780.61,1882.9,781.1,1868.11,781.1z M2056.39,658.17c-14.38-43.53-27.83-84.27-41.29-125.02c-1.02,0.3-2.05,0.6-3.07,0.91
	c-13.71,40.79-27.42,81.57-41.72,124.11C1999.09,658.17,2025.96,658.17,2056.39,658.17z"/>
<path class="st0" d="M1439.96,596.55c28.73,0,56.8,0.62,84.82-0.28c12.71-0.41,17.71,2.73,17.27,16.32
	c-1,31.34,1.1,24.84-25.15,25.23c-25.22,0.37-50.44,0.08-76.96,0.08c0,34.17,0,67.21,0,101.78c40.95,0,81.26,0,122.31,0
	c0,14.16,0,26.82,0,40.46c-60.63,0-120.99,0-183.79,0c0-4.1,0-8.6,0-13.11c0-94.44,0.24-188.87-0.29-283.31
	c-0.07-12.46,4.24-15.18,15.59-15.08c51.03,0.46,102.07,0.6,153.1-0.07c13.34-0.18,17.96,4.2,16.32,17.16
	c-0.89,6.98-0.16,14.17-0.16,22.87c-41.19,0-81.48,0-123.06,0C1439.96,538.49,1439.96,566.76,1439.96,596.55z"/>
<path class="st0" d="M905.06,448.02c-105.6-16.38-209.04-16.18-314.51-0.24c0-12.73-0.83-23.63,0.46-34.28
	c0.43-3.55,5.86-8.54,9.72-9.32c67.59-13.67,135.79-19.17,204.58-12.17c28.83,2.93,57.44,7.93,86.22,11.43
	c10.79,1.31,14.72,6.26,13.69,16.94C904.41,428.8,905.06,437.36,905.06,448.02z"/>
<path class="st0" d="M691.45,266.37c25.07,0.07,44.56,19.36,44.56,44.1c0.01,23.93-20.99,44.85-44.84,44.67
	c-25.1-0.19-44.32-19.4-44.33-44.3C646.82,284.04,664.63,266.29,691.45,266.37z"/>
<path class="st0" d="M805.38,266.37c24.95,0.15,44.38,19.46,44.27,44.01c-0.11,24.59-21.17,45.09-45.98,44.76
	c-24-0.32-43.63-20.62-44.22-45.02C758.97,290.32,778.46,262.88,805.38,266.37z"/>
<path class="st0" d="M747.71,168.49c15.71,13.03,30.31,25.15,44.12,36.61c-15.27,15.08-30,29.63-43.51,42.97
	c-13.47-12.35-28.8-26.41-45.78-41.98C718.25,193.02,732.93,180.79,747.71,168.49z"/>
<path class="st0" d="M590.06,366.61c-20.02-0.02-33.62-12.99-33.95-32.38c-0.3-17.74,15.55-33.36,33.87-33.36
	c18.4,0,33.66,15.06,33.82,33.38C623.96,353.26,610.03,366.63,590.06,366.61z"/>
<path class="st0" d="M906.06,366.84c-19.97,0.06-34.5-13.28-34.65-31.83c-0.15-18.19,15.16-34.03,33.07-34.21
	c18.09-0.18,34.43,15.17,34.85,32.71C939.77,352.01,925.03,366.78,906.06,366.84z"/>
<path class="st1" d="M1652.54,739.46c0-77.1,0-152.69,0-229.91c32.45-0.15,64.77-4.31,95.46,9.56
	c32.56,14.72,50.52,41.55,52.98,75.75c1.84,25.67-0.18,52.64-6.26,77.63c-9.78,40.15-42.4,64.03-84.75,66.77
	C1691.49,740.46,1672.86,739.46,1652.54,739.46z"/>
<path class="st1" d="M486.42,618.34c-0.64-21.41,3.62-44.56,15.04-66.19c15.51-29.37,40.5-44.35,73.01-44.42
	c32.42-0.07,58.52,13.91,73.05,43.94c24.02,49.65,21.94,99.83-2.39,148.53c-14.24,28.5-39.53,41.85-71.39,41.52
	c-31.94-0.33-55.47-15.29-70.57-43.19C490.14,674.44,486.22,648.21,486.42,618.34z"/>
<path class="st1" d="M1011.59,622.36c-2.73,28.71-7.17,55.78-21.86,80.2c-31.98,53.16-107.92,53.86-138.18-0.28
	c-26.67-47.71-27.7-98.64-4.97-148.5c14.43-31.67,41.49-46.69,76.07-45.93c37.52,0.82,63.2,20.76,75.86,55.08
	C1005.46,581.78,1007.39,602.49,1011.59,622.36z"/>
<path class="st1" d="M255.43,741.39c0-34.78,0-67.98,0-101.48c17.86,0,35.6-2.32,52.47,0.53c26.82,4.53,42.13,25.35,41.07,50.47
	c-1.12,26.44-18.5,46.62-45.86,50.12C287.79,743,272.02,741.39,255.43,741.39z"/>
<path class="st1" d="M255.43,598.03c0-30.55,0-59.94,0-90.04c15.55,0,30.72-1.2,45.61,0.34c14.83,1.54,27.53,8.55,32.35,24.25
	c5.12,16.71,2.07,32.15-9.57,45.33C305.75,598.35,281.86,600.01,255.43,598.03z"/>
<path class="st1" d="M2056.39,658.17c-30.44,0-57.3,0-86.08,0c14.3-42.54,28.01-83.33,41.72-124.11c1.02-0.3,2.04-0.6,3.07-0.91
	C2028.56,573.89,2042.02,614.64,2056.39,658.17z"/>
</svg>
