<?xml version="1.0" encoding="utf-8"?>
<!-- Generator: Adobe Illustrator 24.0.0, SVG Export Plug-In . SVG Version: 6.00 Build 0)  -->
<svg version="1.1" id="Layer_1" xmlns="http://www.w3.org/2000/svg" xmlns:xlink="http://www.w3.org/1999/xlink" x="0px" y="0px"
	 viewBox="0 0 2761 991" style="enable-background:new 0 0 2761 991;" xml:space="preserve">
<style type="text/css">
	.st0{fill:#1B2A4E;}
	.st1{fill:none;}
</style>
<g>
	<path class="st0" d="M2317,474.09c0.24,1.36,0.38,2.2,0.55,3.14c2.62,0.18,5.14,0.35,7.79,0.52c0.15,1.25,0.29,2.4,0.44,3.66
		c1.25,0.13,2.41,0.24,3.64,0.37c0.11,1.12,0.21,2.13,0.33,3.34c1.26,0.16,2.48,0.31,3.79,0.48c0.1,1.27,0.19,2.43,0.3,3.69
		c1.13,0.11,2.14,0.21,3.37,0.33c0.19,2.36,0.39,4.71,0.6,7.28c1.09,0.2,2.15,0.39,3.43,0.63c0.45,9.08,0.41,18.15-0.06,27.43
		c-1.09,0.15-2.16,0.29-3.39,0.46c-0.32,2.37-0.64,4.78-0.98,7.28c-1.04,0.13-1.96,0.25-3.12,0.39c-0.12,1.23-0.24,2.46-0.37,3.87
		c-1.29,0.14-2.52,0.28-3.87,0.43c-0.12,1.09-0.22,2.09-0.35,3.26c-2.44,0.28-4.78,0.55-7.25,0.84c-0.14,1.1-0.27,2.17-0.43,3.37
		c-1.68,0.11-3.25,0.25-4.83,0.29c-4.71,0.12-9.43,0.29-14.15,0.29c-53.34,0.02-106.69,0.02-160.03,0c-3.66,0-7.33-0.21-11.2-0.33
		c-0.12-1.29-0.22-2.44-0.34-3.74c-1.24-0.12-2.4-0.24-3.73-0.37c-0.46-5.13-0.38-10.19,0.01-15.47c1.23-0.11,2.39-0.21,3.75-0.33
		c0.14-1.24,0.28-2.47,0.45-3.92c3.41-0.09,6.75-0.26,10.08-0.27c42.15-0.02,84.3-0.01,126.44-0.01c13.04,0,26.07-0.01,39.11-0.02
		c0.78,0,1.56-0.07,2.44-0.12c0.17-0.97,0.31-1.81,0.49-2.83c0.46-0.11,0.97-0.31,1.49-0.36c2.35-0.24,2.36-0.23,2.58-2.69
		c0.02-0.24,0.04-0.48,0.09-0.71c0.03-0.15,0.13-0.29,0.26-0.59c0.83-0.14,1.74-0.3,2.83-0.48c0-2.38,0-4.74,0-7.33
		c-1.11-0.2-2.17-0.4-3.39-0.62c-0.13-1.16-0.26-2.31-0.41-3.68c-13.88-0.48-27.7-0.18-41.52-0.23
		c-13.84-0.05-27.67-0.01-41.51-0.01c-13.84,0-27.67,0-41.51,0c-13.82,0-27.64,0-41.58,0c-0.21-1.27-0.38-2.27-0.57-3.43
		c-3.77-0.32-7.53-0.63-11.36-0.95c-0.14-1.18-0.26-2.1-0.39-3.17c-1.24-0.11-2.41-0.21-3.7-0.33c-0.12-1.25-0.24-2.41-0.37-3.72
		c-1.3-0.14-2.52-0.28-3.84-0.42c-0.11-1.28-0.2-2.45-0.31-3.69c-1.13-0.11-2.15-0.21-3.38-0.33c-0.21-2.44-0.42-4.87-0.64-7.41
		c-1.14-0.18-2.21-0.34-3.43-0.53c-0.44-9.08-0.45-18.07,0.03-27.18c1.19-0.17,2.26-0.32,3.45-0.49c0.2-2.52,0.39-4.96,0.6-7.56
		c1.12-0.13,2.19-0.25,3.4-0.39c0.1-1.16,0.2-2.24,0.32-3.56c1.24-0.1,2.47-0.21,3.87-0.33c0.11-1.25,0.22-2.41,0.33-3.72
		c1.27-0.14,2.5-0.27,3.74-0.41c0.16-1.01,0.29-1.86,0.47-3.03c3.77-0.37,7.53-0.74,11.4-1.12c0.17-0.92,0.34-1.84,0.54-2.94
		c0.61-0.1,1.21-0.26,1.82-0.28c2.88-0.06,5.76-0.11,8.64-0.11c53.66-0.01,107.33-0.01,160.99,0c1.52,0,3.04,0.03,4.56,0.08
		c1.65,0.06,1.71,0.14,1.91,1.75c0.06,0.47,0.14,0.94,0.23,1.41c0.01,0.07,0.09,0.12,0.27,0.32c1.03,0.08,2.2,0.18,3.53,0.29
		c0.14,1.15,0.26,2.23,0.41,3.44c1.21,0.14,2.35,0.28,3.68,0.43c0.27,5.16,0.5,10.23-0.48,15.38c-1.2,0.22-2.34,0.43-3.56,0.66
		c-0.14,1.05-0.26,1.98-0.41,3.16c-1.79,0.21-3.58,0.55-5.38,0.61c-3.28,0.11-6.56,0.07-9.84,0.07c-52.22,0-104.45-0.01-156.68,0.01
		c-3.19,0-6.37,0.16-9.43,0.23c-0.22,0.28-0.39,0.4-0.41,0.53c-0.42,3.31-0.42,3.31-3.69,3.96c-0.97,3.38-0.94,6.81-0.13,10.4
		c1.12,0.24,2.25,0.48,3.46,0.73c0.09,1.22,0.18,2.32,0.28,3.66c2.06,0.11,4.11,0.3,6.16,0.3c51.11,0.02,102.21,0.02,153.32,0.05
		C2310.1,473.72,2313.5,473.96,2317,474.09z"/>
	<path class="st0" d="M2353.71,442.28c1.23-0.13,2.25-0.23,3.5-0.36c0.11-1.17,0.22-2.32,0.35-3.63c1.15-0.12,2.23-0.22,3.5-0.35
		c0.13-1.19,0.26-2.35,0.41-3.72c2.45-0.26,4.87-0.51,7.44-0.78c0.14-1.01,0.28-2.01,0.45-3.23c1.83-0.12,3.64-0.24,5.45-0.34
		c1.44-0.07,2.88-0.16,4.31-0.13c1.25,0.03,2.01-0.33,2.01-1.72c0-0.46,0.16-0.93,0.25-1.35c1.99-0.57,170.93-0.64,173.75-0.07
		c0.23,1,0.48,2.06,0.72,3.12c0.43,0.06,0.74,0.12,1.06,0.13c3.12,0.12,3.12,0.12,3.72,3.32c0.38,0.11,0.81,0.28,1.26,0.36
		c0.47,0.09,0.95,0.11,1.6,0.17c0.76,5.32,0.32,10.6-0.07,16.02c-1.17,0.12-2.25,0.24-3.52,0.37c-0.13,1.02-0.25,2.02-0.41,3.3
		c-1.81,0.14-3.61,0.35-5.41,0.39c-3.12,0.07-6.24,0.04-9.36,0.04c-52.39,0-104.77,0-157.16,0c-2.07,0-4.15,0-6.45,0
		c-0.26,1.19-0.49,2.24-0.75,3.46c-0.9,0.14-1.82,0.28-3.01,0.46c-0.19,1.15-0.39,2.36-0.61,3.67c-1,0.18-1.92,0.35-3.03,0.55
		c0,1.19,0,2.32,0,3.55c1.04,0.21,1.96,0.39,2.99,0.6c0.3,1.83,0.64,3.61,0.86,5.4c0.21,1.67,0.17,1.75,1.82,1.84
		c2.87,0.15,5.74,0.33,8.61,0.33c49.83,0.02,99.65,0.01,149.48,0.03c3.27,0,6.53,0.17,9.94,0.26c0.21,1.11,0.39,2.02,0.61,3.2
		c2.43,0.17,4.93,0.35,7.63,0.54c0.14,1.21,0.27,2.36,0.42,3.58c0.53,0.08,1,0.23,1.46,0.21c2.62-0.1,2.73,0.29,2.86,2.65
		c0.01,0.14,0.13,0.28,0.21,0.44c1.01,0.34,2.37,0.4,2.96,1.11c0.62,0.74,0.49,2.09,0.72,3.38c1.03,0.12,2.11,0.24,3.44,0.4
		c0.09,1.33,0.18,2.64,0.27,4.09c1.02,0.14,1.94,0.26,3.17,0.42c1.09,10.38,0.81,20.77,0.32,31.25c-1.14,0.14-2.08,0.25-3.25,0.39
		c-0.24,2.4-0.47,4.81-0.72,7.29c-1.21,0.09-2.31,0.18-3.68,0.29c-0.1,1.24-0.21,2.48-0.32,3.86c-1.19,0.13-2.34,0.26-3.61,0.4
		c-0.1,1.12-0.19,2.13-0.29,3.34c-2.38,0.22-4.72,0.44-7.22,0.68c-0.16,1.1-0.31,2.17-0.5,3.43c-3.32,0.14-6.57,0.32-9.83,0.39
		c-4.32,0.09-8.64,0.12-12.95,0.12c-51.11,0.01-102.21,0.02-153.32-0.01c-4.55,0-9.1-0.27-13.65-0.42c-0.22-0.01-0.44-0.13-0.8-0.24
		c-0.1-1.14-0.21-2.3-0.33-3.56c-1.11-0.13-2.11-0.24-3.35-0.38c-0.49-5.01-0.67-9.97,0.29-15.05c1.03-0.15,2.02-0.3,3.11-0.46
		c0.2-1.22,0.39-2.37,0.64-3.84c3.3-0.15,6.55-0.43,9.79-0.44c19.51-0.04,39.03-0.02,58.54-0.02c35.67,0,71.34-0.01,107.01-0.01
		c0.94,0,1.88,0,2.84,0c0.25-1.11,0.44-1.94,0.64-2.84c2.3-0.46,4.52-0.9,7.01-1.4c0-3.65,0-7.36,0-11.26
		c-1.03-0.13-2.1-0.27-3.28-0.42c-0.13-1.14-0.26-2.23-0.42-3.56c-13.87-0.35-27.68-0.13-41.5-0.17
		c-13.84-0.04-27.67-0.01-41.51-0.01c-13.84,0-27.67,0-41.51,0c-13.82,0-27.64,0-41.58,0c-0.24-1.34-0.43-2.4-0.64-3.58
		c-2.62-0.14-5.14-0.28-7.78-0.42c-0.19-1.11-0.36-2.09-0.56-3.24c-2.41-0.25-4.76-0.5-7.3-0.76c-0.15-1.22-0.3-2.44-0.47-3.74
		c-1.19-0.12-2.27-0.22-3.48-0.34c-0.1-1.26-0.18-2.43-0.28-3.72c-1.19-0.22-2.33-0.42-3.57-0.65c-0.22-2.44-0.43-4.8-0.65-7.26
		c-1.08-0.17-2.08-0.33-3.24-0.51c-0.48-8.9-0.52-17.72,0.04-26.64c1.14-0.19,2.13-0.36,3.22-0.54
		C2353.25,447.41,2353.47,444.98,2353.71,442.28z"/>
	<path class="st0" d="M348.08,366.78c0,1.49,0,2.75,0,4.01c-0.13,29.09-0.26,58.18-0.38,87.27c-0.02,5.35,0,10.71-0.03,16.06
		c-0.01,2.78-0.03,2.78-2.92,3.72c-0.26,16.94,0.21,34-0.61,51.16c-1.1,0.19-2.02,0.36-3.08,0.54c-0.94,3.69-0.72,7.52-1.08,11.42
		c-1,0.14-1.92,0.28-3.12,0.45c-0.22,2.49-0.44,4.99-0.67,7.6c-1.11,0.23-2.18,0.44-3.38,0.69c-0.2,2.36-0.39,4.64-0.61,7.15
		c-1.06,0.14-2.12,0.29-3.28,0.45c-0.22,2.42-0.43,4.77-0.66,7.24c-1.2,0.11-2.29,0.2-3.64,0.32c-0.11,1.32-0.22,2.62-0.34,4.06
		c-1.02,0.12-1.95,0.23-3.12,0.37c-0.34,2.28-0.69,4.6-1.06,7.1c-1.04,0.1-2.13,0.21-3.45,0.34c-0.12,1.25-0.23,2.48-0.37,3.92
		c-1.22,0.12-2.38,0.22-3.74,0.35c-0.12,1.18-0.25,2.32-0.38,3.56c-1.18,0.12-2.27,0.23-3.49,0.35c-0.09,1.2-0.17,2.29-0.26,3.6
		c-1.21,0.14-2.43,0.27-3.73,0.42c-0.13,1.18-0.26,2.26-0.39,3.43c-1.19,0.11-2.28,0.22-3.5,0.33c-0.14,1.24-0.27,2.39-0.41,3.7
		c-1.33,0.14-2.56,0.27-3.87,0.41c-0.17,1.02-0.33,1.93-0.52,3.02c-2.28,0.39-4.52,0.78-7,1.21c-0.1,0.92-0.22,2-0.36,3.38
		c-1.17,0.1-2.4,0.2-3.81,0.32c-0.23,1.01-0.46,1.99-0.74,3.23c-2.27,0.24-4.6,0.49-7.1,0.76c-0.11,1.13-0.21,2.22-0.34,3.53
		c-2.53,0.21-5.04,0.41-7.71,0.63c-0.13,1.11-0.25,2.19-0.39,3.42c-2.47,0.21-4.91,0.41-7.4,0.62c-0.15,1.12-0.29,2.13-0.45,3.24
		c-2.62,0.18-5.14,0.34-7.77,0.52c-0.16,1.06-0.29,1.99-0.47,3.16c-6.04,1.03-12.1,1.03-18.27,0.02c-0.16-0.47-0.35-0.9-0.44-1.34
		c-0.38-1.97-0.37-1.95-2.47-2.03c-1.91-0.08-3.81-0.22-5.87-0.34c-0.18-1.09-0.36-2.16-0.55-3.32c-2.44-0.19-4.81-0.38-7.3-0.58
		c-0.13-1.15-0.25-2.23-0.37-3.34c-2.42-0.36-4.75-0.71-7.1-1.06c-0.28-1.2-0.52-2.25-0.76-3.32c-1.38-0.11-2.55-0.2-3.85-0.3
		c-0.11-1.03-0.22-1.96-0.35-3.18c-2.32-0.27-4.65-0.54-7.23-0.84c-0.11-1.06-0.23-2.2-0.36-3.48c-1.35-0.11-2.6-0.21-3.96-0.32
		c-0.13-1.17-0.26-2.24-0.39-3.43c-1.18-0.1-2.27-0.19-3.55-0.3c-0.13-1.12-0.25-2.2-0.41-3.54c-0.62-0.09-1.29-0.23-1.97-0.29
		c-1.86-0.18-1.85-0.17-2.14-2.11c-0.06-0.38-0.15-0.76-0.25-1.25c-0.5-0.1-0.95-0.22-1.41-0.28c-2.16-0.26-2.23-0.25-2.33-2.4
		c-0.06-1.18-0.43-1.8-1.69-1.76c-0.55,0.02-1.1-0.1-1.87-0.17c-0.15-1.1-0.3-2.17-0.47-3.45c-1.12-0.15-2.27-0.3-3.5-0.46
		c-0.2-1.23-0.39-2.39-0.59-3.64c-1.08-0.19-2.08-0.37-3.23-0.58c-0.09-1.11-0.18-2.2-0.28-3.51c-1.23-0.16-2.45-0.32-3.77-0.49
		c-0.09-1.27-0.17-2.44-0.26-3.75c-1.03-0.2-2.02-0.39-3.22-0.62c-0.3-2.35-0.6-4.68-0.92-7.15c-1.09-0.11-2.18-0.23-3.31-0.34
		c-0.33-2.39-0.66-4.73-1-7.2c-1-0.18-1.91-0.35-2.89-0.52c-0.29-2.38-0.58-4.73-0.89-7.21c-1.11-0.27-2.16-0.52-3.35-0.81
		c-0.15-2.5-0.29-4.94-0.45-7.54c-1.01-0.2-1.99-0.39-3.16-0.62c-0.13-1.77-0.3-3.5-0.38-5.23c-0.13-2.63-0.2-5.27-0.31-7.9
		c-0.08-2.02-0.09-2.01-2.11-2.35c-0.39-0.06-0.76-0.19-1.38-0.34c-0.34-9.07-0.29-18.13-0.11-27.33c1.25-0.12,2.33-0.23,3.56-0.35
		c0.27-2.52,0.53-5.02,0.8-7.61c1.07-0.13,2-0.24,3.13-0.38c0.14-1.2,0.27-2.43,0.42-3.74c1.17-0.15,2.26-0.29,3.5-0.46
		c0.29-2.32,0.57-4.58,0.87-6.97c1.08-0.22,2.15-0.43,3.36-0.67c0.08-1.23,0.15-2.4,0.24-3.78c1.18-0.11,2.33-0.22,3.62-0.34
		c0.1-1.19,0.2-2.27,0.31-3.59c1.08-0.13,2.15-0.26,3.4-0.41c0.12-1.24,0.24-2.47,0.38-3.86c1.16-0.13,2.24-0.25,3.43-0.38
		c0.33-1.74,0.73-3.42,0.96-5.13c0.24-1.82,0.17-1.83,1.92-2.01c0.47-0.05,0.94-0.13,1.6-0.22c0.15-1.09,0.29-2.17,0.47-3.49
		c1.1-0.12,2.25-0.24,3.59-0.38c0.21-1.19,0.4-2.34,0.59-3.42c1.18-0.35,2.55-0.37,3.16-1.06c0.62-0.71,0.49-2.08,0.71-3.31
		c1.09-0.12,2.18-0.24,3.51-0.38c0.14-1.07,0.29-2.14,0.44-3.29c2.25-0.45,4.47-0.9,6.84-1.38c0.18-1.09,0.35-2.15,0.55-3.38
		c1.16-0.1,2.25-0.2,3.52-0.31c0.23-1.11,0.47-2.24,0.72-3.46c1.17-0.09,2.27-0.18,3.52-0.29c0.12-1.19,0.23-2.35,0.36-3.62
		c1.28-0.1,2.45-0.18,3.76-0.28c0.13-1.17,0.25-2.24,0.39-3.41c0.64-0.06,1.18-0.14,1.72-0.17c2.07-0.11,2.07-0.1,2.35-2.13
		c0.06-0.39,0.13-0.78,0.23-1.39c2.22-0.38,4.47-0.75,6.99-1.18c0.11-0.89,0.24-1.96,0.4-3.22c1.27-0.1,2.51-0.2,3.87-0.31
		c0.18-1.13,0.35-2.21,0.55-3.48c2.36-0.25,4.7-0.49,7.18-0.75c0.13-1.09,0.25-2.09,0.39-3.29c0.7-0.05,1.39-0.12,2.09-0.14
		c2.05-0.08,2.05-0.07,2.4-2.11c0.07-0.38,0.17-0.76,0.3-1.33c2.27-0.35,4.52-0.7,7.09-1.1c0.11-0.95,0.23-2.08,0.37-3.31
		c2.48-0.2,4.84-0.4,7.34-0.6c0.14-1.08,0.27-2.08,0.42-3.26c2.54-0.2,5.04-0.4,7.62-0.61c0.14-1.17,0.25-2.18,0.4-3.46
		c2.46-0.21,4.9-0.42,7.52-0.64c0.22-0.91,0.45-1.88,0.74-3.1c3.56-0.3,7.11-0.6,10.89-0.92c0.14-1.01,0.28-2.08,0.45-3.35
		c2.62-0.15,5.22-0.31,7.88-0.46c0.16-1.1,0.3-2.03,0.46-3.17c1.49-0.12,2.98-0.28,4.47-0.36c1.67-0.09,3.35-0.13,5.03-0.19
		c1.86-0.07,1.85-0.07,2.21-2.02c0.07-0.38,0.18-0.76,0.3-1.21c4.79-1.17,9.7-0.58,14.61-1.25c0.22-0.94,0.43-1.85,0.71-3.08
		c5.15-0.2,10.31-0.41,15.69-0.62c0.19-1.05,0.38-2.11,0.6-3.36C335.16,366.63,341.35,366.22,348.08,366.78z M213.5,552.97
		c1.26,0.12,2.42,0.23,3.59,0.34c0.14,1.26,0.26,2.32,0.38,3.44c1.39,0.08,2.56,0.16,3.77,0.23c0.26,1.31,0.49,2.44,0.71,3.55
		c2.45,0.28,4.71,0.54,6.97,0.8c0.15,1.23,0.27,2.23,0.39,3.32c1.37,0.09,2.6,0.17,3.84,0.26c0.17,1.34,0.3,2.42,0.44,3.55
		c2.54,0.31,4.87,0.6,7.27,0.89c0.15,1.19,0.28,2.27,0.42,3.43c1.29,0.1,2.46,0.19,3.71,0.29c0.19,1.19,0.36,2.25,0.54,3.32
		c2.53,0.21,4.89,0.4,7.32,0.6c0.27,1.17,0.51,2.22,0.76,3.34c6.33,0.77,12.49,0.9,18.65-0.06c0.24-1.22,0.44-2.21,0.66-3.34
		c1.3-0.06,2.49-0.06,3.66-0.17c1.1-0.1,2.48,0.02,3.21-0.59c0.69-0.57,0.69-1.96,1.05-3.14c1.25-0.12,2.56-0.24,3.91-0.36
		c0.12-1.26,0.22-2.35,0.33-3.52c1.29-0.1,2.45-0.19,3.65-0.29c0.18-1.29,0.32-2.36,0.47-3.42c2.41-0.41,4.66-0.79,6.95-1.18
		c0.15-1.15,0.28-2.21,0.42-3.32c1.32-0.12,2.42-0.21,3.63-0.32c0.2-1.29,0.4-2.5,0.58-3.67c1.2-0.18,2.21-0.33,3.28-0.49
		c0.2-1.2,0.38-2.27,0.57-3.39c1.26-0.18,2.41-0.34,3.39-0.48c0.5-2.39,0.94-4.53,1.38-6.63c0.51-0.12,0.82-0.2,1.12-0.26
		c1.91-0.35,1.91-0.35,2.02-2.24c0.04-0.69,0.13-1.38,0.19-2.08c1.36-0.14,2.51-0.25,3.69-0.37c0.1-1.42,0.18-2.58,0.27-3.79
		c1.26-0.21,2.34-0.39,3.49-0.58c0.21-2.56,0.41-4.98,0.61-7.43c1.2-0.17,2.2-0.3,3.19-0.44c0.35-3.69,0.68-7.22,1.01-10.73
		c0.68-0.16,1.06-0.27,1.44-0.34c1.94-0.36,1.94-0.36,2-2.23c0.06-1.76,0.1-3.51,0.17-5.27c0.07-1.57,0.18-3.14,0.27-4.68
		c1.12-0.24,2.03-0.43,3.2-0.67c0.22-7.66,0.44-15.21,0.66-22.79c1.2-0.28,2.18-0.5,3.37-0.77c0.42-33.01,0.13-65.92,0.25-99.14
		c-2.32-0.11-4.46-0.33-6.58-0.28c-5.43,0.13-10.86,0.37-16.29,0.58c-1.57,0.06-3.13,0.17-4.71,0.26c-0.19,1.22-0.35,2.22-0.53,3.31
		c-5.12,0.25-10.11,0.49-15.15,0.73c-0.24,1.19-0.43,2.1-0.63,3.11c-3.83,0.27-7.61,0.54-11.41,0.81c-0.19,1.31-0.33,2.31-0.49,3.43
		c-2.62,0.17-5.13,0.34-7.65,0.51c-0.25,1.07-0.46,1.98-0.7,3.02c-2.51,0.28-4.94,0.56-7.38,0.84c-0.16,1.18-0.31,2.25-0.46,3.31
		c-2.59,0.23-4.94,0.44-7.3,0.65c-0.15,1.25-0.27,2.26-0.41,3.41c-2.52,0.3-4.94,0.58-7.42,0.87c-0.12,1.11-0.23,2.12-0.35,3.26
		c-1.32,0.11-2.57,0.21-3.92,0.32c-0.25,1.21-0.48,2.35-0.7,3.46c-2.37,0.32-4.56,0.61-6.81,0.92c-0.19,1.16-0.37,2.22-0.54,3.28
		c-1.25,0.11-2.34,0.2-3.52,0.3c-0.13,1.31-0.24,2.47-0.36,3.73c-1.32,0.14-2.55,0.26-3.79,0.39c-0.04,0.75-0.05,1.31-0.12,1.86
		c-0.06,0.53-0.19,1.05-0.3,1.59c-1.31,0.11-2.47,0.21-3.71,0.31c-0.11,1.34-0.21,2.5-0.3,3.67c-1.28,0.12-2.36,0.23-3.5,0.34
		c-0.11,1.28-0.2,2.37-0.31,3.55c-1.28,0.11-2.43,0.21-3.63,0.32c-0.11,1.43-0.21,2.67-0.31,3.93c-1.31,0.14-2.38,0.25-3.29,0.35
		c-0.43,2.5-0.81,4.74-1.2,7.02c-1.16,0.18-2.15,0.34-3.26,0.51c-0.13,1.4-0.25,2.71-0.38,4.04c-1.19,0.12-2.2,0.23-3.31,0.34
		c-0.21,2.48-0.4,4.83-0.61,7.3c-1.17,0.13-2.24,0.26-3.39,0.39c-0.27,2.6-0.52,5.09-0.77,7.59c-1.18,0.19-2.1,0.33-3.11,0.49
		c-0.15,2.55-0.3,5-0.45,7.51c-1.19,0.22-2.25,0.41-3.46,0.63c-0.28,3.74-0.56,7.37-0.84,11.06c-1.11,0.18-2.11,0.34-3.24,0.52
		c-0.52,13.1-1.01,26.06,0.29,39.02c1.19,0.24,2.12,0.43,3.02,0.62c0.33,2.5,0.64,4.91,0.96,7.37c1.2,0.15,2.21,0.27,3.36,0.41
		c0.13,1.39,0.26,2.7,0.38,4.03c1.25,0.14,2.32,0.26,3.39,0.37c0.12,1.31,0.21,2.39,0.31,3.57c1.31,0.12,2.46,0.22,3.65,0.33
		c0.09,1.3,0.17,2.39,0.25,3.59c1.25,0.18,2.4,0.35,3.57,0.52c0.05,0.69,0.06,1.24,0.13,1.79c0.06,0.53,0.18,1.05,0.28,1.59
		c1.31,0.11,2.48,0.21,3.72,0.32C213.24,550.56,213.36,551.72,213.5,552.97z"/>
	<path class="st0" d="M1364.88,540.93c-0.09-1.28-0.16-2.3-0.24-3.5c-1.19-0.18-2.33-0.35-3.51-0.52c-0.1-1.27-0.19-2.44-0.3-3.77
		c-1.21-0.12-2.29-0.23-3.59-0.36c-0.16-1.16-0.32-2.31-0.5-3.61c-1.09-0.2-2.15-0.39-3.32-0.6c-0.2-1.07-0.38-2.07-0.6-3.25
		c-1.17-0.1-2.34-0.19-3.68-0.3c-0.12-1.22-0.23-2.37-0.37-3.76c-1.19-0.09-2.35-0.17-3.65-0.26c-0.12-1.09-0.23-2.09-0.37-3.36
		c-2.42-0.23-4.84-0.46-7.49-0.71c-0.13-1.01-0.27-2.09-0.43-3.34c-2.35-0.31-4.76-0.63-7.23-0.95c-0.24-1.04-0.45-1.95-0.69-2.99
		c-2.58-0.17-5.1-0.33-7.67-0.5c-0.16-1.18-0.29-2.19-0.47-3.52c-5.03-0.24-10.01-0.48-15.09-0.72c-0.23-0.95-0.44-1.78-0.73-2.95
		c-1.7-0.13-3.5-0.36-5.3-0.38c-12.47-0.11-24.95-0.21-37.42-0.24c-17.91-0.04-35.82-0.01-53.74-0.01c-1.99,0-3.98,0-6.28,0
		c-0.31,13.39,0.19,26.44-0.32,39.65c-1.32,0.12-2.48,0.23-3.82,0.35c-0.11,1.19-0.22,2.34-0.33,3.59
		c-5.26,0.6-10.4,0.62-15.73,0.03c-0.11-1.12-0.22-2.2-0.34-3.43c-1.09-0.14-2.16-0.28-3.42-0.45c-0.1-1.95-0.28-3.84-0.28-5.73
		c-0.02-25.25-0.04-50.5,0.01-75.76c0.01-4.29,0.01-8.6,0.89-12.97c0.97-0.25,1.95-0.5,3-0.78c0.1-1.32,0.19-2.56,0.3-3.95
		c1.2-0.1,2.29-0.2,3.63-0.31c0.13-1.18,0.25-2.32,0.39-3.6c1.06-0.16,2.06-0.32,3.24-0.5c0.21-1.14,0.42-2.29,0.65-3.58
		c1.23-0.07,2.4-0.14,3.73-0.22c0.17-1.1,0.32-2.16,0.51-3.4c3.72-0.21,7.36-0.42,11.18-0.65c0.21-1.02,0.42-2.01,0.62-2.96
		c1.86-0.52,146.08-0.73,150.45-0.23c0.14,0.31,0.37,0.65,0.45,1.02c0.47,2.16,0.46,2.14,2.76,2.27c4.04,0.23,8.08,0.5,12.2,0.75
		c0.19,1.22,0.34,2.13,0.52,3.27c1.26,0.08,2.51,0.16,4,0.25c0.14,1.22,0.28,2.44,0.43,3.76c1.25,0.11,2.42,0.2,3.67,0.31
		c0.13,1.19,0.24,2.27,0.38,3.48c1.16,0.14,2.24,0.26,3.42,0.4c0.08,1.27,0.15,2.45,0.24,3.84c1.07,0.19,2.14,0.37,3.35,0.59
		c0.9,3.63,0.69,7.38,1.02,11.17c0.9,0.23,1.73,0.44,2.8,0.71c0.33,2.37,0.47,4.78,0.17,7.31c-0.95,0.25-1.78,0.46-2.84,0.74
		c-0.27,3.56-0.54,7.18-0.82,10.87c-1.31,0.14-2.39,0.26-3.64,0.4c-0.12,1.29-0.24,2.53-0.36,3.89c-1.16,0.11-2.26,0.2-3.54,0.32
		c-0.13,1.01-0.25,2.01-0.41,3.29c-2.48,0.25-4.98,0.51-7.65,0.78c-0.15,1.03-0.3,2.11-0.48,3.36c-5.05,0.25-10.04,0.49-15.29,0.75
		c0,2.46,0,4.73,0,7.21c1.8,0.2,3.67,0.47,5.55,0.6c1.06,0.07,1.54,0.45,1.68,1.56c0.28,2.2,0.34,2.19,2.65,2.29
		c0.47,0.02,0.94,0.08,1.56,0.14c0.13,1.14,0.25,2.21,0.38,3.44c1.15,0.11,2.23,0.21,3.53,0.33c0.12,1.23,0.24,2.46,0.38,3.82
		c1.27,0.1,2.44,0.2,3.77,0.3c0.14,1.18,0.27,2.32,0.42,3.59c1.19,0.09,2.28,0.18,3.59,0.29c0.08,1.19,0.17,2.35,0.26,3.68
		c1.15,0.23,2.28,0.45,3.39,0.67c0.36,2.3,0.69,4.48,1.04,6.76c1.14,0.22,2.21,0.43,3.42,0.66c0.12,1.3,0.23,2.53,0.34,3.86
		c0.94,0.16,1.79,0.3,2.89,0.49c0.38,2.32,0.32,4.67,0.25,7.19c-1.03,0.23-1.94,0.43-2.93,0.65c-0.38,2.29-0.76,4.61-1.14,6.89
		c-3.8,1.13-10.82,1.36-19.05,0.48c-0.1-1.1-0.2-2.26-0.31-3.58C1367.38,541.14,1366.23,541.04,1364.88,540.93z M1202.26,473.5
		c2.59,0.07,5.05,0.19,7.5,0.19c19.99,0.02,39.99,0.04,59.98,0.02c25.83-0.02,51.67-0.07,77.5-0.13c1.8,0,3.61-0.16,5.41-0.24
		c0.21-1.25,0.38-2.25,0.56-3.31c2.61-0.18,5.05-0.34,7.56-0.51c0.16-1.22,0.31-2.29,0.46-3.39c1.14-0.13,2.14-0.25,3.31-0.39
		c0.21-2.58,0.11-4.99-0.44-7.43c-1.14-0.18-2.15-0.34-3.24-0.52c-0.19-1.23-0.38-2.38-0.58-3.66c-2.02-0.1-3.92-0.27-5.82-0.27
		c-25.27-0.02-50.55-0.02-75.82-0.03c-22.15,0-44.31-0.01-66.46,0.01c-2.05,0-4.1,0.13-6.15,0.2c-0.12,1.36-0.22,2.45-0.32,3.61
		c-1.21,0.17-2.28,0.32-3.44,0.49C1202.26,463.28,1202.26,468.28,1202.26,473.5z"/>
	<path class="st0" d="M1849.28,429.68c3.99,0.19,7.72,0.37,11.57,0.56c0.14,1.16,0.26,2.16,0.39,3.22c2.32,0.35,4.57,0.69,6.96,1.05
		c0.13,0.53,0.3,1.05,0.38,1.57c0.3,1.99,0.29,1.99,2.38,2.14c0.39,0.03,0.77,0.08,1.34,0.14c0.36,2.3,0.7,4.56,1.09,7.06
		c0.96,0.11,2.03,0.23,3.25,0.38c0.29,2.4,0.57,4.82,0.87,7.31c1.04,0.26,1.94,0.49,3.03,0.76c0.2,7.66,0.36,15.28-0.23,23.01
		c-1.13,0.23-2.11,0.42-3.17,0.64c-0.18,1.96-0.41,3.84-0.51,5.74c-0.06,1.03-0.34,1.59-1.48,1.75c-2.27,0.31-2.25,0.37-2.38,2.56
		c-0.03,0.54-0.15,1.08-0.23,1.67c-1.12,0.09-2.15,0.17-3.37,0.26c-0.17,1.25-0.33,2.47-0.5,3.77c-2.31,0.25-4.51,0.48-6.98,0.75
		c-0.2,0.97-0.41,2.02-0.67,3.29c-2.51,0.15-5.02,0.3-7.62,0.46c-0.19,1.1-0.35,2.1-0.57,3.37c-1.91,0.07-3.8,0.19-5.68,0.2
		c-6.56,0.03-13.11,0.04-19.67,0.04c-43.34,0-86.68,0-130.03,0c-0.95,0-1.9,0-3.11,0c-0.1,1.24-0.26,2.32-0.26,3.4
		c-0.03,9.83-0.03,19.66-0.05,29.49c0,0.86-0.09,1.72-0.15,2.66c-1.1,0.2-2.02,0.36-3.16,0.56c-0.26,1.75-0.58,3.53-0.77,5.32
		c-0.2,1.87-0.16,1.77-2.11,2.05c-5.72,0.82-11.42,0.69-17.29,0.03c-0.11-1.18-0.22-2.34-0.34-3.63c-1.1-0.12-2.11-0.23-3.38-0.36
		c-0.1-1.63-0.29-3.27-0.29-4.9c0-17.66,0.03-35.32,0.05-52.98c0-0.39,0.07-0.79,0.12-1.29c1-0.22,1.99-0.44,3.06-0.68
		c0.2-1.22,0.39-2.37,0.6-3.6c1.28-0.08,2.38-0.15,3.67-0.24c0.14-1.01,0.28-2,0.45-3.19c0.6-0.09,1.2-0.23,1.81-0.24
		c2.48-0.04,4.96-0.06,7.44-0.06c52.86,0,105.72,0,158.57-0.01c1.68,0,3.36-0.01,5.04-0.04c2.01-0.04,2-0.05,2.3-2.15
		c0.05-0.38,0.16-0.76,0.28-1.29c1.03-0.15,2.03-0.3,3.26-0.49c0.11-1.25,0.22-2.49,0.34-3.73c0.76-1.09,3.14,0.02,3.02-2.36
		c-0.11-2.06-1.96-1.18-3.05-2.1c-0.09-1.02-0.19-2.26-0.31-3.65c-0.67-0.09-1.28-0.19-1.89-0.25c-0.55-0.05-1.11-0.06-1.81-0.1
		c-0.11-0.54-0.24-1.06-0.32-1.59c-0.08-0.55-0.1-1.1-0.17-1.83c-0.63-0.07-1.24-0.2-1.84-0.21c-2.88-0.04-5.76-0.07-8.63-0.07
		c-52.54,0-105.08,0-157.61,0c-2.14,0-4.28-0.08-6.51-0.12c-0.18-1.15-0.33-2.07-0.5-3.18c-0.61-0.09-1.21-0.21-1.82-0.26
		c-1.79-0.15-1.88-0.21-2.14-1.9c-0.08-0.54-0.15-1.09-0.23-1.77c-0.93-0.23-1.84-0.44-2.92-0.71c-0.5-3.88-0.14-7.75-0.08-11.83
		c1.15-0.15,2.22-0.28,3.43-0.44c0.11-1.13,0.22-2.21,0.34-3.49c2.38-0.2,4.73-0.39,7.25-0.6c0.24-1.03,0.46-2,0.73-3.17
		c0.8-0.05,1.57-0.13,2.35-0.13c54.3,0,108.59,0,162.89,0c1.04,0,2.08,0.01,3.12,0.05c1.78,0.06,1.77,0.07,2.09,1.86
		C1848.99,428.65,1849.13,429.09,1849.28,429.68z"/>
	<path class="st0" d="M471.14,533.17c-1.12-0.1-2.13-0.18-3.42-0.29c-0.06-0.76-0.2-1.52-0.17-2.27c0.06-1.31-0.49-1.93-1.8-1.95
		c-0.55-0.01-1.09-0.14-1.86-0.24c-0.27-2.35-0.54-4.68-0.82-7.09c-1.11-0.13-2.12-0.25-3.26-0.39c-0.18-2.5-0.35-4.94-0.52-7.48
		c-1.13-0.16-2.13-0.31-3.35-0.48c-0.18-1.68-0.42-3.31-0.51-4.96c-0.16-2.79-0.27-5.58-0.3-8.38c-0.02-1.24-0.34-2.01-1.73-2
		c-1.11,0.01-1.56-0.63-1.54-1.69c0.09-6.7,0.17-13.41,0.25-20.11c0.01-1.03,0.37-1.67,1.49-1.77c0.46-0.04,0.91-0.23,1.52-0.38
		c0.21-3.9,0.43-7.77,0.64-11.75c1.22-0.16,2.22-0.29,3.49-0.45c0.19-2.43,0.38-4.86,0.59-7.45c1.01-0.12,2.01-0.25,3.24-0.4
		c0.21-1.77,0.51-3.55,0.6-5.33c0.06-1.24,0.37-1.88,1.75-2c2.03-0.17,2.01-0.27,2.15-2.3c0.04-0.62,0.15-1.24,0.23-1.89
		c1.16-0.1,2.18-0.19,3.34-0.29c0.18-1.21,0.35-2.36,0.53-3.54c1.28-0.1,2.46-0.19,3.78-0.3c0.17-1.11,0.32-2.1,0.51-3.35
		c2.3-0.38,4.62-0.76,7.14-1.18c0.13-0.83,0.29-1.82,0.5-3.11c3.86-0.23,7.73-0.46,11.56-0.68c0.17-0.3,0.34-0.49,0.39-0.71
		c0.62-2.56,0.61-2.58,3.17-2.65c2.16-0.06,4.32-0.08,6.48-0.08c51.11,0,102.21,0,153.32,0c1.03,0,2.07,0,3.29,0
		c0.24,1.09,0.45,2.07,0.73,3.31c2.29,0.21,4.63,0.43,7.21,0.67c0.1,1.13,0.21,2.28,0.33,3.56c1.09,0.22,2.16,0.44,3.42,0.7
		c0,3.7,0,7.34,0,11.14c-1,0.16-2,0.31-3.15,0.49c-0.14,1.26-0.29,2.5-0.45,3.91c-1.21,0.11-2.36,0.21-3.62,0.32
		c-0.15,1.1-0.28,2.1-0.45,3.36c-2.11,0.05-4.16,0.14-6.22,0.14c-48.39,0.01-96.78,0-145.16,0.02c-5.6,0-11.19,0.17-16.78,0.27
		c-0.47,0.01-0.94,0.1-1.59,0.17c-0.22,1.07-0.44,2.13-0.7,3.39c-1.29,0.07-2.54,0.13-4.02,0.21c-0.19,1.07-0.37,2.14-0.59,3.37
		c-1.07,0.14-2.14,0.27-3.37,0.43c-0.17,1.13-0.32,2.22-0.51,3.51c-1.12,0.21-2.25,0.43-3.51,0.67c-0.09,1.24-0.17,2.41-0.27,3.72
		c-0.56,0.11-1.08,0.22-1.61,0.31c-0.54,0.09-1.07,0.15-1.82,0.25c-0.78,10.43-0.51,20.78-0.29,31.34c1.12,0.23,2.18,0.45,3.44,0.7
		c0.22,2.35,0.44,4.7,0.66,7.14c1.26,0.13,2.42,0.25,3.68,0.37c0.12,1.18,0.23,2.27,0.36,3.51c1.16,0.1,2.25,0.19,3.56,0.3
		c0.11,1.16,0.23,2.31,0.35,3.54c2.47,0.21,4.84,0.41,7.38,0.63c0.22,1.03,0.44,2.01,0.72,3.31c1.93,0,3.83,0,5.73,0
		c51.35,0.01,102.69,0.01,154.04,0.05c3.33,0,6.66,0.35,10.04,0.54c0.45,2.42,0.85,4.58,1.28,6.87c0.91,0.23,1.81,0.45,3.03,0.76
		c0,2.56,0.01,5.16-0.01,7.76c0,0.4-0.1,0.79-0.13,1.19c-0.15,2.04-0.14,2.08-2.2,2.49c-1.04,0.21-1.54,0.71-1.49,1.78
		c0.03,0.71,0.01,1.43,0.01,2.34c-1.85,0.17-3.56,0.4-5.29,0.47c-3.11,0.12-6.23,0.2-9.35,0.2c-50.95,0.01-101.89,0.03-152.84-0.01
		c-5.99,0-11.98-0.32-17.98-0.5c-0.23-0.01-0.45-0.11-0.83-0.2c-0.13-1.05-0.26-2.13-0.4-3.23c-2.42-0.34-4.76-0.67-7.22-1.01
		c-0.14-1.02-0.27-1.95-0.44-3.13c-1.19-0.11-2.43-0.23-3.85-0.36C471.46,535.72,471.31,534.5,471.14,533.17z"/>
	<path class="st0" d="M706,457.96c1.17-0.13,2.11-0.23,3.26-0.36c0.21-2.38,0.42-4.73,0.65-7.31c1.12-0.12,2.26-0.24,3.52-0.37
		c0.11-1.35,0.21-2.59,0.32-3.96c1.18-0.13,2.25-0.25,3.44-0.38c0.11-1.24,0.21-2.4,0.32-3.66c1.28-0.14,2.44-0.26,3.76-0.4
		c0.13-1.15,0.26-2.22,0.39-3.41c1.17-0.09,2.27-0.18,3.6-0.29c0.11-1.18,0.22-2.33,0.35-3.67c2.37-0.24,4.7-0.47,7.16-0.71
		c0.18-1.06,0.36-2.05,0.56-3.24c3.83-0.18,7.63-0.35,11.52-0.54c0.25-1.1,0.48-2.08,0.69-3.01c2.15-0.5,117.2-0.71,122.63-0.23
		c0.13,0.51,0.38,1.09,0.4,1.69c0.06,1.24,0.7,1.62,1.86,1.64c2.64,0.05,5.27,0.14,7.9,0.3c1.73,0.11,3.46,0.36,5.26,0.55
		c0.22,1.06,0.41,1.98,0.65,3.13c1.24,0.08,2.47,0.16,3.89,0.25c0.18,1.19,0.34,2.34,0.53,3.62c1.15,0.14,2.24,0.27,3.52,0.42
		c0.21,0.99,0.42,1.97,0.66,3.07c1.13,0.23,2.27,0.47,3.5,0.72c0.1,1.24,0.2,2.33,0.3,3.58c1.1,0.15,2.17,0.3,3.4,0.47
		c0.11,1.31,0.21,2.55,0.33,3.93c1.16,0.11,2.25,0.21,3.45,0.32c0.31,2.37,0.61,4.71,0.94,7.22c0.94,0.16,1.85,0.32,2.96,0.51
		c0.22,2.52,0.45,5.1,0.69,7.74c1.12,0.17,2.05,0.32,3.23,0.5c0.14,1.57,0.41,3.13,0.42,4.69c0.1,21.74,0.18,43.48,0.23,65.21
		c0,1.66-0.16,3.32-0.26,5.11c-1.23,0.13-2.31,0.24-3.51,0.36c-0.21,1.21-0.4,2.36-0.6,3.51c-5.27,0.64-10.42,0.5-15.71-0.03
		c-0.1-1.18-0.2-2.27-0.31-3.53c-1.1-0.13-2.17-0.26-3.47-0.41c-0.09-2.01-0.25-3.98-0.25-5.95c-0.04-17.1-0.05-34.21-0.06-51.31
		c0-1.9,0-3.81,0-5.85c-1.26-0.24-2.25-0.42-3.39-0.64c-0.32-3.62-0.63-7.23-0.95-10.93c-1.13-0.16-2.06-0.29-3.22-0.46
		c-0.1-1.23-0.2-2.47-0.31-3.92c-1.28-0.13-2.51-0.25-3.87-0.38c-0.13-1.07-0.25-2.07-0.4-3.31c-2.36-0.25-4.71-0.49-7.28-0.77
		c-0.14-1-0.29-2.07-0.43-3.1c-2.82-0.7-118.11-0.8-122.68-0.11c-0.15,1.03-0.3,2.1-0.46,3.23c-2.44,0.29-4.79,0.56-7.27,0.85
		c-0.14,1.09-0.26,2.08-0.42,3.26c-1.2,0.12-2.37,0.23-3.76,0.36c-0.27,2.26-0.54,4.52-0.83,6.9c-1.06,0.26-2.11,0.52-3.28,0.82
		c-0.15,3.89-0.3,7.7-0.46,11.67c-1.06,0.22-2.04,0.42-3.26,0.67c-0.05,0.85-0.13,1.71-0.13,2.56c-0.02,15.35-0.01,30.69-0.04,46.04
		c-0.01,3.42-0.14,6.84-0.23,10.42c-1.26,0.15-2.33,0.27-3.53,0.41c-0.1,1.16-0.2,2.24-0.29,3.29c-3,0.79-9.84,0.86-15.76,0.17
		c-0.11-1.1-0.23-2.25-0.35-3.51c-1.25-0.13-2.41-0.24-3.82-0.39c-0.47-12.51-0.24-24.95-0.22-37.39c0.02-12.36-0.4-24.73,0.72-37.2
		c1.18-0.23,2.17-0.42,3.34-0.65C705.68,463.22,705.83,460.7,706,457.96z"/>
	<path class="st0" d="M1054.71,540.57c-1.43,0.24-2.51,0.43-3.66,0.62c-0.08,1.22-0.16,2.32-0.25,3.6
		c-6.35,0.8-12.68,0.71-19.17-0.09c-0.33-2.29-0.67-4.62-1.03-7.05c-0.97-0.18-1.89-0.35-3.13-0.58c-0.05-19.7-0.05-39.4,0-59.23
		c1.04-0.29,1.93-0.53,3.14-0.87c0.29-4.92,0.58-9.9,0.87-14.97c1.17-0.16,2.25-0.32,3.49-0.49c0-2.53,0-4.96,0-7.66
		c-15.92,0-31.73,0.04-47.54-0.01c-15.72-0.05-31.45,0.23-47.21-0.2c-0.11-1.27-0.19-2.22-0.3-3.45c-1.21-0.11-2.44-0.23-3.91-0.36
		c-0.45-6.35-0.93-12.66,0.48-19.16c2.32-0.35,4.64-0.7,7.18-1.09c0.15-0.89,0.32-1.88,0.48-2.85c1.83-0.59,190.22-0.78,193.86-0.19
		c0.18,0.93,0.38,1.92,0.6,3.05c2.46,0.23,4.88,0.46,7.4,0.69c0.09,0.48,0.2,0.85,0.22,1.23c0.12,2.36,0.11,2.4,2.55,2.91
		c0.88,0.19,1.22,0.67,1.22,1.49c0,3.11,0,6.21,0,9.56c-1.04,0.14-2.11,0.28-3.42,0.45c-0.11,1.27-0.23,2.58-0.35,4
		c-1.21,0.11-2.29,0.22-3.51,0.33c-0.13,1.06-0.24,2.07-0.4,3.37c-1.97,0.07-3.94,0.2-5.9,0.2c-18.31,0.02-36.62,0.01-54.93,0.04
		c-2.71,0-5.43,0.15-8.14,0.26c-1.91,0.08-1.9,0.11-2.08,2.07c-0.04,0.39-0.1,0.79-0.18,1.46c-1.3,0.09-2.61,0.18-4.16,0.29
		c-0.13,1.11-0.25,2.17-0.39,3.38c-1.11,0.12-2.19,0.24-3.49,0.38c-0.11,1.27-0.22,2.5-0.34,3.85c-1.18,0.11-2.27,0.22-3.48,0.34
		c-0.25,2.47-0.49,4.9-0.74,7.42c-1.04,0.19-1.95,0.35-3.07,0.55c-0.07,1.93-0.19,3.83-0.19,5.72c-0.04,18.38-0.06,36.75-0.11,55.13
		C1055.09,536.61,1054.85,538.51,1054.71,540.57z"/>
	<path class="st0" d="M2043.96,469.58c1.23,0.09,2.18,0.16,3.36,0.25c0.11,1.26,0.22,2.49,0.34,3.91c1.12,0.18,2.19,0.36,3.42,0.55
		c0.33,2.25,0.67,4.5,1.02,6.87c1.07,0.18,2.07,0.35,3.19,0.54c0.11,1.18,0.21,2.34,0.33,3.61c1.27,0.13,2.43,0.25,3.74,0.38
		c0.08,1.25,0.16,2.42,0.25,3.78c1.01,0.22,1.99,0.43,3.16,0.69c0.34,2.24,0.69,4.5,1.06,6.96c1.07,0.12,2.22,0.25,3.48,0.39
		c0.09,1.28,0.17,2.45,0.26,3.79c1.24,0.12,2.4,0.23,3.74,0.36c0.11,1.22,0.22,2.38,0.34,3.67c1.03,0.22,2.02,0.43,3.12,0.66
		c0.36,2.31,0.7,4.56,1.07,6.95c1.08,0.11,2.17,0.22,3.42,0.35c0.12,1.27,0.24,2.51,0.37,3.86c1.11,0.1,2.13,0.19,3.36,0.3
		c0.1,1.18,0.2,2.33,0.31,3.69c1.09,0.2,2.16,0.4,3.46,0.64c0.33,2.29,0.68,4.62,1.04,7.1c0.91,0.16,1.9,0.33,3.19,0.55
		c0.04,2.26,0.08,4.47,0.11,6.69c0.01,0.86-0.45,1.31-1.32,1.37c-0.55,0.04-1.09,0.14-1.84,0.25c-0.3,2.36-0.59,4.69-0.88,6.99
		c-6.44,0.96-12.78,1.05-19.4,0.05c-0.09-1.05-0.2-2.2-0.33-3.6c-1.13-0.11-2.28-0.22-3.5-0.34c-0.38-2.31-0.76-4.55-1.14-6.88
		c-1.03-0.26-2-0.51-3.1-0.78c-0.08-1.25-0.16-2.42-0.25-3.8c-1.21-0.11-2.37-0.22-3.78-0.35c-0.08-1.17-0.16-2.33-0.26-3.62
		c-1.14-0.15-2.2-0.29-3.35-0.45c-0.29-2.29-0.56-4.47-0.85-6.8c-1.17-0.25-2.3-0.5-3.51-0.76c-0.09-1.3-0.18-2.47-0.28-3.8
		c-1.14-0.13-2.21-0.26-3.4-0.39c-0.12-1.24-0.24-2.39-0.37-3.67c-1.19-0.11-2.29-0.21-3.57-0.32c-0.3-2.27-0.59-4.52-0.88-6.7
		c-1.19-0.46-2.61-0.6-3.23-1.37c-0.57-0.72-0.29-2.12-0.4-3.41c-1.11-0.1-2.19-0.2-3.56-0.32c-0.1-1.12-0.2-2.27-0.32-3.65
		c-1.08-0.13-2.15-0.26-3.25-0.39c-0.33-1.9-0.7-3.74-0.97-5.59c-0.27-1.82-0.24-1.82-2.18-2.01c-0.39-0.04-0.78-0.12-1.41-0.23
		c-0.1-1.16-0.19-2.32-0.3-3.64c-1.14-0.1-2.22-0.2-3.57-0.32c-0.09-1.23-0.19-2.46-0.3-3.92c-1.07-0.14-2.14-0.29-3.28-0.44
		c-0.33-1.75-0.7-3.51-0.97-5.28c-0.28-1.8-0.24-1.8-1.96-1.99c-0.47-0.05-0.93-0.14-1.62-0.24c-0.1-1.18-0.19-2.34-0.3-3.6
		c-1.16-0.14-2.23-0.27-3.42-0.41c-0.11-1.34-0.22-2.58-0.33-3.95c-1.18-0.11-2.27-0.21-3.51-0.32c-0.13-1.18-0.26-2.33-0.4-3.62
		c-1.1-0.13-2.1-0.26-3.33-0.4c-0.11-1.09-0.22-2.17-0.35-3.51c-1.11-0.22-2.24-0.44-3.6-0.71c-0.19-0.9-0.4-1.88-0.64-3.01
		c-2.56,0-5.08,0-7.77,0c-0.14,0.99-0.28,1.98-0.45,3.17c-1.1,0.16-2.18,0.31-3.44,0.49c-0.12,1.17-0.24,2.33-0.38,3.65
		c-1.2,0.13-2.35,0.25-3.69,0.4c-0.1,1.21-0.2,2.36-0.31,3.63c-1.19,0.1-2.28,0.2-3.56,0.31c-0.1,1.28-0.2,2.52-0.32,3.97
		c-1.12,0.14-2.19,0.27-3.32,0.42c-0.32,2.33-0.64,4.6-0.98,7.06c-1.09,0.12-2.17,0.24-3.52,0.38c-0.09,1.16-0.18,2.32-0.29,3.63
		c-1.11,0.13-2.19,0.25-3.42,0.4c-0.12,1.3-0.23,2.54-0.35,3.97c-1.13,0.11-2.22,0.21-3.43,0.33c-0.34,2.33-0.69,4.66-1.05,7.1
		c-0.99,0.12-1.92,0.23-3.13,0.37c-0.11,1.25-0.23,2.56-0.36,3.97c-1.28,0.14-2.44,0.26-3.71,0.39c-0.1,1.19-0.19,2.28-0.29,3.59
		c-0.99,0.13-1.99,0.27-3.21,0.43c-0.32,2.29-0.65,4.61-1,7.07c-1.1,0.12-2.18,0.23-3.44,0.36c-0.11,1.3-0.21,2.54-0.33,3.97
		c-1.14,0.12-2.21,0.24-3.4,0.37c-0.12,1.21-0.23,2.37-0.36,3.65c-1.19,0.12-2.27,0.24-3.5,0.36c-0.32,2.33-0.63,4.59-0.98,7.08
		c-1.03,0.11-2.11,0.22-3.4,0.36c-0.14,1.29-0.28,2.6-0.43,4.01c-1.13,0.11-2.14,0.21-3.35,0.32c-0.1,1.16-0.2,2.32-0.31,3.67
		c-1.15,0.12-2.23,0.23-3.56,0.36c-0.31,2.31-0.62,4.64-0.93,6.92c-1.16,0.41-2.58,0.51-3.23,1.26c-0.58,0.69-0.32,2.09-0.44,3.29
		c-1.2,0.1-2.29,0.19-3.59,0.3c-0.09,1.19-0.19,2.35-0.29,3.59c-6.41,1.09-12.72,0.84-19.12-0.07c-0.32-2.33-0.65-4.66-0.98-7.08
		c-1.06-0.16-1.99-0.29-3.16-0.46c-0.6-2.51,0.01-5.01-0.09-7.65c1.26-0.2,2.33-0.37,3.49-0.56c0.29-2.32,0.57-4.59,0.85-6.82
		c1.15-0.39,2.53-0.45,3.1-1.16c0.59-0.74,0.38-2.11,0.56-3.43c1.1-0.11,2.25-0.22,3.52-0.34c0.1-1.26,0.18-2.43,0.29-3.8
		c1.11-0.13,2.18-0.26,3.29-0.4c0.38-2.31,0.76-4.55,1.12-6.72c1.21-0.43,2.64-0.53,3.29-1.28c0.59-0.69,0.33-2.1,0.45-3.29
		c1.15-0.13,2.23-0.26,3.39-0.39c0.09-1.31,0.18-2.48,0.27-3.78c1.24-0.14,2.4-0.27,3.48-0.39c0.37-2.35,0.71-4.53,1.05-6.63
		c0.21-0.17,0.32-0.34,0.45-0.37c2.66-0.58,2.65-0.57,2.86-3.46c0.02-0.31,0.14-0.61,0.22-0.98c1.21-0.12,2.37-0.24,3.64-0.38
		c0.09-1.21,0.18-2.31,0.27-3.56c1.07-0.18,2.13-0.36,3.29-0.55c0.29-2.26,0.58-4.45,0.89-6.82c1.11-0.22,2.25-0.45,3.54-0.71
		c0.08-1.24,0.15-2.42,0.23-3.81c1.2-0.11,2.36-0.22,3.78-0.35c0.08-1.17,0.16-2.32,0.25-3.61c1.05-0.19,2.04-0.37,3.23-0.59
		c0.33-2.24,0.66-4.49,1-6.83c1.13-0.2,2.2-0.39,3.43-0.6c0.12-1.29,0.24-2.53,0.36-3.88c1.11-0.1,2.12-0.2,3.37-0.31
		c0.1-1.17,0.19-2.33,0.29-3.63c1.16-0.21,2.3-0.42,3.58-0.66c0.32-2.41,0.63-4.75,0.95-7.2c1.04-0.12,2.05-0.24,3.3-0.38
		c0.09-1.18,0.18-2.34,0.28-3.66c1.16-0.1,2.24-0.2,3.6-0.32c0.1-1.21,0.19-2.44,0.31-3.88c1.11-0.12,2.19-0.24,3.48-0.39
		c0.11-1.05,0.21-2.13,0.35-3.45c1.25-0.09,2.5-0.18,4-0.29c0.12-1.14,0.24-2.28,0.37-3.55c2.48-0.17,4.85-0.34,7.47-0.52
		c0.24-0.99,0.48-2.04,0.77-3.24c7.53-0.48,15.02-0.37,22.7-0.07c0.18,1.05,0.35,2.04,0.55,3.25c2.44,0.18,4.87,0.36,7.45,0.55
		c0.12,1.15,0.23,2.22,0.37,3.53c1.26,0.09,2.5,0.18,3.94,0.29c0.12,1.12,0.23,2.2,0.36,3.48c1.06,0.11,2.14,0.22,3.46,0.35
		c0.1,1.26,0.19,2.5,0.3,3.93c1.19,0.11,2.34,0.22,3.61,0.34c0.1,1.2,0.18,2.29,0.29,3.62c1.09,0.14,2.16,0.28,3.42,0.45
		c0.37,2.41,0.73,4.81,1.11,7.33c1.03,0.15,2.11,0.32,3.28,0.49c0.1,1.19,0.19,2.29,0.3,3.59c1.17,0.11,2.32,0.22,3.59,0.34
		c0.09,1.28,0.18,2.45,0.27,3.73c0.55,0.15,1.07,0.33,1.6,0.44c0.54,0.12,1.08,0.17,1.73,0.27c0.31,2.24,0.62,4.42,0.96,6.86
		c1.13,0.18,2.27,0.37,3.53,0.57C2043.73,467.1,2043.84,468.26,2043.96,469.58z"/>
	<path class="st0" d="M1559.29,497.73c-0.19,1.19-0.35,2.19-0.54,3.38c-19.7,0.91-39.31,0.92-58.81,0.12
		c-0.17-0.21-0.24-0.27-0.26-0.33c-0.63-2.9-0.63-2.93-3.65-3.16c-2.69-0.2-5.4-0.31-8.26-0.47c-0.18-1.06-0.36-2.05-0.56-3.22
		c-2.41-0.18-4.77-0.36-7.4-0.56c-0.24-0.97-0.49-2.01-0.81-3.29c-2.28-0.33-4.61-0.67-7.09-1.03c-0.12-1.03-0.24-2.11-0.37-3.3
		c-2.4-0.27-4.75-0.53-7.19-0.81c-0.15-1.1-0.29-2.1-0.44-3.23c-1.32-0.1-2.57-0.2-4.01-0.31c-0.13-1.14-0.25-2.21-0.39-3.51
		c-2.33-0.32-4.66-0.65-7.11-0.99c-0.11-1.01-0.23-2.02-0.37-3.28c-1.17-0.09-2.32-0.19-3.65-0.29c-0.1-1.14-0.2-2.23-0.32-3.58
		c-1.22-0.09-2.45-0.19-3.92-0.3c-0.14-1.07-0.28-2.14-0.44-3.39c-1.11-0.12-2.26-0.25-3.56-0.4c-0.14-1.08-0.27-2.08-0.43-3.3
		c-2.27-0.44-4.57-0.87-6.99-1.34c-0.1-0.97-0.21-1.98-0.35-3.24c-1.25-0.11-2.49-0.21-3.91-0.33c-0.11-1.18-0.22-2.34-0.34-3.62
		c-1.19-0.1-2.28-0.18-3.58-0.29c-0.11-1.12-0.22-2.2-0.35-3.51c-1.14-0.09-2.3-0.18-3.61-0.29c-0.19-2.12-0.44-4.15-0.52-6.19
		c-0.05-1.28-0.29-2.21-1.79-2.28c-1.1-0.05-1.52-0.66-1.49-1.73c0.03-1.25,0.85-1.36,1.8-1.4c0.39-0.02,0.77-0.13,1.4-0.24
		c0.24-2.42,0.48-4.84,0.74-7.44c2.39-0.32,4.73-0.64,7.25-0.97c0.16-0.93,0.33-1.92,0.53-3.07c2.03-0.59,4.09-0.19,6.13-0.11
		c0.35,0.01,0.83,0.66,0.99,1.11c0.23,0.65,0.23,1.38,0.35,2.26c1.43,0.11,2.75,0.21,4.21,0.31c0.22,1.11,0.43,2.17,0.64,3.23
		c2.26,0.41,4.42,0.81,6.56,1.2c0.31,1.17,0.28,2.57,0.96,3.19c0.68,0.62,2.08,0.45,3.34,0.65c0.12,1.02,0.26,2.1,0.41,3.39
		c1.19,0.09,2.36,0.17,3.71,0.27c0.11,1.19,0.23,2.34,0.35,3.62c1.19,0.1,2.27,0.19,3.61,0.3c0.12,1.16,0.24,2.31,0.37,3.66
		c1.32,0.16,2.62,0.31,3.99,0.48c0.12,0.99,0.22,1.84,0.35,2.95c2.29,0.39,4.6,0.78,7.11,1.21c0.09,0.99,0.2,2.07,0.32,3.39
		c1.31,0.11,2.61,0.23,4.04,0.35c0.12,1.12,0.22,2.13,0.35,3.28c2.36,0.28,4.7,0.55,7.22,0.84c0.14,1.11,0.27,2.19,0.42,3.45
		c2.37,0.22,4.72,0.44,7.16,0.67c0.25,1.06,0.48,2.04,0.75,3.21c2.54,0.17,5.05,0.33,7.65,0.5c0.17,1.11,0.32,2.11,0.52,3.43
		c19.55,0.62,39.06,0.66,58.65-0.05c0.21-1.29,0.38-2.29,0.57-3.43c2.56-0.18,5.08-0.35,7.74-0.53c0.15-1.12,0.28-2.12,0.43-3.23
		c2.38-0.24,4.74-0.48,7.31-0.74c0.13-1.14,0.25-2.21,0.39-3.55c1.31-0.1,2.62-0.2,4.07-0.31c0.14-1,0.27-1.92,0.44-3.1
		c2.27-0.33,4.6-0.68,7.14-1.05c0.09-0.98,0.19-2.06,0.32-3.41c1.14-0.1,2.3-0.2,3.67-0.31c0.13-1.09,0.25-2.16,0.4-3.4
		c1.27-0.12,2.5-0.23,3.91-0.36c0.14-1.15,0.27-2.22,0.42-3.4c2.3-0.39,4.55-0.78,7-1.2c0.1-1.02,0.21-2.1,0.35-3.41
		c1.24-0.13,2.47-0.25,3.9-0.4c0.13-1.13,0.25-2.2,0.39-3.4c1.15-0.1,2.24-0.19,3.54-0.3c0.15-1.24,0.29-2.46,0.45-3.78
		c1.25-0.1,2.42-0.19,3.71-0.3c0.11-1.1,0.22-2.11,0.35-3.4c2.42-0.22,4.84-0.45,7.51-0.7c0.18-0.97,0.38-2.03,0.61-3.28
		c2.03,0,4-0.02,5.98,0.01c0.77,0.01,1.11,0.51,1.17,1.25c0.06,0.69,0.15,1.39,0.23,2.18c1.31,0.11,2.48,0.2,3.81,0.31
		c0.11,1.16,0.22,2.24,0.34,3.5c1.19,0.14,2.34,0.28,3.53,0.42c0.1,0.37,0.25,0.67,0.26,0.97c0.02,3.51,0.01,7.02,0.01,10.76
		c-1.06,0.23-2.12,0.45-3.35,0.71c-0.41,2.1-0.83,4.25-1.28,6.59c-2.18,0.43-4.41,0.86-6.84,1.34c-0.1,0.97-0.21,2.05-0.34,3.35
		c-1.17,0.14-2.33,0.28-3.61,0.43c-0.1,1.07-0.2,2.08-0.32,3.36c-1.22,0.1-2.45,0.2-3.89,0.31c-0.15,1.24-0.29,2.46-0.45,3.78
		c-1.18,0.1-2.27,0.2-3.54,0.31c-0.12,1.11-0.24,2.19-0.38,3.39c-0.68,0.07-1.3,0.15-1.92,0.19c-2.03,0.11-2.02,0.11-2.29,2.18
		c-0.06,0.46-0.18,0.91-0.29,1.47c-2.26,0.32-4.44,0.62-6.84,0.95c-0.14,1-0.27,2-0.44,3.24c-1.1,0.09-2.26,0.18-3.66,0.29
		c-0.12,1.19-0.23,2.35-0.36,3.68c-2.38,0.24-4.73,0.47-7.25,0.72c-0.21,1.06-0.42,2.12-0.66,3.32c-1.23,0.09-2.39,0.18-3.77,0.28
		c-0.13,1.1-0.26,2.17-0.41,3.46c-2.39,0.21-4.82,0.42-7.35,0.64c-0.14,1.17-0.27,2.25-0.42,3.55c-2.55,0.2-5.06,0.39-7.66,0.59
		c-0.15,0.95-0.29,1.8-0.45,2.81C1567.14,497.64,1563.31,497.44,1559.29,497.73z"/>
	<path class="st0" d="M189.65,418.19c-0.11,1.34-0.2,2.44-0.3,3.71c-1.28,0.12-2.52,0.24-3.88,0.37c-0.2,0.99-0.39,1.91-0.62,3.04
		c-2.11,0.38-4.27,0.77-6.7,1.2c-0.16,0.99-0.35,2.14-0.56,3.43c-1.28,0.14-2.51,0.27-3.78,0.4c-0.1,1.16-0.19,2.18-0.29,3.37
		c-1.21,0.14-2.36,0.27-3.58,0.41c-0.11,1.27-0.22,2.44-0.34,3.74c-1.32,0.13-2.55,0.25-3.86,0.38c-0.12,1.2-0.22,2.28-0.34,3.46
		c-1.2,0.12-2.28,0.22-3.49,0.34c-0.11,1.24-0.21,2.41-0.32,3.68c-1.26,0.12-2.42,0.22-3.67,0.34c-0.11,1.29-0.2,2.46-0.31,3.83
		c-1.13,0.11-2.21,0.22-3.48,0.34c-0.1,1.1-0.19,2.19-0.31,3.56c-1.13,0.13-2.27,0.25-3.59,0.4c-0.31,2.3-0.61,4.56-0.94,7.04
		c-1,0-2.05,0-3.43,0c-0.09-1.7-0.24-3.35-0.25-5c-0.03-5.11-0.01-10.23-0.02-15.34c0-2.27,0-2.31-2.12-2.85
		c-0.84-0.21-1.24-0.65-1.26-1.48c-0.02-1.28-0.04-2.56-0.04-3.84c-0.05-21.18-0.1-42.35-0.14-63.53c0-0.78,0.07-1.56,0.12-2.49
		c3.92-0.54,7.7-0.12,11.6,0.1c0.16,1.18,0.31,2.25,0.47,3.42c3.74,0.22,7.37,0.44,11.08,0.66c0.13,0.66,0.23,1.11,0.32,1.57
		c0.09,0.46,0.16,0.92,0.26,1.54c5.02,0.31,9.99,0.63,14.98,0.94c0.24,1.24,0.42,2.15,0.65,3.37c6.46,0.18,12.9,0.37,19.51,0.56
		c0.26,0.92,0.51,1.81,0.85,2.98c3.13,0.15,6.3,0.41,9.47,0.43c13.19,0.1,26.39,0.11,39.58,0.18c1.75,0.01,3.5,0.15,5.53,0.25
		c0.07,1.06,0.14,2.03,0.22,3.18c-3.85,0.35-7.47,0.67-11.16,1c-0.19,1.11-0.34,2.02-0.52,3.1c-2.57,0.15-5.09,0.3-7.78,0.46
		c-0.15,1.09-0.28,2.09-0.46,3.44c-2.41,0.24-4.91,0.48-7.51,0.74c-0.21,0.91-0.41,1.82-0.67,2.96c-2.34,0.29-4.68,0.57-7.26,0.89
		c-0.13,0.98-0.26,2.05-0.43,3.34c-2.38,0.21-4.8,0.42-7.32,0.64c-0.13,1.19-0.25,2.28-0.4,3.56c-2.38,0.23-4.73,0.46-7.19,0.69
		c-0.22,1.13-0.43,2.19-0.66,3.33c-1.33,0.09-2.58,0.18-3.89,0.27c-0.19,1.2-0.36,2.28-0.55,3.46c-2.34,0.3-4.6,0.58-7.05,0.89
		c-0.16,1.03-0.31,2.03-0.5,3.23C192.2,417.99,191.04,418.08,189.65,418.19z"/>
	<path class="st0" d="M507.39,501.11c-0.13-1.12-0.25-2.13-0.39-3.36c-1.18-0.09-2.34-0.18-3.65-0.28
		c-0.22-1.17-0.42-2.31-0.65-3.52c-1.17-0.13-2.25-0.26-3.49-0.4c0-4.03,0-7.9,0-11.96c1.05-0.24,2.04-0.46,3.15-0.71
		c0.26-1.01,0.23-2.36,0.9-3.03c0.65-0.66,2-0.61,3.19-0.92c0.19-0.9,0.4-1.89,0.61-2.83c2.15-0.51,143.66-0.57,146.75-0.06
		c0.12,0.94,0.26,1.94,0.41,3.14c1.16,0.09,2.32,0.18,3.65,0.28c0.19,1.28,0.38,2.51,0.58,3.84c1.14,0.16,2.22,0.32,3.44,0.49
		c0,3.87,0,7.67,0,11.6c-1.31,0.16-2.46,0.31-3.71,0.46c-0.12,1.18-0.22,2.27-0.35,3.5c-1.3,0.11-2.54,0.21-3.88,0.33
		c-0.22,1.13-0.42,2.2-0.62,3.23C650.76,501.45,513.04,501.64,507.39,501.11z"/>
	<path class="st0" d="M1519.74,548.79c-0.14-1.17-0.25-2.11-0.39-3.25c-1.22-0.13-2.38-0.26-3.76-0.41c-0.1-1.27-0.2-2.5-0.31-3.81
		c-1.11-0.15-2.11-0.28-3.29-0.44c-0.37-5.08-0.42-10.07,0.14-15.23c1.07-0.15,2.06-0.29,3.2-0.45c0.11-1.3,0.21-2.54,0.33-3.93
		c1.32-0.12,2.55-0.23,3.91-0.35c0.11-1.11,0.22-2.12,0.35-3.36c6.23-0.37,12.41-0.66,18.77,0.33c0.21,1,0.41,1.99,0.65,3.16
		c1.23,0.14,2.46,0.28,3.72,0.43c0.26,2.53,0.51,4.96,0.77,7.46c1.07,0.22,1.99,0.4,3.02,0.61c0,2.46,0,4.83,0,7.42
		c-0.83,0.21-1.73,0.43-2.89,0.72c-0.28,2.32-0.56,4.74-0.87,7.28c-1.18,0.11-2.34,0.21-3.61,0.32c-0.1,1.13-0.2,2.15-0.31,3.35
		C1532.73,549.38,1526.33,549.31,1519.74,548.79z"/>
	<path class="st0" d="M1984.32,509.14c-0.11-1.14-0.2-2.15-0.32-3.44c-1.24-0.13-2.47-0.26-3.9-0.41c-0.1-1.11-0.21-2.19-0.33-3.47
		c-1.09-0.12-2.17-0.24-3.25-0.36c-0.84-2.85-0.72-15.42,0.18-19.23c1.1-0.25,2.52-0.18,3.26-0.85c0.67-0.61,0.6-2.03,0.89-3.25
		c7.43-1.22,14.85-1.07,22.47-0.16c0.21,1.24,0.41,2.38,0.64,3.7c1.19,0.12,2.34,0.23,3.59,0.35c0.71,6.52,0.59,12.94,0.27,19.5
		c-1.18,0.19-2.26,0.37-3.47,0.57c-0.13,1.04-0.26,2.04-0.4,3.21c-1.17,0.2-2.31,0.4-3.55,0.61c-0.1,1.02-0.19,1.96-0.28,2.87
		C1998.48,509.64,1989.31,509.86,1984.32,509.14z"/>
	<path class="st0" d="M1976.36,592.33c1.25,0.18,2.25,0.33,3.36,0.49c0,3.82,0,7.52,0,11.34c-1.19,0.16-2.19,0.29-3.38,0.45
		c-0.22,2.45-0.43,4.88-0.67,7.53c-1.13,0.17-2.19,0.32-3.38,0.5c-0.12,1.21-0.23,2.37-0.35,3.58c-2.44,0.29-4.79,0.57-7.27,0.87
		c-0.19,1-0.37,1.92-0.55,2.82c-2.14,0.57-11.97,0.66-15.62,0.13c-0.17-0.85-0.34-1.76-0.56-2.84c-2.37-0.31-4.7-0.62-7.16-0.95
		c-0.1-1.17-0.2-2.33-0.31-3.58c-1.28-0.13-2.45-0.25-3.78-0.39c-0.19-2.52-0.37-4.95-0.56-7.49c-1.17-0.17-2.24-0.33-3.4-0.5
		c-0.05-0.48-0.13-0.87-0.13-1.25c-0.01-3.35-0.01-6.7-0.01-10.29c1.12-0.18,2.18-0.36,3.45-0.56c0.18-2.38,0.36-4.74,0.55-7.3
		c1.17-0.12,2.33-0.24,3.68-0.39c0.11-1.13,0.21-2.21,0.34-3.48c1.17-0.11,2.33-0.21,3.64-0.33c0.11-1.17,0.21-2.26,0.34-3.66
		c7.7-0.51,15.39-0.43,23.2-0.03c0.16,1.3,0.29,2.45,0.44,3.71c1.34,0.11,2.58,0.21,3.92,0.32c0.12,1.22,0.22,2.3,0.33,3.5
		c1.16,0.13,2.24,0.25,3.42,0.38C1976.06,587.39,1976.21,589.76,1976.36,592.33z M1960.7,613.03c2.57-0.22,4.91-0.43,7.27-0.63
		c0.11-1.38,0.2-2.55,0.29-3.81c1.31-0.12,2.48-0.23,3.81-0.35c0.45-6.5,0.55-12.92,0.04-19.47c-1.19-0.14-2.27-0.27-3.41-0.41
		c-0.2-1.25-0.38-2.4-0.56-3.58c-1.33-0.14-2.48-0.27-3.61-0.39c-0.16-1.26-0.28-2.25-0.42-3.34c-5.31-0.22-10.46-0.32-15.67,0.04
		c-0.13,1.13-0.24,2.06-0.37,3.14c-0.77,0.09-1.46,0.18-2.15,0.25c-1.69,0.18-1.77,0.28-1.99,2.04c-0.07,0.6-0.21,1.2-0.31,1.76
		c-1.11,0.18-2.02,0.33-2.92,0.47c-0.75,6.6-0.57,13.02,0.06,19.54c1.15,0.13,2.23,0.24,3.42,0.37c0.13,1.33,0.26,2.55,0.38,3.83
		c1.39,0.08,2.58,0.12,3.76,0.22c1.03,0.09,2.36-0.08,2.98,0.49c0.68,0.62,0.71,1.96,1.03,3c2.23,0.54,6.17,0.48,7.96-0.15
		C1960.42,615.14,1960.54,614.21,1960.7,613.03z"/>
	<path class="st0" d="M1349.1,592.47c1.21,0.18,2.15,0.31,3.34,0.49c0.24,2.46,0.26,4.87,0.11,7.2c-0.25,0.2-0.36,0.36-0.5,0.39
		c-2.77,0.56-2.76,0.56-2.98,3.35c-0.21,2.61-0.44,5.23-0.68,8c-1.14,0.24-2.19,0.47-3.35,0.72c-0.12,1.21-0.24,2.38-0.37,3.59
		c-2.52,0.29-4.94,0.56-7.44,0.85c-0.18,1.06-0.34,1.98-0.53,3.1c-5.19,0-10.35,0-15.5,0c-0.1-0.12-0.26-0.23-0.3-0.36
		c-0.79-2.92-0.85-2.97-4.75-3.27c-0.93-0.07-1.87-0.01-2.91-0.01c-0.12-1.43-0.23-2.59-0.33-3.85c-1.14-0.1-2.15-0.18-3.44-0.3
		c-0.2-2.43-0.39-4.85-0.6-7.51c-1.04-0.16-2.11-0.32-3.36-0.51c0-3.82,0-7.62,0-11.58c0.48-0.12,0.99-0.3,1.51-0.38
		c1.73-0.26,1.73-0.25,1.88-2.06c0.14-1.74,0.28-3.48,0.44-5.45c1.07-0.13,2.13-0.27,3.35-0.42c0.12-1.1,0.23-2.18,0.36-3.44
		c1.28-0.11,2.52-0.23,3.89-0.35c0.15-1.23,0.3-2.38,0.46-3.69c7.72-0.44,15.35-0.38,23.14,0.02c0.15,1.29,0.28,2.43,0.43,3.71
		c1.32,0.12,2.55,0.22,3.92,0.34c0.11,1.17,0.21,2.26,0.32,3.48c1.12,0.13,2.2,0.26,3.44,0.41
		C1348.8,587.42,1348.95,589.86,1349.1,592.47z M1344.82,608.24c0.43-6.63,0.61-13.04,0-19.47c-1.31-0.14-2.39-0.25-3.48-0.36
		c-0.17-1.31-0.31-2.4-0.47-3.59c-1.31-0.15-2.54-0.28-3.79-0.42c-0.13-1.18-0.24-2.19-0.37-3.36c-5.29,0-10.45,0-15.68,0
		c-0.26,1.1-0.49,2.08-0.72,3.09c-0.49,0.09-0.87,0.18-1.26,0.23c-2.15,0.28-2.23,0.27-2.42,2.41c-0.11,1.21-0.58,1.72-1.78,1.7
		c-0.54-0.01-1.08,0.13-1.76,0.23c-0.54,6.58-0.48,13.07,0.08,19.62c1.33,0.13,2.49,0.24,3.74,0.35c0.12,1.33,0.23,2.49,0.35,3.75
		c1.32,0.14,2.56,0.26,3.81,0.39c0.08,0.63,0.15,1.1,0.2,1.57c0.18,1.83,0.18,1.83,1.96,1.95c0.8,0.06,1.59,0.18,2.39,0.18
		c2.45,0.01,4.9-0.02,7.34-0.04c0.2-1.34,0.34-2.34,0.51-3.47c2.47-0.21,4.82-0.42,7.22-0.63c0.12-1.36,0.23-2.6,0.34-3.86
		C1342.36,608.42,1343.47,608.34,1344.82,608.24z"/>
	<path class="st0" d="M2532.15,576.82c7.89-0.08,15.59-0.16,23.41,0.22c0.17,1.28,0.32,2.36,0.48,3.53c1.94,0.23,3.81,0.51,5.7,0.67
		c1.09,0.09,1.53,0.54,1.61,1.62c0.15,1.88,0.43,3.76,0.67,5.73c1.1,0.11,2.12,0.21,3.1,0.31c0.88,2.19,0.99,14.62,0.16,19.24
		c-1.01,0.12-2.09,0.25-3.34,0.4c-0.13,1.33-0.27,2.63-0.41,4.06c-1.04,0.1-1.97,0.19-3.16,0.31c-0.17,1.11-0.35,2.25-0.56,3.6
		c-1.28,0.06-2.53,0.13-3.77,0.19c-0.17,0.22-0.39,0.38-0.45,0.59c-0.75,2.74-0.74,2.85-3.72,2.88c-6.15,0.07-12.3,0.01-18.45,0
		c-0.23,0-0.45-0.11-0.89-0.23c-0.19-1.59-0.55-3.23-0.55-4.87c-0.03-12.22,0.02-24.43,0.04-36.65
		C2532,578.01,2532.07,577.62,2532.15,576.82z M2551.85,581.13c-5.25,0-10.32,0-15.57,0c0,10.59,0,20.99,0,31.48
		c1.22,0.13,2.3,0.25,3.47,0.38c0.13,0.62,0.25,1.15,0.35,1.68c0.27,1.51,0.53,1.69,2,1.7c1.19,0.01,1.66-0.51,1.84-1.68
		c0.26-1.75,0.34-1.75,2.13-1.81c1.44-0.05,2.87-0.07,4.31-0.08c3.01-0.02,5.99-0.27,8.96-1.02c0.32-2.36,0.62-4.62,0.93-6.9
		c1.14-0.19,2.13-0.36,3.16-0.53c0-3.95,0-7.73,0-11.58c-1.15-0.19-2.13-0.36-3.13-0.53c-0.31-2.53-0.59-4.87-0.86-7.12
		c-2.51-0.3-4.85-0.58-7.19-0.86C2552.11,583.13,2552,582.27,2551.85,581.13z"/>
	<path class="st0" d="M1027.08,612.72c-1.25-0.08-2.36-0.15-3.75-0.25c-0.09-1.32-0.17-2.63-0.26-4.08
		c-0.99-0.16-1.9-0.31-2.75-0.45c-1.11-3.51-1.31-15.35-0.3-18.88c0.88-0.12,1.82-0.24,2.94-0.39c0.09-1.25,0.18-2.5,0.29-3.95
		c1.08-0.2,2.15-0.41,3.34-0.63c0.22-0.99,0.45-1.98,0.69-3.08c1.19-0.15,2.34-0.29,3.61-0.45c0.13-1.18,0.25-2.27,0.4-3.61
		c7.75-0.3,15.44-0.54,23.29,0.27c0.23,1.25,0.44,2.39,0.66,3.6c1.17,0.09,2.27,0.17,3.55,0.27c0.12,1.18,0.24,2.33,0.37,3.61
		c1.17,0.11,2.26,0.21,3.49,0.32c0.78,7.8,0.88,15.56,0.16,23.55c-1.04,0.19-2.11,0.39-3.26,0.6c-0.41,2.29-0.81,4.53-1.24,6.99
		c-2.29,0.25-4.63,0.51-7.05,0.78c-0.16,1.09-0.31,2.09-0.49,3.33c-3.63,0.04-7.2,0.11-10.78,0.11c-2.15-0.01-4.31-0.13-6.46-0.22
		c-1.9-0.08-1.9-0.08-2.1-2.03c-0.04-0.39-0.12-0.78-0.21-1.33c-0.63-0.07-1.24-0.16-1.85-0.21c-0.55-0.05-1.1-0.06-1.84-0.11
		C1027.36,615.2,1027.22,613.98,1027.08,612.72z M1035.78,616.27c3.81,0.28,7.5,0.43,11.22,0.11c0.19-1.3,0.35-2.38,0.51-3.45
		c2.58-0.2,4.94-0.38,7.39-0.57c0.13-1.38,0.25-2.61,0.37-3.9c1.15-0.15,2.15-0.27,3.28-0.41c0.81-6.43,0.64-12.75,0.24-19.14
		c-0.78-0.07-1.34-0.1-1.88-0.17c-0.52-0.07-1.04-0.18-1.54-0.27c-0.11-1.31-0.21-2.47-0.3-3.64c-1.47-0.11-2.71-0.21-3.93-0.3
		c-0.14-1.28-0.24-2.29-0.36-3.44c-6.09-0.29-12.06-0.37-18.02,0.14c-0.88,0.08-1.25,0.55-1.3,1.4c-0.04,0.69-0.16,1.37-0.26,2.12
		c-1.28,0.14-2.36,0.25-3.55,0.37c-0.22,2.51-0.43,4.94-0.65,7.42c-0.68,0.14-1.21,0.32-1.75,0.34c-1.17,0.05-1.75,0.6-1.76,1.78
		c-0.01,1.99-0.1,3.98-0.05,5.96c0.02,1.02-0.06,2.34,0.52,2.98c0.62,0.69,1.94,0.75,3.14,1.14c0.1,1.14,0.21,2.37,0.32,3.65
		c1.11,0.19,2.11,0.37,3.2,0.56c0.21,1.23,0.4,2.38,0.6,3.57c1.37,0.09,2.62,0.17,3.93,0.26
		C1035.36,613.97,1035.55,615.05,1035.78,616.27z"/>
	<path class="st0" d="M550.92,617.04c-0.12,0.9-0.26,1.9-0.42,3.1c-6.33,0.32-12.59,0.32-18.98-0.09c-0.15-1.12-0.29-2.12-0.45-3.28
		c-1.34-0.12-2.65-0.24-4.08-0.38c-0.09-1.2-0.17-2.29-0.27-3.57c-1.19-0.1-2.34-0.2-3.67-0.32c-0.09-1.33-0.17-2.57-0.27-4.01
		c-1.11-0.15-2.17-0.29-3.45-0.46c0-6.35,0-12.61,0-19.07c1.03-0.13,2.03-0.25,3.25-0.4c0.21-1.85,0.49-3.7,0.6-5.57
		c0.07-1.15,0.39-1.72,1.65-1.81c1.81-0.13,3.61-0.49,5.64-0.78c0.23-1.11,0.46-2.24,0.68-3.32c4.29-0.69,18.68-0.45,23.16,0.4
		c0.14,1.02,0.28,2.09,0.45,3.35c1.2,0.1,2.35,0.2,3.63,0.31c0.1,1.19,0.18,2.28,0.29,3.59c1.12,0.12,2.19,0.24,3.51,0.39
		c1.1,7.66,0.62,15.36,0.48,23.21c-1.15,0.2-2.23,0.38-3.48,0.6c-0.22,1.22-0.44,2.44-0.67,3.71c-1.02,0.17-1.94,0.32-2.78,0.46
		c-0.42,1.22-0.51,2.64-1.27,3.28c-0.7,0.59-2.12,0.33-3.22,0.45C551.19,616.84,551.13,616.91,550.92,617.04z M526.56,592.27
		c-1.24,0.19-2.31,0.35-3.37,0.51c0,3.95,0,7.67,0,11.48c1.26,0.17,2.33,0.31,3.48,0.46c0.1,1.29,0.19,2.46,0.29,3.74
		c1.21,0.26,2.35,0.5,3.41,0.73c0.25,1.24,0.46,2.3,0.67,3.37c1.39,0.1,2.56,0.19,3.79,0.27c0.17,1.24,0.31,2.31,0.46,3.47
		c3.94,0.25,7.71,0.44,11.49,0.01c0.15-1.28,0.28-2.29,0.41-3.4c2.47-0.21,4.82-0.4,7.27-0.6c0.13-1.35,0.25-2.59,0.37-3.89
		c1.2-0.21,2.26-0.39,3.35-0.58c0.67-6.38,0.6-12.55,0.17-18.82c-0.74-0.07-1.29-0.11-1.83-0.19c-0.52-0.07-1.04-0.19-1.61-0.29
		c-0.09-1.3-0.18-2.47-0.27-3.69c-1.35-0.09-2.52-0.17-3.74-0.25c-0.16-1.23-0.3-2.31-0.45-3.49c-6.41-0.28-12.67-0.51-18.96,0.23
		c-0.15,1.21-0.27,2.22-0.4,3.34c-1.36,0.13-2.59,0.26-3.91,0.39C526.98,587.46,526.78,589.75,526.56,592.27z"/>
	<path class="st0" d="M1646.26,580.87c1.57,0,2.88,0,4.37,0c0.12,1.25,0.23,2.39,0.35,3.64c1.17,0.13,2.25,0.24,3.42,0.37
		c0.11,1.28,0.21,2.44,0.31,3.72c1.21,0.09,2.3,0.17,3.65,0.27c0.1,1.17,0.2,2.32,0.3,3.59c1.18,0.11,2.26,0.22,3.48,0.34
		c0.11,1.31,0.22,2.55,0.34,3.9c1.28,0.12,2.44,0.23,3.69,0.35c0.15,1.23,0.29,2.39,0.44,3.61c1.04,0.15,1.96,0.29,2.77,0.4
		c0.18,0.26,0.33,0.37,0.36,0.51c0.59,3.5,0.64,3.53,4.59,2.84c0-9.02,0-18.09,0-27.43c1.33-0.06,2.39-0.11,3.78-0.18
		c0.24,13.33,0.02,26.45,0.13,39.72c-1.38,0-2.46,0-3.81,0c-0.12-1.17-0.24-2.31-0.37-3.59c-1.16-0.1-2.25-0.2-3.59-0.32
		c-0.11-1.24-0.21-2.47-0.34-3.92c-1.12-0.12-2.19-0.23-3.45-0.37c-0.09-1.1-0.19-2.19-0.3-3.49c-1.23-0.13-2.45-0.26-3.84-0.4
		c-0.09-1.22-0.17-2.39-0.27-3.7c-1.15-0.12-2.23-0.23-3.48-0.35c-0.1-1.15-0.19-2.24-0.3-3.56c-1.15-0.1-2.3-0.21-3.61-0.33
		c-0.13-1.29-0.24-2.52-0.38-3.92c-1.25,0-2.39,0-3.78,0c-0.05,1-0.13,1.93-0.13,2.86c0,6.31,0.03,12.63,0.03,18.94
		c0,2.48-0.72,3.06-3.22,2.59c-1.24-0.24-2.47-0.55-3.96-0.88c-0.07-0.59-0.23-1.28-0.23-1.96c0.01-5.67,0.06-11.35,0.06-17.02
		c0-1.37,0.02-2.55,1.86-2.72c1.17-0.11,1.14-1.16,1.14-2.05c0-2.64-0.02-5.27-0.02-7.91
		C1646.26,583.29,1646.26,582.19,1646.26,580.87z"/>
	<path class="st0" d="M2106.89,600.63c0.33,2.58,0.63,4.9,0.94,7.31c1.12,0.15,2.04,0.27,3.18,0.43c0.11,1.25,0.22,2.49,0.34,3.88
		c0.68,0.08,1.28,0.17,1.89,0.23c0.55,0.06,1.1,0.09,1.92,0.16c0.27,2.47,0.12,4.86-0.25,7.34c-1.13,0-2.05,0-3.03,0
		c-0.25-1.12-0.18-2.36-0.77-3.03c-0.56-0.64-1.8-0.7-3.06-1.12c-0.38-2.15-0.79-4.54-1.25-7.12c-1.02-0.11-2.17-0.23-3.44-0.36
		c-0.08-1.22-0.15-2.31-0.24-3.66c-1.25-0.11-2.47-0.22-3.84-0.35c-0.12-1.16-0.23-2.24-0.36-3.5c-1.13,0-2.21,0-3.57,0
		c-0.09,6.28-0.17,12.55-0.26,19.04c-1.3,0-2.26,0-3.42,0c-0.16-1.81-0.44-3.54-0.44-5.27c-0.02-11.75,0.01-23.5,0.03-35.25
		c0-0.77,0.08-1.55,0.13-2.47c6.62,0,13.06,0,19.65,0c0.24,1.11,0.45,2.1,0.7,3.28c0.56,0.1,1.16,0.23,1.77,0.33
		c1.74,0.27,1.79,0.32,1.9,2.1c0.03,0.55,0.07,1.11,0.12,1.84c1.02,0.14,2.03,0.28,3.27,0.46c0.33,2.46,0.06,4.86-0.16,7.37
		c-1.1,0.13-2.03,0.25-3.19,0.39c-0.09,1.25-0.19,2.49-0.3,3.95c-1.34,0.12-2.65,0.23-4.05,0.36c-0.14,0.96-0.26,1.81-0.41,2.85
		C2109.63,600.05,2108.5,600.29,2106.89,600.63z M2110.98,592.58c0.74-3.86,0.45-7.59-0.4-11.47c-4.99,0-9.91,0-14.97,0
		c-0.46,3.92-0.46,7.69-0.25,11.51c1.28,0.28,2.34,0.51,3.4,0.74c0.1,0.71,0.06,1.32,0.3,1.79c0.25,0.49,0.74,1.17,1.17,1.2
		c2.2,0.15,4.42,0.28,6.63-0.22c0.2-1.09,0.37-2.01,0.56-3.09C2108.63,592.87,2109.79,592.73,2110.98,592.58z"/>
	<path class="st0" d="M1261.27,608.63c0.11,1.39,0.2,2.56,0.3,3.92c1.21,0.11,2.36,0.22,3.64,0.33c0,2.4,0,4.68,0,7.15
		c-1.11,0-2.17,0-3.39,0c-0.12-1.02-0.23-2.02-0.38-3.28c-1.14-0.11-2.29-0.21-3.58-0.33c-0.09-1.24-0.18-2.41-0.27-3.74
		c-1.19-0.17-2.33-0.34-3.62-0.52c-0.28-2.24-0.56-4.44-0.87-6.9c-1.05-0.19-2.19-0.39-3.48-0.61c-0.13-1.28-0.26-2.51-0.4-3.84
		c-1.12,0-2.14,0-3.33,0c-0.09,0.62-0.24,1.23-0.24,1.84c-0.04,3.99-0.05,7.99-0.08,11.98c-0.02,2.1-0.45,2.53-2.54,2.35
		c-0.78-0.07-1.54-0.39-2.32-0.53c-0.69-0.13-1.4-0.16-2.3-0.26c-0.08-0.77-0.17-1.46-0.22-2.15c-0.07-1.02,0.33-1.73,1.43-1.81
		c1.38-0.11,1.63-0.98,1.63-2.16c-0.02-7.75-0.01-15.5-0.01-23.24c0-0.94-0.15-1.66-1.27-1.99c-1.66-0.49-1.79-0.88-1.73-2.27
		c0.06-1.39,1.05-1.38,2-1.53c0.23-0.03,0.45-0.16,0.85-0.31c0.12-1.16,0.24-2.4,0.4-3.98c6.56,0.04,13.06-0.05,19.72,0.22
		c0.16,1.33,0.3,2.48,0.45,3.75c1.22,0.12,2.38,0.23,3.73,0.36c0,5.11,0,10.1,0,15.32c-2.5,0.26-4.83,0.51-7.31,0.77
		c-0.19,1.04-0.37,2.03-0.58,3.22c-1.18,0.12-2.34,0.24-3.7,0.38c0,1.19,0,2.32,0,3.56c1.25,0.12,2.41,0.23,3.7,0.35
		c0.1,1.21,0.19,2.29,0.29,3.59C1258.89,608.37,1259.96,608.49,1261.27,608.63z M1245.76,596.17c1.06,0.12,1.75,0.26,2.44,0.26
		c2.15,0,4.3-0.02,6.45-0.09c2.16-0.07,2.22-0.09,2.56-2.16c0.19-1.18,0.73-1.66,1.9-1.59c0.69,0.04,1.4-0.07,2.25-0.12
		c0-2.63,0-5.13,0-7.67c-1.22-0.19-2.29-0.35-3.38-0.52c-0.16-1.16-0.3-2.15-0.43-3.08c-3.29-0.47-10.04-0.36-11.79,0.17
		C1245.76,586.18,1245.76,591.02,1245.76,596.17z"/>
	<path class="st0" d="M2305.88,576.96c1.35,0,2.35,0,3.71,0c0,5.17,0,10.23,0,15.45c7.94,0.82,15.53,0.99,23.43-0.17
		c0.1-0.96,0.27-1.94,0.29-2.93c0.08-3.97,0.12-7.95,0.18-12.16c1.35,0,2.39,0,3.64,0c0.06,0.85,0.16,1.62,0.16,2.4
		c0.03,11.66,0.06,23.31,0.07,34.97c0,2.15-0.54,2.63-2.46,2.43c-1.03-0.11-1.64-0.6-1.69-1.64c-0.04-0.88-0.02-1.75-0.01-2.63
		c0.03-3.19,0.08-6.39,0.09-9.58c0-0.62-0.12-1.25-0.21-2.07c-7.72-1.36-15.38-1.01-23.19-0.31c-0.75,6.4,0.7,12.83-0.99,19.02
		c-2.54,0.64-2.75,0.54-2.83-1.83c-0.13-4.06-0.21-8.13-0.22-12.2c-0.02-8.78,0.02-17.57,0.03-26.35
		C2305.88,578.65,2305.88,577.94,2305.88,576.96z"/>
	<path class="st0" d="M2484.37,616.42c-0.1-1.33-0.18-2.43-0.27-3.62c-1.16-0.09-2.17-0.17-3.45-0.27
		c-0.11-1.21-0.22-2.45-0.36-3.93c-1.19-0.12-2.42-0.24-3.77-0.37c-0.1-1.16-0.2-2.25-0.32-3.55c-1.1-0.1-2.19-0.2-3.5-0.31
		c-0.09-1.17-0.18-2.33-0.29-3.73c-1.14-0.12-2.29-0.24-3.58-0.38c-0.07-0.58-0.18-1.11-0.2-1.63c-0.11-2.08-0.11-2.08-2.12-2.37
		c-0.39-0.06-0.78-0.13-1.36-0.23c-0.15-1.08-0.3-2.15-0.48-3.45c-1.33,0-2.62,0-4.16,0c-0.04,0.89-0.12,1.75-0.12,2.6
		c0.01,6.15,0.05,12.3,0.03,18.45c-0.01,1.75-0.18,3.5-0.27,5.25c-0.05,0.91-0.58,1.24-1.42,1.24c-0.78,0-1.44-0.15-1.58-1.08
		c-0.22-1.57-0.63-3.14-0.64-4.71c-0.06-10.38-0.04-20.77-0.04-31.15c0-0.71,0-1.42,0-2.04c3.16-1.46,3.78-1.04,4.63,3.03
		c1.08,0.2,2.22,0.42,3.5,0.65c0.09,1.22,0.18,2.39,0.27,3.66c1.17,0.13,2.25,0.25,3.47,0.39c0.11,1.17,0.21,2.26,0.32,3.52
		c1.18,0.11,2.33,0.21,3.63,0.33c0.11,1.33,0.21,2.56,0.33,3.9c1.2,0.12,2.28,0.23,3.49,0.35c0.09,1.17,0.17,2.26,0.27,3.58
		c1.2,0.11,2.36,0.21,3.77,0.34c0.11,1.12,0.23,2.27,0.37,3.6c1.18,0,2.33,0,3.79,0c0-9.12,0-18.18,0-27.42c1.38,0,2.45,0,3.52,0
		c0.58,1.86,0.87,34.9,0.33,39.38C2486.97,616.42,2485.76,616.42,2484.37,616.42z"/>
	<path class="st0" d="M1130.25,608.53c-1.23-0.1-2.25-0.17-3.39-0.26c-0.1-1.17-0.19-2.26-0.3-3.54c-1.26-0.13-2.48-0.25-3.83-0.39
		c-0.1-1.25-0.19-2.41-0.29-3.72c-1.24-0.13-2.4-0.25-3.62-0.38c-0.11-1.22-0.21-2.31-0.32-3.59c-1.1-0.23-2.16-0.46-3.13-0.66
		c-0.15-0.25-0.29-0.37-0.31-0.51c-0.39-3.44-0.48-3.51-4.5-2.86c-0.05,0.7-0.14,1.46-0.14,2.23c0,6.07,0.04,12.14,0.02,18.21
		c-0.01,1.91-0.17,3.82-0.25,5.73c-0.04,0.87-0.45,1.31-1.34,1.33c-0.89,0.02-1.59-0.16-1.69-1.22c-0.2-2.13-0.57-4.26-0.58-6.39
		c-0.08-9.34-0.05-18.69-0.06-28.03c0-0.64-0.02-1.28,0-1.92c0.05-1.82,0.5-2.22,2.3-2.14c1.43,0.06,1.74,0.35,1.97,1.84
		c0.1,0.61,0.18,1.23,0.29,1.94c1.17,0.19,2.25,0.37,3.54,0.58c0.09,1.19,0.18,2.35,0.29,3.7c1.09,0.12,2.16,0.23,3.48,0.37
		c0.1,1.17,0.2,2.31,0.32,3.57c1.21,0.09,2.3,0.17,3.64,0.27c0.09,1.27,0.19,2.5,0.29,3.9c1.28,0.13,2.51,0.26,3.82,0.4
		c0.1,1.2,0.19,2.29,0.29,3.56c1.13,0.11,2.22,0.22,3.45,0.34c0.12,1.19,0.25,2.35,0.38,3.64c1.27,0,2.43,0,3.93,0
		c0-9.11,0-18.17,0-27.43c1.38,0,2.43,0,3.7,0c0,13.15,0,26.19,0,39.4c-1.17,0-2.25,0-3.59,0c-0.1-1.16-0.2-2.31-0.32-3.67
		c-1.17-0.1-2.32-0.19-3.61-0.3C1130.52,611.13,1130.39,609.83,1130.25,608.53z"/>
	<path class="st0" d="M681.77,604.75c-5.27,0-10.35,0-15.62,0c-0.13,1.18-0.24,2.25-0.37,3.51c-1.09,0.16-2.16,0.31-3.41,0.48
		c-0.16,2.57-0.31,5.08-0.47,7.71c-1.35,0.14-2.59,0.27-3.9,0.4c-0.18,1.03-0.35,1.95-0.54,3.03c-0.65,0.07-1.26,0.18-1.87,0.21
		c-0.87,0.04-1.35-0.42-1.35-1.3c-0.01-1.89,0-3.79,0-5.8c1.23-0.13,2.24-0.24,3.43-0.36c0.29-2.39,0.58-4.79,0.89-7.29
		c1.17-0.26,2.23-0.49,3.38-0.74c0.17-2.47,0.33-4.84,0.5-7.39c1.06-0.18,2.12-0.36,3.34-0.56c0.15-2.5,0.29-4.95,0.45-7.6
		c1.1-0.13,2.19-0.25,3.5-0.4c0.18-2.47,0.36-4.97,0.55-7.51c1.21-0.13,2.23-0.23,3.32-0.35c0.17-0.47,0.4-0.89,0.49-1.34
		c0.44-2.37,0.43-2.37,3.18-1.94c0.33,2.32,0.66,4.73,1.01,7.23c0.85,0.12,1.7,0.24,2.84,0.4c0.3,2.43,0.6,4.91,0.92,7.51
		c1.06,0.21,2.13,0.43,3.26,0.66c0.36,3.62,0.72,7.15,1.08,10.75c1.1,0.18,2.01,0.33,3,0.5c0.24,2.44,0.47,4.8,0.72,7.28
		c1.23,0.26,2.36,0.51,3.77,0.81c-0.19,2.45-0.37,4.79-0.56,7.35c-1.05,0.05-1.89,0.09-2.98,0.13c-0.42-2.41-0.82-4.72-1.24-7.14
		c-0.98-0.15-1.98-0.3-3.11-0.46c-0.1-1.4-0.19-2.73-0.3-4.19c-1.14-0.16-2.21-0.31-3.37-0.47
		C682.14,606.88,681.98,605.96,681.77,604.75z M670.09,600.54c3.12,0.11,6.11,0.28,9.12-0.25c2.35-0.41,2.53-0.65,1.72-3.16
		c-0.89-0.17-1.8-0.33-2.75-0.51c-0.15-2.59-0.3-5.03-0.45-7.53c-1.41,0-2.61,0-3.81,0c-0.17,1.23-0.3,2.23-0.44,3.24
		c-1.19,0.13-2.2,0.24-3.38,0.37C670.09,595.27,670.09,597.72,670.09,600.54z"/>
	<path class="st0" d="M944.03,604.6c1.07,0.21,2.14,0.43,3.28,0.65c0.34,2.24,0.67,4.42,1.04,6.85c2.36,0.28,4.7,0.55,7.24,0.85
		c0.13,1.02,0.27,2.1,0.44,3.39c3.83,0,7.62,0,11.63,0c0.15-1.07,0.3-2.14,0.48-3.39c2.46-0.2,4.89-0.41,7.38-0.61
		c0.15-1.13,0.29-2.14,0.45-3.36c1.03,0,2,0,3.15,0c0,2.42,0,4.77,0,7.25c-2.44,0.21-4.79,0.42-7.24,0.63
		c-0.16,1.11-0.3,2.11-0.47,3.29c-6.5,0-12.93,0-19.48,0c-0.16-1.13-0.3-2.14-0.46-3.32c-1.18-0.11-2.34-0.21-3.72-0.34
		c-0.14-1.1-0.27-2.16-0.43-3.45c-1.1-0.12-2.18-0.25-3.48-0.39c-0.12-1.25-0.23-2.49-0.37-3.91c-1.11-0.15-2.17-0.3-3.41-0.46
		c-0.06-3.1-0.2-6.12-0.17-9.14c0.04-3.91,0.19-7.81,0.34-11.72c0.08-2.19,0.12-2.18,2.22-2.4c0.38-0.04,0.75-0.16,1.28-0.27
		c0.09-1.14,0.18-2.23,0.29-3.6c0.76-0.04,1.53-0.15,2.29-0.1c1.32,0.08,1.91-0.53,1.97-1.8c0.03-0.54,0.18-1.07,0.32-1.81
		c8.86-1.23,17.65-0.89,26.58-0.22c0.16,1.25,0.3,2.33,0.45,3.59c1.2,0.11,2.35,0.21,3.62,0.33c0,1.21,0,2.29,0,3.56
		c-2.49,0.67-4.9-0.23-7.46,0.01c-0.15-1.27-0.27-2.34-0.41-3.57c-6.46-0.41-12.82-0.34-19.37,0.02c-0.15,1.13-0.29,2.21-0.45,3.44
		c-1.19,0.12-2.35,0.23-3.63,0.36c-0.09,1.26-0.17,2.43-0.26,3.76c-1.16,0.22-2.3,0.43-3.67,0.69
		C944.03,594.47,944.03,599.46,944.03,604.6z"/>
	<path class="st0" d="M2412.79,608.3c0.1,1.57,0.19,2.9,0.27,4.12c0.29,0.18,0.41,0.32,0.55,0.34c2.87,0.48,2.87,0.48,2.87,3.32
		c0,0.72-0.01,1.44,0,2.16c0,0.94-0.07,1.79-1.33,1.85c-1.07,0.05-1.68-0.37-1.72-1.49c0-0.08-0.02-0.16-0.02-0.24
		c-0.05-1.37-0.88-1.73-2.09-1.67c-0.63,0.03-1.27-0.06-2.11-0.11c-0.15-1.75-0.38-3.46-0.44-5.18c-0.08-2.46-0.3-2.78-2.75-2.81
		c-0.31,0-0.61-0.14-1.05-0.24c-0.14-1.16-0.27-2.31-0.43-3.68c-6.22,0.07-12.34-0.55-18.75,0.63c-0.33,2.35-0.67,4.75-1.02,7.26
		c-1.02,0.11-2.03,0.22-3.17,0.35c-0.35,2.33-0.69,4.66-1.05,7.11c-0.95,0-1.8,0-2.65,0c-0.82-2.39-0.83-6.26-0.04-10.56
		c0.11-0.1,0.22-0.27,0.35-0.3c2.8-0.61,2.79-0.6,2.93-3.4c0.02-0.39,0.1-0.77,0.14-1.06c0.26-0.15,0.38-0.28,0.52-0.3
		c2.73-0.31,2.75-0.31,3.03-3.18c0.13-1.35,0.18-2.7,0.32-4.05c0.13-1.26,0.34-2.52,0.54-3.97c0.98-0.21,1.96-0.41,3.05-0.64
		c0.25-2.45,0.5-4.87,0.75-7.41c1.12-0.15,2.13-0.28,3.35-0.44c0.22-2.34,0.44-4.68,0.68-7.29c0.85-0.06,1.67-0.12,2.64-0.18
		c0.31,1.28,0.59,2.4,0.88,3.58c1.22,0.12,2.31,0.22,3.61,0.34c0.16,2.47,0.31,4.91,0.47,7.45c1.14,0.2,2.21,0.39,3.35,0.58
		c0.16,2.56,0.32,5,0.48,7.56c1.14,0.14,2.14,0.26,3.34,0.41c0.22,1.66,0.48,3.29,0.64,4.93c0.15,1.51,0.23,3.02,0.29,4.53
		c0.03,0.96,0.4,1.5,1.42,1.52C2411.28,608.15,2411.92,608.23,2412.79,608.3z M2393.37,589c-0.19,2.61-0.37,5.11-0.56,7.63
		c-1.21,0.19-2.21,0.35-3.15,0.49c-0.57,2.76-0.46,2.93,1.96,3.2c0.47,0.05,0.94,0.16,1.42,0.2c2.6,0.18,5.2,0.21,7.71-0.01
		c0-2.79,0-5.29,0-7.81c-1.34-0.14-2.43-0.25-3.54-0.36c-0.15-1.18-0.27-2.18-0.41-3.34C2395.63,589,2394.56,589,2393.37,589z"/>
	<path class="st0" d="M1865.23,580.66c0-1.3,0-2.37,0-3.51c2.39-0.65,4.56,0.06,6.98,0.24c0.33,2.34,0.67,4.67,1.02,7.2
		c1.03,0.09,2.12,0.19,3.33,0.3c0.29,2.35,0.57,4.69,0.88,7.24c0.99,0,1.89,0,2.92,0c0.19-0.86,0.37-1.69,0.6-2.77
		c1.17-0.17,2.4-0.35,3.82-0.56c0.07-1.31,0.14-2.55,0.22-4c0.98-0.22,1.96-0.44,3.18-0.71c0.3-2.23,0.6-4.5,0.92-6.92
		c2.1-0.79,4.31-0.1,6.44,0.29c1.34,0.25,0.82,1.62,0.56,2.7c-1.04,0.22-2.03,0.42-3.18,0.66c-0.11,1.29-0.21,2.53-0.32,3.93
		c-1.14,0.13-2.22,0.25-3.48,0.39c-0.21,2.38-0.42,4.73-0.63,7.23c-1.07,0.12-2.07,0.23-3.43,0.38c-0.23,3.81-0.55,7.67-0.66,11.54
		c-0.12,3.9-0.03,7.8-0.03,11.99c-2.46-0.08-4.7,1.15-7.23,0.21c-0.09-7.87-0.19-15.66-0.28-23.56c-1.41-0.15-2.5-0.26-3.78-0.39
		c-0.09-1.2-0.17-2.36-0.27-3.67c-0.57-0.11-1.09-0.22-1.62-0.3c-0.54-0.08-1.08-0.12-1.74-0.2c-0.2-2.37-0.4-4.65-0.62-7.23
		C1867.74,580.99,1866.61,580.84,1865.23,580.66z"/>
	<path class="st0" d="M2039.52,612.55c1.2-0.2,2.28-0.38,3.71-0.62c0.17-1.89,0.49-3.85,0.5-5.8c0.06-8.87,0.04-17.74,0.05-26.61
		c0-0.79,0-1.57,0-2.54c1.28,0,2.34,0,3.41,0c0.59,2.16,0.64,32.05,0.04,35.56c-0.93,0.14-1.93,0.29-3.07,0.45
		c-0.11,1.13-0.22,2.21-0.32,3.28c-0.25,0.17-0.43,0.37-0.64,0.42c-0.99,0.25-2.22,0.19-2.9,0.78c-0.59,0.51-0.55,1.74-0.82,2.76
		c-3.77,0-7.5,0-11.38,0c-0.11-0.61-0.21-1.13-0.31-1.65c-0.09-0.46-0.2-0.92-0.31-1.44c-1.22-0.18-2.39-0.35-3.74-0.55
		c-0.13-1.21-0.25-2.36-0.38-3.62c-1.11-0.12-2.12-0.24-3.12-0.35c-0.61-1.94-0.81-30.41-0.24-35.59c1.11,0,2.25,0,3.67,0
		c0.04,1.92,0.11,3.81,0.11,5.71c0.01,7.91-0.01,15.83,0.02,23.74c0.01,1.81,0.22,3.62,0.35,5.47c1.44,0.25,2.59,0.45,3.63,0.63
		c0.17,0.3,0.3,0.43,0.31,0.58c0.31,2.96,0.3,3.05,3.23,3.22c2.53,0.14,5.07,0.03,7.81,0.03
		C2039.26,615.07,2039.38,613.99,2039.52,612.55z"/>
	<path class="st0" d="M482.94,577.48c0,1,0,1.86,0,2.99c-2.5,0.22-4.93,0.44-7.45,0.66c-0.11,0.36-0.32,0.73-0.31,1.1
		c0.04,1.65-0.37,2.8-2.37,2.76c-0.91-0.02-1.12,0.78-1.12,1.55c-0.01,1.36,0.03,2.71,0.03,4.07c0,6.39,0,12.77,0.01,19.16
		c0,2.14,0.04,2.11,2.1,2.98c0.43,0.18,0.88,0.7,0.98,1.14c0.15,0.66-0.02,1.38-0.05,2.12c-1.64,0.34-3.09,0.71-4.56,0.94
		c-2.12,0.33-2.69-0.19-2.69-2.4c0-9.1,0.02-18.2,0.03-27.3c0-1.98,0-3.96,0-6.26c-2.75,0-5.18,0-7.78,0c0-1.47,0-2.63,0-3.78
		C462.34,576.43,479.96,576.62,482.94,577.48z"/>
	<path class="st0" d="M752.99,620.1c-0.53,0.05-0.99,0.14-1.45,0.14c-5.19-0.03-10.38-0.06-15.57-0.14
		c-1.92-0.03-1.97-0.08-2.15-1.99c-0.22-2.29-0.44-4.58-0.45-6.88c-0.04-10.53,0-21.07,0.02-31.6c0-0.78,0-1.57,0-2.63
		c1.34-0.07,2.49-0.13,3.9-0.2c0.6,6.04,0.22,11.91,0.28,17.77c0.06,5.82,0.01,11.64,0.01,17.7c1.27,0.13,2.42,0.26,3.77,0.4
		c0.16,0.57,0.36,1.15,0.47,1.74c0.32,1.88,0.33,1.92,2.27,1.95c0.96,0.02,1.92-0.06,2.87-0.04c1.19,0.03,1.92-0.31,2.12-1.67
		c0.24-1.62,1.18-2.15,2.65-1.7c0.34,0.1,0.84,0.44,0.85,0.69C752.74,615.76,753.66,617.83,752.99,620.1z"/>
	<path class="st0" d="M1186.02,580.93c-2.63,0-5.01,0-7.61,0c0-1.4,0-2.61,0-4.13c7.69-0.01,15.32-0.27,23.12,0.24
		c0,1.22,0,2.22,0,3.56c-2.46,0.17-4.88,0.33-7.51,0.51c-0.15,1.08-0.3,2.14-0.47,3.34c-1.04,0.2-2.03,0.4-3.24,0.64
		c-0.05,0.87-0.14,1.72-0.13,2.57c0.02,8.78,0.1,17.57,0.05,26.35c-0.01,1.72-0.51,3.43-0.83,5.14c-0.18,0.93-0.94,0.96-1.69,0.92
		c-0.77-0.03-1.17-0.46-1.2-1.21c-0.1-1.99-0.25-3.98-0.26-5.97c-0.05-9.9-0.06-19.8-0.09-29.71
		C1186.15,582.56,1186.08,581.93,1186.02,580.93z"/>
	<path class="st0" d="M1392.66,576.96c1.3,0,2.31,0,3.64,0c0.05,0.84,0.15,1.68,0.15,2.52c0.02,9.98,0.03,19.97,0.04,29.95
		c0,1.01,0,2.03,0,3.17c1.42,0.12,2.52,0.21,3.74,0.31c0.16,0.52,0.36,1.02,0.47,1.55c0.34,1.74,0.56,1.92,2.08,1.93
		c1.16,0.01,1.71-0.45,1.89-1.64c0.26-1.7,0.86-2.13,2.35-1.77c0.49,0.12,1.08,0.67,1.24,1.15c0.67,2.13,0.62,2.14,2.67,2.4
		c0.31,0.04,0.61,0.15,1.07,0.27c0,1.01,0,2.01,0,3.34c-6.31,0.22-12.64,0.09-19.15,0.07c-0.14-1.94-0.38-3.66-0.38-5.39
		c0-11.82,0.05-23.64,0.09-35.46C1392.56,578.64,1392.61,577.93,1392.66,576.96z"/>
	<path class="st0" d="M610.63,620.11c-0.15-2.33-0.38-4.23-0.38-6.13c-0.02-8.95,0.03-17.89,0.03-26.84c0-1.97-0.13-3.94-0.22-6.2
		c-2.72,0-5.17,0-7.78,0c0-1.46,0-2.61,0-4.1c6.63-0.19,13.2-0.01,19.97-0.1c0,1.48,0,2.7,0,4.21c-2.58,0-5.02,0-7.73,0
		c-0.09,2.01-0.24,3.74-0.25,5.48c-0.01,8.95,0.04,17.89,0.02,26.84c-0.01,2.14-0.23,4.28-0.36,6.69
		C612.85,620,611.88,620.05,610.63,620.11z"/>
	<path class="st0" d="M1602.83,577.09c0,2.29,0,4.36,0,6.43c0.01,10.14,0.03,20.28,0.01,30.41c0,1.59-0.19,3.18-0.27,4.77
		c-0.04,0.85-0.4,1.34-1.3,1.38c-0.9,0.04-1.58-0.18-1.68-1.24c-0.19-2.13-0.56-4.25-0.57-6.38c-0.06-9.58-0.03-19.16-0.03-28.74
		c0-2.14,0-4.29,0-6.63C1600.41,577.09,1601.52,577.09,1602.83,577.09z"/>
	<path class="st1" d="M213.5,552.97c-0.14-1.25-0.26-2.41-0.41-3.74c-1.24-0.11-2.41-0.21-3.72-0.32c-0.1-0.55-0.21-1.07-0.28-1.59
		c-0.07-0.55-0.08-1.11-0.13-1.79c-1.18-0.17-2.32-0.34-3.57-0.52c-0.08-1.2-0.16-2.3-0.25-3.59c-1.19-0.11-2.34-0.21-3.65-0.33
		c-0.1-1.18-0.2-2.26-0.31-3.57c-1.08-0.12-2.15-0.24-3.39-0.37c-0.13-1.33-0.25-2.64-0.38-4.03c-1.15-0.14-2.15-0.26-3.36-0.41
		c-0.32-2.46-0.63-4.87-0.96-7.37c-0.9-0.18-1.83-0.37-3.02-0.62c-1.3-12.96-0.81-25.92-0.29-39.02c1.13-0.18,2.12-0.34,3.24-0.52
		c0.28-3.69,0.56-7.32,0.84-11.06c1.21-0.22,2.27-0.42,3.46-0.63c0.15-2.52,0.3-4.97,0.45-7.51c1.01-0.16,1.93-0.31,3.11-0.49
		c0.25-2.49,0.51-4.99,0.77-7.59c1.15-0.13,2.23-0.25,3.39-0.39c0.21-2.46,0.4-4.82,0.61-7.3c1.11-0.11,2.12-0.22,3.31-0.34
		c0.12-1.34,0.25-2.65,0.38-4.04c1.11-0.17,2.11-0.33,3.26-0.51c0.39-2.29,0.77-4.53,1.2-7.02c0.91-0.1,1.98-0.21,3.29-0.35
		c0.1-1.25,0.2-2.49,0.31-3.93c1.19-0.11,2.35-0.21,3.63-0.32c0.1-1.18,0.2-2.27,0.31-3.55c1.14-0.11,2.22-0.21,3.5-0.34
		c0.1-1.16,0.19-2.32,0.3-3.67c1.24-0.1,2.4-0.2,3.71-0.31c0.11-0.55,0.24-1.06,0.3-1.59c0.07-0.55,0.07-1.11,0.12-1.86
		c1.24-0.13,2.47-0.26,3.79-0.39c0.12-1.26,0.24-2.42,0.36-3.73c1.18-0.1,2.27-0.19,3.52-0.3c0.18-1.06,0.35-2.13,0.54-3.28
		c2.25-0.3,4.45-0.6,6.81-0.92c0.23-1.11,0.46-2.24,0.7-3.46c1.35-0.11,2.59-0.21,3.92-0.32c0.12-1.14,0.23-2.15,0.35-3.26
		c2.49-0.29,4.9-0.58,7.42-0.87c0.14-1.15,0.26-2.16,0.41-3.41c2.36-0.21,4.71-0.42,7.3-0.65c0.15-1.06,0.3-2.13,0.46-3.31
		c2.44-0.28,4.87-0.55,7.38-0.84c0.24-1.03,0.45-1.94,0.7-3.02c2.52-0.17,5.03-0.33,7.65-0.51c0.16-1.12,0.3-2.12,0.49-3.43
		c3.8-0.27,7.58-0.54,11.41-0.81c0.2-1.01,0.39-1.92,0.63-3.11c5.03-0.24,10.03-0.48,15.15-0.73c0.17-1.09,0.33-2.09,0.53-3.31
		c1.58-0.09,3.14-0.2,4.71-0.26c5.43-0.21,10.86-0.45,16.29-0.58c2.13-0.05,4.26,0.17,6.58,0.28c-0.12,33.22,0.17,66.12-0.25,99.14
		c-1.18,0.27-2.16,0.5-3.37,0.77c-0.22,7.58-0.44,15.13-0.66,22.79c-1.18,0.25-2.09,0.44-3.2,0.67c-0.09,1.54-0.2,3.11-0.27,4.68
		c-0.08,1.75-0.12,3.51-0.17,5.27c-0.06,1.88-0.06,1.87-2,2.23c-0.38,0.07-0.76,0.18-1.44,0.34c-0.33,3.51-0.66,7.04-1.01,10.73
		c-0.99,0.14-1.99,0.28-3.19,0.44c-0.2,2.45-0.4,4.88-0.61,7.43c-1.16,0.19-2.23,0.37-3.49,0.58c-0.09,1.21-0.17,2.37-0.27,3.79
		c-1.18,0.12-2.33,0.23-3.69,0.37c-0.07,0.69-0.15,1.38-0.19,2.08c-0.11,1.89-0.1,1.89-2.02,2.24c-0.31,0.06-0.61,0.14-1.12,0.26
		c-0.44,2.1-0.88,4.24-1.38,6.63c-0.98,0.14-2.13,0.3-3.39,0.48c-0.19,1.12-0.37,2.19-0.57,3.39c-1.07,0.16-2.08,0.31-3.28,0.49
		c-0.18,1.17-0.38,2.38-0.58,3.67c-1.22,0.11-2.31,0.2-3.63,0.32c-0.14,1.11-0.28,2.18-0.42,3.32c-2.3,0.39-4.54,0.77-6.95,1.18
		c-0.14,1.06-0.29,2.13-0.47,3.42c-1.19,0.09-2.35,0.18-3.65,0.29c-0.11,1.17-0.21,2.26-0.33,3.52c-1.35,0.13-2.66,0.25-3.91,0.36
		c-0.35,1.18-0.36,2.57-1.05,3.14c-0.74,0.61-2.11,0.48-3.21,0.59c-1.18,0.11-2.36,0.12-3.66,0.17c-0.22,1.12-0.42,2.12-0.66,3.34
		c-6.16,0.96-12.32,0.83-18.65,0.06c-0.25-1.11-0.49-2.17-0.76-3.34c-2.43-0.2-4.79-0.39-7.32-0.6c-0.17-1.07-0.34-2.13-0.54-3.32
		c-1.24-0.1-2.41-0.19-3.71-0.29c-0.14-1.15-0.27-2.23-0.42-3.43c-2.4-0.29-4.73-0.58-7.27-0.89c-0.14-1.14-0.27-2.21-0.44-3.55
		c-1.24-0.08-2.47-0.17-3.84-0.26c-0.13-1.09-0.25-2.09-0.39-3.32c-2.25-0.26-4.52-0.52-6.97-0.8c-0.22-1.11-0.45-2.25-0.71-3.55
		c-1.22-0.07-2.39-0.15-3.77-0.23c-0.12-1.11-0.24-2.18-0.38-3.44C215.92,553.2,214.76,553.09,213.5,552.97z"/>
	<path class="st1" d="M1202.26,473.5c0-5.22,0-10.22,0-15.34c1.16-0.16,2.23-0.32,3.44-0.49c0.1-1.16,0.2-2.26,0.32-3.61
		c2.05-0.07,4.1-0.2,6.15-0.2c22.15-0.01,44.31-0.01,66.46-0.01c25.27,0,50.55,0,75.82,0.03c1.9,0,3.8,0.17,5.82,0.27
		c0.2,1.28,0.38,2.43,0.58,3.66c1.1,0.17,2.1,0.33,3.24,0.52c0.54,2.44,0.65,4.85,0.44,7.43c-1.16,0.14-2.17,0.25-3.31,0.39
		c-0.15,1.1-0.29,2.17-0.46,3.39c-2.51,0.17-4.95,0.33-7.56,0.51c-0.18,1.07-0.35,2.06-0.56,3.31c-1.8,0.08-3.6,0.24-5.41,0.24
		c-25.83,0.06-51.67,0.11-77.5,0.13c-19.99,0.02-39.99,0-59.98-0.02C1207.3,473.69,1204.85,473.57,1202.26,473.5z"/>
	<path class="st1" d="M1960.7,613.03c-0.16,1.18-0.28,2.12-0.4,3.02c-1.79,0.63-5.73,0.69-7.96,0.15c-0.32-1.04-0.34-2.38-1.03-3
		c-0.63-0.57-1.96-0.4-2.98-0.49c-1.18-0.11-2.37-0.14-3.76-0.22c-0.13-1.28-0.25-2.5-0.38-3.83c-1.18-0.13-2.26-0.25-3.42-0.37
		c-0.62-6.52-0.81-12.94-0.06-19.54c0.9-0.15,1.81-0.29,2.92-0.47c0.1-0.56,0.23-1.16,0.31-1.76c0.22-1.76,0.3-1.85,1.99-2.04
		c0.69-0.08,1.38-0.16,2.15-0.25c0.13-1.09,0.23-2.01,0.37-3.14c5.21-0.35,10.36-0.26,15.67-0.04c0.14,1.09,0.26,2.08,0.42,3.34
		c1.13,0.12,2.28,0.25,3.61,0.39c0.19,1.18,0.37,2.33,0.56,3.58c1.14,0.14,2.22,0.27,3.41,0.41c0.52,6.55,0.42,12.97-0.04,19.47
		c-1.34,0.12-2.5,0.23-3.81,0.35c-0.1,1.26-0.19,2.43-0.29,3.81C1965.61,612.6,1963.27,612.81,1960.7,613.03z"/>
	<path class="st1" d="M1344.82,608.24c-1.36,0.1-2.46,0.18-3.79,0.28c-0.11,1.26-0.22,2.5-0.34,3.86c-2.4,0.21-4.75,0.41-7.22,0.63
		c-0.17,1.13-0.31,2.13-0.51,3.47c-2.44,0.02-4.89,0.05-7.34,0.04c-0.8,0-1.59-0.12-2.39-0.18c-1.78-0.13-1.78-0.12-1.96-1.95
		c-0.05-0.47-0.12-0.94-0.2-1.57c-1.26-0.13-2.49-0.26-3.81-0.39c-0.12-1.26-0.22-2.42-0.35-3.75c-1.25-0.12-2.41-0.23-3.74-0.35
		c-0.56-6.54-0.62-13.03-0.08-19.62c0.68-0.09,1.22-0.24,1.76-0.23c1.2,0.03,1.67-0.48,1.78-1.7c0.19-2.14,0.27-2.13,2.42-2.41
		c0.39-0.05,0.77-0.14,1.26-0.23c0.24-1.01,0.47-2,0.72-3.09c5.23,0,10.38,0,15.68,0c0.13,1.17,0.24,2.18,0.37,3.36
		c1.25,0.14,2.48,0.27,3.79,0.42c0.16,1.19,0.3,2.28,0.47,3.59c1.08,0.11,2.16,0.22,3.48,0.36
		C1345.43,595.2,1345.25,601.61,1344.82,608.24z"/>
	<path class="st1" d="M2551.85,581.13c0.15,1.14,0.25,2,0.4,3.12c2.34,0.28,4.68,0.56,7.19,0.86c0.27,2.25,0.56,4.59,0.86,7.12
		c1,0.17,1.98,0.33,3.13,0.53c0,3.85,0,7.64,0,11.58c-1.03,0.17-2.02,0.34-3.16,0.53c-0.31,2.29-0.61,4.54-0.93,6.9
		c-2.97,0.75-5.95,1-8.96,1.02c-1.44,0.01-2.87,0.03-4.31,0.08c-1.79,0.06-1.88,0.06-2.13,1.81c-0.17,1.17-0.65,1.69-1.84,1.68
		c-1.48-0.01-1.73-0.19-2-1.7c-0.09-0.53-0.22-1.06-0.35-1.68c-1.17-0.13-2.25-0.24-3.47-0.38c0-10.49,0-20.89,0-31.48
		C2541.54,581.13,2546.6,581.13,2551.85,581.13z"/>
	<path class="st1" d="M1035.78,616.27c-0.23-1.23-0.42-2.3-0.64-3.49c-1.31-0.09-2.56-0.17-3.93-0.26c-0.2-1.19-0.39-2.34-0.6-3.57
		c-1.09-0.19-2.09-0.37-3.2-0.56c-0.11-1.28-0.22-2.52-0.32-3.65c-1.19-0.39-2.52-0.45-3.14-1.14c-0.57-0.64-0.49-1.96-0.52-2.98
		c-0.05-1.99,0.04-3.98,0.05-5.96c0.01-1.19,0.59-1.73,1.76-1.78c0.54-0.02,1.07-0.2,1.75-0.34c0.22-2.48,0.43-4.91,0.65-7.42
		c1.19-0.13,2.27-0.24,3.55-0.37c0.09-0.75,0.22-1.43,0.26-2.12c0.05-0.85,0.41-1.32,1.3-1.4c5.96-0.51,11.93-0.43,18.02-0.14
		c0.12,1.15,0.23,2.16,0.36,3.44c1.22,0.09,2.46,0.19,3.93,0.3c0.1,1.17,0.19,2.33,0.3,3.64c0.5,0.09,1.02,0.2,1.54,0.27
		c0.55,0.07,1.1,0.1,1.88,0.17c0.4,6.38,0.57,12.7-0.24,19.14c-1.12,0.14-2.12,0.27-3.28,0.41c-0.12,1.29-0.24,2.52-0.37,3.9
		c-2.45,0.19-4.81,0.37-7.39,0.57c-0.16,1.08-0.32,2.15-0.51,3.45C1043.29,616.71,1039.59,616.56,1035.78,616.27z"/>
	<path class="st1" d="M526.56,592.27c0.22-2.52,0.42-4.8,0.63-7.21c1.32-0.13,2.55-0.25,3.91-0.39c0.13-1.12,0.25-2.13,0.4-3.34
		c6.28-0.74,12.55-0.51,18.96-0.23c0.15,1.18,0.29,2.26,0.45,3.49c1.22,0.08,2.39,0.16,3.74,0.25c0.09,1.22,0.17,2.39,0.27,3.69
		c0.57,0.1,1.09,0.22,1.61,0.29c0.54,0.08,1.09,0.11,1.83,0.19c0.43,6.27,0.51,12.45-0.17,18.82c-1.1,0.19-2.15,0.37-3.35,0.58
		c-0.12,1.3-0.24,2.54-0.37,3.89c-2.45,0.2-4.8,0.4-7.27,0.6c-0.13,1.11-0.26,2.13-0.41,3.4c-3.77,0.43-7.55,0.24-11.49-0.01
		c-0.15-1.16-0.3-2.23-0.46-3.47c-1.23-0.09-2.4-0.17-3.79-0.27c-0.21-1.07-0.43-2.13-0.67-3.37c-1.06-0.23-2.2-0.47-3.41-0.73
		c-0.1-1.28-0.19-2.45-0.29-3.74c-1.15-0.15-2.23-0.3-3.48-0.46c0-3.81,0-7.53,0-11.48C524.26,592.61,525.32,592.45,526.56,592.27z"
		/>
	<path class="st1" d="M2110.98,592.58c-1.2,0.15-2.35,0.29-3.56,0.44c-0.2,1.09-0.37,2.01-0.56,3.09c-2.21,0.5-4.43,0.37-6.63,0.22
		c-0.43-0.03-0.92-0.71-1.17-1.2c-0.24-0.47-0.19-1.08-0.3-1.79c-1.06-0.23-2.12-0.46-3.4-0.74c-0.22-3.82-0.21-7.58,0.25-11.51
		c5.07,0,9.99,0,14.97,0C2111.43,585,2111.72,588.72,2110.98,592.58z"/>
	<path class="st1" d="M1245.76,596.17c0-5.16,0-9.99,0-14.81c1.74-0.54,8.5-0.64,11.79-0.17c0.13,0.93,0.27,1.92,0.43,3.08
		c1.09,0.17,2.16,0.33,3.38,0.52c0,2.55,0,5.04,0,7.67c-0.85,0.05-1.56,0.16-2.25,0.12c-1.17-0.06-1.71,0.41-1.9,1.59
		c-0.34,2.08-0.4,2.09-2.56,2.16c-2.15,0.07-4.3,0.09-6.45,0.09C1247.51,596.43,1246.82,596.29,1245.76,596.17z"/>
	<path class="st1" d="M670.09,600.54c0-2.82,0-5.27,0-7.83c1.19-0.13,2.2-0.24,3.38-0.37c0.14-1.01,0.27-2.01,0.44-3.24
		c1.21,0,2.41,0,3.81,0c0.15,2.5,0.29,4.94,0.45,7.53c0.96,0.18,1.86,0.35,2.75,0.51c0.81,2.51,0.63,2.74-1.72,3.16
		C676.2,600.82,673.21,600.64,670.09,600.54z"/>
	<path class="st1" d="M2393.37,589c1.2,0,2.26,0,3.43,0c0.14,1.16,0.27,2.16,0.41,3.34c1.11,0.11,2.19,0.22,3.54,0.36
		c0,2.52,0,5.02,0,7.81c-2.51,0.21-5.1,0.19-7.71,0.01c-0.48-0.03-0.95-0.14-1.42-0.2c-2.42-0.27-2.53-0.45-1.96-3.2
		c0.94-0.15,1.94-0.3,3.15-0.49C2392.99,594.11,2393.17,591.61,2393.37,589z"/>
</g>
</svg>
