<?xml version="1.0" encoding="utf-8"?>
<!-- Generator: Adobe Illustrator 24.0.0, SVG Export Plug-In . SVG Version: 6.00 Build 0)  -->
<svg version="1.1" id="Layer_1" xmlns="http://www.w3.org/2000/svg" xmlns:xlink="http://www.w3.org/1999/xlink" x="0px" y="0px"
	 viewBox="0 0 2761 991" style="enable-background:new 0 0 2761 991;" xml:space="preserve">
<style type="text/css">
	.st0{fill:#FFFFFF;}
	.st1{fill:#F5B3A2;}
	.st2{fill:#FEF5F8;}
	.st3{fill:#1B2B4D;}
	.st4{fill:#A5898C;}
	.st5{fill:#FAF9FA;}
	.st6{fill:#F9F9F9;}
	.st7{fill:#8B6F73;}
</style>
<g>
	<path class="st0" d="M1345.99,764.94c-434.64,0-869.27-0.02-1303.91,0.2c-7.85,0-9.69-1.75-9.63-9.58
		c0.39-58.06,0.21-116.13,0.21-174.19c1.1-0.69,2.14-0.61,3.12,0.23c2.63,2.63,3.22,6.03,3.75,9.51
		c10.21,67.84,50.7,111.98,111.52,139.34c30.13,13.55,62.12,19.63,95.35,21.68c46.04,2.84,90.43-2.94,133.48-18.92
		c38.99-14.46,72.59-36.77,98.99-69.29c4.89-6.03,4.36-9.33-2.9-12.29c-18.73-7.66-37.32-15.64-55.78-23.91
		c-7.5-3.36-12.7-2.18-18.42,3.85c-17.02,17.93-33.73,36.77-57.58,45.89c-62.35,23.83-122.47,23.1-176.76-20.46
		c-21.98-17.63-34.2-41.88-38.45-69.76c-1.39-9.1,1.37-12.08,10.49-12.75c3.83-0.28,7.68-0.12,11.52-0.12
		c105.77,0,211.54,0,317.31-0.01c16.13,0,15.98-0.02,16.11-15.77c0.35-44.11-12.86-83.46-41.42-117.4
		c-24.43-29.04-56.36-46.76-92.33-56.39c-69.06-18.48-137.83-16.73-204.1,11.41C84.87,422.38,49,469.59,39.68,536.15
		c-0.58,4.15-0.71,8.36-3.89,11.61c-0.99,0.84-2.04,0.91-3.13,0.22c0-90.73,0.11-181.46-0.19-272.19c-0.03-7.67,1.55-9.66,9.55-9.65
		c686.54,0.22,1373.08,0.21,2059.62,0.21c201.74,0,403.48,0.04,605.22-0.18c7.23-0.01,9.27,1.07,9.25,8.92
		c-0.31,160.25-0.32,320.51,0.01,480.76c0.02,8.47-2.64,9.26-9.96,9.25c-445.01-0.18-890.02-0.16-1335.03-0.16
		c-0.7-1.08-0.57-2.05,0.38-2.91c17.45-5.5,35.81-4.64,53.68-7.61c64.86-10.79,123.53-34.82,172.56-79.09
		c30.79-27.8,53.28-61.52,64.61-101.8c11.36-40.38,11.5-80.96,0.19-121.38c-11.09-39.62-32.84-72.62-63.97-99.5
		c-52-44.89-114.03-66.03-181-75c-72.28-9.67-142.77-2.33-210.5,25.07c-60.34,24.41-109.52,62.21-139.32,121.55
		c-10.56,21.04-15.22,43.92-19.23,66.9c-2.99,9.71-0.48,19.78-1.84,29.6c-0.19,1.37-0.05,2.38,0.03,0.99c0-0.08,0.16-0.15,0.25-0.33
		c10.33-41.66,33.54-74.42,68.11-99.52c42.1-30.57,89.76-45.2,141.11-50.24c52.82-5.18,103.89,1.94,152.79,21.75
		c40.19,16.27,74.5,40.58,97.27,78.85c33.28,55.93,29.39,132.58-9.29,185.25c-29.02,39.52-68.82,63.35-114.25,78.86
		c-37.76,12.89-76.8,17-116.58,13.92c-1.58,0.07-3.17-0.25-4.92-0.14c2.08,0.26,4.03,0.13,5.99,0.23
		c22.62,3.69,45.26,7.04,68.08,9.05c3.42,0.3,6.96,0.47,10.05,2.38C1346.43,762.68,1346.65,763.71,1345.99,764.94z"/>
	<path class="st1" d="M34.61,581.44l-0.98,0.13l-0.97-0.22c0-11.13,0-22.25,0-33.38c0.63-0.3,1.27-0.33,1.93-0.1
		C39.9,559.06,39.86,570.25,34.61,581.44z"/>
	<path class="st2" d="M1371.13,762.93c0,0.67,0,1.34,0,2.01c-8.38,0-16.76,0-25.14,0c0-0.67,0-1.33,0-2
		C1354.37,758.05,1362.75,758.06,1371.13,762.93z"/>
	<path class="st3" d="M1371.13,762.93c-8.38,0-16.76,0-25.14,0.01c-27.42-1.7-54.69-4.54-81.51-10.81c-1.41-1.21-1.41-2.41,0.03-3.6
		c47.97,2.1,94.65-3.79,139.02-22.98c52.57-22.74,93.85-57.23,113.57-112.6c27.32-76.74-3.89-158.81-76.51-200.69
		c-64.5-37.19-134.26-46.13-207.06-34.92c-46.59,7.17-89.43,23.76-126.15,53.98c-30.55,25.14-50.94,56.64-58.95,95.64
		c-2.32,0.31-2.97-1.12-2.92-3c0.29-10.82-0.98-21.67,0.72-32.45c8.74-75.53,49.94-129.79,113.54-168.1
		c71.33-42.96,149.76-56.76,232.09-51.04c66.82,4.65,129.8,21.83,185.5,60.33c62.5,43.19,96.16,102.9,96.43,178.75
		c0.26,73.82-31.45,133.49-89.58,178.86c-59.7,46.6-128.99,67.09-203.72,71.85C1377.37,762.34,1374.25,762.66,1371.13,762.93z"/>
	<path class="st3" d="M34.61,581.44c-0.01-11.19-0.01-22.37-0.02-33.56c3.29-17.72,5.37-35.69,11.78-52.74
		c17.29-45.99,48.59-79.55,93.42-99.01c75.91-32.96,154.02-35.76,231.44-6.96c75.32,28.02,112.41,85.46,116.5,164.64
		c1.19,23.04,0.77,23.06-21.89,23.06c-107.84,0-215.68,0.15-323.52-0.24c-10.18-0.04-12.17,2.64-10.56,12.17
		c8.18,48.66,48.71,87.9,103.41,97.39c65.77,11.41,122.59-4.55,165.68-57.94c5.53-6.85,9.93-8.24,18.15-4.39
		c20.17,9.46,40.72,18.19,61.48,26.31c8.81,3.45,8.2,6.23,2.99,12.78c-33.89,42.56-78.41,68.4-130.43,81.82
		c-67.69,17.45-134.99,16.59-200.11-10.64c-65.87-27.54-107.75-75.06-117-147.66C35.7,584.76,35.06,583.11,34.61,581.44z"/>
	<path class="st3" d="M2516.99,591.46c-31.31-2.03-62.87,0.82-93.83-6.47c-24.05-5.66-46.33-14.77-65.72-30.57
		c-44.95-36.64-51.78-126.57,27.54-160.95c29.56-12.81,60.66-18.17,92.5-20.35c71.36-4.89,138.68,9.71,202.48,41.58
		c6.21,3.1,8.25,5.35,4.16,12.1c-9.34,15.45-18.05,31.31-26.45,47.3c-3.33,6.34-6.2,7.11-12.82,3.97
		c-50.91-24.11-104.62-35.89-161.08-34.99c-18.26,0.29-36.2,2.27-53.44,8.67c-6.58,2.44-12.78,5.56-18.13,10.16
		c-16.25,13.98-14.33,34.31,4.37,44.73c12.45,6.93,26.16,9.32,40.2,10.31c34.14,2.39,68.37,1.48,102.54,2.56
		c30.46,0.97,60.57,4.09,89.14,15.81c47.74,19.58,68.52,58.05,64.82,105.61c-2.92,37.58-24.17,64.95-58.08,82.27
		c-33.28,16.99-69.14,23.87-105.93,25.86c-54.5,2.95-108.92,3.13-161.41-15.43c-26.11-9.24-50-22.86-73.52-37.24
		c-4.93-3.01-4.52-5.49-1.98-9.93c9.32-16.27,18.62-32.59,27.05-49.33c3.88-7.69,7.35-7.7,14.11-3.62
		c67.29,40.6,140.65,50.98,217.61,42.32c14.26-1.6,27.99-5.64,40.68-12.71c5.56-3.1,10.5-6.91,14.68-11.61
		c16.17-18.19,10.49-42.72-12.03-52.08c-11.42-4.75-23.51-6.46-35.75-7.07c-10.45-0.51-20.93-0.72-31.39-0.87
		C2537.21,591.35,2527.1,591.46,2516.99,591.46z"/>
	<path class="st3" d="M1284.83,677.79c-38.04-1.02-73.9-8.1-106.7-27.17c-71.26-41.44-74.77-134.86-3.91-176.68
		c71.59-42.25,147.94-42.34,220.33-2.41c72.56,40.02,71.63,131.24,1.12,176.25C1361.74,669.45,1324.06,677.61,1284.83,677.79z"/>
	<path class="st3" d="M776.05,663.89c3.48-1.88,4.09-5.56,5.64-8.46c46.84-87.6,93.66-175.21,140.22-262.95
		c3.33-6.27,6.8-9.1,14.31-8.92c23.37,0.55,46.76,0.37,70.14,0.1c6.86-0.08,9.75,0.05,5.43,8.1
		c-60.38,112.65-120.53,225.43-180.46,338.32c-3.28,6.19-6.89,8.24-13.72,8.14c-27.56-0.38-55.14-0.36-82.7-0.01
		c-6.52,0.08-9.87-2.14-12.86-7.86C663.53,618.29,604.78,506.35,546.1,394.38c-5.53-10.56-5.45-10.61,6.4-10.62
		c21.99-0.01,43.98,0.31,65.95-0.18c7.26-0.16,11.07,2.11,14.45,8.6c45.71,87.8,91.71,175.44,137.7,263.08
		C772.15,658.19,772.84,661.77,776.05,663.89z"/>
	<path class="st3" d="M1747.36,560.35c0-55.62,0.16-111.25-0.18-166.87c-0.05-7.79,1.98-10.13,9.9-9.92
		c20.58,0.56,41.2,0.58,61.77,0c8.11-0.23,9.76,2.45,9.74,10.06c-0.27,86.56-0.02,173.13-0.37,259.7
		c-0.04,9.29,1.97,12.2,11.88,12.13c67.02-0.48,134.04-0.1,201.06-0.44c8.44-0.04,11.54,1.77,11.18,10.75
		c-0.73,18.05-0.48,36.15-0.08,54.22c0.14,6.51-2.04,8.21-8.38,8.2c-95.99-0.17-191.98-0.23-287.98,0.07
		c-8.28,0.03-8.67-3.59-8.65-9.98C1747.43,672.3,1747.36,616.33,1747.36,560.35z"/>
	<path class="st3" d="M2216.19,560.86c0,55.91-0.11,111.83,0.14,167.74c0.03,6.84-1.03,9.87-8.89,9.65
		c-19.86-0.56-39.75-0.46-59.62-0.04c-7.03,0.15-8.74-2.2-8.73-8.96c0.2-112.18,0.22-224.35-0.03-336.53
		c-0.02-7.72,2.75-9.23,9.68-9.1c19.52,0.37,39.06,0.49,58.57-0.05c7.69-0.21,9.06,2.54,9.03,9.54
		C2216.07,449.03,2216.19,504.94,2216.19,560.86z"/>
	<path class="st4" d="M1046.23,491.49c0,8.27-0.21,16.55,0.1,24.81c0.13,3.57-1.6,7.71,2.1,10.64c0.55,1.68,0.98,3.95-0.63,4.64
		c-3.09,1.33-3.22-1.8-3.24-3.42C1044.42,515.92,1042.81,503.58,1046.23,491.49z"/>
	<path class="st5" d="M1298.94,439.11c-8.62,0-17.25,0-25.87,0c0-0.35,0-0.7,0.01-1.04c8.92,0,17.83,0,26.75,0
		C1299.53,438.41,1299.24,438.76,1298.94,439.11z"/>
	<ellipse class="st6" cx="1286.29" cy="377.96" rx="16.21" ry="0.72"/>
	<path class="st7" d="M1264.52,748.53c-0.01,1.2-0.02,2.4-0.03,3.6c-4.37,1.08-7.55-0.81-11.27-3.51
		C1257.83,745.15,1261.15,747.51,1264.52,748.53z"/>
	<path class="st0" d="M262.97,519.49c-37.99,0-75.97,0.01-113.96,0c-13.28,0-13.95-0.83-8.36-13.17
		c14.88-32.86,40.94-53.07,74.98-62.96c43.4-12.61,86.17-11.36,126.65,10.65c23.26,12.65,38.65,32.22,47.05,57.44
		c2.34,7.03,0.56,8.19-6.13,8.15C343.13,519.37,303.05,519.49,262.97,519.49z"/>
</g>
</svg>
