<?xml version="1.0" encoding="utf-8"?>
<!-- Generator: Adobe Illustrator 24.0.0, SVG Export Plug-In . SVG Version: 6.00 Build 0)  -->
<svg version="1.1" id="Layer_1" xmlns="http://www.w3.org/2000/svg" xmlns:xlink="http://www.w3.org/1999/xlink" x="0px" y="0px"
	 viewBox="0 0 2761 991" style="enable-background:new 0 0 2761 991;" xml:space="preserve">
<style type="text/css">
	.st0{fill:#1B2A4E;}
	.st1{fill:none;}
</style>
<path class="st0" d="M2620,625.05c-1.01,1.88-2.56,3.65-2.94,5.65c-5.98,31.87-25.74,52.56-53.7,66.64
	c-25.42,12.8-52.69,19.11-80.78,21.49c-52.55,4.46-105.02,5.26-156.19-10.57c-28.48-8.81-54.15-23.39-79.56-40.15
	c10.9-19.76,21.42-38.82,31.37-56.85c24.27,10.59,46.79,23.04,70.86,30.4c52.49,16.04,106.27,20.69,160.08,6.37
	c10.69-2.84,21.47-9.49,29.53-17.19c17.04-16.26,11.63-40.95-10.36-49.21c-10.36-3.89-21.84-6.12-32.92-6.57
	c-35.41-1.44-70.88-1.49-106.31-2.49c-27.05-0.76-53.04-6.44-77.24-19c-45.88-23.81-64.05-76.17-41.75-120.91
	c10.65-21.36,29.06-34.07,50.27-43.17c24.59-10.55,50.67-14.82,77.09-16.93c68.26-5.47,132.67,8.31,193.43,39.66
	c1.38,0.71,2.61,1.71,4.51,2.99c-10.48,18.83-20.77,37.32-31.27,56.19c-14.07-5.65-27.24-11.53-40.8-16.27
	c-47.56-16.63-96.38-23.54-146.46-15.66c-10.85,1.71-21.58,6.44-31.45,11.56c-9.61,4.98-15.22,13.84-14.29,25.49
	c0.89,11.09,8.04,18.4,17.54,20.97c15.7,4.26,31.91,7.82,48.08,8.82c30.53,1.89,61.31,0.37,91.76,2.9
	c22.58,1.88,45.53,5.7,67.04,12.62c33.59,10.81,55.53,34.15,61.66,70.29c0.35,2.04,1.83,3.89,2.79,5.84
	C2620,606.99,2620,616.02,2620,625.05z"/>
<path class="st0" d="M1080.61,513.54c-2.98-39.2,5.24-76.02,25.4-109.94c27.08-45.58,66.92-76.9,115.23-96.26
	c111.73-44.77,222.69-42.19,329.31,15.19c68.12,36.66,106.72,95.1,108.3,174.27c1.43,72.05-29.32,129.07-86.08,172.01
	c-58.13,43.98-125.12,63.11-197.09,63.44c-30.69,0.14-61.42-5.53-92.12-8.63c-1.68-0.17-3.29-1.03-5.77-1.85
	c21.22-1.18,41.46-1.13,61.38-3.65c52.81-6.68,100.78-25.42,138.55-64.15c73.32-75.19,58.01-191.22-32.01-245.37
	c-53.37-32.1-112.03-41.84-173.03-35.49c-25.35,2.64-51.02,8.63-74.92,17.5C1139.43,412.26,1096.88,450.48,1080.61,513.54z"/>
<path class="st0" d="M564.86,633.44c-12.91,18.52-28.07,33.61-45.81,46.08c-50.87,35.74-108.11,48.47-169.34,46.69
	c-41.58-1.2-81.17-10.19-117.56-30.88c-67.37-38.31-98.18-108.62-81.94-185.23c12.28-57.94,46.31-98.34,100.55-119.94
	c68.15-27.15,138.03-28.85,206.85-2.74c75.51,28.64,108.37,92.93,106.28,168.46c-0.03,1.21-0.57,2.4-1.14,4.7
	c-109.18,0-218.29,0-328.3,0c0.43,23.04,8.52,41.94,21.79,58.62c23.55,29.63,55.53,43.29,92.37,46.2
	c55.18,4.36,101.6-13.07,136.44-57.36c4.34-5.52,7.94-6.53,14.51-3.49c18.7,8.67,37.82,16.44,56.75,24.62
	C558.89,630.28,561.36,631.68,564.86,633.44z M474.67,507.7c-2.75-22.92-20.08-47.82-43.49-60.63
	c-41.65-22.79-85.14-23.1-128.81-6.91c-26.64,9.87-46.88,27.9-58.71,54.34c-1.73,3.87-2.47,8.18-3.94,13.21
	C318.93,507.7,396.44,507.7,474.67,507.7z"/>
<path class="st0" d="M1303.05,438.04c35.53,0.74,71.35,7.1,103.35,27.67c53.35,34.3,60.07,103.08,13.91,146.6
	c-29.27,27.59-65.65,38.69-104.85,41.19c-37.62,2.4-73.99-3.34-107.61-21.25c-35.02-18.65-56.52-46.59-55.74-87.92
	c0.77-41.21,23.17-68.41,58.49-86.33C1239.05,443.56,1269.71,438.53,1303.05,438.04z"/>
<path class="st0" d="M614.64,382.36c26.36,0,51.1-0.23,75.83,0.34c2.56,0.06,5.77,4.51,7.39,7.59
	c41.85,79.92,83.52,159.94,125.23,239.93c2.06,3.95,4.17,7.88,7.18,13.56c2.39-3.9,4.1-6.38,5.51-9.02
	c42.77-80.53,85.67-161,128.04-241.74c4.43-8.44,9.34-11.33,18.62-11.05c22.16,0.67,44.36,0.22,67.64,0.22
	c-1.09,2.89-1.62,4.9-2.58,6.7c-55.53,104.76-111.13,209.49-166.57,314.3c-2.6,4.92-5.57,6.95-11.21,6.89
	c-25.78-0.27-51.57,0.11-77.34-0.38c-3.59-0.07-8.83-2.78-10.41-5.79c-55.13-104.98-109.91-210.13-164.72-315.27
	C616.53,387.27,616.05,385.77,614.64,382.36z"/>
<path class="st0" d="M1728.45,709.31c0-109.27,0-217.54,0-326.93c23.25,0,46.02-0.1,68.79,0.21c1.55,0.02,3.85,2.82,4.4,4.74
	c0.77,2.69,0.25,5.75,0.25,8.65c0,77.74,0,155.48,0,233.22c0,4.13,0,8.27,0,13.41c4.66,0.27,8.37,0.66,12.09,0.66
	c61.24,0.04,122.48,0.18,183.72-0.15c8.29-0.04,11.31,1.83,10.98,10.65c-0.69,18.28-0.21,36.6-0.21,55.54
	C1914.7,709.31,1822.08,709.31,1728.45,709.31z"/>
<path class="st0" d="M2159.96,709.88c-22.66,0-44.13,0.08-65.6-0.18c-1.44-0.02-3.36-2.37-4.12-4.06c-0.73-1.62-0.29-3.8-0.29-5.73
	c-0.01-102.81-0.01-205.63,0.01-308.44c0-2.54,0.25-5.08,0.44-8.6c3.31-0.23,6.4-0.63,9.48-0.64c16.1-0.06,32.23,0.47,48.3-0.22
	c9.16-0.39,12.09,2.22,11.99,11.74c-0.48,47.37-0.22,94.75-0.22,142.13c0,53.82,0,107.65,0,161.47
	C2159.96,701.13,2159.96,704.9,2159.96,709.88z"/>
<path class="st1" d="M474.67,507.7c-78.23,0-155.74,0-234.95,0c1.47-5.03,2.21-9.34,3.94-13.21c11.83-26.43,32.07-44.46,58.71-54.34
	c43.66-16.18,87.16-15.88,128.81,6.91C454.59,459.88,471.93,484.78,474.67,507.7z"/>
</svg>
