<?xml version="1.0" encoding="utf-8"?>
<!-- Generator: Adobe Illustrator 24.0.0, SVG Export Plug-In . SVG Version: 6.00 Build 0)  -->
<svg version="1.1" id="Layer_1" xmlns="http://www.w3.org/2000/svg" xmlns:xlink="http://www.w3.org/1999/xlink" x="0px" y="0px"
	 viewBox="0 0 2761 991" style="enable-background:new 0 0 2761 991;" xml:space="preserve">
<style type="text/css">
	.st0{fill:#1B2A4E;}
	.st1{fill:none;}
</style>
<g>
	<path class="st0" d="M1339.34,700.84c-0.08,1.62-0.14,2.95-0.22,4.49c-1.67,0.11-3.23,0.21-4.88,0.32
		c-0.09,1.68-0.16,3.16-0.24,4.78c-1.52,0.07-2.93,0.14-4.56,0.22c0,1.49,0,2.9,0,4.53c-1.67,0.11-3.14,0.2-4.79,0.31
		c-0.07,1.5-0.13,2.91-0.2,4.51c-1.51,0.1-2.97,0.2-4.57,0.3c-0.08,1.54-0.15,2.95-0.23,4.54c-1.47,0.07-2.88,0.14-4.56,0.23
		c-0.07,1.49-0.13,2.96-0.21,4.67c-1.6,0-3.08,0-4.78,0c0,1.64,0,3.05,0,4.71c-1.67,0.08-3.14,0.15-4.74,0.23
		c-0.07,1.63-0.14,3.12-0.21,4.82c-1.49,0.09-2.9,0.18-4.57,0.28c0,1.43,0,2.83,0,4.5c-1.7,0.12-3.16,0.23-4.77,0.34
		c-0.09,1.51-0.17,2.92-0.26,4.52c-1.49,0.09-2.9,0.18-4.53,0.28c-0.08,1.44-0.15,2.85-0.24,4.51c-1.49,0.11-2.96,0.21-4.55,0.33
		c-0.09,1.53-0.17,2.93-0.26,4.51c-1.61,0.1-3.1,0.19-4.85,0.3c0,1.54,0,3.01,0,4.69c-1.72,0.1-3.18,0.19-4.79,0.29
		c-0.08,1.53-0.15,2.94-0.23,4.57c-1.47,0-2.87,0-4.54,0c-0.08,1.68-0.15,3.15-0.23,4.79c-1.52,0.08-2.93,0.15-4.55,0.23
		c-0.09,1.51-0.18,2.99-0.27,4.59c-1.53,0.08-2.94,0.15-4.52,0.23c-0.08,1.5-0.15,2.92-0.24,4.59c-1.51,0-2.99,0-4.7,0
		c-0.08,1.64-0.14,3.05-0.22,4.78c-1.48,0.07-2.94,0.15-4.57,0.23c-0.08,1.59-0.15,3.08-0.24,4.81c-0.73,0.09-1.41,0.21-2.1,0.25
		c-0.71,0.04-1.43,0.01-2.39,0.01c-0.11,1.52-0.21,2.91-0.33,4.59c-1.41,0.13-2.81,0.26-4.46,0.41c-0.1,1.35-0.21,2.74-0.34,4.4
		c-1.41,0.14-2.8,0.27-4.43,0.43c-0.11,1.35-0.22,2.74-0.35,4.4c-1.43,0.14-2.82,0.27-4.51,0.44c-0.03,0.9-0.05,1.83-0.11,2.75
		c-0.09,1.6-0.25,1.78-1.82,1.87c-0.87,0.05-1.74,0.01-2.85,0.01c-0.18,1.63-0.35,3.09-0.53,4.71c-1.42,0.13-2.74,0.24-4.24,0.38
		c-0.09,0.77-0.2,1.45-0.24,2.14c-0.14,2.4-0.13,2.39-2.44,2.5c-0.62,0.03-1.24,0.12-2.09,0.2c-0.08,0.85-0.17,1.62-0.22,2.38
		c-0.13,1.99-0.31,2.21-2.17,2.44c-2.35,0.29-2.27,0.3-2.6,2.66c-0.24,1.7-1.04,3.29-0.88,5.1c0.08,0.9-0.71,1.14-1.5,1.14
		c-0.94,0-1.87,0-3.04,0c-0.06,1.23-0.17,2.17-0.14,3.09c0.03,1.19-0.42,1.7-1.67,1.76c-3.24,0.15-3.24,0.21-3.48,3.37
		c-0.03,0.38-0.14,0.76-0.26,1.34c-0.9,0.05-1.75,0.15-2.61,0.15c-1.19-0.01-1.76,0.57-1.83,1.73c-0.05,0.93-0.13,1.87-0.21,2.96
		c-1.06,0.06-1.92,0.14-2.77,0.13c-1.22-0.01-1.73,0.6-1.77,1.75c-0.03,0.87-0.09,1.74-0.15,2.86c-1.4,0.13-2.7,0.25-4.26,0.4
		c-0.13,1.52-0.26,2.99-0.4,4.59c-1.52,0.1-2.93,0.2-4.55,0.3c-0.17,1.43-0.32,2.75-0.5,4.28c-1.26,0-2.48,0-3.97,0
		c-0.4-2.2-0.6-4.47-0.6-6.76c0-20.47,0.01-40.94,0.02-61.4c0.01-16.31,0.02-32.62,0.03-48.93c0-0.95,0-1.9,0-3.07
		c-1.62,0-3.08,0-4.82,0c-0.09,1.31-0.17,2.63-0.27,4.18c-1.47,0.14-2.93,0.27-4.49,0.42c-0.1,1.61-0.19,3.01-0.28,4.54
		c-1.53,0.12-2.93,0.23-4.5,0.35c-0.09,1.53-0.17,2.93-0.25,4.47c-1.52,0.12-2.92,0.22-4.56,0.35c-0.07,1.56-0.13,3.05-0.21,4.73
		c-1.49,0.1-2.96,0.2-4.57,0.31c-0.08,1.52-0.16,2.93-0.25,4.59c-1.54,0-3.02,0-4.71,0c-0.07,1.65-0.14,3.05-0.21,4.75
		c-1.5,0.07-2.96,0.13-4.58,0.2c-0.07,1.55-0.14,2.95-0.22,4.6c-1.47,0-2.87,0-4.56,0c-0.08,1.69-0.15,3.15-0.23,4.85
		c-1.52,0-2.93,0-4.53,0c-0.11,1.69-0.21,3.16-0.32,4.76c-1.52,0.07-2.93,0.13-4.5,0.21c-0.09,1.59-0.18,3.07-0.28,4.77
		c-1.64,0.11-3.2,0.22-4.86,0.33c-0.08,1.57-0.15,2.98-0.23,4.52c-1.54,0.1-2.95,0.18-4.53,0.28c-0.1,1.53-0.18,2.94-0.28,4.51
		c-1.48,0.1-2.89,0.19-4.52,0.29c-0.09,1.49-0.18,2.89-0.27,4.48c-1.45,0.11-2.85,0.22-4.53,0.35c-0.07,1.43-0.15,2.83-0.23,4.45
		c-1.51,0.12-2.97,0.23-4.55,0.35c-0.1,1.64-0.18,3.13-0.28,4.74c-1.53,0.07-2.94,0.14-4.54,0.22c-0.08,1.51-0.15,2.92-0.23,4.59
		c-1.51,0-2.99,0-4.69,0c-0.1,1.71-0.19,3.17-0.29,4.79c-1.53,0.07-2.94,0.13-4.54,0.21c-0.07,1.5-0.14,2.91-0.22,4.57
		c-1.51,0.08-2.97,0.16-4.57,0.24c-0.08,1.55-0.15,2.95-0.24,4.58c-1.49,0.07-2.89,0.13-4.55,0.2c-0.08,1.51-0.16,2.98-0.25,4.6
		c-1.54,0.07-2.94,0.13-4.53,0.2c-0.08,1.58-0.16,3.07-0.25,4.81c-1.58,0.11-3.14,0.22-4.86,0.35c-0.09,1.51-0.17,2.92-0.27,4.49
		c-1.51,0.1-2.92,0.19-4.5,0.29c-0.1,1.5-0.2,2.9-0.3,4.48c-1.47,0.11-2.87,0.21-4.5,0.34c-0.1,1.45-0.19,2.85-0.29,4.47
		c-1.44,0.11-2.84,0.21-4.52,0.34c-0.08,1.43-0.15,2.82-0.24,4.45c-1.52,0.12-2.98,0.24-4.57,0.37c-0.07,1.58-0.14,3-0.22,4.66
		c-1.48,0.1-2.95,0.19-4.56,0.3c-0.09,1.51-0.17,2.92-0.26,4.59c-1.53,0-3.01,0-4.7,0c-0.08,1.65-0.14,3.06-0.22,4.74
		c-1.42,0.1-2.82,0.19-4.5,0.31c-0.09,1.35-0.18,2.75-0.29,4.36c-1.47,0-2.93,0-4.55,0c0-199.91,0-399.83,0-599.75
		c0.05-0.06,0.09-0.12,0.15-0.17c0.06-0.05,0.13-0.12,0.2-0.12c0.79-0.06,1.59-0.15,2.38-0.15c197.19-0.02,394.38-0.03,591.57-0.03
		c0.22,0,0.45,0.14,0.86,0.28c0,1.5,0,3.04,0,4.79c-1.48,0.07-2.89,0.13-4.54,0.21c-0.07,1.46-0.14,2.86-0.23,4.56
		c-1.49,0.08-2.95,0.16-4.56,0.25c-0.09,1.52-0.17,2.93-0.26,4.56c-1.47,0.07-2.87,0.14-4.52,0.22c-0.1,1.5-0.19,2.97-0.3,4.59
		c-1.53,0.07-2.94,0.14-4.51,0.22c-0.08,1.51-0.16,2.91-0.25,4.51c-0.75,0.07-1.44,0.15-2.12,0.18c-0.71,0.03-1.42,0.01-2.38,0.01
		c-0.11,1.66-0.21,3.2-0.33,4.93c-1.6,0.12-3.08,0.22-4.78,0.35c-0.11,1.44-0.22,2.83-0.35,4.46c-1.44,0.11-2.84,0.22-4.45,0.35
		c-0.11,1.43-0.22,2.83-0.35,4.45c-1.44,0.12-2.84,0.23-4.44,0.36c-0.11,1.44-0.22,2.83-0.35,4.44c-1.45,0.12-2.85,0.24-4.44,0.37
		c-0.11,1.44-0.22,2.84-0.34,4.43c-1.47,0.12-2.87,0.24-4.47,0.37c-0.1,1.45-0.2,2.86-0.32,4.44c-1.57,0.13-3.04,0.25-4.66,0.38
		c-0.09,1.52-0.17,2.93-0.26,4.6c-1.44,0.09-2.84,0.17-4.52,0.28c-0.09,1.44-0.18,2.91-0.29,4.55c-1.54,0.08-2.94,0.15-4.53,0.23
		c-0.09,1.49-0.17,2.89-0.27,4.56c-1.45,0.08-2.85,0.16-4.52,0.25c-0.08,1.41-0.16,2.81-0.27,4.55c-1.45,0.08-2.91,0.17-4.53,0.26
		c-0.1,1.5-0.18,2.91-0.29,4.54c-1.47,0.08-2.87,0.15-4.51,0.24c-0.1,1.59-0.19,3.13-0.3,4.86c-1.64,0.11-3.13,0.22-4.8,0.33
		c-0.11,1.47-0.21,2.88-0.32,4.45c-1.51,0.12-2.91,0.24-4.47,0.36c-0.11,1.49-0.21,2.89-0.33,4.45c-1.54,0.12-2.93,0.23-4.45,0.36
		c-0.12,1.53-0.24,2.93-0.36,4.46c-1.51,0.11-2.84,0.2-4.41,0.32c-0.13,1.43-0.25,2.82-0.39,4.45c-1.43,0.12-2.83,0.24-4.42,0.38
		c-0.12,1.44-0.23,2.84-0.36,4.42c-1.57,0.14-3.04,0.27-4.63,0.41c-0.1,1.53-0.19,2.93-0.29,4.58c-1.48,0.08-2.88,0.16-4.52,0.25
		c-0.08,1.45-0.17,2.84-0.27,4.51c-1.43,0.09-2.83,0.19-4.52,0.3c-0.11,1.41-0.21,2.87-0.34,4.49c-1.54,0.07-2.95,0.13-4.59,0.21
		c0,3.06,0,6.05,0,9.31c35.39,0,70.85,0,106.44,0c0.03,2.05,1.04,2.72,2.78,2.62c0.69-0.04,1.29,0.31,1.24,1.13
		c-0.05,0.86-0.75,0.86-1.4,0.96c-2.32,0.34-4.64,0.72-7.11,1.11c-0.05,0.7-0.13,1.4-0.15,2.1c-0.08,2.29-0.12,2.33-2.51,2.42
		c-0.63,0.02-1.26,0.08-2.16,0.13c-0.05,0.99-0.08,1.91-0.14,2.84c-0.1,1.54-0.3,1.72-1.88,1.84c-0.79,0.06-1.59,0.1-2.38,0.16
		c-0.07,0-0.13,0.08-0.45,0.27c-0.06,0.59-0.14,1.35-0.21,2.12c-0.16,1.97-0.37,2.17-2.27,2.29c-0.7,0.04-1.39,0.11-2.25,0.18
		c-0.08,0.84-0.17,1.53-0.22,2.22c-0.17,2.08-0.38,2.3-2.42,2.42c-0.32,0.02-0.64,0.01-0.96,0.02c-0.87,0.02-1.25,0.48-1.36,1.34
		c-0.25,2.11-0.62,4.21-0.84,6.32c-0.1,0.97-0.49,1.48-1.48,1.48c-0.95,0-1.89,0-3.13,0c-0.07,1.23-0.17,2.23-0.17,3.23
		c0.01,1.1-0.44,1.64-1.57,1.6c-0.94-0.03-1.88-0.01-3.01-0.01c-0.14,1.66-0.25,3.05-0.38,4.67c-1.54,0.1-3.01,0.19-4.64,0.29
		c-0.17,1.53-0.32,2.94-0.49,4.53c-1.39,0.09-2.71,0.18-4.26,0.28c-0.18,1.51-0.35,2.97-0.54,4.55c-1.45,0.09-2.78,0.16-4.26,0.25
		c-0.14,1.52-0.27,2.93-0.42,4.57c-1.41,0.14-2.79,0.28-4.32,0.44c-0.16,1.52-0.31,2.91-0.47,4.41c-1.47,0.14-2.79,0.27-4.3,0.41
		c-0.12,1.5-0.24,2.9-0.36,4.44c-1.51,0.12-2.9,0.24-4.44,0.36c-0.11,1.56-0.21,2.96-0.32,4.48c-1.64,0.11-3.12,0.21-4.8,0.33
		c-0.09,1.56-0.18,2.95-0.27,4.46c-1.53,0.13-2.93,0.24-4.54,0.38c-0.08,1.52-0.15,2.92-0.23,4.45c-1.53,0.12-2.93,0.24-4.56,0.37
		c-0.07,1.59-0.13,3.07-0.21,4.76c-1.49,0.1-2.96,0.2-4.57,0.31c-0.08,1.53-0.15,2.94-0.23,4.53c-1.47,0.08-2.87,0.15-4.56,0.23
		c-0.07,1.49-0.14,2.96-0.23,4.67c-1.59,0-3.07,0-4.73,0c-0.07,1.65-0.13,3.05-0.21,4.7c-1.51,0.08-2.98,0.16-4.58,0.25
		c-0.07,1.54-0.14,2.95-0.21,4.59c-1.49,0-2.89,0-4.51,0c-0.11,1.76-0.21,3.3-0.31,4.99c-1.52,0.11-2.93,0.2-4.51,0.31
		c-0.09,1.46-0.18,2.87-0.28,4.49c-1.45,0.09-2.86,0.18-4.54,0.29c0,1.43,0,2.83,0,4.48c-1.7,0.13-3.17,0.24-4.77,0.36
		c-0.09,1.51-0.17,2.92-0.26,4.51c-1.64,0.1-3.19,0.2-4.87,0.3c-0.07,1.54-0.13,2.88-0.2,4.48c-1.5,0.12-2.96,0.24-4.56,0.36
		c-0.09,1.6-0.17,3.08-0.25,4.71c-1.51,0.08-2.92,0.15-4.53,0.23c-0.09,1.53-0.17,3-0.26,4.6c-1.55,0.07-2.95,0.13-4.55,0.2
		c-0.07,1.51-0.13,2.93-0.21,4.56c-1.49,0.09-2.96,0.18-4.57,0.28c-0.08,1.52-0.15,2.93-0.23,4.59c-1.53,0-3.01,0-4.72,0
		c0,1.64,0,3.04,0,4.76c-1.68,0.08-3.14,0.15-4.78,0.23c-0.07,1.5-0.14,2.91-0.21,4.57c-1.45,0.08-2.85,0.16-4.52,0.25
		c-0.1,1.51-0.2,3.06-0.31,4.85c-1.44,0.1-2.85,0.19-4.5,0.31c-0.09,1.4-0.17,2.8-0.27,4.48c-1.49,0.11-2.95,0.23-4.54,0.35
		c-0.09,1.52-0.17,2.92-0.25,4.47c-1.57,0.12-2.97,0.22-4.5,0.34c-0.1,1.49-0.2,2.89-0.31,4.47c-1.6,0.11-3.09,0.22-4.76,0.34
		c-0.11,1.45-0.22,2.85-0.35,4.48c-1.46,0.11-2.86,0.22-4.46,0.35c-0.1,1.52-0.19,3-0.3,4.66c-1.42,0.07-2.75,0.13-4.32,0.2
		c-0.16,1.52-0.32,2.99-0.51,4.68c-1.39,0-2.72,0-4.26,0c-0.17,1.67-0.32,3.14-0.49,4.71c-1.46,0.09-2.79,0.18-4.29,0.28
		c-0.16,1.5-0.3,2.9-0.47,4.51c-1.53,0.11-3,0.21-4.65,0.32c-0.1,1.48-0.2,2.88-0.31,4.47c-1.47,0.12-2.86,0.24-4.44,0.37
		c-0.11,1.49-0.22,2.88-0.34,4.49c-1.03,0.06-1.96,0.16-2.89,0.14c-1.2-0.02-1.81,0.46-1.71,1.7c0.02,0.32,0.01,0.64,0,0.96
		c-0.05,2.45-0.09,2.48-2.6,2.6c-2.09,0.1-2,0.11-2.2,2.21c-0.18,1.88-0.52,3.75-0.96,5.58c-0.1,0.4-0.91,0.82-1.43,0.89
		c-2.92,0.4-2.92,0.36-3.19,3.42c-0.03,0.38-0.16,0.75-0.28,1.28c-0.76,0.06-1.46,0.13-2.15,0.18c-1.88,0.13-2.11,0.36-2.27,2.31
		c-0.06,0.71-0.1,1.41-0.17,2.37c-1.03,0.06-1.95,0.11-2.88,0.18c-1.55,0.12-1.79,0.34-1.86,1.86c-0.05,1.02-0.01,2.04-0.01,3.18
		c-1.67,0.12-3.07,0.22-4.63,0.33c-0.09,1.54-0.18,2.94-0.28,4.51c-1.47,0.09-2.88,0.18-4.51,0.28c-0.08,1.48-0.15,2.89-0.24,4.5
		c-1.48,0.11-2.95,0.21-4.54,0.33c-0.09,1.56-0.18,2.96-0.27,4.51c-1.49,0.09-2.9,0.18-4.53,0.28c-0.07,1.49-0.14,2.89-0.22,4.57
		c-1.51,0-2.98,0-4.66,0c-0.12,1.72-0.23,3.19-0.34,4.79c-1.52,0.08-2.92,0.15-4.47,0.23c-0.1,1.6-0.2,3.08-0.31,4.7
		c-1.53,0.12-2.93,0.22-4.48,0.34c-0.1,1.54-0.19,2.94-0.29,4.49c-1.54,0.11-2.95,0.21-4.5,0.33c-0.1,1.54-0.19,2.94-0.29,4.49
		c-1.54,0.11-2.95,0.21-4.5,0.32c-0.1,1.53-0.19,2.93-0.29,4.49C1342.35,700.61,1340.95,700.72,1339.34,700.84z"/>
	<path class="st0" d="M1600.64,254.94c-0.14-1.36-0.28-2.61-0.44-4.14c-6.29-0.12-12.48-0.25-18.9-0.37
		c-0.12-1.43-0.22-2.74-0.36-4.37c-4.61-0.17-9.19-0.34-13.95-0.52c-0.12-1.47-0.24-2.86-0.36-4.39c-3.03-0.16-5.96-0.31-9.1-0.48
		c-0.11-1.43-0.23-2.82-0.36-4.46c-1.54,0-3.02,0-4.69,0c-0.09-1.71-0.17-3.19-0.27-4.87c-1.65-0.1-3.2-0.2-4.87-0.3
		c-0.08-1.59-0.14-3-0.22-4.67c-1.42-0.14-2.8-0.27-4.38-0.42c-0.72-9.51-0.53-18.97-0.25-28.6c0.84-0.07,1.53-0.14,2.23-0.17
		c0.64-0.03,1.27-0.01,2.08-0.01c0.33-3.04,0.65-6,0.99-9.14c1.57-0.1,3.04-0.2,4.71-0.31c0.06-0.99,0.14-1.84,0.15-2.69
		c0.01-1.1,0.56-1.55,1.61-1.64c2.45-0.22,4.89-0.5,7.54-0.77c0.09-1.36,0.17-2.77,0.28-4.39c3.08-0.24,6.12-0.48,9.27-0.73
		c0.12-1.41,0.23-2.65,0.35-4.04c4.67-0.28,9.26-0.55,13.99-0.82c0.18-1.37,0.33-2.59,0.52-4.02c7.97-0.23,15.85-0.46,23.92-0.69
		c0.16-0.66,0.36-1.24,0.44-1.84c0.27-2.08,0.25-2.13,2.3-2.14c8.95-0.07,17.9-0.13,26.85-0.15c2.86-0.01,5.72,0.12,8.72,0.18
		c0.24,1.33,0.44,2.47,0.69,3.91c7.97,0.24,15.92,0.47,24.07,0.71c0.11,0.77,0.22,1.45,0.29,2.13c0.17,1.77,0.2,1.8,2.02,1.9
		c3.74,0.21,7.48,0.42,11.21,0.65c0.3,0.02,0.6,0.13,1,0.23c0.15,1.29,0.28,2.52,0.44,3.88c3.1,0.27,6.09,0.53,9.2,0.81
		c0.12,1.49,0.23,2.89,0.35,4.44c3.03,0.18,5.94,0.36,8.98,0.54c0.09,1.5,0.18,2.9,0.28,4.47c1.66,0.08,3.22,0.16,4.96,0.25
		c0.07,1.5,0.13,2.92,0.2,4.61c1.42,0.07,2.81,0.13,4.45,0.21c0.19,3.04,0.37,6.03,0.57,9.27c1.23,0.1,2.47,0.2,3.99,0.33
		c0.65,4.7,0.33,9.43,0.39,14.36c-1.53,0.23-2.82,0.43-4.26,0.65c-0.18,2.95-0.35,5.8-0.55,8.94c-1.36,0.12-2.75,0.24-4.38,0.37
		c-0.11,1.43-0.22,2.89-0.34,4.54c-1.61,0.1-3.1,0.19-4.77,0.3c-0.11,1.54-0.21,3.02-0.32,4.61c-1.59,0.08-3.08,0.15-4.71,0.24
		c-0.11,1.52-0.21,2.91-0.31,4.45c-3.05,0.13-5.98,0.25-9.17,0.39c-0.11,1.41-0.21,2.8-0.33,4.42c-4.63,0.16-9.22,0.31-13.99,0.48
		c-0.13,1.47-0.25,2.79-0.4,4.38c-6.3,0.12-12.57,0.24-18.95,0.36c-0.17,1.45-0.32,2.7-0.46,3.9
		C1656.24,255.49,1606.42,255.72,1600.64,254.94z M1595.83,240.8c22.71,0.48,45.15,0.49,67.72,0.02c0.16-1.55,0.31-2.93,0.46-4.38
		c4.57-0.17,8.94-0.34,13.51-0.51c0.17-1.58,0.33-3.04,0.5-4.56c1.74-0.12,3.28-0.23,4.89-0.35c0.1-1.59,0.19-2.9,0.29-4.39
		c1.1,0,1.97,0.03,2.84-0.01c1.83-0.07,1.97-0.23,2.14-2.11c0.07-0.84,0.17-1.67,0.26-2.49c1.53-0.13,2.77-0.24,4.08-0.35
		c0.1-1.79,0.18-3.35,0.27-5.03c1.51-0.17,2.82-0.33,4.28-0.49c0-3.07,0-5.98,0-8.98c-1.34-0.23-2.55-0.45-3.8-0.66
		c-0.31-3.17-0.6-6.14-0.9-9.17c-1.53-0.07-2.93-0.13-4.39-0.2c-0.08-1.65-0.15-3.06-0.23-4.73c-1.74,0-3.28,0-4.86,0
		c-0.1-1.69-0.19-3.1-0.28-4.5c-3.19-0.15-6.12-0.28-9.13-0.42c-0.14-1.55-0.26-2.94-0.4-4.39c-4.71-0.16-9.22-0.32-13.8-0.48
		c-0.19-1.64-0.36-3.01-0.53-4.46c-19.5-0.44-38.73-0.51-58.07,0.08c-0.17,1.6-0.31,2.98-0.46,4.46c-4.72,0.14-9.24,0.28-13.88,0.42
		c-0.13,1.56-0.24,2.95-0.37,4.42c-3.17,0.15-6.17,0.29-9.3,0.44c-0.11,1.54-0.21,2.93-0.32,4.46c-1.61,0.09-3.09,0.18-4.65,0.27
		c-0.09,1.63-0.17,3.1-0.25,4.61c-1.64,0.12-3.03,0.21-4.41,0.31c-0.58,8.06-0.59,15.86-0.16,23.78c1.53,0.12,2.92,0.23,4.43,0.35
		c0.09,1.58,0.17,2.99,0.26,4.56c1.57,0.12,3.04,0.23,4.58,0.35c0.07,1.56,0.13,2.88,0.19,4.26c2.65,0.23,5.1,0.45,7.54,0.64
		c1.62,0.13,1.76,0.24,1.86,1.81c0.06,0.85,0.09,1.7,0.16,2.87c3.27,0,6.35,0,9.53,0C1595.59,237.9,1595.7,239.22,1595.83,240.8z"/>
	<path class="st0" d="M1222.85,236.11c0.08,1.68,0.15,3.09,0.23,4.68c1.51,0.07,2.91,0.13,4.47,0.21c0.09,1.56,0.18,3.04,0.28,4.68
		c1.62,0,3.12,0,4.92,0c0,3.22,0,6.27,0,9.47c-6.38,0-12.74,0-19.32,0c-0.14-1.4-0.28-2.79-0.43-4.32c-1.48-0.09-2.88-0.17-4.5-0.27
		c-0.07-1.5-0.13-2.91-0.2-4.59c-1.49,0-2.96,0-4.72,0c0-1.73,0-3.2,0-4.91c-1.67,0-3.07,0-4.76,0c0-1.71,0-3.18,0-4.85
		c-1.67-0.07-3.07-0.14-4.66-0.21c-0.09-1.63-0.17-3.18-0.26-4.91c-1.55-0.13-2.95-0.25-4.51-0.39c-0.14-1.31-0.28-2.55-0.43-3.95
		c-22.57,0-45.05,0-67.71,0c-0.14,1.26-0.26,2.43-0.42,3.86c-1.02,0.06-2.02,0.15-3.03,0.18c-1.09,0.03-1.6,0.54-1.57,1.64
		c0.03,1.11,0.01,2.21,0.01,3.49c-1.59,0.09-2.99,0.17-4.65,0.27c0,1.55,0,3.03,0,4.64c-1.66,0.09-3.07,0.17-4.66,0.25
		c-0.07,1.55-0.14,3.03-0.22,4.67c-1.45,0.07-2.78,0.13-4.4,0.21c-0.11,1.48-0.22,2.95-0.34,4.7c-0.96,0.04-1.88,0.07-2.81,0.11
		c-1.72,0.09-1.82,0.19-1.93,1.98c-0.04,0.71-0.09,1.42-0.15,2.4c-6.43,0.2-12.77,0.06-19.21,0.12c0-3.25,0-6.25,0-9.4
		c1.58-0.07,2.99-0.14,4.68-0.21c0-1.51,0-2.98,0-4.6c1.67-0.09,3.08-0.17,4.66-0.26c0.09-1.54,0.17-3.02,0.26-4.65
		c1.42-0.09,2.74-0.18,4.23-0.27c0.31-2.99,0.61-5.89,0.93-9.02c1.35-0.13,2.74-0.26,4.33-0.41c0.08-1.54,0.15-2.95,0.24-4.62
		c1.5-0.09,2.97-0.18,4.63-0.27c0.1-1.59,0.18-3.06,0.28-4.7c1.49-0.11,2.89-0.21,4.45-0.32c0.08-1.51,0.16-2.92,0.25-4.61
		c1.41-0.14,2.8-0.28,4.32-0.44c0.37-2.95,0.74-5.9,1.13-9.04c1.35-0.1,2.59-0.19,4.04-0.29c0.1-1.52,0.19-3,0.29-4.67
		c1.47-0.07,2.87-0.14,4.47-0.22c0.07-1.55,0.14-3.03,0.21-4.68c1.52-0.07,2.92-0.13,4.48-0.2c0.09-1.57,0.18-3.05,0.27-4.68
		c1.6-0.08,3.09-0.16,4.68-0.24c0.28-2.99,0.54-5.89,0.83-9.03c1.02-0.06,1.95-0.15,2.88-0.17c1.11-0.02,1.59-0.56,1.56-1.64
		c-0.02-1.02,0-2.04,0-3.17c1.65-0.13,3.04-0.24,4.65-0.37c0-1.56,0-2.97,0-4.59c1.67-0.13,3.14-0.24,4.8-0.36
		c0.1-1.41,0.19-2.73,0.3-4.18c0.69-0.08,1.31-0.2,1.92-0.2c4.95,0.03,9.91,0.08,14.86,0.15c1.81,0.03,1.84,0.17,2.02,1.88
		c0.21,1.95,0.52,3.9,0.92,5.83c0.08,0.39,0.69,0.78,1.14,0.96c0.42,0.17,0.95,0.09,1.42,0.07c1.2-0.04,1.75,0.5,1.74,1.72
		c-0.01,1.02,0.09,2.03,0.14,3.14c1.53,0.12,2.87,0.22,4.45,0.34c0.07,1.64,0.14,3.19,0.22,4.93c1.51,0.07,2.91,0.13,4.51,0.2
		c0.08,1.56,0.16,3.03,0.24,4.67c1.61,0.07,3.1,0.14,4.87,0.22c0,1.52,0,3,0,4.68c1.61,0,2.93,0,4.53,0
		c0.14,1.65,0.26,3.12,0.41,4.81c0.83,0.14,1.66,0.36,2.5,0.41c1.17,0.07,1.65,0.58,1.77,1.77c0.23,2.34,0.62,4.67,0.97,7.18
		c1.32,0.12,2.72,0.25,4.31,0.4c0.07,1.54,0.14,2.94,0.21,4.56c1.53,0.13,2.99,0.25,4.63,0.38c0,1.59,0,3.01,0,4.59
		c1.66,0.12,3.14,0.22,4.76,0.33c0.08,1.52,0.16,2.92,0.25,4.58c1.46,0.11,2.85,0.21,4.6,0.35c0,1.05,0.03,2.06-0.01,3.07
		c-0.05,1.22,0.5,1.77,1.71,1.75c0.86-0.02,1.71,0,2.71,0c0.36,3.18,0.69,6.08,1.05,9.19
		C1219.96,235.98,1221.29,236.04,1222.85,236.11z M1131.16,216.55c3.82,0.54,46.12,0.32,47.81-0.2c0-1.4,0-2.79,0-4.21
		c-1.59-0.12-2.98-0.22-4.4-0.33c-0.08-1.69-0.14-3.1-0.21-4.58c-1.61-0.13-3.01-0.23-4.51-0.35c-0.12-1.7-0.22-3.25-0.33-4.8
		c-1.58-0.07-2.91-0.13-4.39-0.19c-0.11-1.61-0.21-3.09-0.33-4.81c-1.12,0-2.06,0.01-3,0c-0.76-0.01-1.17-0.42-1.24-1.17
		c-0.22-2.12-0.44-4.25-0.67-6.37c-0.06-0.53-0.15-1.05-0.24-1.73c-3.13,0-6.14,0-9.29,0c-0.09,1.54-0.18,3.02-0.27,4.58
		c-1.55,0.09-2.95,0.17-4.46,0.25c-0.08,1.62-0.16,3.1-0.24,4.66c-1.59,0.09-2.99,0.17-4.32,0.25c-0.38,3.08-0.74,5.97-1.08,8.71
		c-0.32,0.19-0.45,0.32-0.59,0.35c-0.31,0.07-0.63,0.12-0.94,0.11c-2.99-0.11-2.76,0.65-2.72,2.92c0.01,0.62-0.12,1.24-0.19,1.95
		c-1.52,0.14-2.91,0.26-4.38,0.4C1131.16,213.61,1131.16,215.03,1131.16,216.55z"/>
	<path class="st0" d="M1373.24,192.52c1.6,0,2.94,0,4.47,0c0.1-1.61,0.19-3.08,0.29-4.74c1.54,0,2.95,0,4.56,0
		c0.12-1.65,0.22-3.11,0.33-4.64c3.08-0.18,6-0.35,9.11-0.52c0.17-1.49,0.33-2.89,0.5-4.41c2.99-0.27,5.89-0.54,9.03-0.82
		c0.21-1.3,0.43-2.59,0.66-4.02c3.16-0.16,6.25-0.31,9.61-0.47c0.08-0.83,0.17-1.59,0.24-2.35c0.14-1.61,0.24-1.74,1.85-1.81
		c3.11-0.13,6.22-0.23,9.34-0.33c5.35-0.17,10.7-0.32,16.05-0.49c0.31-0.01,0.61-0.1,1.13-0.2c0.1-0.68,0.22-1.36,0.31-2.04
		c0.2-1.62,0.28-1.73,1.91-1.77c2.72-0.07,5.43-0.13,8.15-0.13c7.44,0,14.87,0.03,22.31,0.06c0.47,0,0.95,0.07,1.67,0.13
		c0.13,0.66,0.3,1.33,0.4,2.01c0.26,1.73,0.32,1.83,2.1,1.88c7.83,0.21,15.66,0.4,23.49,0.59c3.43,0.09,6.87,0.17,10.3,0.29
		c1.72,0.06,1.76,0.14,1.98,1.97c0.08,0.69,0.22,1.38,0.36,2.18c1.65,0.12,3.13,0.22,4.73,0.34c0,3.29,0,6.37,0,9.67
		c-0.83,0.06-1.6,0.17-2.36,0.16c-6.47-0.1-12.94-0.21-19.42-0.34c-1.73-0.03-1.85-0.19-2.01-1.93c-0.06-0.63-0.13-1.27-0.22-1.9
		c-0.02-0.15-0.15-0.28-0.37-0.67c-20.68-0.41-41.5-0.56-62.58-0.01c-0.1,0.87-0.21,1.63-0.26,2.39c-0.13,2.05-0.14,2.06-2.27,2.12
		c-3.59,0.1-7.19,0.2-10.78,0.31c-0.38,0.01-0.77,0.12-1.25,0.2c-0.11,1.39-0.22,2.72-0.34,4.24c-3.04,0.15-5.96,0.29-9.15,0.44
		c-0.09,1.4-0.17,2.79-0.27,4.47c-1.51,0-2.98,0-4.62,0c-0.13,1.74-0.24,3.21-0.36,4.75c-1.5,0.07-2.83,0.13-4.41,0.2
		c-0.08,1.6-0.16,3.15-0.24,4.82c-1.41,0.11-2.66,0.21-4.12,0.33c-0.61,4.69-0.48,9.34-0.3,14.12c1.47,0.14,2.8,0.26,4.29,0.4
		c0.19,2.96,0.37,5.81,0.57,8.95c0.82,0.06,1.65,0.14,2.49,0.18c2.09,0.1,2.16,0.16,2.24,2.17c0.03,0.71,0.06,1.42,0.1,2.31
		c3.04,0.32,6,0.64,9.11,0.97c0.1,1.46,0.19,2.87,0.31,4.58c3.25,0,6.41,0,9.76,0c0.15,1.05,0.28,1.81,0.35,2.58
		c0.17,1.85,0.25,1.97,2.18,2.01c5.99,0.13,11.98,0.32,17.97,0.33c16.79,0.02,33.58-0.05,50.37-0.08c2.15,0,4.3,0,6.52,0
		c0.24-1.68,0.95-2.46,2.54-2.45c1.28,0,1.28-0.16,2.41-2.24c4.56,0,9.25,0,14.23,0c0.34,4.51,0.17,9.06-0.82,13.84
		c-7.69,0.78-15.5,0.27-23.44,0.69c-0.16,1.36-0.31,2.59-0.49,4.05c-0.71,0.08-1.4,0.24-2.08,0.24
		c-18.31,0.07-36.62,0.13-54.92,0.17c-2.56,0.01-5.11-0.08-7.67-0.16c-1.78-0.05-1.89-0.18-2.06-1.89
		c-0.07-0.63-0.15-1.26-0.25-1.89c-0.02-0.14-0.16-0.27-0.37-0.58c-6.15-0.12-12.43-0.25-18.88-0.37c-0.13-1.49-0.24-2.81-0.37-4.45
		c-3.1,0-6.18,0-9.5,0c-0.21-1.65-0.38-3.03-0.58-4.66c-3.02-0.15-6.02-0.31-9.25-0.47c-0.09-1.41-0.17-2.81-0.27-4.41
		c-1.51-0.09-2.99-0.18-4.7-0.28c-0.09-1.46-0.18-2.86-0.28-4.51c-0.99-0.05-1.91-0.08-2.84-0.15c-1.56-0.11-1.71-0.27-1.8-1.89
		c-0.04-0.8-0.07-1.59-0.11-2.39c0-0.07-0.08-0.13-0.22-0.37c-1.26-0.12-2.65-0.25-4.18-0.39c-0.09-1.73-0.17-3.29-0.26-4.97
		c-1.39-0.16-2.63-0.3-3.81-0.44c-0.85-3.23-1.13-14.9-0.45-18.86c1.27-0.09,2.59-0.17,4.12-0.28
		C1372.91,198.82,1373.07,195.83,1373.24,192.52z"/>
	<path class="st0" d="M976.67,255.08c-0.45-2.68-0.66-84.13-0.25-86.78c2.08-0.11,4.22-0.32,6.35-0.32
		c26.22-0.02,52.44-0.02,78.66,0c2.06,0,4.11,0.16,6.31,0.25c0,3.2,0,6.2,0,9.49c-2.29,0.1-4.49,0.27-6.69,0.27
		c-17.19,0.02-34.38,0-51.56,0.02c-2.86,0-5.72,0.13-8.5,0.21c-0.76,2.49-1,19.81-0.33,23.82c22.21,0.29,44.48-0.06,66.99,0.21
		c0,3.26,0,6.4,0,9.79c-2.03,0.07-4.08,0.2-6.13,0.2c-17.35,0.01-34.69-0.01-52.04-0.02c-1.42,0-2.83,0-4.41,0
		c-0.1,1.08-0.21,1.85-0.24,2.63c-0.03,0.98-0.48,1.48-1.47,1.47c-0.24,0-0.48,0-0.72,0.02c-2.31,0.15-2.33,0.15-2.33,2.57
		c0.01,6.07,0.06,12.15,0.05,18.22c-0.01,5.35-0.09,10.7-0.15,16.06c-0.01,0.62-0.1,1.24-0.15,1.91
		C992.2,255.08,984.49,255.08,976.67,255.08z"/>
	<path class="st0" d="M1257.09,168c7.78-0.03,15.64-0.28,23.66,0.32c0,24.2,0,48.23,0,72.61c6.18,0.27,12.22,0.09,18.25,0.12
		c6,0.03,11.99,0.01,17.99,0.01c6.08,0,12.15,0,18.23,0c5.99,0,11.99,0,18.11,0c0.66,4.7,0.44,9.28,0.15,14.04
		c-32.19,0-64.27,0-96.34,0C1256.62,252.33,1256.5,170.59,1257.09,168z"/>
	<path class="st1" d="M1595.83,240.8c-0.13-1.57-0.25-2.9-0.39-4.54c-3.18,0-6.26,0-9.53,0c-0.06-1.17-0.1-2.02-0.16-2.87
		c-0.1-1.57-0.25-1.69-1.86-1.81c-2.45-0.19-4.9-0.41-7.54-0.64c-0.06-1.38-0.12-2.71-0.19-4.26c-1.54-0.12-3.01-0.23-4.58-0.35
		c-0.09-1.58-0.17-2.98-0.26-4.56c-1.51-0.12-2.91-0.23-4.43-0.35c-0.43-7.93-0.42-15.72,0.16-23.78c1.37-0.1,2.77-0.19,4.41-0.31
		c0.08-1.51,0.16-2.98,0.25-4.61c1.56-0.09,3.04-0.17,4.65-0.27c0.11-1.52,0.21-2.92,0.32-4.46c3.13-0.15,6.13-0.29,9.3-0.44
		c0.12-1.47,0.24-2.86,0.37-4.42c4.64-0.14,9.16-0.28,13.88-0.42c0.15-1.48,0.3-2.86,0.46-4.46c19.34-0.58,38.57-0.52,58.07-0.08
		c0.17,1.44,0.33,2.82,0.53,4.46c4.58,0.16,9.09,0.31,13.8,0.48c0.13,1.45,0.26,2.84,0.4,4.39c3.01,0.14,5.94,0.27,9.13,0.42
		c0.09,1.41,0.17,2.81,0.28,4.5c1.57,0,3.12,0,4.86,0c0.08,1.68,0.15,3.08,0.23,4.73c1.46,0.07,2.85,0.13,4.39,0.2
		c0.3,3.03,0.59,6,0.9,9.17c1.25,0.22,2.46,0.43,3.8,0.66c0,3,0,5.91,0,8.98c-1.46,0.17-2.77,0.32-4.28,0.49
		c-0.09,1.67-0.17,3.23-0.27,5.03c-1.32,0.11-2.55,0.22-4.08,0.35c-0.09,0.82-0.18,1.65-0.26,2.49c-0.16,1.88-0.31,2.04-2.14,2.11
		c-0.87,0.03-1.74,0.01-2.84,0.01c-0.1,1.49-0.19,2.8-0.29,4.39c-1.6,0.11-3.15,0.22-4.89,0.35c-0.17,1.51-0.33,2.97-0.5,4.56
		c-4.57,0.17-8.94,0.34-13.51,0.51c-0.15,1.45-0.3,2.83-0.46,4.38C1640.98,241.29,1618.55,241.28,1595.83,240.8z"/>
	<path class="st1" d="M1131.16,216.55c0-1.52,0-2.94,0-4.57c1.47-0.13,2.86-0.26,4.38-0.4c0.07-0.71,0.2-1.33,0.19-1.95
		c-0.03-2.27-0.27-3.02,2.72-2.92c0.31,0.01,0.64-0.05,0.94-0.11c0.15-0.03,0.27-0.15,0.59-0.35c0.34-2.75,0.7-5.63,1.08-8.71
		c1.33-0.08,2.73-0.16,4.32-0.25c0.08-1.56,0.15-3.04,0.24-4.66c1.51-0.08,2.91-0.16,4.46-0.25c0.09-1.56,0.18-3.04,0.27-4.58
		c3.15,0,6.15,0,9.29,0c0.1,0.67,0.19,1.2,0.24,1.73c0.23,2.12,0.45,4.25,0.67,6.37c0.08,0.76,0.49,1.16,1.24,1.17
		c0.94,0.01,1.88,0,3,0c0.12,1.72,0.22,3.2,0.33,4.81c1.48,0.07,2.81,0.12,4.39,0.19c0.11,1.56,0.21,3.1,0.33,4.8
		c1.5,0.12,2.9,0.23,4.51,0.35c0.07,1.48,0.13,2.89,0.21,4.58c1.42,0.11,2.82,0.21,4.4,0.33c0,1.42,0,2.81,0,4.21
		C1177.28,216.87,1134.98,217.09,1131.16,216.55z"/>
</g>
</svg>
