<?xml version="1.0" encoding="utf-8"?>
<!-- Generator: Adobe Illustrator 24.0.0, SVG Export Plug-In . SVG Version: 6.00 Build 0)  -->
<svg version="1.1" id="Layer_1" xmlns="http://www.w3.org/2000/svg" xmlns:xlink="http://www.w3.org/1999/xlink" x="0px" y="0px"
	 viewBox="0 0 2761 991" style="enable-background:new 0 0 2761 991;" xml:space="preserve">
<style type="text/css">
	.st0{fill:#1B2A4E;}
	.st1{fill:none;}
</style>
<g>
	<path class="st0" d="M2042.26,684.72c0-125.97,0-251.94,0-378.16c1.03-0.07,1.87-0.18,2.72-0.18c78.94-0.01,157.89,0,236.83,0
		c4.64,0,9.28-0.07,13.92,0.1c6.37,0.24,12.73,0.68,19.1,1.01c1.6,0.08,3.2,0.07,4.8,0.13c0.8,0.03,1.68-0.06,2.37,0.25
		c2.96,1.32,6.12,0.87,9.19,1.19c1.34,0.14,2.68,0.41,4.01,0.64c0.55,0.1,1.08,0.31,1.63,0.37c3.94,0.46,7.9,0.84,11.83,1.37
		c2.68,0.36,5.59,0.37,7.92,1.51c2.53,1.24,5.38,0.52,7.74,2.01c0.48,0.3,1.26,0.1,1.88,0.22c0.93,0.18,1.84,0.44,2.75,0.69
		c0.68,0.18,1.35,0.43,2.04,0.57c2.67,0.55,5.41,0.84,7.82,2.29c0.2,0.12,0.45,0.15,0.68,0.21c3.26,0.88,6.64,1.48,9.73,2.76
		c1.69,0.7,3.7,0.65,5.18,2.15c0.73,0.74,2.13,0.81,3.23,1.19c2.56,0.89,5.14,1.75,7.68,2.7c1.16,0.43,2.24,1.06,3.37,1.58
		c2.57,1.2,5.35,2.09,7.68,3.64c3.87,2.58,8.36,4.03,12.05,6.93c1.29,1.02,2.9,1.77,4.38,2.57c2.36,1.3,4.35,3.09,6.68,4.42
		c2.1,1.2,3.88,2.96,5.78,4.49c2.15,1.73,4.28,3.48,6.42,5.22c1.76,1.44,3.67,2.75,5.25,4.36c5,5.09,10.03,10.15,14.55,15.7
		c3.7,4.54,7.19,9.2,10.36,14.12c1.92,2.98,3.87,5.95,5.64,9.02c1.81,3.14,3.27,6.49,5.16,9.58c2.19,3.56,3.37,7.57,5.28,11.2
		c1.32,2.51,1.75,5.31,3.25,7.71c0.6,0.96,0.76,2.2,1.11,3.32c0.61,1.93,1.2,3.87,1.82,5.8c0.65,2.02,1.33,4.03,1.96,6.05
		c0.17,0.53,0.23,1.09,0.31,1.64c0.07,0.47-0.09,1.09,0.16,1.41c1.73,2.28,0.84,5.31,2.27,7.66c0.12,0.2,0.16,0.45,0.2,0.69
		c0.45,3.3,0.9,6.6,1.35,9.9c0.07,0.55,0.01,1.15,0.19,1.66c1.13,3.08,0.93,6.3,1.18,9.48c0.1,1.33,0.49,2.64,0.7,3.96
		c0.19,1.18,0.44,2.37,0.44,3.56c0.03,10.56,0.06,21.12-0.02,31.67c-0.01,1.56-0.58,3.11-0.84,4.68c-0.16,0.94-0.26,1.9-0.31,2.85
		c-0.17,3.11-0.07,6.25-1.14,9.24c-0.11,0.3-0.11,0.63-0.15,0.94c-0.45,3.46-0.47,7.05-1.48,10.34c-0.84,2.71-0.64,5.64-2.17,8.22
		c-0.88,1.49-0.92,3.47-1.34,5.24c-0.51,2.15-0.85,4.37-1.62,6.42c-0.52,1.38-1.14,2.71-1.52,4.16c-0.58,2.18-1.23,4.38-2.21,6.39
		c-0.74,1.52-0.77,3.3-2.06,4.67c-0.86,0.91-1.13,2.4-1.57,3.66c-0.94,2.7-2.12,5.26-3.64,7.71c-1.49,2.41-2.49,5.13-3.76,7.68
		c-0.38,0.76-1.04,1.38-1.41,2.14c-2.16,4.4-5.04,8.36-7.88,12.31c-2.23,3.1-4.59,6.12-7.13,9.02c-2.32,2.65-4.71,5.21-7.16,7.72
		c-2.36,2.42-4.86,4.68-7.31,7.01c-1.68,1.6-3.37,3.16-5.43,4.31c-0.89,0.5-1.45,1.58-2.31,2.18c-3.81,2.62-7.77,5.03-11.46,7.8
		c-1.36,1.02-2.77,1.92-4.19,2.83c-1.81,1.16-3.69,2.23-5.54,3.33c-2.9,1.72-6.11,2.8-8.93,4.73c-1.82,1.25-4.09,1.84-6.14,2.77
		c-1.62,0.73-3.19,1.59-4.82,2.3c-1.42,0.61-2.91,1.06-4.34,1.62c-1.52,0.6-3.01,1.27-4.52,1.88c-0.51,0.21-1.05,0.34-1.59,0.47
		c-0.46,0.12-1.05,0.05-1.38,0.31c-1.78,1.44-3.99,1.64-6.05,2.3c-2.09,0.67-4.14,1.46-6.24,2.08c-2.23,0.66-4.51,1.17-6.76,1.78
		c-2.43,0.65-4.85,1.33-7.27,1.99c-0.15,0.04-0.31,0.09-0.46,0.12c-3.13,0.54-6.27,1.07-9.4,1.6c-0.47,0.08-1.06-0.04-1.41,0.19
		c-2,1.35-4.3,0.98-6.49,1.28c-4.64,0.63-9.28,1.35-13.92,1.97c-1.42,0.19-2.87,0.2-4.3,0.25c-3.12,0.1-6.24,0.16-9.35,0.28
		c-0.84,0.03-1.82-0.21-2.33,0.82C2229.76,684.72,2136.01,684.72,2042.26,684.72z M2183.28,599.06c0.84,0.06,1.31,0.13,1.77,0.13
		c25.75-0.03,51.51-0.06,77.26-0.1c1.28,0,2.55-0.13,3.83-0.23c4.46-0.34,8.92-0.68,13.37-1.04c0.87-0.07,1.74-0.19,2.59-0.36
		c1.55-0.29,3.09-0.71,4.65-0.94c1.42-0.21,2.89-0.12,4.29-0.38c3.19-0.6,6.35-1.35,9.53-2c2.32-0.48,4.66-0.88,6.99-1.35
		c0.36-0.07,0.67-0.39,1.02-0.56c0.48-0.23,0.96-0.49,1.48-0.64c1.96-0.56,3.93-1.05,5.89-1.63c1.2-0.35,2.42-0.72,3.56-1.24
		c1.53-0.69,2.96-1.61,4.5-2.3c3.23-1.44,6.43-2.92,9.32-5.01c1.63-1.17,3.34-2.24,4.89-3.51c2.38-1.95,4.92-3.74,6.81-6.24
		c0.46-0.61,1.1-1.08,1.59-1.67c2.02-2.43,4.1-4.82,5.99-7.35c1.15-1.54,1.77-3.51,3.05-4.91c1.46-1.61,2.21-3.54,3.21-5.35
		c1.15-2.09,2.18-4.25,3.14-6.44c1.11-2.51,2.16-5.05,3.11-7.63c0.72-1.96,1.25-3.99,1.85-6c0.68-2.26,1.48-4.5,1.98-6.8
		c0.59-2.7,0.9-5.47,1.33-8.2c0.04-0.24,0.05-0.51,0.18-0.69c1.28-1.75,0.96-3.8,1.12-5.76c0.19-2.31,0.27-4.63,0.59-6.92
		c0.62-4.47,0.58-8.93,0.18-13.4c-0.3-3.34-0.58-6.68-0.87-10.02c-0.06-0.71,0.07-1.55-0.26-2.12c-1.63-2.78-0.98-6.06-2.06-8.97
		c-0.8-2.14-1.15-4.44-1.72-6.66c-0.3-1.14-0.55-2.31-1-3.39c-0.72-1.71-1.69-3.32-2.36-5.04c-1.05-2.69-2.21-5.28-3.71-7.8
		c-1.73-2.9-3.08-6.03-5.17-8.74c-2.17-2.8-4.08-5.84-6.43-8.48c-2.51-2.83-5.3-5.42-8.13-7.92c-2.47-2.18-5.14-4.12-7.79-6.09
		c-1.29-0.96-2.68-1.78-4.08-2.56c-2.42-1.35-4.85-2.72-7.35-3.91c-2.71-1.29-5.49-2.45-8.29-3.55c-1.75-0.69-3.56-1.23-5.38-1.71
		c-1.97-0.52-3.99-0.88-5.98-1.33c-0.3-0.07-0.56-0.29-0.85-0.4c-0.87-0.31-1.73-0.67-2.62-0.88c-0.77-0.18-1.74,0.08-2.35-0.29
		c-2.81-1.69-6.06-0.94-9.06-1.81c-3.47-1.02-7.23-1.2-10.89-1.42c-8.36-0.49-16.73-1.05-25.11-1.11
		c-21.67-0.16-43.35-0.06-65.02-0.07c-2.23,0-2.47,0.22-2.56,2.42c-0.01,0.32,0,0.64,0,0.96c0,65.51,0,131.02,0,196.52
		C2183.28,597.06,2183.28,597.93,2183.28,599.06z"/>
	<path class="st0" d="M169.48,684.72c0-2.08,0-4.16,0-6.24c0-122.86,0-245.72,0-368.59c0-1.02,0-2.05,0-2.75
		c0.32-0.38,0.37-0.46,0.43-0.5c0.06-0.05,0.13-0.09,0.21-0.1c0.31-0.06,0.63-0.15,0.94-0.15c47.43-0.01,94.86-0.01,142.28-0.01
		c0.39,0,0.79,0.07,1.51,0.14c0.03,1.01,0.08,2.01,0.08,3.01c0,19.6,0,39.19,0,58.79c0,24.24,0,48.47,0,72.71
		c0,0.64-0.04,1.28,0.02,1.92c0.12,1.28,0.9,1.99,2.2,2c1.28,0.01,2.56-0.1,3.83-0.1c54.39-0.01,108.77,0,163.16,0
		c1.83,0,3.66,0,5.78,0c0.14-0.68,0.37-1.42,0.44-2.18c0.08-0.95,0.04-1.92,0.04-2.88c0-43.19,0-86.39,0-129.58
		c0-3.83,0-3.83,3.81-3.83c46.47,0,92.94,0,139.41,0c0.86,0,1.72,0,2.93,0c0,1.41,0,2.58,0,3.76c0,84.23,0,168.46,0,252.68
		c0,39.27,0,78.55,0,117.82c0,1.36-0.05,2.72-0.07,4.08c-48.64,0-97.27,0-145.91,0c-0.05-1.28-0.15-2.56-0.15-3.83
		c-0.01-30.56-0.01-61.12-0.01-91.68c0-15.36,0-30.72-0.01-46.08c0-1.08-0.15-2.16-0.23-3.37c-0.89,0-1.53,0-2.16,0
		c-12.24,0-24.48,0-36.72,0c-44.39,0-88.79,0-133.18,0.01c-1,0-2.01,0.16-3.17,0.26c0,1.27,0,2.31,0,3.34c0,45.92,0,91.84,0,137.76
		c0,1.2-0.02,2.4-0.03,3.6C266.43,684.72,217.96,684.72,169.48,684.72z"/>
	<path class="st0" d="M670.55,684.72c-0.03-1.04-0.09-2.08-0.09-3.12c0-123.99,0-247.97,0-371.96c0-0.95,0-1.9,0-2.69
		c0.24-0.22,0.3-0.28,0.36-0.33c0.06-0.05,0.12-0.11,0.19-0.12c0.31-0.05,0.63-0.12,0.95-0.12c140.21,0,280.42,0,420.63,0
		c0.31,0,0.63,0.08,0.94,0.15c0.15,0.03,0.28,0.13,0.65,0.32c0.04,0.73,0.11,1.58,0.11,2.43c0.01,26.4,0.01,52.79,0.01,79.19
		c0,0.4,0.02,0.8-0.01,1.2c-0.12,1.59-1.01,2.4-2.58,2.38c-2.32-0.03-4.64-0.06-6.96-0.06c-88.3,0-176.6,0-264.91,0
		c-1.74,0-3.47,0.07-5.29,0.11c0,20.4,0,40.52,0,60.82c0.91,0.06,1.68,0.15,2.45,0.15c83.66,0,167.33,0,250.99,0
		c1.04,0,2.08-0.07,3.12-0.01c1.47,0.09,1.93,0.6,2.02,2.09c0.03,0.48,0.01,0.96,0.01,1.44c0,26.4,0,52.79,0,79.19
		c0,0.94,0,1.88,0,2.55c-0.36,0.31-0.41,0.37-0.47,0.41c-0.07,0.04-0.14,0.08-0.22,0.1c-0.15,0.04-0.31,0.07-0.47,0.1
		c-0.08,0.02-0.16,0.02-0.24,0.03c-0.16,0.01-0.32,0.03-0.48,0.03c-0.16,0.01-0.32,0.01-0.48,0.01c-85.26,0-170.52,0-255.78,0
		c-1.4,0.95-1.32,2.41-1.32,3.85c0,14.32,0,28.64,0,42.96c0,3.2-0.01,6.4,0,9.6c0,0.72,0.02,1.44,0.11,2.15
		c0.13,1.1,0.67,1.74,1.91,1.64c0.95-0.08,1.92-0.02,2.88-0.02c92.78,0,185.56,0,278.34,0c0.79,0,1.57,0,2.49,0
		c0.09,0.81,0.21,1.42,0.21,2.03c0,27.84-0.01,55.67-0.02,83.51C956.6,684.72,813.58,684.72,670.55,684.72z"/>
	<path class="st0" d="M1658.77,684.72c-0.01-1.68-0.03-3.36-0.03-5.04c0-123.12,0-246.24,0-369.36c0-1.18,0-2.37,0-3.48
		c2.17-0.6,142.42-0.62,144.84,0c0,95.22,0,190.53,0,285.96c1.03,0.05,1.73,0.12,2.43,0.12c66.39,0,132.79,0,199.18-0.01
		c3.93,0,3.92,0,3.92,3.97c0,27.92,0,55.84,0,83.76c0,1.36,0.01,2.72,0.02,4.07C1892.35,684.72,1775.56,684.72,1658.77,684.72z"/>
	<path class="st0" d="M1123.63,684.72c0.45-1.24,0.72-2.59,1.37-3.71c1.46-2.5,2.34-5.27,3.68-7.8c1.09-2.07,1.99-4.2,2.99-6.3
		c0.67-1.41,1.28-2.85,1.92-4.27c1.02-2.24,2.04-4.47,3.08-6.7c0.56-1.21,1.18-2.4,1.73-3.62c0.64-1.43,1.23-2.87,1.86-4.31
		c1.18-2.71,2.31-5.43,3.55-8.11c1.02-2.2,2.18-4.33,3.23-6.51c0.31-0.63,0.39-1.37,0.7-2c1-2.07,2.06-4.11,3.07-6.17
		c0.59-1.2,1.2-2.4,1.65-3.66c0.6-1.68,1.27-3.3,2.33-4.77c0.62-0.86,0.93-1.95,1.33-2.96c0.92-2.32,1.77-4.67,2.72-6.98
		c0.44-1.07,1.13-2.03,1.62-3.09c1.19-2.62,2.29-5.28,3.51-7.88c1.06-2.26,2.28-4.45,3.33-6.72c1.08-2.3,1.85-4.76,3.11-6.94
		c1.29-2.24,1.85-4.78,3.32-6.97c1.24-1.84,1.82-4.12,2.74-6.18c0.7-1.56,1.49-3.07,2.22-4.61c0.46-0.99,0.88-2,1.31-3.01
		c0.92-2.15,1.81-4.32,2.77-6.45c0.98-2.18,2.04-4.32,3.03-6.5c0.78-1.72,1.45-3.48,2.25-5.18c1.02-2.16,2.14-4.27,3.19-6.41
		c0.41-0.84,0.78-1.71,1.15-2.58c1.48-3.44,2.9-6.89,4.44-10.3c0.57-1.26,1.46-2.37,2.09-3.61c0.57-1.11,1.01-2.29,1.47-3.45
		c0.54-1.38,0.73-3.04,1.62-4.12c1.65-2,1.84-4.62,3.32-6.63c0.27-0.37,0.34-0.88,0.5-1.32c1.77-0.46,84.88-0.6,87.7-0.15
		c0.1,0.12,0.28,0.23,0.29,0.36c0.45,3.22,0.86,6.44,1.32,9.66c0.08,0.54,0.32,1.06,0.53,1.56c0.18,0.43,0.59,0.82,0.63,1.25
		c0.29,3.19,1.75,6.04,2.71,9.02c0.68,2.13,1.88,4.1,2.9,6.11c1.06,2.08,1.9,4.35,3.35,6.11c2.01,2.43,3.25,5.41,5.69,7.53
		c1.05,0.91,1.68,2.29,2.65,3.32c2.34,2.48,4.64,4.98,7.44,7.01c2.9,2.1,5.48,4.63,8.37,6.75c1.6,1.18,3.55,1.89,5.31,2.87
		c1.18,0.66,2.27,1.49,3.45,2.14c0.73,0.41,1.57,0.62,2.36,0.94c1.64,0.67,3.27,1.33,4.9,2.02c1.56,0.67,3.09,1.43,4.68,2.04
		c1.54,0.59,3.11,1.17,4.72,1.54c2.47,0.56,4.99,0.89,7.49,1.38c1.08,0.21,2.13,0.56,3.2,0.82c0.77,0.18,1.54,0.37,2.32,0.43
		c1.66,0.13,3.33,0.18,5.2,0.27c0.08,1,0.2,1.85,0.2,2.69c0.01,33.91,0.01,67.83,0.01,101.74c0,0.8-0.04,1.6-0.06,2.4
		C1290.01,684.72,1206.82,684.72,1123.63,684.72z"/>
	<path class="st0" d="M1385.2,684.72c-0.03-3.6-0.09-7.19-0.09-10.79c-0.01-30.4,0-60.8,0-91.19c0-0.64-0.01-1.28,0-1.92
		c0.06-2.65,0.4-2.97,3.07-3.08c2.13-0.09,4.31,0.09,6.27-1.1c0.38-0.23,0.93-0.17,1.4-0.25c2.57-0.44,5.31-0.47,7.66-1.44
		c1.93-0.8,4.19-0.6,5.91-2.18c0.84-0.78,2.27-1.09,3.48-1.27c2.48-0.36,4.48-1.82,6.72-2.7c2.63-1.02,5.05-2.64,7.44-4.19
		c2.68-1.74,5.28-3.62,7.8-5.58c2.41-1.88,4.59-4.03,6.8-6.14c2.98-2.83,5.67-5.86,8.06-9.14c2.13-2.92,4.23-5.86,5.86-9.16
		c1.51-3.05,3.02-6.11,4.48-9.19c0.5-1.05,0.75-2.22,1.07-3.35c0.66-2.32,1.29-4.64,1.91-6.96c0.06-0.23-0.02-0.51,0.08-0.71
		c1.47-2.97,1.08-6.24,1.39-9.56c0.94-0.11,1.79-0.29,2.64-0.29c27.52-0.01,55.03-0.01,82.55,0c0.86,0,1.72,0.14,2.32,0.19
		c1.4,2.79,2.74,5.31,3.94,7.9c1.05,2.27,1.91,4.63,2.9,6.93c0.52,1.2,1.19,2.33,1.72,3.53c1.11,2.48,2.14,5,3.27,7.47
		c1,2.2,2.13,4.34,3.15,6.54c1.56,3.37,3.04,6.78,4.63,10.14c1.5,3.16,3.17,6.24,4.63,9.41c1.04,2.26,1.83,4.64,2.82,6.92
		c0.56,1.28,1.37,2.45,1.95,3.73c1.03,2.26,1.95,4.57,2.95,6.84c0.56,1.26,1.21,2.48,1.78,3.73c0.71,1.57,1.35,3.17,2.08,4.73
		c0.42,0.9,0.95,1.76,1.44,2.62c1.81,3.18,2.78,6.75,4.7,9.91c1.25,2.05,1.83,4.5,2.91,6.67c0.64,1.29,0.9,2.72,1.93,3.9
		c0.88,1.01,1.24,2.5,1.75,3.81c1.32,3.41,2.91,6.69,4.58,9.95c1.1,2.14,1.89,4.44,2.85,6.66c0.46,1.06,0.98,2.09,1.49,3.12
		c1.09,2.24,2.24,4.45,3.28,6.72c1.03,2.25,1.76,4.66,2.97,6.79c1.29,2.25,1.75,4.84,3.34,6.99c1.22,1.64,1.78,3.77,2.62,5.69
		c0.62,1.4,1.21,2.82,1.83,4.22c1.2,2.73,2.2,5.57,3.67,8.15c1.97,3.46,3.31,7.17,4.9,10.78c0.59,1.34,1.49,2.54,2.12,3.87
		c0.33,0.69,0.37,1.51,0.53,2.28C1551.59,684.72,1468.39,684.72,1385.2,684.72z"/>
	<path class="st1" d="M314.91,684.72c0.01-1.2,0.03-2.4,0.03-3.6c0-45.92,0-91.84,0-137.76c0-1.03,0-2.07,0-3.34
		c1.16-0.1,2.16-0.26,3.17-0.26c44.39-0.01,88.79-0.01,133.18-0.01c12.24,0,24.48,0,36.72,0c0.63,0,1.26,0,2.16,0
		c0.09,1.22,0.23,2.29,0.23,3.37c0.01,15.36,0.01,30.72,0.01,46.08c0,30.56,0,61.12,0.01,91.68c0,1.28,0.1,2.56,0.15,3.83
		C432.02,684.72,373.46,684.72,314.91,684.72z"/>
	<path class="st0" d="M2592.28,364.56c-0.99,0.35-0.88,1.23-0.95,2.01c-0.13,1.42-0.3,2.72-1.16,4.04
		c-0.88,1.33-1.03,3.12-1.68,4.64c-0.91,2.13-1.64,4.34-3.31,6.11c-1.09,1.16-1.85,2.64-2.7,4.01c-2.05,3.32-4.94,5.81-8.02,8.09
		c-2.02,1.5-4.12,2.91-6.23,4.28c-1.03,0.67-2.12,1.3-3.26,1.74c-1.6,0.62-3.58,0.66-4.85,1.65c-2.14,1.68-4.83,0.8-6.98,2.06
		c-0.5,0.3-1.25,0.23-1.88,0.24c-3.92,0.02-7.84,0.15-11.74-0.04c-2.35-0.11-4.9-0.26-6.96-1.25c-3.34-1.61-6.94-2.54-10.18-4.46
		c-4.76-2.81-8.95-6.2-12.6-10.3c-2.31-2.6-4.17-5.51-5.93-8.52c-1.76-3.01-2.76-6.21-3.84-9.47c-0.7-2.1-0.84-4.17-1.06-6.29
		c-0.06-0.55-0.13-1.13-0.33-1.64c-1.2-3.1-1.09-6.2-0.1-9.33c0.24-0.75,0.5-1.58,0.43-2.34c-0.24-2.78,0.7-5.41,1.52-7.89
		c0.8-2.43,1.33-5.09,3.22-7.18c1.16-1.29,1.68-3.14,2.69-4.59c3.05-4.37,6.57-8.22,11.02-11.35c2.71-1.91,5.61-3.27,8.39-4.94
		c2.89-1.73,6.05-2.79,9.13-3.24c4.84-0.7,9.76-1.97,14.75-0.73c1,0.25,2.06,0.25,3.09,0.31c2.87,0.18,5.53,1.02,8.22,2.05
		c3,1.16,5.83,2.56,8.65,4.06c2.28,1.21,4.23,2.82,6.16,4.44c3.4,2.86,6.44,6.08,8.83,9.88c1.61,2.55,3.2,5.07,4.08,8.01
		c0.51,1.7,1.53,3.24,2.13,4.92c0.37,1.03,0.37,2.19,0.53,3.29c0.09,0.61-0.03,1.35,0.92,1.39
		C2592.28,353.68,2592.28,359.12,2592.28,364.56z M2545.32,397.22c3.51-0.18,7.2,0.79,10.47-1.28c2.97-0.2,5.72-1.43,8.16-2.82
		c3.58-2.05,7.08-4.33,10.01-7.42c4.06-4.29,7.18-9.13,9.37-14.55c0.79-1.94,0.97-4.12,1.41-6.2c0.2-0.93,0.35-1.88,0.55-2.81
		c0.21-0.99,0.61-1.97,0.66-2.97c0.16-3.34-0.3-6.57-0.96-9.89c-0.72-3.67-1.89-7.14-2.99-10.66c-0.28-0.88-0.77-1.74-1.33-2.47
		c-1.98-2.55-3.54-5.38-5.86-7.73c-2.58-2.63-5.21-5.14-8.4-6.98c-1.72-1-3.6-1.79-5.33-2.7c-2.5-1.32-4.97-2.13-7.72-2.36
		c-0.63-0.05-1.23-0.34-1.86-0.45c-1.33-0.24-2.66-0.56-4-0.61c-3.43-0.13-6.78,0.28-10.19,0.93c-3.44,0.65-6.53,1.89-9.62,3.33
		c-2.74,1.28-5.21,2.97-7.62,4.78c-3.51,2.64-6.1,6.07-8.49,9.67c-1.13,1.69-2.03,3.47-2.78,5.4c-0.99,2.55-2.49,4.9-2.57,7.75
		c-0.01,0.23-0.09,0.47-0.17,0.69c-1.13,3.26-0.97,14.51-0.04,17.73c0.54,1.87,1.09,3.73,1.69,5.58c0.81,2.48,1.93,4.82,3.21,6.97
		c1.98,3.33,4.49,6.39,7.39,9.03c2.32,2.12,4.83,3.99,7.66,5.39c0.97,0.48,1.93,0.97,2.93,1.37c1.65,0.67,3.32,1.29,4.99,1.89
		c0.59,0.21,1.36,0.14,1.81,0.49c1.04,0.8,2.19,0.89,3.39,0.91C2541.16,397.24,2543.24,397.22,2545.32,397.22z"/>
	<path class="st0" d="M1296.69,306.51c25.58,0,50.91,0,76.41,0c0,37.45,0,74.76,0,112.4c-1.52,0.27-3.05,0.59-4.6,0.79
		c-2.41,0.31-4.96-0.3-7.16,1.31c-0.39,0.29-1.08,0.21-1.64,0.24c-1.36,0.07-2.62,0.29-3.9,0.93c-1.37,0.69-2.96,1.02-4.49,1.29
		c-3.52,0.63-6.5,2.61-9.77,3.79c-2.27,0.81-4.17,2.38-6.54,2.87c-2.56,2.59-6.3,3.47-8.8,6.21c-1.22,1.34-3,2.17-4.43,3.35
		c-3.64,2.99-7.03,6.23-9.99,9.9c-1.89,2.34-3.44,4.97-5.38,7.26c-1.83,2.16-2.98,4.67-4.23,7.12c-1.78,3.52-3.41,7.11-4.65,10.9
		c-0.73,2.21-0.59,4.76-2.19,6.69c-0.14,0.16-0.14,0.45-0.17,0.69c-0.4,2.9-0.84,5.8-1.18,8.71c-0.23,1.92-0.32,2.08-2.39,2.08
		c-3.52,0.01-7.04-0.01-10.56-0.01c-22.63,0.01-45.27,0.02-67.9,0.03c-0.31,0-0.63-0.05-1.27-0.1c0.1-0.8-0.04-1.67,0.31-2.23
		c2.1-3.35,3.22-7.13,4.83-10.69c0.46-1.02,1.13-1.96,1.56-3.05c1.06-2.68,2.28-5.3,3.48-7.93c0.51-1.12,1.16-2.18,1.66-3.31
		c1.11-2.48,2.16-5,3.26-7.48c0.53-1.2,1.16-2.37,1.72-3.56c1.1-2.32,2.21-4.64,3.29-6.97c1.14-2.47,2.25-4.96,3.39-7.44
		c0.49-1.06,1.03-2.09,1.5-3.15c1.37-3.12,2.66-6.27,4.09-9.36c1.04-2.25,2.32-4.39,3.37-6.63c0.69-1.48,1.12-3.07,1.76-4.58
		c0.36-0.84,0.98-1.58,1.35-2.42c1.24-2.86,2.11-5.93,3.68-8.59c2.13-3.59,3.28-7.58,5.17-11.23c1.82-3.51,3.35-7.13,4.88-10.76
		c1.36-3.23,3.11-6.3,4.59-9.48c1.08-2.31,1.8-4.8,3.06-7c1.27-2.23,1.81-4.74,3.35-6.89c1.29-1.8,1.81-4.13,2.74-6.2
		c0.73-1.63,1.12-3.41,2.35-4.84c0.62-0.73,0.84-1.81,1.24-2.73c1.86-4.3,3.68-8.62,5.6-12.89c1.29-2.88,2.75-5.68,4.1-8.53
		c0.67-1.42,1.23-2.89,1.9-4.3c1.09-2.3,2.24-4.57,3.33-6.86c0.47-0.98,0.86-2,1.3-2.99
		C1295.35,309.44,1296.01,308.02,1296.69,306.51z"/>
	<path class="st0" d="M1546.38,493.05c-0.95,0-1.65,0-2.35,0c-25.6,0-51.19,0-76.79,0c-2.27,0-2.9-0.37-2.76-2.54
		c0.23-3.68-1.08-7.08-1.7-10.58c-0.55-3.11-2.1-6.05-3.23-9.06c-0.41-1.1-0.8-2.22-1.33-3.26c-1.78-3.45-3.5-6.93-5.47-10.26
		c-1.44-2.43-3.06-4.8-4.92-6.91c-2.54-2.87-5.43-5.43-8.08-8.21c-2.95-3.08-6.56-5.35-9.8-8.06c-1.3-1.09-2.89-1.84-4.38-2.68
		c-2.19-1.24-4.4-2.45-6.64-3.6c-0.75-0.39-1.65-0.49-2.42-0.86c-2.85-1.37-5.62-2.86-8.8-3.48c-2.06-0.4-4.03-1.29-6.05-1.9
		c-0.68-0.21-1.4-0.28-2.11-0.36c-1.26-0.14-2.51-0.07-3.63-0.97c-0.49-0.39-1.36-0.36-2.07-0.41c-1.91-0.14-3.84-0.17-5.75-0.33
		c-2.26-0.18-2.91-0.91-2.97-3.16c-0.01-0.48,0-0.96,0-1.44c0-34.8,0.01-69.6-0.01-104.4c0-4.82,0.16-4.19,4.17-4.19
		c22.88-0.01,45.75,0,68.63,0c0.48,0,0.96,0.01,1.44-0.01c1.11-0.04,1.73,0.59,2.17,1.53c0.76,1.61,1.59,3.19,2.33,4.8
		c0.94,2.05,1.81,4.15,2.75,6.2c1.17,2.55,2.41,5.07,3.57,7.63c1.05,2.31,1.98,4.66,3.06,6.96c1.05,2.25,2.28,4.43,3.32,6.69
		c1.01,2.19,1.86,4.46,2.85,6.67c0.63,1.4,1.41,2.73,2.07,4.11c0.37,0.78,0.6,1.62,0.96,2.4c1,2.2,2.04,4.4,3.06,6.59
		c1.1,2.37,2.22,4.72,3.29,7.1c0.71,1.57,1.33,3.18,2.04,4.75c0.47,1.06,1.06,2.06,1.53,3.12c1.16,2.62,1.99,5.45,3.49,7.86
		c1.89,3.03,2.88,6.4,4.45,9.54c1.97,3.95,3.65,8.04,5.5,12.05c1.04,2.25,2.23,4.44,3.25,6.69c1.54,3.39,2.96,6.83,4.51,10.21
		c0.61,1.33,1.47,2.53,2.16,3.82c0.47,0.88,0.85,1.82,1.24,2.74c0.92,2.16,1.8,4.34,2.72,6.49c0.52,1.21,1.13,2.39,1.66,3.6
		c1.2,2.7,2.36,5.42,3.59,8.1c0.94,2.04,1.99,4.02,2.94,6.05c0.66,1.41,1.32,2.84,1.83,4.31c0.46,1.32,1.42,2.31,1.86,3.7
		c0.77,2.43,2.13,4.67,3.25,6.99c1.18,2.43,2.39,4.85,3.55,7.3c0.4,0.84,0.65,1.74,1.03,2.58c1.38,3.05,2.74,6.12,4.2,9.13
		c0.8,1.65,1.12,3.54,2.48,4.95C1546.42,491.38,1546.27,492.19,1546.38,493.05z"/>
	<path class="st0" d="M1452.82,492.89c-1.05,0.07-1.75,0.15-2.46,0.16c-20.86,0.01-41.72,0-62.59,0c-2,0-2.51-0.46-2.65-2.48
		c-0.03-0.48-0.02-0.96-0.02-1.44c0-18.31,0-36.61,0.01-54.92c0-0.95,0.02-1.94,0.28-2.84c0.4-1.38,1.11-1.79,2.34-1.11
		c1.86,1.02,3.84,0.92,5.8,1.15c1.09,0.13,2.15,0.47,3.21,0.73c0.46,0.11,0.9,0.36,1.36,0.39c3.51,0.23,6.87,1.46,9.92,2.86
		c2.96,1.36,6.07,2.52,8.91,4.27c2.79,1.72,5.59,3.43,8.27,5.31c5.61,3.96,10.52,8.7,14.58,14.21c2.42,3.29,4.58,6.81,6.52,10.4
		c1.54,2.86,2.72,5.93,3.79,9.01c0.72,2.06,0.97,4.29,1.43,6.44c0.15,0.7,0.07,1.54,0.44,2.08
		C1453.2,488.88,1452.78,490.77,1452.82,492.89z"/>
	<path class="st0" d="M1373.07,493.04c-1.08,0-1.87,0-2.65,0c-20.71,0-41.42,0-62.13,0c-0.48,0-0.98,0.07-1.43-0.05
		c-0.95-0.24-1.36-1.07-1.06-2.04c0.16-0.52,0.55-1.04,0.53-1.55c-0.15-3.18,0.97-6.14,1.76-9.1c0.75-2.81,1.58-5.67,3.22-8.23
		c1.51-2.35,2.37-5.11,3.85-7.48c1.5-2.4,3.06-4.78,4.99-6.93c2.01-2.24,3.84-4.61,6.19-6.54c1.52-1.24,2.77-2.81,4.32-4.01
		c3.04-2.35,6.08-4.74,9.35-6.72c2.67-1.62,5.68-2.66,8.55-3.96c1.63-0.73,3.24-1.51,4.9-2.16c1.3-0.52,2.65-0.96,4.01-1.31
		c2.22-0.57,4.45-1.15,6.71-1.5c2.26-0.35,4.62,0.01,6.74-1.27c0.47-0.28,1.23-0.09,2.11-0.13c0.09,0.98,0.23,1.82,0.23,2.66
		c0.01,19.27,0.01,38.54,0,57.82C1373.26,491.26,1373.16,491.96,1373.07,493.04z"/>
	<path class="st0" d="M1385.26,565.88c0-20.34,0-40.62,0-60.98c0.65-0.16,1.18-0.4,1.72-0.4c21.88-0.02,43.76-0.02,65.79-0.02
		c0.09,2.13,0.38,3.92-0.79,5.56c-0.26,0.36-0.32,0.9-0.37,1.37c-0.38,3.98-1.9,7.59-3.25,11.3c-1.48,4.07-3.57,7.85-5.88,11.38
		c-1.72,2.63-3.57,5.32-5.89,7.64c-2.53,2.52-4.95,5.19-7.68,7.48c-2.87,2.4-5.82,4.88-9.12,6.56c-2.89,1.47-5.5,3.49-8.71,4.47
		c-2.12,0.65-4.36,1.36-6.24,2.4c-2.01,1.1-4.36,0.77-6.17,2.12c-4.17,0.46-8.21,1.93-12.48,1.51
		C1385.96,566.26,1385.74,566.1,1385.26,565.88z"/>
	<path class="st0" d="M1305.8,504.88c0.68-0.11,1.52-0.36,2.35-0.36c20.95-0.02,41.9-0.02,62.84-0.01c0.63,0,1.26,0.08,1.87,0.12
		c0.49,1.77,0.65,57.85,0.17,61.6c-2.48,0.14-4.97,0.2-7.45-0.49c-0.46-0.13-0.9-0.33-1.36-0.42c-2.63-0.53-5.31-0.88-7.89-1.62
		c-1.48-0.42-2.89-1.15-4.39-1.64c-2.4-0.78-4.58-2.26-7-2.94c-1.57-0.45-2.6-1.58-4.02-2.18c-2.02-0.86-3.86-2.17-5.71-3.38
		c-1.01-0.66-1.81-1.63-2.82-2.27c-3.3-2.08-6-4.86-8.62-7.66c-2.72-2.91-5.41-5.89-7.33-9.46c-0.83-1.54-1.94-2.93-2.87-4.42
		c-0.57-0.91-1.16-1.83-1.53-2.83c-1.05-2.83-2.77-5.37-3.29-8.44c-0.35-2.08-1.23-4.07-1.87-6.11c-0.07-0.23-0.16-0.46-0.19-0.69
		C1306.41,509.49,1306.12,507.31,1305.8,504.88z"/>
	<path class="st1" d="M2183.28,599.06c0-1.12,0-2,0-2.87c0-65.51,0-131.02,0-196.52c0-0.32-0.01-0.64,0-0.96
		c0.09-2.2,0.33-2.42,2.56-2.42c21.67,0.01,43.35-0.09,65.02,0.07c8.37,0.06,16.74,0.62,25.11,1.11c3.66,0.22,7.42,0.4,10.89,1.42
		c3,0.88,6.25,0.13,9.06,1.81c0.62,0.37,1.58,0.11,2.35,0.29c0.89,0.21,1.75,0.57,2.62,0.88c0.29,0.11,0.55,0.33,0.85,0.4
		c1.99,0.45,4.01,0.81,5.98,1.33c1.82,0.48,3.63,1.02,5.38,1.71c2.8,1.1,5.58,2.26,8.29,3.55c2.5,1.19,4.93,2.56,7.35,3.91
		c1.4,0.78,2.79,1.61,4.08,2.56c2.64,1.97,5.32,3.91,7.79,6.09c2.84,2.5,5.63,5.1,8.13,7.92c2.35,2.65,4.25,5.68,6.43,8.48
		c2.1,2.71,3.44,5.83,5.17,8.74c1.5,2.52,2.65,5.1,3.71,7.8c0.67,1.73,1.65,3.33,2.36,5.04c0.45,1.08,0.71,2.25,1,3.39
		c0.58,2.22,0.93,4.52,1.72,6.66c1.09,2.91,0.44,6.18,2.06,8.97c0.33,0.56,0.2,1.4,0.26,2.12c0.29,3.34,0.57,6.68,0.87,10.02
		c0.4,4.47,0.45,8.93-0.18,13.4c-0.32,2.29-0.41,4.61-0.59,6.92c-0.16,1.96,0.16,4.01-1.12,5.76c-0.13,0.18-0.14,0.46-0.18,0.69
		c-0.44,2.74-0.75,5.5-1.33,8.2c-0.5,2.3-1.3,4.53-1.98,6.8c-0.6,2-1.13,4.04-1.85,6c-0.95,2.58-2,5.12-3.11,7.63
		c-0.97,2.18-1.99,4.35-3.14,6.44c-1,1.81-1.75,3.74-3.21,5.35c-1.27,1.4-1.9,3.37-3.05,4.91c-1.89,2.53-3.97,4.92-5.99,7.35
		c-0.49,0.59-1.13,1.07-1.59,1.67c-1.89,2.49-4.43,4.28-6.81,6.24c-1.55,1.27-3.26,2.34-4.89,3.51c-2.89,2.08-6.08,3.57-9.32,5.01
		c-1.54,0.68-2.97,1.6-4.5,2.3c-1.14,0.52-2.35,0.88-3.56,1.24c-1.95,0.57-3.93,1.07-5.89,1.63c-0.51,0.15-0.99,0.4-1.48,0.64
		c-0.35,0.17-0.66,0.48-1.02,0.56c-2.32,0.48-4.66,0.88-6.99,1.35c-3.18,0.65-6.34,1.4-9.53,2c-1.41,0.26-2.87,0.17-4.29,0.38
		c-1.56,0.23-3.1,0.64-4.65,0.94c-0.86,0.16-1.72,0.28-2.59,0.36c-4.46,0.36-8.91,0.7-13.37,1.04c-1.27,0.1-2.55,0.22-3.83,0.23
		c-25.75,0.05-51.51,0.08-77.26,0.1C2184.59,599.19,2184.12,599.12,2183.28,599.06z"/>
	<path class="st0" d="M2545.32,397.22c-2.08,0-4.16,0.02-6.23-0.01c-1.2-0.01-2.35-0.11-3.39-0.91c-0.46-0.35-1.22-0.28-1.81-0.49
		c-1.67-0.6-3.34-1.22-4.99-1.89c-1-0.4-1.96-0.9-2.93-1.37c-2.83-1.4-5.34-3.27-7.66-5.39c-2.9-2.64-5.41-5.7-7.39-9.03
		c-1.28-2.15-2.4-4.49-3.21-6.97c-0.61-1.85-1.15-3.71-1.69-5.58c-0.93-3.22-1.08-14.48,0.04-17.73c0.08-0.22,0.16-0.46,0.17-0.69
		c0.09-2.85,1.59-5.2,2.57-7.75c0.74-1.93,1.65-3.71,2.78-5.4c2.4-3.6,4.98-7.03,8.49-9.67c2.41-1.81,4.88-3.5,7.62-4.78
		c3.09-1.44,6.18-2.67,9.62-3.33c3.41-0.65,6.76-1.05,10.19-0.93c1.34,0.05,2.67,0.38,4,0.61c0.63,0.11,1.23,0.4,1.86,0.45
		c2.75,0.24,5.22,1.05,7.72,2.36c1.73,0.91,3.61,1.7,5.33,2.7c3.18,1.84,5.81,4.35,8.4,6.98c2.31,2.36,3.88,5.18,5.86,7.73
		c0.57,0.73,1.06,1.59,1.33,2.47c1.1,3.52,2.27,6.99,2.99,10.66c0.66,3.32,1.12,6.55,0.96,9.89c-0.05,1-0.45,1.98-0.66,2.97
		c-0.2,0.93-0.35,1.88-0.55,2.81c-0.44,2.08-0.63,4.26-1.41,6.2c-2.2,5.42-5.31,10.27-9.37,14.55c-2.93,3.09-6.43,5.38-10.01,7.42
		c-2.44,1.39-5.18,2.62-8.16,2.82C2552.52,398.01,2548.83,397.05,2545.32,397.22z M2536.5,363.17c2.52,0,4.65-0.02,6.79,0.02
		c0.34,0.01,0.78,0.22,0.99,0.49c0.99,1.28,1.98,2.57,2.86,3.93c1.34,2.08,2.5,4.28,3.89,6.33c1.94,2.87,4.26,5.51,5.95,8.51
		c1.08,1.92,2.36,2.48,4.32,2.49c2.68,0.01,5.38-0.37,7.9,0.41c1.19-1.1,0.57-2.09,0.02-2.92c-1.74-2.62-3.63-5.15-5.38-7.77
		c-1.58-2.36-3.02-4.81-4.61-7.17c-1.03-1.53-2.46-2.83-3.23-4.47c-0.52-1.1-2.43-1.61-1.63-3.21c1.67-0.69,3.52-1.01,4.75-2.07
		c2.3-1.96,4.86-3.72,5.95-6.89c0.86-2.48,1.22-5.02,1.74-7.54c0.1-0.49-0.23-1.07-0.37-1.61c-0.18-0.69-0.45-1.36-0.53-2.06
		c-0.14-1.27-0.62-2.34-1.16-3.51c-2.02-4.37-5.72-6.08-10.01-7.08c-0.39-0.09-0.9-0.03-1.15-0.26c-1.26-1.16-2.82-1.03-4.32-1.05
		c-7.2-0.06-14.39-0.08-21.59-0.09c-0.62,0-1.24,0.15-1.97,0.25c0,18.95,0,37.78,0,56.9c0.98,0.06,1.88,0.15,2.77,0.16
		c1.68,0.02,3.36-0.13,5.03,0c2.46,0.2,2.98-0.15,2.98-2.56c0.01-5.44,0-10.88,0-16.31C2536.5,365.23,2536.5,364.36,2536.5,363.17z"
		/>
	<path class="st0" d="M2536.5,363.17c0,1.19,0,2.06,0,2.93c0,5.44,0.01,10.88,0,16.31c-0.01,2.41-0.52,2.75-2.98,2.56
		c-1.67-0.13-3.35,0.02-5.03,0c-0.89-0.01-1.79-0.1-2.77-0.16c0-19.12,0-37.95,0-56.9c0.74-0.1,1.36-0.25,1.97-0.25
		c7.2,0.01,14.39,0.03,21.59,0.09c1.5,0.01,3.05-0.11,4.32,1.05c0.25,0.23,0.77,0.17,1.15,0.26c4.29,1,8,2.7,10.01,7.08
		c0.54,1.17,1.02,2.24,1.16,3.51c0.08,0.7,0.35,1.37,0.53,2.06c0.14,0.54,0.47,1.12,0.37,1.61c-0.52,2.52-0.88,5.06-1.74,7.54
		c-1.1,3.17-3.66,4.93-5.95,6.89c-1.23,1.05-3.09,1.37-4.75,2.07c-0.81,1.6,1.11,2.11,1.63,3.21c0.77,1.63,2.2,2.94,3.23,4.47
		c1.59,2.36,3.03,4.81,4.61,7.17c1.75,2.62,3.64,5.15,5.38,7.77c0.55,0.83,1.17,1.83-0.02,2.92c-2.52-0.78-5.22-0.39-7.9-0.41
		c-1.96-0.01-3.24-0.56-4.32-2.49c-1.69-3-4.01-5.64-5.95-8.51c-1.39-2.05-2.55-4.25-3.89-6.33c-0.88-1.36-1.86-2.65-2.86-3.93
		c-0.21-0.27-0.65-0.48-0.99-0.49C2541.15,363.15,2539.02,363.17,2536.5,363.17z M2536.5,345.57c0,2.47-0.04,4.94,0.01,7.42
		c0.04,2.03,0.56,2.38,2.47,2.02c0.93-0.17,1.89-0.24,2.84-0.29c2.39-0.11,4.78-0.21,7.17-0.27c1.68-0.04,3.17-0.88,4.21-1.88
		c1.67-1.6,2.93-3.65,2.64-6.24c-0.12-1.1-0.12-2.24-0.04-3.34c0.14-1.94-0.98-3.35-2.09-4.62c-0.7-0.81-1.89-1.41-2.97-1.64
		c-3.9-0.86-7.89-0.98-11.88-0.89c-2.08,0.05-2.32,0.21-2.36,2.33C2536.47,340.63,2536.5,343.1,2536.5,345.57z"/>
	<path class="st0" d="M2536.5,345.57c0-2.47-0.03-4.94,0.01-7.42c0.03-2.12,0.27-2.28,2.36-2.33c3.99-0.09,7.98,0.03,11.88,0.89
		c1.07,0.24,2.26,0.84,2.97,1.64c1.11,1.28,2.23,2.68,2.09,4.62c-0.08,1.11-0.08,2.24,0.04,3.34c0.29,2.59-0.97,4.64-2.64,6.24
		c-1.04,1-2.53,1.84-4.21,1.88c-2.39,0.06-4.78,0.16-7.17,0.27c-0.95,0.05-1.91,0.11-2.84,0.29c-1.92,0.35-2.43,0.01-2.47-2.02
		C2536.46,350.52,2536.5,348.04,2536.5,345.57z"/>
</g>
</svg>
