<?xml version="1.0" encoding="utf-8"?>
<!-- Generator: Adobe Illustrator 24.0.0, SVG Export Plug-In . SVG Version: 6.00 Build 0)  -->
<svg version="1.1" id="Layer_1" xmlns="http://www.w3.org/2000/svg" xmlns:xlink="http://www.w3.org/1999/xlink" x="0px" y="0px"
	 viewBox="0 0 2761 991" style="enable-background:new 0 0 2761 991;" xml:space="preserve">
<style type="text/css">
	.st0{fill:#1B2A4E;}
	.st1{fill:none;}
</style>
<path class="st0" d="M1224.22,664.97c-194.63,0-389.25,0.02-583.88-0.03c-20.06-0.01-34.65-9.31-43.7-27.18
	c-3.5-6.92-4.46-14.4-4.45-22.1c0.05-46.96,0.03-93.92,0.03-140.88c0-93.92,0.05-187.84-0.05-281.76
	c-0.01-13.69,3.97-25.63,13.63-35.42c9.42-9.54,21-14.13,34.39-14.13c150.47,0,300.94,0,451.41,0c238.96,0,477.92,0,716.88,0
	c22.95,0,41.73,14.9,46.74,37.27c0.84,3.75,1.06,7.71,1.06,11.57c0.05,141.33-0.05,282.66,0.13,424
	c0.03,24.64-16.88,43.76-38.08,47.78c-2.39,0.45-4.83,0.65-7.25,0.84c-1.62,0.13-3.26,0.04-4.88,0.04
	C1612.21,664.97,1418.21,664.97,1224.22,664.97z M880.06,550c0-38.15,0-76.17,0-114.25c27.54,0,54.63,0,82.2,0
	c0,38.19,0,76.19,0,114.21c46.86,0,93.23,0,139.98,0c0-1.31,0-2.46,0-3.6c0-89.3,0-178.6,0-267.91c0-3.84,0-3.84-3.81-3.84
	c-44.06,0-88.13,0-132.19,0c-4.11,0-4.11,0-4.11,4.12c0,35.47,0,70.93-0.01,106.4c0,1.3-0.16,2.6-0.25,3.84
	c-27.39,0-54.41,0-81.79,0c0-1.4,0-2.64,0-3.88c0-35.56,0-71.12,0-106.67c0-3.8-0.01-3.81-3.89-3.81
	c-44.24,0-88.49,0.02-132.73-0.06c-2.73-0.01-3.53,0.7-3.52,3.47c0.07,89.57,0.06,179.15,0.06,268.72c0,1.05,0.11,2.1,0.18,3.25
	C786.84,550,833.22,550,880.06,550z M1374.61,412.28c0,44.7,0,89.4,0,134.1c0,3.76,0.01,3.76,3.86,3.76
	c78.09,0,156.17,0,234.26-0.01c1.35,0,2.74,0.05,4.05-0.22c23.28-4.8,44.9-13.58,64.35-27.37c22.49-15.94,38.34-36.78,46.42-63.31
	c3.26-10.7,4.71-21.7,5.32-32.81c0.69-12.65,0.85-25.33-1.73-37.83c-3.3-16.01-9.97-30.72-18.18-44.72
	c-14.65-25-34.1-45.07-60.61-57.6c-14.09-6.66-28.92-11.45-44.52-11.51c-76.46-0.3-152.92-0.13-229.37-0.13
	c-3.84,0-3.84,0-3.84,3.84C1374.61,323.06,1374.61,367.67,1374.61,412.28z M1308.16,550.01c0.08-1.07,0.21-2.04,0.21-3.01
	c0.01-89.75,0-179.49,0.05-269.24c0-2.48-0.73-3.21-3.23-3.2c-44.6,0.07-89.2,0.07-133.8,0c-2.58,0-3.15,0.84-3.15,3.25
	c0.05,89.75,0.04,179.49,0.05,269.24c0,0.96,0.11,1.91,0.17,2.96C1215.13,550.01,1261.52,550.01,1308.16,550.01z"/>
<path class="st0" d="M1826.8,805.15c0-21.48,0-42.96,0-64.68c6.19,0,12.17,0,18.3,0c0,31.28,0,62.44,0,94.06
	c-3.33,0-6.63,0.03-9.93-0.01c-3.24-0.04-7.07,0.88-9.55-0.53c-2.38-1.35-3.39-5.14-4.96-7.88c-10.64-18.59-21.26-37.18-31.89-55.77
	c-0.49-0.86-1.01-1.7-1.94-3.25c0,22.88,0,45.02,0,67.3c-6.28,0-12.21,0-18.32,0c0-31.29,0-62.53,0-94.15
	c4.69,0,9.41,0.38,14.04-0.1c4.99-0.51,7.59,1.28,10.03,5.72c10.46,19.1,21.4,37.93,32.16,56.86c0.48,0.85,0.98,1.7,1.48,2.55
	C1826.41,805.22,1826.6,805.19,1826.8,805.15z"/>
<path class="st0" d="M1372.64,797.96c0,6.13,0,12.18,0,18.22c0,5.97,0,11.93,0,18.12c-6.39,0-12.65,0-19.08,0
	c0-31.26,0-62.5,0-93.77c0.28-0.11,0.52-0.3,0.76-0.29c17.27,0.08,34.56-0.36,51.8,0.42c18.35,0.84,29.61,19.27,22.9,36.22
	c-2.24,5.65-5.39,8.89-12.6,12.59c0.56,0.21,0.89,0.34,1.23,0.47c7.21,2.83,9.77,8.74,10.18,15.86c0.35,6.14,0.34,12.29,0.6,18.43
	c0.12,2.89,0.32,5.81,3.3,7.58c0.53,0.31,0.55,1.5,0.88,2.55c-7.5,0-14.61,0-22.25,0c-0.49-3.16-1.23-6.4-1.46-9.68
	c-0.37-5.23-0.34-10.48-0.59-15.72c-0.34-7.17-3.06-10.51-10.13-10.9C1389.83,797.61,1381.43,797.96,1372.64,797.96z
	 M1372.76,781.45c0.66,0.09,1.09,0.2,1.52,0.2c8.49-0.08,17,0.08,25.48-0.34c9.46-0.48,12.69-7,10.94-16.05
	c-1-5.17-4.95-8.26-10.86-8.45c-8.67-0.28-17.35-0.14-26.03-0.16c-0.32,0-0.65,0.21-1.04,0.34
	C1372.76,765.1,1372.76,773.13,1372.76,781.45z"/>
<path class="st0" d="M1127.89,789.15c0.2,0.33,0.26,0.57,0.38,0.62c8.1,3.08,10.34,9.79,10.72,17.53c0.3,6.05,0.34,12.11,0.56,18.16
	c0.09,2.5,0.67,4.79,3.07,6.29c0.59,0.37,0.66,1.58,1.07,2.65c-7.63,0-14.75,0-22.51,0c-0.53-4.62-1.2-9.24-1.57-13.88
	c-0.36-4.59-0.17-9.23-0.65-13.8c-0.55-5.22-3.13-8.22-8.27-8.47c-8.9-0.43-17.83-0.12-27.02-0.12c0,11.81,0,23.88,0,36.18
	c-6.43,0-12.62,0-19.03,0c0-31.18,0-62.41,0-93.76c0.28-0.1,0.6-0.32,0.91-0.32c17.27,0.09,34.57-0.37,51.8,0.46
	c18.1,0.88,29.22,19.09,22.78,35.91C1137.87,782.54,1133.75,786.7,1127.89,789.15z M1083.75,781.16c9.76,0,19.31,0.16,28.86-0.09
	c2.98-0.08,5.72-1.61,7.56-4.25c5.75-8.25,0.74-19.28-9.23-20.01c-4.86-0.35-9.76-0.18-14.64-0.21c-4.13-0.03-8.27-0.01-12.55-0.01
	C1083.75,765,1083.75,773.1,1083.75,781.16z"/>
<path class="st0" d="M730.36,834.41c0-31.5,0-62.68,0-93.92c0.46-0.1,0.8-0.23,1.15-0.23c14.38,0.02,28.78-0.36,43.15,0.19
	c17.09,0.65,28.24,9.53,33.03,25.98c4.6,15.81,3.73,31.55-3.02,46.64c-6.29,14.08-17.41,21.32-32.91,21.44
	c-13.12,0.1-26.24,0.03-39.36,0.02C731.78,834.53,731.16,834.46,730.36,834.41z M749.53,818.19c6.47,0,12.71-0.03,18.94,0.01
	c8.06,0.05,14.07-3.58,17.4-10.74c6.05-13,6.09-26.46,1.16-39.78c-2.54-6.87-8.1-10.47-15.46-10.91c-3.97-0.23-7.95-0.15-11.93-0.18
	c-3.32-0.02-6.64-0.01-10.12-0.01C749.53,777.23,749.53,797.53,749.53,818.19z"/>
<path class="st0" d="M1336.53,787.52c-0.26,7.61-1.22,15.02-3.88,22.14c-4.51,12.1-12.93,20.29-25.13,24.49
	c-11.35,3.91-22.76,3.84-34.02-0.29c-13.38-4.89-21.87-14.46-25.57-28.11c-3.39-12.48-3.43-25.09,0.25-37.5
	c5.25-17.71,17.74-27.04,35.59-29.85c8.22-1.3,16.27-0.39,24.06,2.37c15.52,5.5,24.1,16.94,27.12,32.77
	C1335.82,778.13,1336.02,782.85,1336.53,787.52z M1265.25,787.39c0.06,6.18,0.72,12.27,3.22,18.01c4.08,9.4,12.52,15.07,22.6,14.83
	c10.47-0.26,18.3-5.09,22.2-14.9c4.76-11.98,4.78-24.29-0.16-36.2c-3.97-9.58-11.65-14.56-22.1-14.58
	c-10.41-0.02-17.87,4.92-22.29,14.36C1265.97,774.75,1265.33,781.02,1265.25,787.39z"/>
<path class="st0" d="M1751.94,787.33c0.17,7.75-0.79,15.33-3.56,22.61c-4.51,11.89-12.8,19.93-24.78,24.13
	c-11.44,4.01-22.92,3.91-34.27-0.23c-12.76-4.64-21.16-13.65-25.07-26.59c-3.83-12.67-3.95-25.55-0.41-38.28
	c4.97-17.88,17.35-27.53,35.3-30.52c8.38-1.4,16.63-0.55,24.59,2.32c16.99,6.11,25.23,19.03,27.68,36.28
	c0.23,1.61,0.42,3.23,0.5,4.86C1752,783.71,1751.94,785.52,1751.94,787.33z M1681.22,787.26c-0.03,6.47,0.68,12.83,3.47,18.76
	c4.4,9.37,11.97,14.16,22.18,14.16c10.1,0,17.93-4.63,21.95-14.01c5.32-12.43,5.33-25.26-0.07-37.67
	c-4.05-9.32-11.76-14-21.95-13.97c-10.3,0.03-17.72,4.92-22.11,14.24C1681.94,774.62,1681.2,780.88,1681.22,787.26z"/>
<path class="st0" d="M1047.81,787.56c-0.96,6.05-1.4,12.25-2.97,18.13c-4.75,17.73-18.75,29.11-37.06,30.95
	c-7.69,0.77-15.18,0.04-22.46-2.48c-13.88-4.82-22.66-14.52-26.45-28.6c-3.17-11.74-3.21-23.63-0.23-35.43
	c4.03-15.93,14.05-26.16,29.92-30.49c11.2-3.05,22.28-2.38,32.94,2.17c16.09,6.87,23.24,20.08,25.21,36.72
	c0.35,2.96,0.45,5.95,0.66,8.92C1047.52,787.5,1047.66,787.53,1047.81,787.56z M976.19,787.42c0.15,6.59,0.84,13.05,3.76,19.03
	c4.44,9.1,11.93,13.73,21.91,13.74c9.99,0.02,17.82-4.46,21.89-13.7c5.54-12.58,5.53-25.59,0-38.17
	c-4.04-9.19-11.74-13.78-21.81-13.79c-10.19-0.01-17.57,4.77-22.03,13.93C976.99,774.45,976.34,780.91,976.19,787.42z"/>
<path class="st0" d="M652.03,834.32c0-13.97,0-27.79,0-41.84c-12.31,0-24.46,0-36.91,0c0,13.87,0,27.74,0,41.83c-6.65,0-13,0-19.5,0
	c0-31.3,0-62.54,0-93.93c6.44,0,12.73,0,19.33,0c0,11.84,0,23.54,0,35.41c12.46,0,24.61,0,37.04,0c0-11.84,0-23.55,0-35.39
	c6.66,0,13.03,0,19.52,0c0,31.35,0,62.53,0,93.92C665.12,834.32,658.76,834.32,652.03,834.32z"/>
<path class="st0" d="M1531.95,834.53c-6.78,0-13.38,0.06-19.97-0.09c-0.68-0.02-1.68-1.14-1.95-1.94c-1.66-4.97-3.2-9.98-4.67-15
	c-0.47-1.61-1.16-2.33-2.98-2.31c-10.13,0.09-20.27,0.08-30.4,0.01c-1.75-0.01-2.51,0.57-3.04,2.25c-1.6,5.08-3.36,10.11-5.17,15.12
	c-0.28,0.77-1.14,1.87-1.76,1.88c-6.41,0.14-12.82,0.08-19.56,0.08c2.59-7.24,5.08-14.2,7.56-21.16
	c8.37-23.48,16.76-46.95,25.04-70.46c0.72-2.05,1.61-2.8,3.83-2.74c5.88,0.17,11.76,0.11,17.64,0.03c1.67-0.02,2.52,0.39,3.13,2.12
	c10.52,30,21.13,59.97,31.7,89.94C1531.58,832.93,1531.71,833.62,1531.95,834.53z M1487.22,761.21
	c-4.2,12.88-8.17,25.07-12.18,37.34c8.18,0,15.97,0,23.98,0C1495.11,786.17,1491.28,774.07,1487.22,761.21z"/>
<path class="st0" d="M924.71,802.49c6.58,0,12.97,0,19.38,0c-2.53,16.37-13.45,30.34-31.03,33.59c-6.84,1.27-13.69,1.31-20.47-0.26
	c-15.01-3.46-24.61-12.95-29.18-27.38c-4.31-13.61-4.38-27.46-0.17-41.14c6.61-21.51,24.82-31.12,45.37-29.25
	c11.98,1.09,22.18,5.67,29.36,15.74c3.57,5.02,5.81,10.57,6.33,16.95c-0.69,0.11-1.27,0.29-1.86,0.3
	c-5.25,0.02-10.49-0.02-15.74,0.04c-1.31,0.01-2.2-0.19-2.59-1.67c-2.36-8.97-8.64-14.18-19.45-14.43
	c-9.16-0.21-17,4.32-20.58,13.15c-5.28,13.04-5.36,26.38,0.36,39.3c4.82,10.89,16.39,15.24,27.55,11.02
	c5.71-2.16,9.32-6.36,11.44-11.95C923.9,805.26,924.25,803.94,924.71,802.49z"/>
<path class="st0" d="M1180.36,800.57c0,11.49,0,22.51,0,33.74c-6.52,0-12.89,0-19.49,0c0-31.15,0-62.38,0-93.93
	c0.9-0.05,1.85-0.14,2.8-0.14c13.03-0.01,26.06-0.19,39.08,0.1c4.54,0.1,9.3,0.69,13.52,2.25c10.77,3.99,15.45,12.76,16.62,23.68
	c0.71,6.61-0.37,12.99-3.37,18.97c-4.6,9.19-12.18,14.27-22.31,14.96c-7.75,0.53-15.55,0.28-23.32,0.37
	C1182.82,800.58,1181.75,800.57,1180.36,800.57z M1180.41,784.22c6.64,0,13.04,0.27,19.41-0.06c9.71-0.5,13.68-5.02,13.59-14.75
	c-0.07-7.15-2.96-11.26-10.13-12.06c-7.4-0.82-14.93-0.45-22.41-0.59c-0.13,0-0.26,0.21-0.47,0.4
	C1180.41,766.01,1180.41,774.94,1180.41,784.22z"/>
<path class="st0" d="M1614.55,740.42c0,5.55,0,10.86,0,16.42c-9.39,0-18.67,0-28.34,0c0,25.95,0,51.66,0,77.53
	c-6.75,0-13.12,0-19.77,0c0-25.8,0-51.45,0-77.37c-9.55,0-18.83,0-28.3,0c0-5.65,0-11.02,0-16.58
	C1563.56,740.42,1588.93,740.42,1614.55,740.42z"/>
<path class="st0" d="M690.96,740.38c6.6,0,12.9,0,19.38,0c0,31.37,0,62.59,0,93.98c-6.46,0-12.83,0-19.38,0
	C690.96,803.08,690.96,771.85,690.96,740.38z"/>
<path class="st0" d="M1645.67,834.42c-6.45,0-12.76,0-19.25,0c0-31.35,0-62.59,0-94.01c6.42,0,12.71,0,19.25,0
	C1645.67,771.66,1645.67,802.88,1645.67,834.42z"/>
<path class="st1" d="M880.06,550c-46.83,0-93.22,0-139.9,0c-0.07-1.15-0.18-2.2-0.18-3.25c-0.01-89.57,0-179.15-0.06-268.72
	c0-2.77,0.8-3.48,3.52-3.47c44.24,0.08,88.49,0.06,132.73,0.06c3.88,0,3.89,0,3.89,3.81c0,35.56,0,71.12,0,106.67
	c0,1.24,0,2.48,0,3.88c27.38,0,54.4,0,81.79,0c0.08-1.23,0.25-2.53,0.25-3.84c0.01-35.47,0.01-70.93,0.01-106.4
	c0-4.12,0.01-4.12,4.11-4.12c44.06,0,88.13,0,132.19,0c3.81,0,3.81,0,3.81,3.84c0,89.3,0,178.6,0,267.91c0,1.15,0,2.29,0,3.6
	c-46.74,0-93.12,0-139.98,0c0-38.02,0-76.03,0-114.21c-27.57,0-54.66,0-82.2,0C880.06,473.83,880.06,511.85,880.06,550z"/>
<path class="st1" d="M1374.61,412.28c0-44.61,0-89.22,0-133.82c0-3.84,0.01-3.84,3.84-3.84c76.46,0,152.92-0.16,229.37,0.13
	c15.6,0.06,30.43,4.86,44.52,11.51c26.51,12.53,45.96,32.6,60.61,57.6c8.21,14.01,14.88,28.71,18.18,44.72
	c2.58,12.5,2.42,25.18,1.73,37.83c-0.6,11.11-2.06,22.11-5.32,32.81c-8.08,26.53-23.94,47.37-46.42,63.31
	c-19.45,13.79-41.06,22.57-64.35,27.37c-1.31,0.27-2.7,0.22-4.05,0.22c-78.09,0.01-156.17,0.01-234.26,0.01
	c-3.85,0-3.86,0-3.86-3.76C1374.61,501.68,1374.61,456.98,1374.61,412.28z M1514.74,517.1c0.97,0.17,1.49,0.3,2.03,0.34
	c10.58,0.82,21.11,0.33,31.64-1c6.88-0.87,13.36-2.65,18.3-7.8c2.74-2.85,5.38-5.9,7.5-9.23c7.38-11.57,11.23-24.51,12.46-37.99
	c1.51-16.45,2.28-32.99,2.87-49.51c0.68-19.17-0.06-38.34-2.84-57.34c-3.47-23.69-21.82-39.11-40.75-44.9
	c-8.94-2.73-18.35-2.85-27.67-2.78c-3.52,0.03-3.53,0.03-3.53,3.58c0,67.74,0,135.48,0,203.22
	C1514.74,514.76,1514.74,515.83,1514.74,517.1z"/>
<path class="st1" d="M1308.16,550.01c-46.64,0-93.02,0-139.71,0c-0.06-1.05-0.17-2-0.17-2.96c-0.01-89.75,0-179.49-0.05-269.24
	c0-2.42,0.57-3.26,3.15-3.25c44.6,0.08,89.2,0.08,133.8,0c2.51,0,3.23,0.73,3.23,3.2c-0.05,89.75-0.04,179.49-0.05,269.24
	C1308.36,547.97,1308.23,548.94,1308.16,550.01z"/>
<path class="st1" d="M1372.76,781.45c0-8.33,0-16.35,0-24.47c0.4-0.14,0.72-0.34,1.04-0.34c8.68,0.02,17.36-0.11,26.03,0.16
	c5.91,0.19,9.87,3.28,10.86,8.45c1.75,9.05-1.48,15.58-10.94,16.05c-8.48,0.43-16.98,0.26-25.48,0.34
	C1373.84,781.65,1373.41,781.54,1372.76,781.45z"/>
<path class="st1" d="M1083.75,781.16c0-8.06,0-16.17,0-24.57c4.28,0,8.42-0.02,12.55,0.01c4.88,0.03,9.78-0.14,14.64,0.21
	c9.98,0.73,14.98,11.76,9.23,20.01c-1.84,2.64-4.58,4.18-7.56,4.25C1103.06,781.32,1093.51,781.16,1083.75,781.16z"/>
<path class="st1" d="M749.53,818.19c0-20.67,0-40.96,0-61.6c3.48,0,6.8-0.02,10.12,0.01c3.98,0.03,7.96-0.05,11.93,0.18
	c7.36,0.43,12.92,4.04,15.46,10.91c4.93,13.32,4.89,26.78-1.16,39.78c-3.33,7.15-9.34,10.79-17.4,10.74
	C762.24,818.16,756.01,818.19,749.53,818.19z"/>
<path class="st1" d="M1265.24,787.39c0.09-6.36,0.73-12.64,3.47-18.49c4.42-9.44,11.88-14.38,22.29-14.36
	c10.45,0.02,18.13,5,22.1,14.58c4.93,11.92,4.92,24.23,0.16,36.2c-3.9,9.81-11.73,14.65-22.2,14.9
	c-10.08,0.25-18.52-5.43-22.6-14.83C1265.97,799.65,1265.31,793.57,1265.24,787.39z"/>
<path class="st1" d="M1681.22,787.26c-0.01-6.38,0.72-12.65,3.47-18.49c4.39-9.32,11.81-14.21,22.11-14.24
	c10.19-0.03,17.9,4.65,21.95,13.97c5.4,12.41,5.39,25.23,0.07,37.67c-4.02,9.39-11.85,14.01-21.95,14.01
	c-10.21,0-17.78-4.79-22.18-14.16C1681.9,800.09,1681.19,793.74,1681.22,787.26z"/>
<path class="st1" d="M976.19,787.42c0.15-6.51,0.8-12.97,3.72-18.96c4.47-9.16,11.84-13.94,22.03-13.93
	c10.07,0.01,17.77,4.6,21.81,13.79c5.53,12.58,5.54,25.59,0,38.17c-4.07,9.24-11.91,13.72-21.89,13.7
	c-9.98-0.02-17.46-4.64-21.91-13.74C977.03,800.46,976.34,794.01,976.19,787.42z"/>
<path class="st1" d="M1487.22,761.21c4.06,12.86,7.89,24.96,11.8,37.34c-8.01,0-15.79,0-23.98,0
	C1479.05,786.27,1483.02,774.09,1487.22,761.21z"/>
<path class="st1" d="M1180.41,784.22c0-9.28,0-18.21,0-27.07c0.21-0.18,0.34-0.4,0.47-0.4c7.48,0.14,15.01-0.23,22.41,0.59
	c7.17,0.8,10.06,4.91,10.13,12.06c0.09,9.73-3.88,14.24-13.59,14.75C1193.45,784.49,1187.05,784.22,1180.41,784.22z"/>
<path class="st0" d="M1514.74,517.1c0-1.27,0-2.34,0-3.4c0-67.74,0-135.48,0-203.22c0-3.55,0.01-3.55,3.53-3.58
	c9.33-0.07,18.73,0.05,27.67,2.78c18.93,5.79,37.28,21.2,40.75,44.9c2.78,19,3.52,38.17,2.84,57.34
	c-0.59,16.52-1.36,33.06-2.87,49.51c-1.24,13.48-5.08,26.42-12.46,37.99c-2.12,3.32-4.76,6.37-7.5,9.23
	c-4.94,5.15-11.42,6.93-18.3,7.8c-10.52,1.33-21.05,1.82-31.64,1C1516.23,517.4,1515.71,517.26,1514.74,517.1z"/>
</svg>
