<?xml version="1.0" encoding="utf-8"?>
<!-- Generator: Adobe Illustrator 24.0.0, SVG Export Plug-In . SVG Version: 6.00 Build 0)  -->
<svg version="1.1" id="Layer_1" xmlns="http://www.w3.org/2000/svg" xmlns:xlink="http://www.w3.org/1999/xlink" x="0px" y="0px"
	 viewBox="0 0 2761 991" style="enable-background:new 0 0 2761 991;" xml:space="preserve">
<style type="text/css">
	.st0{fill:#1B2A4E;}
	.st1{fill:none;}
</style>
<g>
	<path class="st0" d="M1861.48,856.52c-4.47-1.38-9.13-1.36-13.71-1.86c-18.51-1.99-36.66-5.53-53.98-12.56
		c-11.63-4.72-22.34-11.05-32.04-19.02c-11.49-9.43-19.97-20.98-25.02-35.07c-4.72-13.17-8-26.61-8.81-40.59
		c-0.47-8.13-0.77-16.28-0.94-24.42c-0.16-7.67-0.04-15.34-0.03-23.02c0-1.56,0.11-3.13,0.16-4.64c0.75-0.26,1.19-0.55,1.63-0.55
		c35.35-0.02,70.69-0.02,106.04,0.01c0.43,0,0.87,0.31,1.58,0.58c0.05,1.52,0.15,3.09,0.15,4.65c0.01,12.47,0.02,24.93,0.01,37.4
		c-0.01,5.78,0.56,11.48,1.88,17.11c1,4.23,2.7,8.16,4.9,11.92c3.25,5.54,8.01,8.98,14.15,10.69c6.51,1.81,12.98,1.73,19.36-0.4
		c6.38-2.12,11.08-6.17,13.77-12.47c1.77-4.15,2.88-8.47,3.45-12.92c1.13-8.75,1.16-17.54,0.64-26.33
		c-0.41-6.86-0.82-13.73-2.49-20.43c-0.73-2.94-1.63-5.84-2.65-8.69c-1.7-4.74-4.41-8.9-8.18-12.24
		c-3.95-3.49-7.95-6.95-12.14-10.15c-13.74-10.47-28.22-19.89-42.71-29.28c-15.02-9.74-30.02-19.52-44.48-30.1
		c-5.16-3.77-10.19-7.73-15.18-11.72c-6.03-4.83-11.09-10.6-15.44-16.97c-10.16-14.88-16.69-31.21-19.49-49.02
		c-2.54-16.17-3.09-32.42-2.32-48.75c0.42-8.94,1-17.87,2.29-26.73c1.16-7.92,2.79-15.72,5.23-23.35
		c5.19-16.21,14.9-29.2,28.33-39.49c12.34-9.46,26.26-15.76,41.12-20.07c14.03-4.07,28.39-6.21,42.98-6.89
		c7.99-0.37,15.97-0.52,23.98-0.14c18.84,0.89,37.05,4.77,54.72,11.24c10.82,3.96,21.3,8.68,31.19,14.65
		c5.9,3.57,11.45,7.59,16.62,12.16c11.14,9.83,18.4,21.92,21.74,36.43c1.76,7.65,2.9,15.39,3.51,23.2
		c0.97,12.43,1.35,24.89,1.13,37.37c-0.01,0.61-0.15,1.23-0.26,2.13c-0.99,0.14-1.89,0.36-2.79,0.37
		c-3.36,0.05-6.72,0.02-10.08,0.02c-30.07,0-60.14,0-90.21-0.01c-1.89,0-3.77-0.09-5.93-0.15c-0.12-1.19-0.29-2.1-0.3-3.01
		c-0.03-5.11,0.06-10.23-0.04-15.34c-0.15-7.68-0.64-15.32-2.66-22.79c-1.7-6.29-5.13-11.18-10.76-14.68
		c-8.7-5.42-24.29-3.92-30.39,9.58c-1.66,3.68-2.47,7.59-2.86,11.58c-0.89,9.08-1.31,18.18-0.12,27.27c0.37,2.85,0.79,5.7,1.41,8.5
		c1.53,6.87,4.81,12.81,9.79,17.82c4.07,4.09,8.42,7.87,13.21,11.08c5.84,3.91,11.74,7.75,17.79,11.32
		c19.01,11.21,37.83,22.7,55.85,35.46c10.84,7.67,21.2,15.93,31.15,24.75c16.26,14.42,26.22,32.35,31.11,53.35
		c3.2,13.74,5,27.66,5.77,41.72c0.32,5.9,0.58,11.82,0.65,17.73c0.2,17.5-1.33,34.8-6.44,51.64c-6.64,21.85-18.37,40.3-36.57,54.4
		c-12.03,9.32-25.55,15.71-40.08,20.02c-9.98,2.96-20.17,4.87-30.53,6c-3.61,0.39-7.35,0.29-10.81,1.7
		C1879.39,856.52,1870.44,856.52,1861.48,856.52z"/>
	<path class="st0" d="M2133.08,421.12c-0.23,0.42-0.58,0.82-0.66,1.26c-1.86,9.96-7.49,17.52-15.36,23.49
		c-7.79,5.91-16.7,8.42-26.49,8.17c-22.08-0.57-42.4-20.1-39.83-45.82c2.33-23.35,23.02-39.34,44.9-37.26
		c16.17,1.54,27.64,9.94,34.65,24.49c0.89,1.84,1.26,3.93,1.93,5.88c0.19,0.56,0.58,1.04,0.88,1.56
		C2133.08,408.97,2133.08,415.05,2133.08,421.12z M2092.12,374.86c-19.44-0.24-37.5,15.64-37.57,37.42
		c-0.08,22.32,18.52,37.82,37.76,37.78c18-0.03,37.43-14.13,37.56-37.49C2129.99,389.91,2111.18,374.51,2092.12,374.86z"/>
	<path class="st0" d="M942.06,263.64c0,31.49,0.01,62.97-0.03,94.46c0,2.54-0.14,5.13-0.66,7.6c-2.14,10.06-11.29,16.99-20.43,17.32
		c-1.92,0.07-3.84,0.09-5.76,0.09c-51.98,0-103.96,0.08-155.94-0.04c-14.57-0.03-26.31,5.75-36,16.18
		c-6.21,6.68-10.07,14.71-12.73,23.37c-1.65,5.38-2.51,10.8-2.5,16.48c0.09,50.02,0.05,100.05,0.05,150.08
		c0,1.92,0.01,3.84-0.05,5.75c-0.28,10.41-8.63,19.72-18.88,21.08c-1.9,0.25-3.82,0.42-5.73,0.42
		c-63.5,0.02-126.99,0.02-190.49,0.02c-3.38,0-6.72-0.29-9.89-1.55c-7.53-3-12.25-8.47-14.11-16.35c-0.7-2.95-1-5.95-1-9.02
		c0.04-62.01,0.04-124.02,0-186.04c0-3.07,0.35-6.05,1.01-9.02c2.57-11.57,12.8-17.53,20.74-17.6c1.92-0.02,3.84-0.06,5.76-0.06
		c51.18,0,102.36,0,153.54,0c13.62,1.31,34.39-8.01,44.6-23.89c4.03-6.27,6.78-13.03,8.29-20.28c0.45-2.16,0.38-4.45,0.38-6.68
		c0.02-51.94,0.01-103.89,0.01-155.83c0-1.44-0.04-2.88,0.01-4.32c0.48-14.18,12.16-22.28,21.53-22.1c1.76,0.03,3.52-0.09,5.28-0.09
		c62.06-0.01,124.11-0.01,186.17,0c2.08,0,4.16,0.03,6.23,0.18c10.88,0.8,19.67,9.64,20.5,20.57c0.12,1.59,0.08,3.19,0.08,4.79
		C942.06,200.67,942.06,232.15,942.06,263.64z"/>
	<path class="st0" d="M1189.81,846.04c0-155.36,0-310.03,0-464.99c1.01-0.18,1.9-0.43,2.79-0.48c1.44-0.08,2.88-0.03,4.32-0.03
		c33.75,0,67.5-0.04,101.25,0.02c13.43,0.02,26.87,0.1,40.3,0.42c14.71,0.36,29.41,1.12,44.02,2.93
		c14.62,1.81,29.04,4.63,42.75,10.29c2.36,0.97,4.7,2.01,7.01,3.1c26.59,12.58,42.43,38.76,45.45,63.61
		c1.48,12.23,2.42,24.5,2.67,36.8c0.41,19.97,0.7,39.95,0.74,59.93c0.1,51.15,0.07,102.29,0.01,153.44
		c-0.02,17.26-0.41,34.52-1.76,51.74c-0.66,8.44-1.4,16.9-3.52,25.13c-1.11,4.32-2.43,8.62-4.1,12.75
		c-5.08,12.55-13.49,22.31-25.14,29.32c-10.13,6.1-21.07,9.93-32.62,12.12c-13.23,2.5-26.65,3.28-40.08,3.77
		c-7.19,0.27-14.39,0.28-21.59,0.28c-52.14,0.02-104.29,0.01-156.43,0.01C1194,846.17,1192.11,846.09,1189.81,846.04z
		 M1301.09,460.57c-0.04,2.49-0.09,4.55-0.09,6.6c0,97.49,0,194.99,0,292.48c0,1.28-0.06,2.56,0.03,3.83
		c0.06,0.9,0.31,1.79,0.46,2.61c3.46,0,6.65,0.11,9.83-0.02c11.98-0.5,23.96-1.18,35.95-1.57c6.6-0.21,11.63-2.99,15.54-8.13
		c2.55-3.35,4.21-7.14,5.34-11.18c1.3-4.66,1.6-9.43,1.6-14.24c-0.01-78.63-0.01-157.27-0.01-235.9c0-1.12,0.04-2.24-0.02-3.36
		c-0.21-4.15-0.44-8.29-1.56-12.34c-2.99-10.8-10.3-16.64-21.47-17.15c-10.7-0.49-21.4-1.05-32.11-1.51
		C1310.28,460.53,1305.98,460.18,1301.09,460.57z"/>
	<path class="st0" d="M1667.44,845.69c-4.67,0.65-114.13,0.63-118.23,0.03c-0.13-0.84-0.35-1.75-0.4-2.66
		c-0.07-1.27-0.02-2.56-0.02-3.83c0-150.56,0-301.12,0-451.68c0-2.05,0.06-4.11,0.1-6.44c1.13-0.19,2.02-0.41,2.92-0.47
		c1.11-0.08,2.24-0.03,3.36-0.03c35.35,0,70.7,0,106.04,0c1.89,0,3.79,0.06,5.87,0.1c0.18,1.21,0.38,2.11,0.43,3.03
		c0.07,1.28,0.02,2.56,0.02,3.84c0,150.56,0,301.12,0,451.68C1667.53,841.31,1667.48,843.36,1667.44,845.69z"/>
	<path class="st0" d="M998.66,381.1c5-0.75,72.36-1.01,113.98-0.5c1.24,0.02,2.48,0.15,3.41,0.21c0.4,0.42,0.54,0.52,0.61,0.65
		c0.07,0.13,0.11,0.3,0.11,0.46c0.04,153.87,0.08,307.74,0.11,461.61c0,0.62-0.12,1.25-0.22,2.13c-0.92,0.17-1.8,0.41-2.7,0.48
		c-1.11,0.08-2.24,0.03-3.36,0.03c-35.34,0-70.68,0-106.01-0.01c-1.88,0-3.76-0.1-5.31-0.15c-0.43-0.46-0.57-0.56-0.64-0.69
		c-0.07-0.14-0.1-0.31-0.1-0.47c-0.05-153.87-0.09-307.74-0.12-461.61C998.43,382.62,998.56,381.99,998.66,381.1z"/>
	<path class="st0" d="M2092.12,374.86c19.06-0.36,37.87,15.05,37.75,37.71c-0.13,23.36-19.56,37.46-37.56,37.49
		c-19.24,0.03-37.83-15.46-37.76-37.78C2054.62,390.51,2072.68,374.63,2092.12,374.86z M2109.85,437c0.07-0.43,0.22-0.77,0.14-1.05
		c-1.13-4.49-2.28-8.97-3.44-13.45c-0.69-2.68-1.89-5.06-3.92-7.01c-0.62-0.59-1.75-0.77-1.77-2.13c0.6-0.38,1.26-0.8,1.91-1.23
		c4.93-3.25,6.9-7.88,5.92-13.61c-1.01-5.93-4.97-9.02-10.66-10.22c-5.4-1.14-10.81-0.85-16.21-0.15c-1.05,0.14-2.08,0.47-3.19,0.74
		c-0.07,1.1-0.17,1.89-0.17,2.67c0.04,14.86,0.09,29.71,0.14,44.57c0,0.14,0.09,0.3,0.17,0.43c0.08,0.14,0.19,0.25,0.42,0.54
		c1.71,0.36,3.54,0.43,5.55-0.19c0.08-1.45,0.19-2.7,0.2-3.95c0.02-4.47-0.01-8.95,0.03-13.42c0.01-1.07,0.25-2.14,0.38-3.25
		c2.77-0.55,5.3-0.39,7.83-0.03c2.56,0.36,4.48,1.74,5.66,3.98c0.73,1.4,1.24,2.94,1.66,4.46c0.72,2.61,1.25,5.28,1.96,7.9
		c0.41,1.51,1,2.97,1.5,4.42C2106.15,437.44,2108.01,437.52,2109.85,437z"/>
	<path class="st1" d="M1301.09,460.57c4.89-0.4,9.19-0.05,13.48,0.14c10.7,0.47,21.4,1.03,32.11,1.51
		c11.18,0.51,18.48,6.34,21.47,17.15c1.12,4.04,1.35,8.19,1.56,12.34c0.06,1.12,0.02,2.24,0.02,3.36c0,78.63,0,157.27,0.01,235.9
		c0,4.81-0.3,9.58-1.6,14.24c-1.13,4.03-2.79,7.82-5.34,11.18c-3.9,5.14-8.94,7.91-15.54,8.13c-11.99,0.38-23.96,1.07-35.95,1.57
		c-3.18,0.13-6.37,0.02-9.83,0.02c-0.15-0.82-0.4-1.71-0.46-2.61c-0.08-1.27-0.03-2.56-0.03-3.83c0-97.49,0-194.99,0-292.48
		C1301,465.12,1301.06,463.07,1301.09,460.57z"/>
	<path class="st1" d="M2109.85,437c-1.84,0.52-3.7,0.44-5.87,0.01c-0.5-1.45-1.1-2.91-1.5-4.42c-0.71-2.62-1.23-5.29-1.96-7.9
		c-0.42-1.53-0.93-3.07-1.66-4.46c-1.18-2.24-3.1-3.61-5.66-3.98c-2.53-0.36-5.06-0.52-7.83,0.03c-0.14,1.1-0.37,2.17-0.38,3.25
		c-0.04,4.47-0.01,8.95-0.03,13.42c-0.01,1.25-0.12,2.51-0.2,3.95c-2.01,0.62-3.84,0.54-5.55,0.19c-0.23-0.29-0.34-0.41-0.42-0.54
		c-0.08-0.13-0.17-0.29-0.17-0.43c-0.05-14.86-0.1-29.71-0.14-44.57c0-0.78,0.1-1.57,0.17-2.67c1.11-0.26,2.13-0.6,3.19-0.74
		c5.41-0.7,10.82-0.99,16.21,0.15c5.69,1.2,9.65,4.3,10.66,10.22c0.98,5.73-0.99,10.36-5.92,13.61c-0.65,0.43-1.31,0.84-1.91,1.23
		c0.02,1.36,1.15,1.53,1.77,2.13c2.03,1.95,3.23,4.34,3.92,7.01c1.16,4.48,2.31,8.96,3.44,13.45
		C2110.06,436.23,2109.91,436.57,2109.85,437z M2085.35,393.37c-0.76,2.85-0.39,5.71-0.35,8.53c0.04,2.94-0.6,5.96,0.58,8.81
		c3.02,0,5.88,0.19,8.7-0.07c1.51-0.14,3.09-0.82,4.38-1.65c3.14-2,4.11-5.1,3.7-8.68c-0.4-3.55-2.46-5.83-5.75-6.87
		C2092.94,392.26,2089.18,391.95,2085.35,393.37z"/>
	<path class="st0" d="M2085.35,393.37c3.82-1.42,7.59-1.11,11.27,0.06c3.29,1.04,5.35,3.33,5.75,6.87c0.4,3.58-0.56,6.68-3.7,8.68
		c-1.3,0.83-2.88,1.51-4.38,1.65c-2.82,0.26-5.68,0.07-8.7,0.07c-1.18-2.85-0.54-5.87-0.58-8.81
		C2084.97,399.08,2084.6,396.22,2085.35,393.37z"/>
</g>
</svg>
