<?xml version="1.0" encoding="utf-8"?>
<!-- Generator: Adobe Illustrator 24.0.0, SVG Export Plug-In . SVG Version: 6.00 Build 0)  -->
<svg version="1.1" id="Layer_1" xmlns="http://www.w3.org/2000/svg" xmlns:xlink="http://www.w3.org/1999/xlink" x="0px" y="0px"
	 viewBox="0 0 2761 991" style="enable-background:new 0 0 2761 991;" xml:space="preserve">
<style type="text/css">
	.st0{fill:#192A4E;}
</style>
<g>
	<path class="st0" d="M215.44,693c-29.34,0-49.2-5.29-59.59-15.89c-10.39-10.59-15.59-30.76-15.59-60.51v-64.48l53.17-11.31v107.27
		h173.28v-278.1h53.79V616.6c0,29.55-5.25,49.66-15.74,60.36c-10.49,10.69-30.4,16.04-59.74,16.04H215.44z"/>
	<path class="st0" d="M663.47,693L839.8,369.98h57.76L1076.95,693h-59.29l-41.26-79.46H757.9L716.65,693H663.47z M780.52,572.29
		H954.4l-87.1-165.33L780.52,572.29z"/>
	<path class="st0" d="M1437.58,693l-176.33-323.02h58.06l142.72,269.23l136.3-269.23h53.48l-169,323.02H1437.58z"/>
	<path class="st0" d="M1898.75,693V369.98h54.1V693H1898.75z"/>
	<path class="st0" d="M2263.06,693V369.98h33.91l241.74,216.06c5.5,4.89,11.36,10.8,17.58,17.72c6.2,6.93,12.57,14.57,19.1,22.92
		c-1.64-10.39-2.86-21.24-3.67-32.55c-0.82-11.3-1.22-26.94-1.22-46.91V369.98H2620V693h-30.25l-248.15-224.62
		c-1.22-1.01-3.07-2.65-5.52-4.89c-12.22-11-21.29-21.49-27.19-31.48c1.22,9.78,2.15,20.22,2.74,31.32
		c0.63,11.11,0.92,24.2,0.92,39.27V693H2263.06z"/>
</g>
</svg>
