<?xml version="1.0" encoding="utf-8"?>
<!-- Generator: Adobe Illustrator 24.0.0, SVG Export Plug-In . SVG Version: 6.00 Build 0)  -->
<svg version="1.1" id="Layer_1" xmlns="http://www.w3.org/2000/svg" xmlns:xlink="http://www.w3.org/1999/xlink" x="0px" y="0px"
	 viewBox="0 0 2761 991" style="enable-background:new 0 0 2761 991;" xml:space="preserve">
<style type="text/css">
	.st0{fill:#1B2A4E;}
	.st1{fill:none;}
</style>
<g>
	<path class="st0" d="M2039.14,437.89c6.25,3.78,12.14,8.4,18.81,11.21c67.96,28.72,96.91,69.5,95.35,136.62
		c-1.53,66.07-34.24,110-97.92,131.43c-5.71,1.92-10.84,5.49-16.24,8.29c-14.96,0-29.93,0-44.89,0
		c-7.59-3.92-14.94-8.44-22.82-11.66c-60.5-24.78-89.72-66.72-90.1-129.89c-0.39-65.21,28.39-107.06,90.9-133.03
		c7.8-3.24,14.7-8.59,22.02-12.97C2009.21,437.89,2024.18,437.89,2039.14,437.89z M1911.86,583.99
		c0.64,63.97,45.17,108.78,107.13,107.83c62.08-0.96,104.25-46.19,103.58-111.09c-0.66-64.47-44.25-108.33-106.89-107.57
		C1953.79,473.9,1911.21,519.36,1911.86,583.99z"/>
	<path class="st0" d="M2615.25,460.01c-5.48,10.64-12.74,20.75-16.16,32c-19.98,65.73-38.35,131.96-59.23,197.4
		c-3.12,9.77-15.59,19.95-25.78,22.77c-4.91,1.36-18.73-12.74-21.45-21.88c-23.07-77.5-44.52-155.47-66.45-233.3
		c3.15-2.69,6.3-5.38,9.45-8.07c8.21,8.57,20.72,15.81,23.92,25.92c19.11,60.41,36.07,121.48,56.94,193.35
		c19.62-68.54,38.21-126.41,52.18-185.34c6.74-28.41,20.14-36.42,46.57-30.22C2615.25,455.1,2615.25,457.55,2615.25,460.01z"/>
	<path class="st0" d="M161.17,452.64c24.52-5.94,32.73,3.08,32.17,28.09c-1.49,66.24-0.5,132.53-0.5,204.9
		c33.59,0,65.53-0.82,97.37,0.61c7.45,0.34,14.54,8.32,21.8,12.79c-6.81,4.87-13.58,13.89-20.43,13.95
		c-43.46,0.35-86.93-1.29-130.4-2.27C161.17,624.68,161.17,538.66,161.17,452.64z"/>
	<path class="st0" d="M639.05,445.48c14.14,9.73,32.17,16.68,41.74,29.68c44.48,60.39,86.61,122.46,136.7,183.07
		c0-38.07,0-76.15,0-114.22c0-22.12-1.55-44.4,0.76-66.28c0.96-9.11,10.13-17.38,15.57-26.03c4.76,8.13,13.54,16.2,13.65,24.39
		c1.05,77.26,0.63,154.54,0.63,232.01c-25.05,12.58-39.31,3.44-53.07-16.96c-42.01-62.27-85.7-123.45-133.32-191.63
		c0,74.21,0,141.72,0,209.23c-3.48,2.61-6.96,5.21-10.44,7.82c-7.87-7.05-22.44-13.97-22.58-21.18
		c-1.63-79.7-1.03-159.44-1.03-239.17C631.45,452.64,635.25,449.06,639.05,445.48z"/>
	<path class="st0" d="M1195.55,718.75c-16.88-8.33-36.06-13.93-50.18-25.53c-37.1-30.45-72-63.51-106.68-94.56
		c0,32.36,0,70.64,0,108.58c-22.66,10.39-32.85,7.27-32.7-16.46c0.45-72.43-0.46-144.88,0.99-217.29
		c0.17-8.53,11.76-16.85,18.06-25.26c3.74,1.96,7.49,3.92,11.23,5.88c0,32.54,0,65.08,0,100.42c59.8-26.79,84.06-100.32,158.98-97.4
		c-40.82,37.07-81.64,74.13-126.33,114.72c48.35,42,95.59,83.03,142.82,124.06C1206.35,703.53,1200.95,711.14,1195.55,718.75z"/>
	<path class="st0" d="M1323.13,452.69c55.6,0,106.3,0,157,0c2.11,3.01,4.21,6.03,6.32,9.04c-7.81,6.03-15.34,16.81-23.47,17.26
		c-34.51,1.94-69.21,0.82-106.01,0.82c0,28.29,0,53.49,0,83.97c31.48,0,63.36-0.99,95.09,0.68c8.22,0.43,15.98,9.17,23.96,14.09
		c-8.24,4.63-16.29,12.82-24.75,13.26c-30.74,1.62-61.61,0.64-95.27,0.64c0,40.8,0,78.39,0,115.99c-3.07,2.65-6.13,5.3-9.2,7.95
		c-7.89-6.9-22.49-13.66-22.63-20.72C1322.54,616.19,1323.13,536.65,1323.13,452.69z"/>
	<path class="st0" d="M1620.52,713.7c0-83.71-0.35-163.14,0.65-242.54c0.08-6.57,9.37-13.03,14.38-19.54
		c5.22,7.57,14.81,15.05,14.96,22.71c1.24,62.52,0.68,125.07,0.78,187.61c0.01,6.06,0.76,12.11,1.53,23.64
		c31.03,0,61.78-0.99,92.39,0.63c8.6,0.45,16.79,8.56,25.16,13.15c-8.15,4.78-16.16,13.4-24.48,13.69
		C1705.29,714.49,1664.61,713.7,1620.52,713.7z"/>
	<path class="st0" d="M469.5,584.91c0.01,35.54,0.96,71.12-0.76,106.57c-0.36,7.44-10.56,14.42-16.22,21.61
		c-4.51-7.12-12.85-14.19-12.94-21.36c-0.96-73.51-0.97-147.04,0.08-220.55c0.09-6.58,9.46-13.03,14.52-19.53
		c5.11,6.44,14.38,12.72,14.63,19.33C470.22,508.91,469.49,546.93,469.5,584.91z"/>
	<path class="st0" d="M2273.34,447.55c8.86,8.82,22.62,16.2,25.81,26.7c23.44,77.2,44.77,155.02,60.73,241.08
		c-9.32-7.24-24.21-12.8-27.09-22c-24.42-78.17-46.66-157.01-69.56-235.64C2266.6,454.31,2269.97,450.93,2273.34,447.55z"/>
	<path class="st1" d="M1911.86,583.99c-0.65-64.63,41.93-110.09,103.82-110.84c62.64-0.76,106.23,43.1,106.89,107.57
		c0.67,64.9-41.5,110.13-103.58,111.09C1957.03,692.77,1912.51,647.96,1911.86,583.99z"/>
</g>
</svg>
