<?xml version="1.0" encoding="utf-8"?>
<!-- Generator: Adobe Illustrator 24.0.0, SVG Export Plug-In . SVG Version: 6.00 Build 0)  -->
<svg version="1.1" id="Layer_1" xmlns="http://www.w3.org/2000/svg" xmlns:xlink="http://www.w3.org/1999/xlink" x="0px" y="0px"
	 viewBox="0 0 2761 991" style="enable-background:new 0 0 2761 991;" xml:space="preserve">
<style type="text/css">
	.st0{fill:#1B2A4E;}
	.st1{fill:none;}
</style>
<g>
	<path class="st0" d="M1306.73,819.65c-123.25,0-239.75,0-365.4,0c0-126.8-22.03-256.61,6.76-374.01
		c24.34-99.24,105.01-185.87,167.1-273.6c10.83-15.31,53.06-10.01,80.93-11.36c34.96-1.69,70.06-0.41,110.6-0.41
		C1306.73,382.02,1306.73,598.34,1306.73,819.65z"/>
	<path class="st0" d="M680.85,810.27c-92.9-144.92-189.5-276.71-263.54-420.11c-31.01-60.05-14.16-144.72-19.75-228.38
		c101.05,0,192.48-1.29,283.79,1.45c13.13,0.39,29.13,17.98,37.92,31.43c52.86,80.89,105.97,161.76,154.12,245.44
		c10.12,17.59,8.36,51.91-2.4,69.91C812.47,607.89,749.42,703.08,680.85,810.27z"/>
	<path class="st0" d="M406.99,520.3c67.66,104.9,126.84,196.64,190.86,295.9c-66.38,0-125.96,0-190.86,0
		C406.99,725.82,406.99,632.43,406.99,520.3z"/>
	<path class="st0" d="M2312,597.21c4.8,13.39,12.12,26.48,13.81,40.25c2.39,19.49,4.4,40.4-0.13,59.09
		c-9.81,40.54,30.28,95.86-33.95,120.55c-77.72,29.86-166.88,10.31-212.05-45.88c-58.12-72.31-59.12-244.65-1.88-325.17
		c48.3-67.95,157.49-93.21,259.58-56.94c16.71,5.94,28.71,25.12,45.64,40.71c-69.11-12.88-126.24-31.11-183.68-32.18
		c-62.99-1.18-114.1,38.97-122.94,100.15c-10.37,71.85-11.9,148.41,1.65,219.33c13.94,72.92,76.29,102.62,152.02,94.47
		c48.42-5.21,78.14-27.26,75.22-80.31c-2.34-42.55-4.3-85.12-6.43-127.68C2303.25,601.45,2307.62,599.33,2312,597.21z"/>
	<path class="st0" d="M1817.47,819.08c-20.05,1.32-32.58,2.14-45.19,2.97c-8.63-145.29-65.23-196.56-201.51-184.7
		c-55.04,4.79-102.91,98.79-90.76,182.13c-21.81,0-43.2,0-61.55,0c53.72-101.52,106.31-204.74,162.69-305.84
		c28.44-51,44.31-95.06-34.18-126.28c7.16-4.46,14.32-8.92,21.48-13.38c18.39,14.51,44.37,25.2,53.94,44.15
		C1687.73,547.46,1749.63,678.54,1817.47,819.08z M1622.64,470.19c-29.56,58.68-49.26,97.77-72.21,143.33c54.23,0,95.22,0,146.5,0
		C1671.76,564.95,1652.08,526.99,1622.64,470.19z"/>
	<path class="st0" d="M1679.52,390.19c73.66,143.45,147.33,286.9,221.97,432.25c-10.21-5.88-32.52-10.8-39-23.67
		c-66.97-133.02-131.38-267.32-196.5-401.26C1670.51,395.07,1675.01,392.63,1679.52,390.19z"/>
	<path class="st0" d="M1995.03,483.62c0,76.11,0,149,0,237.06C1952.22,631.57,1954.97,558.73,1995.03,483.62z"/>
	<path class="st0" d="M2391.62,776.4c-27.43-120.96-22.83-155.32,10.1-173.28C2398.33,661.4,2394.97,718.9,2391.62,776.4z"/>
	<path class="st1" d="M1622.64,470.19c29.44,56.8,49.12,94.77,74.28,143.33c-51.28,0-92.27,0-146.5,0
		C1573.39,567.96,1593.08,528.87,1622.64,470.19z"/>
</g>
</svg>
