<?xml version="1.0" encoding="utf-8"?>
<!-- Generator: Adobe Illustrator 24.0.0, SVG Export Plug-In . SVG Version: 6.00 Build 0)  -->
<svg version="1.1" id="Layer_1" xmlns="http://www.w3.org/2000/svg" xmlns:xlink="http://www.w3.org/1999/xlink" x="0px" y="0px"
	 viewBox="0 0 2761 991" style="enable-background:new 0 0 2761 991;" xml:space="preserve">
<style type="text/css">
	.st0{fill:#1B2A4E;}
	.st1{fill:none;}
</style>
<g>
	<path class="st0" d="M550.8,377.17c11.95-8.16,24.17-17.66,37.45-25.33c31.26-18.05,65.11-21.15,99.59-12.69
		c33.69,8.27,52.11,39.97,41.54,78.77c-11.32,41.53-27.81,81.68-42.64,122.21c-7.6,20.78-16.19,41.23-25.05,61.51
		c-1.92,4.39-6.76,10.46-10.48,10.62c-23.03,0.98-46.13,0.49-72.5,0.49c7.7-21.2,14.19-39.7,21.13-58.04
		c13.52-35.76,27.6-71.31,40.8-107.19c5.76-15.65,12.35-33.26-3.17-46.36c-15.96-13.49-34.72-9.22-51.5-0.12
		c-21.3,11.56-35.05,30.88-44.11,52.49c-20.13,47.99-39,96.52-57.63,145.13c-3.97,10.35-8.83,15.07-20.33,14.59
		c-20.29-0.86-40.64-0.24-64.06-0.24c9.27-25.34,17.56-47.99,25.84-70.65c13.13-35.89,27.4-71.41,39-107.79
		c8.76-27.48-5.44-43.72-34.06-40.49c-30.3,3.42-50.85,22.88-62.88,48.78c-18.4,39.61-34.98,80.24-49.65,121.4
		c-17.39,48.8-16.16,49.24-67.9,49.02c-9.28-0.04-18.56-0.01-32.13-0.01c6.98-19.81,12.27-36.38,18.61-52.54
		c26.88-68.6,54.42-136.94,80.79-205.73c4.23-11.03,9.71-14.29,20.58-13.9c18.67,0.66,37.38,0.18,57.64,0.18
		c-1.05,7.87-1.81,13.56-2.85,21.37C448.72,332.93,503.37,310.74,550.8,377.17z"/>
	<path class="st0" d="M1418.48,403.55c0,43.67,0.02,82.88-0.01,122.09c-0.01,24.39-0.4,48.78,0,73.16
		c0.18,10.71-3.84,14.9-14.61,14.6c-54.15-1.48-43.43,8.53-43.9-42.74c-0.64-69.83,0.53-139.67,0.13-209.5
		c-0.08-14.64,3.29-21.29,19.36-20.1c18.15,1.35,36.57-0.76,54.68,0.81c6.66,0.58,15.74,5.85,18.68,11.57
		c30.86,60.08,60.69,120.68,90.84,181.13c2.15,4.32,4.59,8.49,9.27,17.09c0.61-8.71,1.15-12.69,1.13-16.67
		c-0.3-58.19-0.38-116.39-1.26-174.57c-0.21-13.69,2.7-19.63,18.22-19.31c41.53,0.87,41.47,0.11,41.29,42.5
		c-0.3,70.94-0.81,141.89-0.48,212.83c0.06,13.12-3.75,17.65-16.94,16.89c-17.64-1.02-35.45-1.22-53.05,0.11
		c-13.99,1.05-20.92-4.92-26.67-16.74c-29.29-60.25-59.17-120.23-88.9-180.27C1424.63,413.12,1422.46,410.09,1418.48,403.55z"/>
	<path class="st0" d="M1235.66,590.21c-24.49,21.43-53.33,28.42-84.53,27.81c-54.51-1.07-93.82-27.75-110.92-78.98
		c-14.67-43.97-14.07-88.6,5.2-131.51c14.88-33.13,40.33-55.05,75.41-65.16c39.03-11.25,77.82-10.33,115.51,4.94
		c29.8,12.07,47.28,35.36,55.12,66.4c2.4,9.51-0.3,13.68-10.22,13.38c-9.4-0.28-18.87-0.67-28.22,0.08
		c-15.12,1.21-24.98-0.81-33.58-17.56c-15.91-31.01-72.1-31.57-99.18-3.6c-33.45,34.56-34.51,111.45-1.21,145.99
		c20.38,21.14,45.72,25.39,73.52,17.58c22.73-6.39,34.83-21.87,39.49-44.55c2.22-10.8-0.4-15.64-12.1-15.15
		c-13.26,0.56-26.58-0.38-39.84,0.13c-10.74,0.42-16.06-2.21-15.89-14.7c0.55-38.78-1.65-31.82,31.78-32.35
		c26.56-0.42,53.15,0.33,79.69-0.4c12.27-0.34,16.57,3.89,16.36,16.25c-0.67,39.37-0.78,78.77-0.35,118.14
		c0.13,12.24-3.96,17.65-16.33,16.09c-3.27-0.41-6.63-0.08-9.96-0.08C1242.23,612.96,1242.23,612.96,1235.66,590.21z"/>
	<path class="st0" d="M1685.38,476.76c0-39.34,0.38-78.69-0.22-118.02c-0.19-12.66,3.33-17.61,16.8-17.45
		c56.39,0.7,112.79,0.8,169.18,0.18c14.94-0.17,20.42,4.11,19.8,19.73c-1.35,34.2,2.42,28.76-29.64,29.16
		c-32.06,0.4-64.15,0.76-96.19-0.06c-14.08-0.36-17.71,4.91-17.7,18.31c0.01,41.88-0.48,41.94,41.77,42.06
		c24.33,0.07,48.68,0.49,72.97-0.38c13.13-0.47,19.07,2.78,18.38,17.35c-1.77,37.47,4,31.31-32.02,31.96
		c-28.74,0.52-57.51,0.55-86.25-0.06c-11.67-0.25-15.91,4.04-15.27,15.45c0.62,11.04,0.64,22.19-0.1,33.23
		c-0.77,11.53,3.57,15.6,15.18,15.46c38.14-0.49,76.31,0.38,114.44-0.37c13.18-0.26,17.39,3.87,16.86,17.02
		c-1.53,37.76,4.68,32.63-32.66,32.73c-53.08,0.14-106.16-0.34-159.23,0.36c-13.18,0.18-17.41-3.95-17.2-16.99
		c0.62-39.88,0.23-79.79,0.23-119.68C1684.81,476.76,1685.09,476.76,1685.38,476.76z"/>
	<path class="st0" d="M1014.26,612.85c-21.15,0-38.77,0.73-56.24-0.53c-4.27-0.31-9.82-6.42-11.76-11.12
		c-5.07-12.25-8.82-25.08-12.42-37.88c-3.3-11.74-9.56-16.97-22.53-16.51c-26.52,0.95-53.11,0.68-79.64,0.04
		c-10.47-0.25-16.45,3.13-19.64,13.27c-4.49,14.26-9.43,28.43-15.2,42.21c-1.78,4.24-6.74,9.86-10.53,10.08
		c-18.02,1.06-36.14,0.47-57.07,0.47c7.65-21.87,13.89-41.15,21.1-60.05c25.08-65.74,50.77-131.25,75.54-197.11
		c4.2-11.17,9.73-15.81,21.72-15.19c17.66,0.92,35.41,0.75,53.09,0.19c9.9-0.31,15.2,3.73,18.52,12.78
		c21.55,58.78,43.42,117.43,65.05,176.18C993.94,556.06,1003.33,582.56,1014.26,612.85z M909.52,497.09
		c-12.16-39.05-23.31-74.88-34.46-110.71c-1.52,0.11-3.04,0.21-4.56,0.32c-11.42,35.97-22.85,71.93-34.69,109.22
		c6.41,0.54,10.17,1.11,13.93,1.13C868.45,497.14,887.17,497.09,909.52,497.09z"/>
	<path class="st0" d="M2588.73,516.88c-2.6,30.43-12.96,53.93-32.98,71.98c-46.34,41.8-160.16,47.14-203.87-27.3
		c-22.77-38.78-26.63-80.87-16.87-123.79c21.75-95.59,140.94-136.43,217.84-75.14c18.96,15.11,29.45,35.49,34.09,59.18
		c2.03,10.35-0.24,16.12-12.21,15.09c-7.14-0.62-14.41-0.63-21.55-0.08c-16.46,1.26-26.85-1.62-34.22-20.64
		c-13.46-34.74-70.42-40.56-98-12.45c-33.89,34.54-34.38,109.68-1.92,145.9c24.4,27.22,90.89,26.24,103.41-21.24
		c2.53-9.59,7.25-12.06,16.39-11.69C2554.75,517.34,2570.68,516.88,2588.73,516.88z"/>
	<path class="st0" d="M171.93,730.66c9.48-23.47,16.24-42.74,25.31-60.85c2.13-4.25,12.03-6.44,18.37-6.45
		c116.76-0.2,233.52,0.08,350.27,0.25c23.09,0.03,46.18,0,72.93,0c-8.47,22.19-15,42-23.94,60.65c-2,4.19-12.39,6.06-18.93,6.09
		c-81.34,0.35-162.68,0.13-244.03,0.12c-50.36,0-100.71,0.12-151.07,0.18C192.7,730.67,184.55,730.66,171.93,730.66z"/>
	<path class="st0" d="M2050.08,341.76c35.98,0,71.96,0.3,107.93-0.19c10.61-0.14,14.6,3.16,14.88,14.16
		c0.88,34.16,1.27,34.17-32.93,34.38c-13.84,0.08-27.72,0.8-41.5-0.13c-14.46-0.98-19.08,4.32-18.95,18.98
		c0.51,58.24,0,116.48-0.52,174.72c-0.31,34.66,2.94,28.93-29.15,29.26c-39.43,0.4-32.67,2.63-32.74-32.28
		c-0.12-57.13,0-114.27,0.87-171.39c0.22-14.37-4.11-19.91-18.84-19.16c-19.87,1.02-39.84-0.05-59.76,0.36
		c-9.42,0.2-14.32-2.26-14.21-12.92c0.46-42.65-2.7-35.17,33.59-35.57c30.44-0.34,60.88-0.07,91.32-0.07
		C2050.08,341.86,2050.08,341.81,2050.08,341.76z"/>
	<path class="st0" d="M2213.5,478.17c0-39.86,0.39-79.72-0.22-119.57c-0.2-12.9,3.89-17.2,17.08-17.22
		c45.09-0.09,45.2-0.58,45.06,45.33c-0.21,69.75-0.89,139.51-0.64,209.26c0.05,13.21-4.42,17.07-17.2,17.15
		c-45.03,0.28-45.02,0.68-45.01-43.6c0.01-30.45,0-60.9,0-91.35C2212.88,478.17,2213.19,478.17,2213.5,478.17z"/>
	<path class="st0" d="M2124.77,704.05c-7.44-1.68-13.03-2.94-18.62-4.21c-0.06-1.65-0.12-3.3-0.18-4.95
		c7.73,0,20.55-2.68,22.22,0.51c4.64,8.86,4.64,20.16,6.39,29.98c-9.8,1.82-17,2.87-24.04,4.52c-15.32,3.6-28.61-1.79-35.23-14.61
		c-8.14-15.78-4.55-36.84,8.03-47.16c10.37-8.5,31.92-8.85,41.81-0.22c2.92,2.55,4.65,6.48,6.34,12.01
		c-19.65-10.36-39.39-22.97-49.49,8.4c-5.02,15.59,2.27,31.01,14.92,34.12C2110.87,725.89,2120.25,720.58,2124.77,704.05z"/>
	<path class="st0" d="M2237.71,697.2c3.94,10.8,7.48,20.51,11.02,30.22c-1.77,0.85-3.55,1.69-5.32,2.54
		c-2.76-4.74-6.25-9.21-8.13-14.28c-3.48-9.36-8.72-15.16-19.52-13.89c-12.17,1.43-7.9,11-9.15,17.94c-0.53,2.94-1.63,5.78-6.5,8.78
		c-0.75-6.42-1.83-12.82-2.16-19.26c-0.37-7.18-0.17-14.39-0.03-21.58c0.5-24.61,13.04-32.51,36.43-23.01
		C2247.76,670.11,2248.89,680.46,2237.71,697.2z M2218.73,699.35c8.02-8.17,12.81-13.03,17.59-17.9
		c-5.6-3.85-10.73-9.38-16.93-11.13c-8.82-2.49-14.06,3.26-12.08,12.1C2208.4,687.25,2213.1,691.28,2218.73,699.35z"/>
	<path class="st0" d="M1576.04,661.83c20.96,0.16,32.93,13.13,32.58,35.31c-0.34,21.81-13.32,35.28-33.6,34.85
		c-19.2-0.41-33.02-15.98-32.48-36.6C1543.07,675.42,1556.77,661.68,1576.04,661.83z M1552.67,694.97
		c-0.85,15.92,7.76,27.46,21.3,28.55c13.73,1.11,24.56-9.37,25.42-24.59c0.95-16.83-7.94-28.55-22.26-29.34
		C1563.06,668.82,1553.53,678.7,1552.67,694.97z"/>
	<path class="st0" d="M1842.68,728.59c0-19.92-0.26-39.84,0.38-59.73c0.07-2.1,5.14-5.03,8.32-5.81c4.16-1.03,9.12-1.42,13.08-0.1
		c8.4,2.78,19.27,4.82,23.6,11.03c3.37,4.84-1.62,15.53-5.71,23.17c3.56,9.91,7.11,19.82,10.67,29.73c-1.73,0.83-3.47,1.65-5.2,2.48
		c-2.42-4.05-5.63-7.82-7.1-12.19c-3.69-10.92-10.79-18.22-21.88-14.07c-4.39,1.64-5.71,11.69-8.27,17.98
		c-0.96,2.35-1.48,4.88-2.19,7.33C1846.47,728.46,1844.57,728.52,1842.68,728.59z M1862.97,700.35
		c8.13-8.93,12.86-14.13,17.59-19.33c-5.79-3.59-11.16-8.69-17.46-10.43c-9.1-2.52-13.63,3.6-11.79,12.09
		C1852.34,687.46,1856.9,691.47,1862.97,700.35z"/>
	<path class="st0" d="M2014.19,696.12c0.06,20.42-12.71,34.27-31.99,34.66c-20.69,0.43-34.18-13.12-33.98-34.11
		c0.2-21.02,12.37-34.13,31.97-34.42C2001.44,661.93,2014.12,674.57,2014.19,696.12z M2004.7,696.01
		c-0.31-15.95-9.55-26.81-22.93-26.92c-14.39-0.12-24.24,11.08-24.15,27.46c0.09,16.05,10.72,27.7,24.67,27.05
		C1995.42,722.97,2004.99,711.19,2004.7,696.01z"/>
	<path class="st0" d="M1200.56,683.11c-3.18-3.35-5.78-8.26-9.67-9.68c-5.72-2.11-12.44-2.6-18.55-1.97
		c-2.24,0.23-6.17,7.61-5.56,8.29c3.75,4.12,8.4,7.53,13.13,10.59c2.2,1.42,5.24,1.56,7.91,2.24c11.69,2.98,21.66,8.42,18.65,22.48
		c-3.18,14.86-15.67,17.38-28.48,16.55c-15.08-0.98-21.43-8.13-21.13-25.56c4.24,4.76,6.25,8.77,9.41,10.21
		c6.53,2.97,13.62,5.84,20.6,6.16c3.11,0.14,8.07-5.52,9.2-9.42c0.68-2.37-3.68-7.77-6.96-9.39c-6.84-3.39-15.38-3.84-21.5-8.02
		c-5.15-3.52-11.01-10.76-10.77-16.09c0.25-5.44,6.95-14.2,11.9-15.03c9.55-1.6,20.14,0.33,29.68,3.03
		c3.08,0.87,4.19,8.73,6.19,13.39C1203.27,681.63,1201.92,682.37,1200.56,683.11z"/>
	<path class="st0" d="M2525.42,708.97c8.58,5.29,15.62,11.92,23.72,13.71c4.59,1.01,10.93-5.93,16.48-9.3
		c-3.63-4-6.59-9.18-11.05-11.69c-5.63-3.16-13.32-2.9-18.58-6.43c-4.86-3.26-10.42-9.47-10.62-14.58
		c-0.2-5.23,4.47-12.71,9.21-15.69c16.49-10.4,36.91-0.8,36.62,16.19c-7.14-4.02-13.9-9.64-21.56-11.42
		c-4.19-0.98-9.89,4.51-14.91,7.08c3.55,4.12,6.39,9.48,10.84,12.04c5.58,3.2,13.56,2.66,18.49,6.4
		c5.03,3.82,10.13,10.61,10.76,16.57c1.24,11.8-10.55,19.68-25.73,19.25C2532.82,730.64,2525.57,724.07,2525.42,708.97z"/>
	<path class="st0" d="M1265.34,711.48c9.71,4.27,18.28,9.49,27.53,11.37c3.56,0.72,8.66-6.18,13.06-9.61
		c-3.36-3.77-6.05-8.78-10.23-10.99c-5.72-3.04-13.8-2.39-18.59-6.2c-5.29-4.21-11.48-11.9-11.12-17.69
		c0.85-13.64,12.01-17.09,24.19-16.41c12.12,0.67,22.82,3.31,22.68,18.06c-2.26,2.33-4.51,4.65-6.77,6.98
		c-2.02-4.84-2.86-12.37-6.34-13.92c-5.88-2.61-13.53-2.2-20.24-1.41c-2.03,0.24-5.48,8.09-4.76,8.78
		c4.05,3.88,9.03,6.88,13.98,9.68c2.32,1.31,5.29,1.46,7.94,2.21c10.58,3.01,20.42,6.99,19.4,20.67
		c-0.84,11.25-12.81,19.54-27.22,18.67c-12.4-0.75-22.94-4.57-24.18-19.48C1264.61,711.55,1266.09,710.77,1265.34,711.48z"/>
	<path class="st0" d="M2412.87,709.27c13.21,6.07,21.71,11.42,30.94,13.46c3.47,0.77,8.63-6.13,13.01-9.54
		c-3.29-3.85-5.9-8.96-10.05-11.26c-5.66-3.14-12.75-3.55-18.77-6.18c-13.38-5.85-16.57-22.17-4.32-28.58
		c8.5-4.45,20.78-3.45,30.96-1.98c4.12,0.6,7.12,8.94,7.31,15.29c-7.78-3.83-15.26-8.87-23.48-10.9c-3.39-0.84-8.37,4.78-12.62,7.47
		c3.09,3.87,5.43,9.13,9.43,11.28c6.19,3.33,14.14,3.47,20.17,6.98c4.7,2.73,10.66,8.58,10.6,12.97c-0.08,6.2-4,16.38-8.39,17.68
		c-9.84,2.92-21.35,3.1-31.45,0.95C2421.45,725.91,2418.37,716.95,2412.87,709.27z"/>
	<path class="st0" d="M870.11,706.56c0.67,16.19-9.02,25.04-25.7,25.15c-19.02,0.11-31.8-13.74-31.98-34.66
		c-0.19-21.7,12.72-35.57,32.92-35.38c17.08,0.16,25.02,7.31,24.45,24.5c-12.58-12.19-24.73-26.82-41.4-8.97
		c-8.7,9.32-8.43,29.51,0.22,38.57C846.06,734.01,857.36,716.47,870.11,706.56z"/>
	<path class="st0" d="M695.75,727.22c8.46-20.02,16.51-40.24,25.93-59.79c1.1-2.27,13.67-2.59,14.47-0.86
		c9.16,20.06,17.08,40.68,23.03,62.7c-11.18-6.21-13.73-20.04-30.72-19.99c-16.94,0.05-18.9,13.57-27.57,20.95
		C699.19,729.22,697.47,728.22,695.75,727.22z M731.26,675.15c-1.42-0.08-2.84-0.17-4.26-0.25c-3.04,8.15-6.08,16.3-9.63,25.84
		c8.91,0,15.4,0,24.28,0C737.61,690.78,734.43,682.96,731.26,675.15z"/>
	<path class="st0" d="M1094.71,670.3c-7.92,0-16.13-1.27-23.63,0.5c-4.16,0.98-7.12,7.03-10.62,10.8c3.62,3,6.84,7.61,10.96,8.65
		c7,1.77,14.57,1.3,21.9,1.78c0.09,1.77,0.18,3.54,0.26,5.31c-6.85,0.61-14.1,0.05-20.44,2.2c-4.91,1.66-11.1,5.96-12.44,10.39
		c-2.66,8.79,2.84,12.84,12.05,12.63c7.73-0.18,15.49,0.8,23.23,1.27c-0.05,1.96-0.11,3.92-0.16,5.88c-13.12,0-26.26,0.3-39.35-0.32
		c-1.94-0.09-5.18-4.49-5.25-6.96c-0.44-17.17-0.49-34.37,0.13-51.54c0.1-2.76,3.99-7.54,6.37-7.69c12.31-0.78,24.7-0.36,37.07-0.36
		C1094.77,665.31,1094.74,667.8,1094.71,670.3z"/>
	<path class="st0" d="M2353.92,669.92c-7.93,0-16.15-1.24-23.69,0.49c-4.2,0.97-7.25,6.89-10.83,10.58
		c3.48,3.18,6.51,8.13,10.53,9.16c6.98,1.78,14.58,1.14,21.92,1.51c0.07,1.66,0.13,3.32,0.2,4.98c-7,0.67-14.47,0.07-20.84,2.44
		c-4.7,1.76-7.96,7.4-11.87,11.31c3.92,3.92,7.27,10.1,11.87,11.24c7.57,1.89,15.94,0.51,23.98,0.51c0.04,2.03,0.08,4.05,0.13,6.08
		c-13.91,0-27.82,0-41.72,0c0.18-21.32,0.37-42.65,0.55-63.97c13.24-0.68,26.48-1.36,39.72-2.03
		C2353.89,664.8,2353.9,667.36,2353.92,669.92z"/>
	<path class="st0" d="M987.09,685.04c-22.41-17.61-31.94-19.33-41.72-8.43c-8.49,9.47-8.48,30.84,0.02,40.07
		c9.28,10.09,18.34,8.24,40.46-8.27c1.34,13.84-5.95,21.77-21.36,23.22c-19.57,1.84-32.68-10.08-34.55-31.42
		c-1.84-20.95,9.16-36.35,27.41-38.39C975.07,659.86,985.26,667.17,987.09,685.04z"/>
	<path class="st0" d="M1733.84,729.38c-0.72-5.44-1.84-10.87-2.06-16.33c-0.32-7.73,0.05-15.48,0.05-23.23
		c0-27.82,6.15-33.48,32.86-25.64c6.97,2.04,15.27,11.88,16.04,18.9c0.62,5.67-8.89,12.76-14.51,18.63c-1.53,1.6-5.31,1.7-7.96,1.45
		c-12.37-1.2-18.9,2.91-17.17,16.6c0.39,3.07-1.88,6.48-2.92,9.74C1736.74,729.46,1735.29,729.42,1733.84,729.38z M1752.3,702.45
		c9.14-8.87,17.92-13.36,18.78-19.06c1.82-11.97-8.95-12.4-17.92-13.15c-9.84-0.82-13.24,4.66-11.43,12.91
		C1742.88,688.36,1746.93,692.94,1752.3,702.45z"/>
	<path class="st0" d="M1462.73,728.59c-0.52-7.53-1.26-15.06-1.52-22.6c-0.58-17.04,8.95-39.62-22.08-41.21c17.47,0,34.93,0,52.4,0
		c-28.34,1.69-21.29,22.31-21.69,38.71c-0.2,8.35-0.93,16.68-1.43,25.02C1466.52,728.53,1464.62,728.56,1462.73,728.59z"/>
	<path class="st1" d="M909.52,497.09c-22.35,0-41.07,0.05-59.79-0.04c-3.76-0.02-7.52-0.59-13.93-1.13
		c11.84-37.29,23.27-73.25,34.69-109.22c1.52-0.11,3.04-0.21,4.56-0.32C886.21,422.21,897.37,458.04,909.52,497.09z"/>
	<path class="st1" d="M2218.73,699.35c-5.64-8.07-10.34-12.1-11.42-16.93c-1.98-8.84,3.26-14.59,12.08-12.1
		c6.19,1.75,11.32,7.29,16.93,11.13C2231.54,686.31,2226.76,691.18,2218.73,699.35z"/>
	<path class="st1" d="M1552.67,694.97c0.86-16.27,10.39-26.15,24.46-25.38c14.32,0.79,23.21,12.51,22.26,29.34
		c-0.86,15.22-11.7,25.7-25.42,24.59C1560.43,722.42,1551.82,710.89,1552.67,694.97z"/>
	<path class="st1" d="M1862.97,700.35c-6.06-8.88-10.63-12.89-11.66-17.66c-1.83-8.49,2.7-14.61,11.79-12.09
		c6.3,1.74,11.67,6.83,17.46,10.43C1875.82,686.23,1871.09,691.43,1862.97,700.35z"/>
	<path class="st1" d="M2004.7,696.01c0.29,15.18-9.28,26.97-22.41,27.59c-13.95,0.66-24.59-11-24.67-27.05
		c-0.09-16.38,9.76-27.58,24.15-27.46C1995.15,669.2,2004.39,680.05,2004.7,696.01z"/>
	<path class="st1" d="M731.26,675.15c3.17,7.81,6.35,15.62,10.4,25.59c-8.89,0-15.38,0-24.28,0c3.55-9.54,6.59-17.69,9.63-25.84
		C728.42,674.98,729.84,675.07,731.26,675.15z"/>
	<path class="st1" d="M1752.3,702.45c-5.37-9.51-9.42-14.09-10.56-19.3c-1.81-8.25,1.59-13.73,11.43-12.91
		c8.97,0.75,19.74,1.18,17.92,13.15C1770.21,689.09,1761.44,693.58,1752.3,702.45z"/>
</g>
</svg>
