<?xml version="1.0" encoding="utf-8"?>
<!-- Generator: Adobe Illustrator 24.0.0, SVG Export Plug-In . SVG Version: 6.00 Build 0)  -->
<svg version="1.1" id="Layer_1" xmlns="http://www.w3.org/2000/svg" xmlns:xlink="http://www.w3.org/1999/xlink" x="0px" y="0px"
	 viewBox="0 0 2761 991" style="enable-background:new 0 0 2761 991;" xml:space="preserve">
<style type="text/css">
	.st0{fill:#1B2A4E;}
	.st1{fill:none;}
	.st2{fill:#FFFFFF;}
</style>
<path class="st0" d="M1389.71,593.81c-2.51,1.98-4.8,1.71-7.01,1.71c-12.96,0.02-25.91,0.01-38.87,0.01c-36.79,0-73.58,0-110.38,0
	c-1.6,0-3.21,0.05-4.79-0.1c-0.72-0.07-1.4-0.58-2.35-1.01c0.89-2.14,0.77-4.41,2.75-5.97c0.66-0.51,0.82-1.67,1.16-2.56
	c0.17-0.44,0.1-1.24,0.35-1.33c2.36-0.9,1.97-3.42,3.06-4.92c1.42-1.96,2.54-3.85,2.91-6.21c2.03-0.79,1.82-3.18,3.2-4.49
	c0.77-0.72,1.31-1.8,1.65-2.82c0.35-1.07,0.6-1.98,1.58-2.79c0.76-0.63,1.13-1.88,1.4-2.93c0.28-1.12,0.45-2.06,1.73-2.6
	c0.56-0.24,0.85-1.25,1.12-1.96c0.5-1.3,0.44-2.89,2.1-3.51c0.24-0.09,0.43-0.46,0.55-0.74c0.68-1.53,0.03-3.64,1.93-4.61
	c1.71-0.87,1.01-3.43,2.99-4.1c0.23-0.08,0.36-0.51,0.49-0.8c0.83-1.82,0.95-3.88,2.69-5.4c1.36-1.19,1.43-3.37,2.77-4.87
	c1.07-1.2,0.45-3.67,2.06-4.64c1.62-0.99,1.02-3.44,3.11-4.04c0.47-0.13,0.69-1.36,0.9-2.11c0.34-1.23,0.54-2.46,1.81-3.22
	c0.47-0.28,0.82-0.98,0.96-1.55c0.44-1.68,0.55-3.45,2.54-4.28c0.4-0.16,0.46-1.13,0.68-1.72c0.44-1.17,0.54-2.51,1.85-3.23
	c0.37-0.2,0.73-0.73,0.78-1.14c0.42-3.49,3.07-5.67,4.81-8.37c0.17-0.26,0.54-0.48,0.56-0.75c0.25-3.14,3.23-5.01,3.72-8.06
	c0.09-0.53,0.69-0.99,1.07-1.47c0.38-0.48,0.91-0.88,1.13-1.42c0.63-1.53,0.08-3.51,2.12-4.52c1.42-0.7,0.94-2.97,2.63-3.77
	c0.56-0.27,0.91-1.29,1.06-2.03c0.29-1.44,0.64-2.66,1.99-3.6c0.65-0.45,0.79-1.67,1.11-2.55c0.21-0.59,0.19-1.62,0.54-1.74
	c2.23-0.82,2.24-2.82,2.79-4.6c0.17-0.54,0.73-0.98,1.14-1.43c0.31-0.34,0.82-0.58,0.96-0.97c0.55-1.46,1-2.96,1.48-4.45
	c2-0.22,1.33-2.38,2.33-3.26c0.34-0.14,0.64-0.38,0.92-0.37c1.1,0.05,2.2,0.18,3.31,0.27c0.26,0.52,0.57,0.91,0.65,1.35
	c0.29,1.58,0.46,3.17,2.04,4.14c0.37,0.22,0.79,0.71,0.8,1.1c0.08,1.94,1.35,3.2,2.45,4.55c0.95,1.18,0.38,3.22,2.44,3.89
	c0.57,0.18,0.8,1.63,1.04,2.54c0.28,1.09,0.37,2.24,1.78,2.54c0.27,0.06,0.69,0.38,0.68,0.58c-0.02,3.08,3.22,4.62,3.53,7.53
	c2.24,1.7,2.14,4.87,4.23,6.68c0.33,0.28,0.49,0.81,0.63,1.25c0.57,1.78,1.07,3.47,2.51,4.95c1.12,1.16,1.23,3.24,2.85,4.27
	c0.25,0.16,0.52,0.48,0.56,0.75c0.46,3.63,2.95,6.08,5.04,8.78c0.19,0.25,0.41,0.54,0.44,0.83c0.37,2.94,2.6,4.97,3.73,7.55
	c0.98,2.24,2.88,3.98,3.45,6.58c0.25,1.13,2.29,1.68,2.25,3.38c1.77,1.17,2.14,3.07,2.49,4.93c0.31,1.65,2.38,2,2.52,3.88
	c0.18,2.26,3.02,3.18,3.15,5.67c0.12,2.35,2.87,3.37,3.14,5.7c2.12,0.86,2.09,2.95,2.79,4.67c0.45,1.1,1.5,1.95,2.1,3.01
	c0.62,1.1,0.7,2.75,1.58,3.4c1.36,1,1.41,2.36,2.03,3.59c1.1,2.2,2.6,4.2,3.93,6.29c0.41,0.64,0.91,1.26,1.14,1.96
	c0.48,1.47,0.35,3.27,2.28,3.88c0.41,3.08,3.76,4.71,3.94,7.94c0.03,0.58,0.39,1.35,0.85,1.67c1.56,1.06,1.47,3.16,2.79,4.24
	c0.76,0.62,1.6,0.99,1.63,2.11C1386.64,590.97,1387.87,592.39,1389.71,593.81z"/>
<path class="st0" d="M501.22,593.75c0.58-0.68,1.3-1.3,1.72-2.08c0.44-0.82,0.55-1.82,0.88-2.71c0.21-0.57,0.42-1.26,0.86-1.6
	c2.1-1.61,2.64-4.22,4.12-6.23c0.8-1.09,0.58-2.76,2.34-3.38c0.56-0.2,0.82-1.62,0.98-2.52c0.23-1.26,0.24-2.5,1.76-3.07
	c0.46-0.17,0.73-0.98,0.97-1.54c0.24-0.58,0.28-1.25,0.51-1.84c0.73-1.84,2.62-2.88,2.95-5.18c0.26-1.85,1.62-3.7,2.92-5.19
	c1.01-1.15,1.47-2.41,1.97-3.73c0.34-0.9,0.6-1.72,1.57-2.26c0.59-0.33,1.14-1.16,1.24-1.84c0.39-2.61,2.56-4.24,3.37-6.69
	c0.71-2.14,2.41-3.96,3.7-5.91c0.26-0.39,0.83-0.69,0.87-1.07c0.36-3.3,3.37-5.33,3.99-8.5c0.11-0.55,0.64-1.05,1.05-1.51
	c0.31-0.34,1.05-0.54,1.07-0.85c0.25-2.97,2.84-4.89,3.37-7.75c0.15-0.83,1.01-1.51,1.45-2.31c1.25-2.32,3.38-4.13,4-6.8
	c0.23-0.98,0.56-1.79,1.53-2.26c0.4-0.2,0.95-0.57,1-0.93c0.36-2.27,1.58-4,2.94-5.8c0.88-1.17,0.56-2.99,1.95-4.2
	c1.12-0.97,1.8-2.47,2.62-3.76c0.51-0.8,1.12-1.61,1.32-2.49c0.33-1.44,0.81-2.64,1.97-3.67c0.64-0.57,0.93-1.65,1.14-2.56
	c0.23-0.98,0.44-1.84,1.47-2.27c0.28-0.11,0.61-0.35,0.7-0.61c0.44-1.35,0.51-2.93,1.27-4.05c0.76-1.13,2.14-1.79,2.23-3.44
	c0.07-1.3,0.84-2.16,1.82-3.13c1.39-1.38,2.25-3.33,3.22-5.1c0.8-1.46,0.73-3.47,2.84-4.07c0.29-0.08,0.47-0.8,0.56-1.26
	c0.34-1.72,0.77-3.21,2.31-4.48c0.91-0.75,0.96-2.54,1.41-3.9c3.85,1.95,4,2.08,4.86,5.24c0.26,0.93,0.44,1.77,1.34,2.41
	c0.58,0.42,0.97,1.23,1.22,1.95c0.51,1.45,0.29,3.26,2.27,3.91c0.31,0.1,0.48,0.79,0.61,1.24c0.53,1.85,1.7,3.33,2.6,4.97
	c1.11,2.03,3.05,3.49,3.54,6.04c0.39,2.03,2.53,3.52,2.84,5.84c0.07,0.51,0.76,0.93,1.15,1.4c0.48,0.58,1.14,1.11,1.36,1.79
	c0.95,2.9,2.8,5.2,4.63,7.54c0.29,0.37,0.61,0.8,0.67,1.23c0.44,3.08,3.44,4.98,3.7,8.12c2.16,1.58,2.23,4.5,3.99,6.29
	c1.33,1.36,1.04,3.79,3.21,4.57c0.29,0.1,0.4,0.83,0.51,1.29c0.37,1.55,0.62,3.08,2.13,4.13c0.55,0.38,0.68,1.38,0.95,2.11
	c0.22,0.59,0.19,1.51,0.6,1.77c1.56,0.99,2.29,2.42,2.93,4.08c0.62,1.59,1.39,3.23,2.5,4.48c1.5,1.7,2.77,3.4,3.03,5.7
	c1.91,1.43,1.95,3.9,3.13,5.63c0.95,1.39,2.19,2.52,2.61,4.27c0.41,1.7,2.47,2.52,2.53,4.49c0.01,0.35,0.52,0.83,0.9,1
	c1.21,0.53,1.53,1.53,1.69,2.68c0.07,0.47,0.21,0.94,0.24,1.42c0.08,1.79,2.53,1.85,2.6,3.79c0.06,1.52,0.22,3.29,2.28,3.78
	c0.22,0.05,0.47,0.48,0.5,0.76c0.24,1.83,1.08,3.24,2.45,4.51c1.08,1,0.69,3.14,2.7,3.63c0.34,0.08,0.51,1.09,0.66,1.7
	c0.36,1.52,0.27,3.18,2.17,3.98c0.49,0.2,0.6,1.39,0.8,2.14c0.32,1.22,0.33,2.56,1.82,3.14c0.36,0.14,0.78,0.69,0.81,1.07
	c0.18,3.09,2.94,4.75,4.03,7.33c0.2,0.47,0.82,0.76,1.26,1.14c-1.04,1.39-2.29,1.62-3.55,1.71c-1.27,0.09-2.56,0.06-3.83,0.06
	c-49.71,0-99.43,0-149.14,0c-1.28,0-2.56,0.05-3.83-0.07C503.39,595.33,502.11,595.13,501.22,593.75z"/>
<path class="st0" d="M2139.57,523.38c-0.17,4.42-0.34,8.56-0.49,12.71c-0.07,2.06-0.15,3.97-1.64,5.79
	c-0.89,1.09-0.74,3.01-1.07,4.56c-0.2,0.92-0.13,2.35-0.69,2.67c-1.88,1.06-2.24,2.75-2.16,4.48c0.1,1.97-2.16,1.75-2.52,3.22
	c-0.33,1.35-0.88,2.65-1.33,3.97c-2.42,1.01-2.24,4.13-4.35,5.39c-1.77,3.55-5.15,5.72-7.52,8.75c-1.89,0.59-2.1,2.87-4.04,3.73
	c-1.62,0.72-2.94,2.35-4.81,2.92c-0.71,2.06-3.15,1.97-4.29,3.42c-0.88,1.11-2.03,1.51-3.26,1.82c-0.95,0.24-1.83,0.46-2.35,1.42
	c-0.21,0.39-0.67,0.9-1.02,0.9c-3.61,0.07-6.2,3.2-9.8,3.26c-0.63,0.01-1.42,0.05-1.85,0.41c-3.39,2.8-7.58,2.19-11.45,2.63
	c-7.96,0.92-15.96,0.77-23.92-0.17c-3.12-0.36-6.41-0.12-9.07-2.46c-0.63-0.55-1.82-0.48-2.76-0.65c-1.09-0.2-2.16-0.3-3.04-1.2
	c-0.51-0.52-1.4-0.87-2.14-0.92c-3.84-0.28-6.55-2.71-9.42-4.83c-0.25-0.19-0.49-0.52-0.76-0.55c-2.51-0.29-4.06-2.11-5.74-3.66
	c-1.6-1.49-3.37-2.69-5.16-3.93c-1.67-1.16-3.01-2.82-4.38-4.36c-2.07-2.33-4.11-4.7-6.05-7.15c-2.52-3.19-4.56-6.69-5.98-10.51
	c-2.56-2.34-1.91-6.32-4.46-8.72c-0.57-0.53-0.48-1.8-0.63-2.74c-0.47-2.81-0.47-5.72-2.33-8.18c-0.51-0.67-0.52-1.82-0.52-2.75
	c-0.04-6.71-0.04-13.41,0-20.12c0.01-0.94-0.02-2.12,0.51-2.76c1.88-2.28,1.89-5.03,2.22-7.68c0.22-1.74,0.19-3.38,1.77-4.71
	c0.73-0.61,0.9-2,1.11-3.07c0.34-1.7,0.3-3.46,2.11-4.55c0.53-0.32,0.52-1.44,0.87-2.13c0.65-1.26,1.48-2.42,2.06-3.71
	c0.52-1.15,0.69-2.41,2.12-2.97c0.45-0.18,0.63-1.03,0.97-1.55c1.3-1.98,2.26-4.4,4.02-5.79c1.6-1.26,2.04-3.66,4.3-4.1
	c0.22-2.1,2.5-2.18,3.53-3.55c1.01-1.34,2.4-2.41,3.71-3.49c0.59-0.48,1.4-0.7,2.12-1.03c0.58-0.26,1.57-0.37,1.68-0.75
	c0.6-2.07,2.76-1.91,4-3.01c1.34-1.19,2.84-2.04,4.65-2.28c1.7-2.68,4.61-2.45,7.21-2.96c0.31-0.06,0.74-0.03,0.92-0.22
	c2.32-2.57,5.56-1.93,8.46-2.47c1.24-0.23,2.63-0.29,3.66-0.92c2.17-1.32,4.47-1.56,6.89-1.55c4.32,0.03,8.63,0.01,12.95,0.01
	c1.44,0,2.92-0.09,4.16,0.81c1.92,1.38,4.12,1.58,6.36,1.71c1.43,0.08,2.87,0.23,4.29,0.43c0.78,0.11,1.78,0.16,2.24,0.65
	c1.46,1.55,3.33,1.75,5.23,1.97c1.47,0.17,2.84,0.47,3.63,1.93c0.14,0.25,0.46,0.47,0.74,0.57c1.74,0.6,3.65,0.41,5.05,2.27
	c1.05,1.39,3.5,1.36,4.59,3.1c2.27,0.43,3.76,2.02,5.32,3.53c0.32,0.31,1.02,0.34,1.2,0.68c1.44,2.65,4.2,3.98,6.07,6.21
	c1.36,1.62,2.74,3.25,4.44,4.53c1.36,1.02,1.67,2.81,3.17,3.87c0.95,0.67,0.75,2.8,1.6,3.83c0.87,1.05,2.18,1.6,2.32,3.3
	c0.07,0.85,0.83,1.7,1.44,2.42c0.64,0.75,1.14,1.47,1.22,2.5c0.13,1.75,0.26,3.5,2.13,4.52c0.4,0.22,0.58,1.1,0.63,1.7
	c0.21,2.72,0.59,5.33,2.12,7.74c0.63,0.99,0.63,2.45,0.69,3.71C2139.28,514.07,2139.41,518.85,2139.57,523.38z M2111.13,522.47
	c-0.04,0-0.08,0-0.13-0.01c0-1.92,0.07-3.84-0.02-5.75c-0.11-2.55,0.02-5.19-0.63-7.61c-0.68-2.51-2.57-4.65-2.71-7.42
	c-1.67-1.39-2.05-3.54-3.16-5.24c-0.63-0.97-1.94-1.34-2.48-2.7c-0.48-1.23-1.62-2.27-2.66-3.19c-2.3-2.02-4.49-4.23-6.91-6.03
	c-2.59-1.93-5.72-3.17-8.39-5.12c-0.5-0.36-1.15-0.58-1.76-0.71c-2.44-0.51-5.11-0.25-6.97-2.5c-0.3-0.37-1.22-0.31-1.85-0.31
	c-6.55-0.01-13.1-0.02-19.65,0.03c-0.76,0.01-1.94,0.17-2.19,0.65c-1.06,2.01-2.89,1.67-4.59,1.91c-0.61,0.09-1.47,0.18-1.74,0.59
	c-1.62,2.5-5.48,1.85-6.69,4.84c-2.75,0.24-3.99,3.16-6.58,3.69c-0.85,2.06-3.59,2.47-4.17,4.86c-0.21,0.85-1.23,1.46-1.67,2.29
	c-1.35,2.57-4.39,4.15-4.44,7.5c0,0.28-0.19,0.68-0.42,0.83c-1.67,1.12-1.84,2.87-2.05,4.63c-0.07,0.62-0.13,1.41-0.52,1.79
	c-1.82,1.77-1.78,4.09-1.83,6.26c-0.1,4.31,0.02,8.62,0.2,12.93c0.05,1.23,0.33,2.63,1,3.62c0.87,1.29,1.07,2.64,1.23,4.05
	c0.24,2.02-0.05,4.21,2.18,5.45c0.22,0.12,0.37,0.54,0.38,0.83c0.11,2.16,0.73,4.01,2.79,5.09c2.66,5.26,7.5,8.53,11.51,12.55
	c0.83,0.84,2.61,0.92,3.14,1.83c0.89,1.54,2.18,1.68,3.56,2.01c0.75,0.18,1.79,0.3,2.12,0.81c1.27,1.96,3.24,1.76,5.1,2.01
	c2.05,0.28,4.16,0.35,6.12,0.95c4.27,1.31,8.51,1.18,12.72,0.06c1.71-0.45,3.34-0.94,5.13-0.96c2.36-0.03,4.82,0.06,6.54-2.12
	c0.25-0.32,0.86-0.38,1.32-0.51c5.03-1.41,5.03-1.42,9.66-5.2c0.35-0.29,0.79-0.54,1.23-0.65c1.6-0.37,2.67-1.26,3.85-2.46
	c1.18-1.18,2.35-2.44,3.59-3.6c2.17-2.03,4.48-3.94,5.02-7.13c0.07-0.44,0.29-1.04,0.63-1.22c1.66-0.89,1.74-2.53,2.11-4.06
	c0.3-1.24,0.33-2.73,1.07-3.62c1.36-1.64,1.47-3.46,1.57-5.36C2110.88,528.21,2111,525.34,2111.13,522.47z"/>
<path class="st0" d="M1620.76,594.51c-0.3-1.07-0.72-2.1-0.84-3.17c-0.16-1.42-0.09-2.87-0.09-4.31c0-43.29,0-86.58,0-129.87
	c0-1.44-0.06-2.88,0.09-4.31c0.09-0.9,0.52-1.77,0.85-2.79c1.4-0.09,2.65-0.25,3.91-0.25c15.82,0.04,31.64,0.09,47.47,0.16
	c2.08,0.01,4.15,0.12,6.23,0.23c0.79,0.04,1.63,0.06,2.35,0.34c3.91,1.49,7.93,2.34,12.11,2.49c0.45,0.02,1.12,0.13,1.31,0.43
	c1.32,2.04,3.45,2.03,5.48,2.3c0.32,0.04,0.68,0.03,0.93,0.19c1.33,0.8,2.55,1.88,3.98,2.42c1.47,0.55,2.82,1.1,4.21,1.93
	c2.38,1.42,4.32,3.56,7.16,4.35c1.73,0.48,2.42,2.82,4.36,3.33c2.32,2.89,4.92,5.51,7.83,7.82c0.16,2.16,2.54,2.6,3.34,4.35
	c0.78,1.71,2.1,3.18,2.88,4.9c0.47,1.04,0.86,1.91,1.79,2.68c0.63,0.52,0.86,1.64,1.07,2.54c0.29,1.26,0.53,2.43,1.6,3.36
	c0.55,0.48,0.92,1.33,1.07,2.08c0.54,2.66,1.03,5.29,2.61,7.61c0.41,0.61,0.43,1.53,0.49,2.32c0.77,11.17,0.8,22.34-0.02,33.5
	c-0.05,0.73-0.46,1.47-0.81,2.15c-0.42,0.83-1.17,1.56-1.39,2.42c-0.42,1.69-0.28,3.57-0.93,5.14c-0.58,1.39-2.15,2.43-2.27,4.05
	c-0.14,1.93-1.5,3.12-2.37,4.57c-0.84,1.41-0.44,3.72-2.78,4.11c-0.97,1.79-1.32,3.98-3.26,5.17c-0.41,2.41-3.56,2.63-4,5.01
	c-1.95,0.35-2.42,2.32-3.72,3.4c-1.54,1.29-2.84,2.73-4.82,3.59c-1.62,0.71-3.12,2.04-4.52,3.18c-1.15,0.93-2.19,1.68-3.57,2.1
	c-0.72,0.22-1.66,0.51-1.99,1.07c-0.76,1.32-1.87,1.59-3.19,1.71c-1.27,0.12-2.5,0.26-3.24,1.61c-0.62,1.13-1.87,1.07-2.98,1.18
	c-2.04,0.22-4.09,0.17-5.81,1.71c-0.62,0.56-1.79,0.58-2.73,0.7c-2.38,0.29-4.78,0.39-7.14,0.75c-2.47,0.38-5.07-0.04-7.37,1.6
	c-0.92,0.65-2.47,0.54-3.74,0.54c-15.66,0.03-31.33,0.02-46.99-0.01C1622.52,594.89,1621.75,594.66,1620.76,594.51z M1649.14,566.34
	c1.02,0.24,1.48,0.44,1.94,0.44c7.04-0.04,14.07-0.11,21.11-0.16c1.31-0.01,2.53-0.22,3.58-1.1c1.44-1.2,3.16-1.37,4.96-1.41
	c2.2-0.06,4.53,0.07,5.96-2.2c0.14-0.22,0.55-0.37,0.85-0.38c2.44-0.12,4.65-0.75,6.26-2.75c2.16-0.24,3.39-1.93,5.03-2.97
	c1.6-1.02,2.71-2.52,4.3-3.53c1.6-1.01,3.3-2.55,3.7-4.77c2.35-0.62,2.29-3.22,3.75-4.63c1.55-1.5,1.49-3.79,1.89-5.82
	c0.06-0.31,0.13-0.69,0.33-0.88c1.84-1.72,1.84-4.05,1.9-6.24c0.17-6.23,0.17-12.46,0.17-18.69c0-1.1-0.01-2.5-0.63-3.24
	c-2.29-2.71-1.89-6.74-4.67-9.15c-0.48-2.65-3.17-3.69-4.31-5.92c-0.65-1.28-2.02-2.3-3.27-3.14c-1.42-0.96-1.95-2.82-3.8-3.35
	c-0.59-0.17-0.8-1.55-1.4-1.77c-2.04-0.75-4.41-0.79-5.64-3.03c-1.26-0.19-2.61-0.17-3.76-0.63c-1.11-0.44-1.93-1.76-3.04-2.03
	c-2-0.49-4.12-0.43-6.18-0.69c-1.41-0.17-2.92-0.21-4.17-0.79c-2.39-1.1-4.83-1.45-7.41-1.56c-5.58-0.24-11.15-0.18-16.58-0.05
	c-1.32,2-1.11,3.95-1.12,5.85c-0.01,26.54-0.01,53.08,0,79.62C1648.9,562.93,1649.05,564.5,1649.14,566.34z"/>
<path class="st0" d="M924.87,594.53c-1.52,0.17-2.46,0.37-3.39,0.37c-7.67,0-15.35-0.04-23.02-0.09c-0.44,0-0.88-0.29-1.5-0.51
	c-0.2-0.87-0.51-1.77-0.58-2.69c-0.11-1.43-0.08-2.87-0.08-4.31c0-43.63,0-87.25,0-130.88c0-1.9,0.06-3.8,0.09-5.3
	c1.27-1.59,2.63-1.3,3.87-1.3c7.67-0.03,15.35-0.06,23.02-0.01c10.71,0.08,21.42,0.26,32.13,0.36c1.78,0.02,3.37,0.21,4.95,1.33
	c2.03,1.44,4.6,1.09,6.97,1.32c1.59,0.15,3.22-0.05,4.11,1.81c0.2,0.42,1.08,0.63,1.68,0.73c1.75,0.3,3.46,0.58,4.38,2.39
	c0.12,0.23,0.53,0.33,0.82,0.44c1.44,0.54,3.06,0.56,3.79,2.46c0.47,1.2,2.85,0.86,2.87,2.81c1.52,0.9,2.28,2.51,3.47,3.66
	c0.98,0.94,1.7,1.81,2,3.08c0.04,0.16,0.06,0.33,0.14,0.45c0.88,1.23,2,2.36,2.59,3.71c0.61,1.43,0.58,3.05,2.07,4.15
	c0.61,0.45,0.81,1.63,0.92,2.52c0.28,2.22,0.41,4.42,2.06,6.22c0.47,0.52,0.64,1.44,0.68,2.19c0.38,6.7,0.87,13.4,0.08,20.1
	c-0.15,1.26-0.19,2.49-1.32,3.46c-0.54,0.46-0.69,1.39-1,2.12c-0.79,1.83-0.14,4.05-1.99,5.69c-1.35,1.2-2.08,3.08-3.16,4.61
	c-1.15,1.62-1.39,3.93-3.56,4.8c-0.41,2.48-3.46,2.59-4.24,4.73c-2.37,0.53-2.99,3.87-5.83,3.63c-1.28,2.14-3.57,2.18-5.59,2.95
	c-1.48,0.56-2.54,2.21-3.96,3.54c2.28,2.65,4.46,5.17,6.42,7.85c0.46,0.63,1.09,1.22,1.31,1.93c0.75,2.52,2.89,4.07,4.36,6.03
	c1.13,1.51,2.01,3.49,3.94,4.36c0.27,2.25,2.65,3.29,3.18,5.18c0.51,1.81,2.66,1.75,2.96,3.49c0.33,1.94,2.96,2.05,3.28,4.4
	c0.23,1.69,1.59,3.81,3.05,4.6c1.98,1.07,1.91,3.7,4.09,4.33c0.27,0.08,0.54,0.36,0.68,0.62c1.02,1.93,2.02,3.87,3,5.82
	c0.05,0.1-0.1,0.29-0.29,0.77c-0.53,0.12-1.26,0.43-1.98,0.44c-9.59,0.04-19.19,0.01-28.78,0.05c-2.63,0.01-4.72-0.67-5.68-3.39
	c-0.64-1.81-3.08-2.3-3.33-4.42c-2.44-2.05-4.16-4.63-5.53-7.48c-0.67-1.39-2.51-1.98-2.63-3.77c-2.69-2.06-4.06-5.08-5.9-7.78
	c-0.91-1.34-2.55-2.21-3.08-3.94c-2.24-0.48-2.09-2.98-3.58-4.2c-1.77-1.45-1.96-4.28-4.21-5.47c-0.53-2.44-3.27-3.23-4.06-5.54
	c-0.5-1.48-1.31-2.93-2.26-4.17c-0.92-1.19-2.21-2.1-3.53-3.33c-1.1,0-2.5,0-3.8,0c-1.2,1.61-0.74,3.26-0.74,4.81
	c-0.04,13.9-0.01,27.81-0.03,41.71C925.16,590.02,924.98,592.07,924.87,594.53z M967.45,487.63c-2.4-0.58-2.74-3.74-5.24-4.19
	c-0.42-1.43-1.52-1.89-2.87-2.13c-0.77-0.14-1.79-0.31-2.19-0.85c-1.48-1.98-3.57-1.85-5.62-1.98c-0.96-0.06-1.93,0.03-2.87-0.11
	c-6.37-0.9-12.77-0.39-19.16-0.39c-1.37,0-2.9-0.16-4.14,1.18c-0.05,0.67-0.15,1.45-0.15,2.24c0.04,11.98,0.09,23.97,0.15,35.95
	c0,0.15,0.05,0.32,0.13,0.46c0.07,0.13,0.21,0.24,0.6,0.66c0.57,0.12,1.48,0.46,2.4,0.46c6.72,0.05,13.44,0.11,20.15,0
	c2.38-0.04,4.84-0.23,7.11-0.89c2.24-0.65,4.28-2.08,6.25-3.28c3.76-2.29,5.97-6.2,8.17-9.95c0.31-0.52,0.43-1.23,0.43-1.85
	c0.04-2.71,0.04-5.43-0.03-8.15c-0.01-0.59-0.19-1.47-0.6-1.72C967.9,491.81,968.33,489.43,967.45,487.63z"/>
<path class="st0" d="M2370.49,594.56c1.35-2.08,2.09-3.63,3.2-4.83c1.11-1.21,1.82-2.55,2.54-3.99c0.53-1.07,1.62-1.84,2.28-2.86
	c2.52-3.92,4.73-8.04,7.82-11.57c1.14-1.31,1.18-3.19,2.7-4.41c1.28-1.03,2.06-2.7,3.04-4.1c0.18-0.26,0.42-0.56,0.42-0.85
	c0.02-2.82,3.24-3.75,3.69-6.3c1.71-1.14,1.92-3.27,2.99-4.67c1.18-1.55,2.25-3.27,3.6-4.72c0.53-0.57,1.07-1.22,1.31-1.93
	c0.51-1.49,0.67-3.15,2.57-3.63c1.18-2.04,2.38-4.07,3.53-6.13c0.23-0.4,0.15-1.18,0.43-1.31c1.73-0.81,2.34-2.35,3.06-3.94
	c0.71-1.57,2.21-2.73,2.46-4.59c0.03-0.25,0.37-0.59,0.63-0.66c1.6-0.39,1.75-1.61,1.9-2.94c0.16-1.49,0.16-3.11-1-4.02
	c-1.81-1.42-1.56-4.25-3.88-5.23c-0.22-0.09-0.36-0.52-0.44-0.81c-0.41-1.52-0.55-3.09-2.2-4.02c-1.37-0.77-0.86-3.11-2.75-3.66
	c-0.34-0.1-0.63-0.7-0.77-1.13c-0.5-1.49-0.65-3.08-2.32-3.98c-1.21-0.65-0.81-2.86-2.7-3.09c-0.23-0.03-0.48-0.43-0.6-0.7
	c-0.72-1.63-0.01-4.02-2.51-4.71c-0.8-1.52-1.5-3.07-2.84-4.27c-1.26-1.13-0.64-3.3-2.59-4.35c-1.2-0.64-1.96-2.35-2.61-3.72
	c-1.01-2.13-2.28-4-3.79-5.82c-1.48-1.79-1.98-4.42-3.55-6.09c-1.52-1.62-2.72-3.41-3.7-5.28c-1.65-3.14-4.66-5.45-5.57-9.35
	c0.71-0.35,1.37-0.96,2.03-0.97c9.9-0.09,19.81-0.31,29.64,0.12c1.47,1.64,3.55,2.54,3.87,4.86c2.95,1.69,2.88,5.47,5.24,7.57
	c0.41,2.05,3.11,2.54,3.18,4.99c0.06,1.92,2.84,2.6,2.8,4.79c2.18,0.91,2.34,3.1,3.31,4.85c0.78,1.41,1.86,3.01,3.04,3.96
	c1.25,1.01,1.86,1.97,2.19,3.37c0.14,0.61,0.32,1.63,0.66,1.71c2.25,0.52,1.53,3.62,3.64,4.09c1.47,0.33,1.07,3.15,3.03,2.39
	c1.03-0.4,1.81-1.57,2.55-2.52c1.34-1.72,2.94-3.37,3.72-5.33c0.83-2.11,2.71-3.33,3.57-5.34c0.87-2.02,3-3.33,3.33-5.69
	c2.68-2.32,3.37-6.01,5.64-8.48c2.4-2.61,3.7-5.71,5.35-8.67c2.01-1.02,2.38-3.17,3.44-4.86c0.52-0.83,1.72-1.37,2.73-1.72
	c0.87-0.3,1.9-0.18,2.85-0.18c7.51-0.01,15.03-0.02,22.54,0.01c1.57,0.01,3.14,0.23,4.83,0.37c0.46,2.33,0.74,4.05-1.5,5.61
	c-1.44,1-2.16,2.99-3.29,4.48c-1.01,1.32-0.44,3.67-2.72,4.15c-0.85,1.49-1.34,3.22-2.87,4.26c-1.48,4.33-5.8,6.98-6.82,11.57
	c-2.69,2.5-3.97,5.9-5.72,9c-2.95,1.45-2.78,5.22-5.25,7.03c-0.24,2.22-3.03,2.55-3.42,4.94c-0.28,1.72-1.44,3.78-2.85,4.73
	c-2.9,1.97-2.53,5.73-4.97,7.82c-0.45,0.38-0.51,1.27-0.98,1.57c-2.94,1.89-2.1,4.67-1.86,7.32c0.01,0.16,0.01,0.38,0.11,0.46
	c3.34,2.51,3.39,7.33,6.87,9.75c0.36,0.25,0.7,0.68,0.84,1.09c0.48,1.5,0.59,3.18,2.16,4.1c1.39,0.82,0.89,3.14,2.89,3.57
	c0.39,0.08,0.66,0.99,0.88,1.56c0.52,1.33,0.86,2.67,2.26,3.53c1.17,0.72,0.69,2.85,2.51,3.24c0.34,0.07,0.69,0.65,0.82,1.06
	c0.48,1.51,0.6,3.22,2.17,4.1c1.43,0.81,0.81,3.23,2.9,3.53c0.3,0.04,0.61,0.7,0.74,1.13c0.45,1.53,0.73,3.09,2.16,4.14
	c1.22,0.9,0.75,3.23,2.88,3.46c0.2,0.02,0.51,0.5,0.5,0.75c-0.14,2.87,2.96,3.99,3.46,6.5c2,0.76,2.39,2.71,3.29,4.31
	c0.84,1.5,2.42,2.55,2.68,4.41c2.71,2.04,3.59,5.36,5.55,7.92c0.65,0.85,1.5,1.54,2.49,2.53c-0.69,0.36-1.18,0.82-1.71,0.87
	c-1.75,0.16-3.51,0.24-5.26,0.25c-7.51,0.02-15.04-0.2-22.54,0.1c-3.16,0.13-5.26-1.37-6.75-3.42c-1.35-1.86-3.08-3.55-3.79-5.97
	c-0.55-1.87-2.69-2.92-3.44-4.84c-0.11-0.27-0.55-0.41-0.66-0.68c-0.48-1.18-0.91-2.37-1.32-3.57c-0.43-1.27-2-1.24-2.57-2.64
	c-0.88-2.12-2.73-3.75-3.49-6.06c-0.3-0.91-1.54-1.47-2.12-2.34c-1.27-1.92-3.17-3.51-3.4-6.03c-1.68-1-2.18-3-3.51-4.22
	c-0.89-0.82-1.43-1.64-1.7-2.73c-0.35-1.44-0.97-2.55-2.45-3.29c-0.82-0.41-1.26-1.57-1.93-2.45c-1.22,1.18-2.1,2.24-3.19,3.01
	c-1.38,0.97-0.79,2.83-1.82,3.74c-1.64,1.46-1.97,3.91-4.03,5c-0.37,0.2-0.68,0.68-0.81,1.1c-0.48,1.51-0.68,3.17-2.24,4.07
	c-1.4,0.81-0.69,3.22-2.84,3.58c-0.45,0.07-0.68,1.33-1.07,2c-1.31,2.27-2.59,4.56-4.59,6.33c-0.34,0.3-0.61,0.69-0.82,1.09
	c-1.08,2.08-1.99,4.26-3.24,6.23c-0.87,1.38-2.54,2.03-2.93,4.03c-0.3,1.54-1.65,2.93-2.68,4.27c-1.65,2.14-3.39,3.84-6.58,3.76
	c-8.31-0.21-16.63-0.05-24.94-0.08C2374.08,594.92,2372.67,594.72,2370.49,594.56z"/>
<path class="st0" d="M190.03,450.19c1.08-0.13,2.16-0.37,3.24-0.36c17.74,0.1,35.49,0.23,53.23,0.38c0.94,0.01,2.1-0.05,2.77,0.45
	c2.77,2.09,6,1.96,9.16,2.22c0.48,0.04,0.96,0.07,1.82,0.13c1.1,1.1,2.29,2.61,4.43,2.7c0.85,0.03,1.69,0.71,2.52,1.12
	c1.13,0.56,2.19,1.33,3.37,1.69c1.02,0.31,1.67,0.74,2.08,1.71c0.16,0.38,0.62,0.74,1.03,0.89c3.66,1.34,5.98,3.98,7.57,7.44
	c0.35,0.76,1.77,1.11,1.95,1.84c0.79,3.24,3.92,5.44,3.85,9.06c-0.02,1.07,0.22,2.36,0.84,3.18c1.37,1.81,1.51,3.77,1.5,5.87
	c-0.05,5.91-0.05,11.82-0.08,17.72c-0.01,1.44-0.05,2.88-1.36,3.91c-0.35,0.28-0.75,0.8-0.72,1.19c0.21,3.48-3.01,5.54-3.54,8.69
	c-2.84,2.07-3.44,5.95-6.4,7.92c-0.52,0.35-0.95,1.07-1.49,1.15c-2.55,0.36-3.31,3.38-5.8,3.75c-0.81,1.77-2.28,2.48-4.14,2.59
	c-0.31,0.02-0.62,0.14-0.92,0.27c-1.16,0.49-1.27,2.23-2.88,2.27c-1.27,0.03-2.53,0.31-3.79,0.53c-0.47,0.08-1.03,0.17-1.34,0.47
	c-2.44,2.33-5.57,2.15-8.53,2.21c-7.83,0.17-15.67,0.14-23.5,0.19c-1.91,0.01-3.82,0-5.44,0c-2.69,2.44-3.45,5.1-3.41,8.36
	c0.15,12.94,0.07,25.89,0.05,38.83c0,1.89,0.21,3.82-0.74,5.86c-0.87,0.16-1.77,0.44-2.69,0.48c-10,0.43-18.93,0.18-22.7-0.65
	c-0.19-0.94-0.49-1.99-0.59-3.06c-0.11-1.27-0.05-2.55-0.05-3.83c0-43.63-0.01-87.25,0.02-130.88
	C189.35,454.45,188.96,452.35,190.03,450.19z M219.04,515.01c1.72,0.07,3.3,0.17,4.89,0.18c4.48,0.02,8.95,0.05,13.43-0.01
	c2.65-0.03,5.42,0.56,7.72-1.58c0.49-0.45,1.53-0.3,2.31-0.45c1.41-0.27,3.26-0.11,4.11-0.95c1.44-1.43,3.21-2.42,4.65-3.88
	c1.56-1.59,1.76-3.69,3.09-5.19c1.5-1.7,1.8-3.66,1.75-5.79c-0.03-1.44,0.05-2.88-0.05-4.31c-0.11-1.58-0.36-3.16-0.54-4.74
	c-2.12-1.05-1.98-3.77-3.88-5.12c-1-0.71-1.61-1.83-3.07-1.96c-0.72-0.07-1.51-0.56-2.06-1.08c-1.39-1.32-3.04-1.59-4.85-1.64
	c-2.22-0.06-4.52,0.03-6.21-1.88c-0.19-0.21-0.67-0.44-0.84-0.35c-2.1,1.2-3.97-0.42-5.97-0.41c-4.79,0.01-9.58,0-14.22,0
	c-1.04,1.48-1.94,2.75-2.97,4.2c1.43,1.5,2.27,3.12,0.35,4.9c-0.22,0.2-0.12,0.91,0.02,1.32c0.3,0.87,1.05,1.71,1.01,2.53
	c-0.04,0.84-0.8,1.65-1.23,2.44c0.11,0.34,0.12,0.71,0.31,0.92c1.07,1.21,1.48,2.36,0.28,3.81c-0.42,0.51-0.64,1.52-0.44,2.14
	c1.19,3.71,0.87,7.58,1.12,11.36C217.86,511.28,218.07,512.91,219.04,515.01z"/>
<path class="st0" d="M2293.72,643.93c4.49-0.09,8.76-0.39,13.17,0.22c0.17,1.08,0.28,2.01,0.46,2.93c0.12,0.62,0.14,1.6,0.51,1.77
	c2.43,1.11,2.22,3.3,2.29,5.31c0.08,2.27,2.17,3.48,2.63,5.44c0.47,2,0.22,4.24,1.79,5.83c1.14,1.15,1.26,2.5,1.38,3.94
	c0.06,0.78,0.09,2.01,0.53,2.23c2.6,1.27,1.94,3.72,2.44,5.78c0.29,1.19,1.02,2.27,1.59,3.38c0.28,0.54,0.76,1,0.96,1.56
	c0.32,0.89,0.37,2.13,1.47,2.25c1.5,0.16,1.42-1.32,1.91-2.26c0.56-1.08,1.67-1.91,2.08-3.02c0.49-1.32,0.46-2.82,0.72-4.23
	c0.14-0.76,0.22-1.98,0.67-2.17c2.14-0.89,1.96-2.69,2.12-4.42c0.06-0.62,0.05-1.41,0.41-1.82c1.82-2.01,2.24-4.43,2.71-6.99
	c0.29-1.59,1.74-2.94,2.3-4.53c0.51-1.48,0.5-3.13,0.78-4.69c0.05-0.26,0.37-0.56,0.63-0.66c1.47-0.56,1.64-1.79,1.74-3.11
	c0.06-0.78,0.24-1.54,0.39-2.47c4.36-0.7,8.63-0.27,12.74-0.32c1.46,1.94,1.18,3.9,1.18,5.79c0.03,7.03,0.02,14.06,0.02,21.09
	c0,9.74,0.01,19.49-0.01,29.23c-0.01,1.89,0.29,3.84-0.88,5.68c-2.32,0.52-4.67,0.4-7.01,0.1c-1.29-1.6-0.95-3.42-0.96-5.13
	c-0.04-7.67-0.01-15.34-0.03-23c0-1.57-0.13-3.13-0.19-4.62c-1.85-0.68-3.37-0.82-5.1-0.21c-0.21,1.28-0.39,2.52-0.62,3.75
	c-0.3,1.6-2.34,2.12-2.36,3.98c-0.01,1.42-0.35,2.84-0.65,4.24c-0.31,1.43-2.36,1.65-2.38,3.41c-0.01,1.26-0.2,2.55-0.52,3.78
	c-0.19,0.74-0.77,1.38-1.19,2.05c-0.33,0.53-0.8,1.01-1.01,1.59c-0.65,1.74-0.06,3.73-1.54,5.4c-1.08,1.22-1.52,3.02-2.35,4.78
	c-2.22,0-4.56,0-7.01,0c-1.01-1.85-0.76-4.21-2.78-5.49c-0.55-0.35-0.51-1.75-0.59-2.68c-0.11-1.31-0.3-2.46-1.45-3.37
	c-1.21-0.97-1.32-2.47-1.41-3.93c-0.1-1.76-0.28-3.44-1.97-4.62c-0.52-0.36-0.68-1.39-0.8-2.15c-0.35-2.16-0.15-4.53-2.47-5.85
	c-0.31-1.55-0.63-3.09-0.96-4.73c-1.59-1.01-3.24-0.53-5.23-0.2c-0.06,5.6,0.03,11.01-0.05,16.41c-0.08,5.39,0.35,10.81-0.36,16.38
	c-2.72,0.72-5.22,0.46-7.78,0.31c-1.8-2.06-2.36-4.41-2.36-7.05c0.04-16.13,0.04-32.27-0.03-48.4
	C2291.28,647.98,2292.13,646.07,2293.72,643.93z"/>
<path class="st0" d="M859.51,647.63c0.2,0.13,0.25,1.92,2.11,2.16c1.2,0.15,0.79,2.38,2.33,2.75c0.39,0.09,0.98,0.61,0.98,0.93
	c0,3,2.06,5.34,2.56,8.12c0.5,2.79,0.93,5.72-1.13,8.24c-0.29,0.35-0.52,0.87-0.52,1.3c0.05,2.83-1.91,4.71-3.66,6.28
	c-1.54,1.37-2.66,3.59-5.17,3.81c-0.53,0.05-1.01,0.74-1.51,1.13c-2.12,1.65-2.38,4.04-0.59,6.13c1.09,1.28,2.1,2.73,3.45,3.66
	c1.37,0.94,1.04,3.15,2.98,3.5c0.25,0.05,0.57,0.39,0.63,0.65c0.86,3.42,3.96,5.54,5.1,8.83c-0.2,0.19-0.41,0.56-0.63,0.56
	c-3.83,0.04-7.65,0.03-11.72,0.03c-1.29-1.81-2.92-3.65-4.48-5.51c-1.69-2.01-1.95-5.07-4.65-6.27c-1.2-2.22-2.4-4.43-3.67-6.77
	c-1.35-0.6-2.88-0.84-4.68-0.27c-0.13,0.91-0.36,1.82-0.37,2.73c-0.05,3.68,0.01,7.35-0.04,11.03c-0.02,1.57-0.2,3.13-0.3,4.59
	c-3.97,0.95-6.6,0.97-10.74,0.12c-0.09-0.53-0.29-1.14-0.29-1.74c-0.02-19.65-0.01-39.3-0.01-59.18c1.09-0.24,1.97-0.6,2.86-0.61
	c5.6-0.05,11.2-0.08,16.8,0c1.4,0.02,2.82,0.39,4.18,0.77C852.39,645.46,855.42,646.41,859.51,647.63z M837.53,656.05
	c-0.23,1.49-0.55,2.72-0.57,3.95c-0.08,3.34-0.05,6.68-0.01,10.02c0.01,0.94,0.04,1.95,0.37,2.81c0.25,0.66,0.87,1.44,1.5,1.64
	c2.8,0.91,5.88,1.21,8.32-0.36c1.97-1.26,4.04-1.62,6.31-2.23c0.18-0.57,0.24-1.23,0.56-1.71c0.43-0.63,1.13-1.07,1.6-1.68
	c1.46-1.86,1.67-5.58-0.04-7.01c-1.06-0.89-1.31-2.1-2.13-2.91c-0.94-0.92-2.67-0.8-3.35-2.34c-0.18-0.42-1.07-0.7-1.66-0.74
	C844.96,655.24,841.48,654.84,837.53,656.05z"/>
<path class="st0" d="M531.08,655.17c-4.74,0-9.05-0.03-13.36,0.02c-1.28,0.01-2.54,0.17-3.23,1.57c-0.19,0.38-0.66,0.73-1.08,0.87
	c-3.55,1.25-5.48,4.24-7.25,7.17c-0.92,1.52-2.59,2.57-2.63,4.84c-0.07,3.98-0.79,7.94,0.02,11.92c0.06,0.31,0.04,0.77,0.24,0.91
	c2.11,1.46,1.97,4.34,3.74,5.94c1.71,1.54,2.68,3.86,5.35,4.44c1.59,0.34,2.44,2.16,4.45,2.41c4.32,0.54,8.59,0.66,12.85-0.17
	c0.7-0.14,1.32-0.76,1.92-1.24c1.47-1.17,2.9-2.4,4.37-3.56c0.36-0.29,0.84-0.51,1.3-0.58c4.26-0.69,8.51-1.07,13.11,0.4
	c-0.83,1.2-1.76,2.07-2.06,3.12c-0.34,1.22-1.07,1.82-1.96,2.52c-0.97,0.76-1.76,1.75-2.6,2.67c-0.42,0.46-0.79,0.97-1.17,1.46
	c-2.32,2.97-5.82,4.25-9.01,5.8c-1.74,0.84-4.07,0.6-6.14,0.62c-3.51,0.05-7.04-0.34-10.53-0.06c-3.93,0.32-6.91-2.04-10.37-3.01
	c-1.75-2.77-5.61-2.87-7.32-5.87c-0.58-1.02-1.79-1.81-2.06-3.08c-0.3-1.42-1.75-1.86-2.27-2.93c-0.54-1.11-0.56-2.47-0.82-3.71
	c-0.03-0.15-0.1-0.35-0.21-0.42c-2.62-1.7-2.15-4.4-2.18-6.88c-0.05-4.15-0.03-8.29,0.05-12.44c0.03-1.57,0.01-3.23,1.71-4.2
	c0.37-0.21,0.8-0.75,0.78-1.11c-0.15-3.34,2.32-5.35,4.09-7.54c1.82-2.25,3.61-4.77,6.58-5.82c1.15-1.92,2.85-2.79,5.07-2.83
	c0.42-0.01,1.04-0.3,1.21-0.64c0.99-1.96,2.8-1.9,4.54-1.91c4.95-0.02,9.9-0.01,14.85,0.03c1.43,0.01,2.9,0.03,3.67,1.68
	c0.17,0.36,0.75,0.77,1.13,0.76c2.6-0.04,4.25,1.59,5.97,3.17c1.57,1.45,3.52,2.54,4.32,4.72c0.14,0.38,0.63,0.72,1.04,0.88
	c0.81,0.33,1.24,0.8,1.43,1.69c1.03,4.61-0.47,6.45-5.21,5.68C538.52,661.63,534.15,659.57,531.08,655.17z"/>
<path class="st0" d="M669.06,643.99c2.42,0,4.94,0,7.47,0c1.24,1.82,0.97,3.78,0.97,5.66c0.03,10.39,0.01,20.78,0.02,31.17
	c0,1.12-0.02,2.24,0.02,3.36c0.02,0.63-0.07,1.45,0.27,1.86c2.07,2.48,1.95,5.65,2.76,8.53c4.46,1.74,8.82,1.39,13.05,0.33
	c1.02-2.1,2.11-3.87,2.75-5.79c0.49-1.47,0.57-3.12,0.58-4.69c0.05-11.19,0.01-22.38,0.04-33.56c0-2.21-0.21-4.47,0.82-6.67
	c2.36-0.64,4.74-0.34,7.15-0.27c2.02,1.87,2.78,4.12,2.77,6.85c-0.07,12.15-0.04,24.29-0.02,36.44c0,1.8-0.11,3.46-1.48,4.88
	c-0.49,0.51-0.69,1.45-0.73,2.21c-0.11,1.97-0.49,3.77-2.11,5.09c-0.75,3.45-4.4,3.93-6.37,6.14c-0.34,0.38-1.19,0.41-1.81,0.44
	c-3.67,0.16-7.35,0.38-11.02,0.35c-2.06-0.02-4.12-0.47-6.17-0.73c-1.04-1.86-3.14-1.98-4.73-2.94c-0.51-0.31-0.95-0.86-1.24-1.4
	c-0.38-0.69-0.37-1.79-0.91-2.17c-2.45-1.75-2.31-4.33-2.54-6.84c-0.07-0.79,0.06-1.74-0.33-2.35c-1.85-2.93-1.4-6.17-1.41-9.33
	c-0.04-9.75,0.02-19.5-0.05-29.25C666.77,648.65,667.21,646.23,669.06,643.99z"/>
<path class="st0" d="M2150.84,680.8c-0.29,5.05-0.56,9.44,0.16,14.15c7.28,0.76,14.46-0.16,21.44,0.54c1.17,3.74,1.2,5.98,0.22,9.93
	c-3.43,0.68-26.07,0.88-32.52,0.27c-1.26-1.49-0.69-3.33-0.69-5.01c-0.05-16.61-0.03-33.22-0.03-49.84c0-2.07,0-4.14,0-6.37
	c0.95-0.25,1.68-0.62,2.41-0.62c9.75-0.03,19.5-0.02,29.25,0c0.46,0,0.91,0.19,1.66,0.37c1,3.35,0.8,6.73,0.11,10.29
	c-3.73,0.87-7.4,0.32-11.03,0.45c-3.49,0.12-6.99-0.13-10.38,0.17c-1.08,3.44-1.18,9.44-0.25,14.01c2.23,0.76,4.63,0.32,6.98,0.39
	c2.4,0.07,4.79,0,7.19,0.02c2.37,0.02,4.75,0.06,7,0.09c1.25,3.62,1.31,6.39,0.28,10.64c-3.53,0.91-7.21,0.3-10.84,0.42
	C2158.32,680.81,2154.83,680.77,2150.84,680.8z"/>
<path class="st0" d="M341.69,705.72c-0.96-4.41-1.29-34.86-0.68-57.68c0.03-1.23,0.28-2.46,0.41-3.59
	c3.67-0.77,26.67-0.96,32.69-0.32c1.04,2.97,1.12,5.14,0.36,10.46c-0.99,0.12-2.05,0.36-3.12,0.37c-4.79,0.04-9.58,0-14.37,0.03
	c-1.4,0.01-2.81,0.15-4.11,0.23c-0.98,3.54-1.09,8.36-0.35,13.77c0.94,0.17,1.98,0.52,3.03,0.53c4.63,0.06,9.26,0.03,13.89,0.03
	c1.58,0,3.16,0,4.91,0c0.96,3.69,0.65,7.1,0.3,10.75c-1.19,0.15-2.27,0.39-3.34,0.4c-4.79,0.04-9.58,0-14.37,0.03
	c-1.4,0.01-2.81,0.15-4.11,0.23c-0.93,3.69-1.01,9.04-0.22,13.73c0.96,0.17,2.02,0.5,3.08,0.52c4.63,0.06,9.26,0.02,13.89,0.04
	c1.57,0.01,3.14,0.12,4.88,0.2c0.83,3.37,0.41,6.52,0.33,9.91c-0.9,0.21-1.78,0.58-2.66,0.59c-9.42,0.04-18.85,0.03-28.27,0.01
	C343.22,705.95,342.6,705.83,341.69,705.72z"/>
<path class="st0" d="M1879.27,660.36c-3.07,1.02-6.37,0.6-9.83,0.26c-0.51-0.93-0.95-1.92-1.57-2.78c-0.65-0.9-1.47-1.67-2.33-2.62
	c-2.58-0.59-5.22-0.54-8.04,0.25c-0.74,3.52-1.37,6.91,0.14,10.54c1.52,0.44,3.63,0.45,4.71,1.52c1.58,1.56,3.32,1.68,5.18,1.96
	c0.94,0.14,1.89,0.25,2.71,0.36c0.86,0.86,1.49,1.92,2.4,2.32c1.97,0.86,2.98,2.66,4.36,4.05c0.59,0.6,0.75,1.62,1.73,2.09
	c0.47,0.22,0.89,0.93,0.98,1.48c0.85,5.24,0.38,10.5,0.01,15.75c-0.03,0.45-0.21,1.17-0.5,1.27c-2.2,0.78-2.3,3.23-3.78,4.68
	c-1.36,1.33-3.27,1.88-4.36,3.51c-0.35,0.53-1.33,0.79-2.06,0.88c-4.29,0.51-8.57,0.5-12.9,0.31c-3.37-0.15-5.39-2.08-7.5-4.14
	c-1.53-1.5-3.41-2.81-3.27-5.36c0.02-0.28-0.17-0.68-0.39-0.85c-3.07-2.29-1.73-5.45-1.86-8.29c3.31-1.22,5.4-1.26,10.23-0.19
	c0.56,2.1,1.16,4.36,1.75,6.58c4.38,2.51,8.64,2.07,13.05,0.23c0.91-4.16,1.09-8.21-0.09-12.3c-2-1.4-4.9-0.88-6.26-3.24
	c-1.57-0.28-3.13-0.59-4.7-0.81c-1.14-0.17-2.15-0.38-2.81-1.51c-0.28-0.48-0.92-0.87-1.47-1.04c-2.16-0.64-3.55-2.01-4.35-4.08
	c-0.22-0.56-0.56-1.26-1.03-1.48c-1.21-0.57-1.56-1.49-1.56-2.69c-0.03-3.66-0.09-7.32-0.09-10.99c0-1.74,0-3.5,2.04-4.41
	c0.43-0.19,0.54-1.09,0.81-1.65c0.79-1.66,1.99-2.87,3.76-3.45c0.45-0.15,1.13-0.21,1.29-0.52c1.28-2.54,3.67-2.2,5.83-2.27
	c2.71-0.08,5.42,0.03,8.13,0.09c1.64,0.04,2.91,0.4,3.95,2.07c0.71,1.15,2.79,1.33,3.15,3.13c1.92,0.73,2.21,2.4,2.61,4.14
	c0.32,1.35,1.09,2.59,1.72,3.86C1879.54,658.02,1880.2,658.98,1879.27,660.36z"/>
<path class="st0" d="M1548.28,674.64c-4.51-3.72-4.88-8.36-5.55-12.96c-0.19-1.3-0.43-2.39,0.17-3.65c0.4-0.83,0.54-1.86,0.53-2.79
	c-0.03-3.42,2.6-5.36,4.36-7.73c0.66-0.89,2.74-0.79,3.3-1.68c1.53-2.43,3.78-1.97,5.94-2.08c1.27-0.07,2.58,0.12,3.82-0.08
	c3.96-0.64,7.08,1.28,10.09,3.32c1.36,0.92,1.51,3.18,3.38,3.22c0.59,2.87,1.1,5.37,1.61,7.86c0.34,1.69-0.42,2.73-2.27,2.82
	c-2.06,0.1-4.13,0.02-6.06,0.02c-1.71-2.04-3.19-3.82-4.93-5.88c-2.07,0-4.44,0-6.65,0c-0.96,1.36-1.8,2.47-2.54,3.64
	c-1.2,1.9-0.94,3.08,0.39,5.12c1.08,1.65,2.05,3.14,4.33,3.07c0.58-0.02,1.46,0.23,1.72,0.65c1,1.63,2.66,1.56,4.18,1.93
	c1.61,0.4,3.87-0.57,4.69,1.39c0.75,1.79,3.52,1.2,3.51,3.49c1.57,0.83,2.83,1.92,3.14,3.79c2.22,1.64,2.33,4.02,2.29,6.47
	c-0.04,2.39-0.03,4.78-0.08,7.17c-0.03,1.45-0.1,2.88-1.57,3.77c-0.36,0.22-0.62,0.73-0.77,1.16c-0.42,1.17-0.4,2.77-1.2,3.49
	c-1.82,1.64-3.51,3.44-5.42,4.98c-0.45,0.36-1.1,0.58-1.69,0.66c-5.09,0.75-10.18,0.69-15.29,0.11c-2.26-0.25-3.4-2.16-5.05-3.26
	c-2.19-1.45-3.13-4.21-4.92-6.17c-0.4-0.43-0.56-1.16-0.65-1.78c-0.36-2.52-0.6-5.04,0.12-7.59c2.28-0.91,4.54-0.64,6.71-0.39
	c2.03,0.23,3.36,1.72,3.95,3.67c0.36,1.2,0.47,2.47,0.72,3.82c2.35,0.75,4.58,1.47,6.7,2.15c1.11-0.42,2.1-0.93,3.15-1.17
	c2.81-0.63,3.96-2.46,3.99-5.17c0.02-1.6,0-3.19-0.02-4.79c-0.01-1.2-0.51-2.16-1.47-2.87c-0.75-0.56-1.47-1.34-2.32-1.57
	c-2.39-0.64-3.73-3.43-6.7-2.95c-1.72,0.28-3.28-0.19-4.57-1.86C1550.61,675.05,1548.83,674.87,1548.28,674.64z"/>
<path class="st0" d="M2470.49,687.05c2.45-0.7,4.84-0.47,7.2-0.31c1.76,0.12,3.01,1.01,3.32,2.88c0.03,0.16,0.09,0.31,0.1,0.47
	c0.43,5.42,3.93,5.57,7.81,5.52c1.85-0.02,3.7-0.79,5.64-1.24c1.77-4.32,1.35-8.49,0.56-12.5c-2.15-1.37-4.81-0.92-6.1-3.15
	c-1.4-0.28-2.79-0.63-4.21-0.82c-1.45-0.19-2.9-0.27-3.61-1.85c-0.06-0.14-0.19-0.34-0.3-0.35c-3.9-0.47-4.87-4.21-7.15-6.47
	c-0.5-0.5-0.7-1.42-0.81-2.18c-0.61-4.13-0.65-8.28-0.01-12.41c0.13-0.87,0.65-1.71,1.11-2.5c0.46-0.8,1.11-1.5,1.59-2.3
	c0.93-1.53,2.01-2.88,3.82-3.42c0.31-0.09,0.76-0.1,0.89-0.31c1.76-2.8,4.64-2.35,7.28-2.48c1.59-0.08,3.2,0.18,4.79,0.11
	c2.02-0.09,3.59,0.83,5.35,1.65c2.5,1.17,3.67,3.67,6,5.05c0.2,2.31,0.71,4.55,2.12,6.62c1.23,1.81,0.31,3.46-1.99,3.67
	c-2.37,0.22-4.77,0.05-6.97,0.05c-1.67-2.03-3.15-3.83-4.57-5.56c-2.67-0.54-5.18-0.77-7.84,0.23c-0.7,2.1-1.43,4.31-2.2,6.63
	c0.69,1.25,1.43,2.6,2.3,4.19c0.9,0.15,2,0.29,3.07,0.52c0.61,0.13,1.45,0.2,1.73,0.61c1.27,1.9,3.24,1.88,5.12,2.04
	c1.79,0.15,3.48,0.34,4.2,2.34c1.76,0.45,2.73,1.96,4.09,2.94c1.57,1.13,1.24,3.71,3.54,4.21c0.26,0.06,0.4,1.16,0.41,1.78
	c0.05,4.31,0.07,8.61,0.04,12.92c0,0.61-0.17,1.3-0.48,1.82c-0.97,1.61-1.93,3.27-2.95,4.8c-1.33,1.98-3.54,3.39-5.43,4.97
	c-0.44,0.37-1.12,0.59-1.7,0.61c-4.14,0.15-8.29,0.17-12.43,0.35c-3.68,0.16-5.87-2.1-8.42-4.29c-2.55-2.19-2.96-5.49-5.12-7.75
	C2469.97,691.8,2469.69,689.45,2470.49,687.05z"/>
<path class="st0" d="M188.56,690.12c0.4-0.95,0.84-1.97,1.3-3.06c2.57-0.81,5.08-0.33,7.83-0.35c0.58,3.16,2.01,5.71,4.23,8.18
	c3.11,1.03,6.54,1.01,10.03-0.03c0.71-1.21,1.33-2.47,2.14-3.59c1.72-2.39,1.7-4.69-0.05-7.05c-0.65-0.87-1.15-1.84-1.93-3.1
	c-1.46-0.72-3.71-0.51-5.22-2.31c-0.56-0.68-2.04-0.74-3.12-0.8c-1.86-0.1-3.46-0.7-4.71-2.02c-1.05-1.12-3.33-0.67-3.53-2.82
	c-1.94-1.02-2.9-2.66-3.24-4.79c-0.09-0.54-0.63-1.12-1.11-1.47c-0.89-0.64-1.16-1.47-1.16-2.47c0.01-2.24,0.03-4.47,0.05-6.71
	c0-0.32-0.06-0.73,0.11-0.94c1.58-2,2.53-4.28,3.09-6.75c1.87-0.42,2.22-2.47,3.66-3.38c0.63-0.4,1.1-1.04,1.7-1.49
	c0.6-0.45,1.26-1.14,1.91-1.15c4.31-0.11,8.62-0.09,12.93-0.07c0.45,0,1.19,0.14,1.31,0.42c0.88,2.01,3.2,1.95,4.51,3.28
	c0.55,0.56,1.03,1.22,1.42,1.9c0.99,1.74,2.13,3.43,2.79,5.3c0.58,1.62,0.57,3.45-0.09,5.13c-3.57,1.3-5.27,1.33-10.03,0.1
	c-0.15-0.59-0.36-1.32-0.53-2.06c-0.18-0.76-0.34-1.52-0.5-2.29c-2.41-1.06-4.81-0.99-7.18-0.76c-2.37,0.23-3.74,1.6-4.03,4.03
	c-0.26,2.21-0.4,4.46,0.87,6.78c0.89,0.26,1.94,0.59,2.99,0.88c0.61,0.17,1.46,0.08,1.81,0.46c1.92,2.09,4.39,2.42,7,2.47
	c0.81,0.01,1.51,0.23,1.98,1.05c0.29,0.51,0.82,1.13,1.33,1.23c2.22,0.42,3.23,2.18,4.67,3.58c1.67,1.63,1.91,3.58,2.43,5.55
	c0.28,1.07,0.65,2.12,1,3.17c0.85,2.5,1.05,4.95-0.24,7.4c-0.36,0.69-0.6,1.49-0.69,2.26c-0.26,2.29-1.61,4.01-2.62,5.96
	c-1.45,2.81-4.06,3.93-6.23,5.69c-0.44,0.36-1.19,0.47-1.79,0.48c-4.31,0.08-8.61,0.13-12.92,0.15c-1.82,0.01-3.45-0.51-4.73-1.93
	c-1.01-1.12-3.14-1.06-3.3-3.1c-2.36-2.03-2.92-4.77-3.17-7.69C189.48,692.3,188.93,691.27,188.56,690.12z"/>
<path class="st0" d="M1714.33,705.78c-2.53,0-5.05,0-7.65,0c-0.9-1.75-0.83-3.51-0.84-5.23c-0.03-4.32-0.02-8.63-0.02-12.95
	c0-1.93,0.07-3.87-1.48-5.37c-0.66-3.63-3.83-6.19-4.23-9.94c-2.35-2.46-1.84-6.44-4.63-8.7c-0.4-0.33-0.36-1.17-0.55-1.77
	c-0.29-0.91-0.34-2.13-0.96-2.64c-1.51-1.22-2.08-2.75-2.16-4.52c-0.08-1.73-2.05-1.94-2.48-3.33c-0.42-1.35-0.71-2.75-1.24-4.05
	c-0.21-0.51-1.08-0.74-1.35-1.25c-0.26-0.48-0.12-1.18-0.18-2c3.7,0,7.19,0,10.64,0c1.8,1.69,3.17,3.56,3.55,6.07
	c0.1,0.7,0.74,1.33,1.14,1.97c0.33,0.52,0.86,0.99,0.99,1.55c0.45,2.01,0.6,4.12,2.54,5.42c0.43,3.7,3.7,6.14,4.07,10.18
	c0.9-0.39,1.63-0.47,1.9-0.86c1.48-2.16,3.8-3.86,3.74-6.9c-0.01-0.52,0.62-1.07,1.01-1.57c1.01-1.29,1.64-2.69,1.77-4.36
	c0.1-1.28,0.44-2.47,1.71-3.24c0.46-0.28,0.89-1.06,0.86-1.59c-0.15-2.87,2.02-4.48,3.53-6.76c3.16-0.16,6.47-0.35,9.88,0.14
	c0.69,2.27,0.71,4.11-1.47,5.49c-0.45,0.28-0.7,1.05-0.82,1.63c-0.33,1.7-0.35,3.42-2.22,4.48c-0.6,0.34-0.56,1.74-0.87,2.64
	c-0.25,0.73-0.42,1.84-0.93,2.06c-1.7,0.74-1.66,2.23-1.93,3.59c-0.22,1.12-0.34,2.22-1.61,2.71c-0.26,0.1-0.6,0.44-0.6,0.69
	c-0.09,3.12-2.81,5.24-3.11,8.27c-0.06,0.62-0.12,1.43-0.51,1.81c-3.35,3.25-3.06,7.47-3.18,11.56c-0.09,2.87-0.09,5.76,0,8.63
	C1716.72,700.45,1716.46,703.1,1714.33,705.78z"/>
<path class="st0" d="M1285.13,643.96c4.4,0.12,8.49-1.01,12.56,0.82c-1.74,2.3-1.71,2.31-2.33,5.23c-0.15,0.71-0.46,1.7-0.99,1.97
	c-1.41,0.71-1.51,1.92-1.75,3.17c-0.15,0.77-0.18,1.96-0.65,2.2c-2.07,1.06-2.13,2.95-2.49,4.81c-0.1,0.53-0.62,1.12-1.11,1.39
	c-0.99,0.54-1.18,1.41-1.37,2.37c-0.3,1.53-0.22,3.18-2.09,4.02c-0.49,0.22-0.61,1.39-0.77,2.15c-0.29,1.38-0.13,2.89-1.8,3.66
	c-0.43,0.2-0.66,1.07-0.75,1.68c-0.28,1.74-0.92,3.18-2.02,4.66c-0.84,1.13-0.85,3.02-0.89,4.58c-0.11,4.47-0.01,8.94-0.05,13.41
	c-0.02,1.73-0.2,3.46-0.31,5.33c-3.5,1.01-6.78,0.49-9.91,0.4c-1.4-1.31-1.06-2.82-1.08-4.2c-0.05-5.43-0.04-10.86-0.04-16.29
	c0-2.25-0.07-4.4-1.83-6.21c-0.71-0.73-0.84-2.02-1.2-3.06c-0.47-1.33-0.64-2.78-1.93-3.74c-0.44-0.33-0.72-1.07-0.8-1.67
	c-0.41-2.86-2.75-4.95-3.02-7.86c-0.15-1.65-2.42-1.98-2.47-3.9c-0.03-1.41-0.63-2.76-1.93-3.69c-0.44-0.31-0.69-1.04-0.79-1.62
	c-0.31-1.73-0.66-3.23-2.27-4.5c-1.2-0.95-1-2.89-0.49-4.75c3.19-1.08,6.5-0.23,9.59-0.51c1.18,1.99,2.26,3.71,3.23,5.48
	c0.36,0.67,0.41,1.51,0.69,2.23c0.4,1.02,0.63,2.32,1.38,2.95c1.13,0.95,1.36,2.05,1.54,3.31c0.07,0.47,0.13,0.99,0.38,1.37
	c0.67,1.03,1.61,1.91,2.12,3c0.46,0.98,0.13,2.53,0.78,3.18c1.34,1.34,2.42,3.18,4.58,4c0.38-0.98,0.66-1.53,0.8-2.12
	c0.19-0.77,0.08-1.67,0.43-2.34c0.63-1.22,1.6-2.27,2.23-3.49c0.57-1.11,0.58-2.62,1.36-3.48c1.15-1.28,1.59-2.71,1.95-4.26
	c0.35-1.54,0.82-2.94,1.81-4.32C1284.36,648.03,1284.49,646.13,1285.13,643.96z"/>
<path class="st0" d="M1119.07,655.21c-2.94-0.16-5.3-0.29-7.87-0.42c-1.13-3.42-0.62-6.84-0.42-10.12c0.28-0.26,0.39-0.38,0.52-0.47
	c0.13-0.08,0.28-0.19,0.42-0.19c7.82-0.07,15.63-0.14,23.45-0.2c1.9-0.01,3.81,0,5.85,0c1.18,3.63,0.68,7.05,0.47,10.66
	c-3.51,1.16-7.09-0.06-10.56,0.86c-1.17,1.51-0.69,3.33-0.69,5.02c-0.05,13.24-0.02,26.48-0.03,39.73c0,1.73-0.09,3.46-0.14,5.3
	c-1.82,0.9-3.59,0.54-5.29,0.6c-1.58,0.06-3.17,0.01-4.56,0.01c-1.46-1.64-0.98-3.3-0.99-4.83c-0.04-13.4-0.02-26.8-0.03-40.21
	C1119.2,659.22,1119.13,657.48,1119.07,655.21z"/>
<path class="st0" d="M2013.46,705.74c-3.81,0.32-6.96,0.36-10.19,0.03c-0.88-1.86-0.67-3.63-0.67-5.34
	c-0.02-13.1,0-26.21-0.03-39.31c0-1.89,0.34-3.84-0.69-5.93c-3.19-0.13-6.49-0.27-9.7-0.41c-0.99-3.88-1.01-6.55-0.14-10.45
	c3.91-0.72,28.25-0.74,32.72,0.04c0.44,3.2,0.29,6.5,0.02,10.09c-1.08,0.17-2.13,0.44-3.19,0.48c-2.38,0.09-4.77,0.06-6.9,0.08
	c-1.49,1.87-1.01,3.7-1.01,5.41c-0.04,13.26-0.02,26.53-0.03,39.79C2013.64,701.95,2013.53,703.68,2013.46,705.74z"/>
<path class="st0" d="M996.15,705.75c-3.86,0.29-7.12,0.4-10.3-0.01c-0.99-4.03-1.17-18.75-0.75-56.74c0.02-1.56-0.32-3.2,0.94-4.99
	c1.31-0.06,2.87-0.17,4.43-0.2c1.59-0.04,3.18-0.01,5.05-0.01c0.24,1.23,0.6,2.26,0.61,3.3c0.06,5.59,0.03,11.19,0.03,16.78
	c0,11.99,0,23.98,0,35.96C996.15,701.61,996.15,703.36,996.15,705.75z"/>
<path class="st0" d="M2536.04,453.11c6.66-0.85,13.03-1.01,19.41-0.18c1.15,0.15,2.19,0.29,2.72,1.55c0.16,0.38,0.64,0.79,1.04,0.89
	c3.66,0.97,5.51,3.94,7.78,6.59c1.77,2.07,2.64,4.63,4.37,6.68c0.48,0.57,0.76,1.43,0.85,2.2c0.64,5.09,0.6,10.19,0,15.28
	c-0.09,0.77-0.31,1.65-0.79,2.22c-1.04,1.25-1.62,2.67-2.29,4.12c-0.64,1.39-1.78,2.63-2.93,3.68c-1.99,1.79-4.14,3.39-6.26,5.02
	c-1.1,0.85-2.2,1.88-3.47,2.28c-1.8,0.58-3.77,0.67-5.66,0.95c-4.49,0.66-8.93-0.02-13.37-0.56c-0.89-0.11-2.01-0.45-2.53-1.08
	c-1.36-1.65-3.82-1.25-5.11-3.25c-1.02-1.6-2.94-2.61-4.41-3.93c-0.44-0.39-0.89-0.91-1.06-1.45c-0.68-2.27-3.05-3.63-3.04-6.36
	c0.01-2.37-0.51-4.72-1.91-6.83c-0.46-0.68-0.54-1.93-0.26-2.73c1.18-3.33,2.13-6.68,2.4-10.22c0.06-0.74,0.41-1.72,0.96-2.12
	c1.82-1.3,1.41-4.38,4.07-4.91c0.41-2.2,3.22-2.41,3.79-4.53c0.08-0.29,0.79-0.57,1.22-0.58
	C2533.69,455.79,2535.03,454.47,2536.04,453.11z M2533.42,458.7c-0.5,0.98-0.78,2.22-1.22,2.29c-1.98,0.29-1.75,2.76-3.25,3.15
	c-2.4,0.64-1.56,2.88-2.44,4.23c-0.26,0.4-0.46,0.93-0.83,1.13c-1.18,0.62-1.42,1.65-1.42,2.81c-0.01,4.15-0.04,8.3,0.03,12.45
	c0.01,0.74,0.23,1.9,0.7,2.12c1.79,0.85,1.81,2.51,2.2,4.01c0.21,0.81,0.45,1.52,1.35,1.77c0.83,0.23,1.08,1.01,1.6,1.55
	c1.77,1.85,3.31,4.09,6.16,4.54c0.74,0.12,1.57,0.47,2.09,0.98c1.02,0.99,2.26,1.22,3.52,1.25c2.87,0.08,5.75,0.1,8.62-0.06
	c1.04-0.06,2.2-0.49,3.03-1.12c1.83-1.38,4.4-1.73,5.64-3.94c4.42-1.71,6.97-5.02,8.26-9.48c0.21-0.73,0.77-1.35,1.14-2.03
	c0.29-0.54,0.82-1.14,0.77-1.66c-0.38-3.68,1.29-7.64-1.56-11.02c-0.56-0.66-0.54-1.81-0.82-2.73c-0.18-0.6-0.23-1.38-0.64-1.75
	c-3.44-3.11-5.41-7.93-10.53-9.12c-0.4-0.09-0.74-0.58-1.04-0.94c-0.91-1.09-2.13-1.34-3.44-1.35c-3.51-0.03-7.03-0.06-10.54-0.04
	c-0.61,0-1.6,0.09-1.77,0.44C2537.89,458.55,2535.53,458.08,2533.42,458.7z"/>
<path class="st1" d="M2111.13,522.47c-0.13,2.87-0.25,5.74-0.41,8.61c-0.1,1.9-0.22,3.71-1.57,5.36c-0.74,0.89-0.77,2.39-1.07,3.62
	c-0.37,1.53-0.44,3.16-2.11,4.06c-0.34,0.18-0.56,0.78-0.63,1.22c-0.54,3.19-2.85,5.11-5.02,7.13c-1.24,1.16-2.42,2.41-3.59,3.6
	c-1.19,1.19-2.26,2.09-3.85,2.46c-0.44,0.1-0.88,0.36-1.23,0.65c-4.63,3.79-4.63,3.79-9.66,5.2c-0.46,0.13-1.07,0.19-1.32,0.51
	c-1.72,2.19-4.17,2.09-6.54,2.12c-1.79,0.02-3.43,0.51-5.13,0.96c-4.21,1.12-8.45,1.25-12.72-0.06c-1.95-0.6-4.07-0.67-6.12-0.95
	c-1.86-0.26-3.83-0.06-5.1-2.01c-0.34-0.52-1.38-0.63-2.12-0.81c-1.38-0.33-2.67-0.48-3.56-2.01c-0.53-0.91-2.31-0.99-3.14-1.83
	c-4.01-4.02-8.86-7.29-11.51-12.55c-2.06-1.08-2.68-2.93-2.79-5.09c-0.01-0.29-0.16-0.71-0.38-0.83c-2.23-1.24-1.94-3.43-2.18-5.45
	c-0.16-1.41-0.37-2.76-1.23-4.05c-0.66-0.99-0.94-2.39-1-3.62c-0.18-4.31-0.3-8.62-0.2-12.93c0.05-2.18,0.02-4.5,1.83-6.26
	c0.39-0.38,0.45-1.17,0.52-1.79c0.2-1.76,0.37-3.51,2.05-4.63c0.23-0.15,0.42-0.55,0.42-0.83c0.05-3.35,3.09-4.92,4.44-7.5
	c0.44-0.83,1.46-1.44,1.67-2.29c0.58-2.39,3.32-2.8,4.17-4.86c2.59-0.53,3.83-3.45,6.58-3.69c1.21-3,5.07-2.35,6.69-4.84
	c0.26-0.41,1.13-0.51,1.74-0.59c1.69-0.24,3.53,0.11,4.59-1.91c0.25-0.48,1.43-0.64,2.19-0.65c6.55-0.05,13.1-0.05,19.65-0.03
	c0.63,0,1.55-0.06,1.85,0.31c1.86,2.25,4.53,1.99,6.97,2.5c0.61,0.13,1.26,0.35,1.76,0.71c2.66,1.95,5.8,3.19,8.39,5.12
	c2.42,1.8,4.61,4.01,6.91,6.03c1.04,0.91,2.17,1.96,2.66,3.19c0.54,1.36,1.85,1.73,2.48,2.7c1.11,1.7,1.49,3.85,3.16,5.24
	c0.13,2.77,2.03,4.91,2.71,7.42c0.65,2.42,0.52,5.06,0.63,7.61c0.09,1.91,0.02,3.83,0.02,5.75
	C2111.05,522.46,2111.09,522.47,2111.13,522.47z"/>
<path class="st1" d="M1649.14,566.34c-0.09-1.84-0.24-3.41-0.24-4.98c-0.01-26.54-0.01-53.08,0-79.62c0-1.9-0.2-3.85,1.12-5.85
	c5.42-0.13,10.99-0.19,16.58,0.05c2.58,0.11,5.02,0.46,7.41,1.56c1.25,0.58,2.76,0.61,4.17,0.79c2.06,0.25,4.18,0.2,6.18,0.69
	c1.11,0.27,1.93,1.58,3.04,2.03c1.15,0.46,2.5,0.44,3.76,0.63c1.23,2.24,3.6,2.28,5.64,3.03c0.61,0.22,0.82,1.6,1.4,1.77
	c1.86,0.53,2.38,2.4,3.8,3.35c1.25,0.84,2.61,1.86,3.27,3.14c1.14,2.23,3.83,3.27,4.31,5.92c2.77,2.41,2.38,6.44,4.67,9.15
	c0.62,0.74,0.63,2.14,0.63,3.24c0.01,6.23,0,12.46-0.17,18.69c-0.06,2.19-0.06,4.52-1.9,6.24c-0.21,0.19-0.27,0.57-0.33,0.88
	c-0.4,2.02-0.34,4.32-1.89,5.82c-1.46,1.41-1.4,4.01-3.75,4.63c-0.4,2.23-2.1,3.76-3.7,4.77c-1.6,1.01-2.7,2.51-4.3,3.53
	c-1.64,1.05-2.87,2.73-5.03,2.97c-1.61,2-3.82,2.63-6.26,2.75c-0.3,0.01-0.71,0.16-0.85,0.38c-1.43,2.27-3.76,2.14-5.96,2.2
	c-1.8,0.05-3.52,0.22-4.96,1.41c-1.05,0.87-2.26,1.09-3.58,1.1c-7.04,0.05-14.07,0.12-21.11,0.16
	C1650.62,566.78,1650.16,566.58,1649.14,566.34z"/>
<path class="st1" d="M967.45,487.63c0.88,1.8,0.46,4.18,2.54,5.48c0.41,0.26,0.59,1.13,0.6,1.72c0.07,2.71,0.07,5.43,0.03,8.15
	c-0.01,0.62-0.13,1.33-0.43,1.85c-2.2,3.75-4.42,7.66-8.17,9.95c-1.97,1.2-4.02,2.63-6.25,3.28c-2.27,0.66-4.73,0.85-7.11,0.89
	c-6.72,0.11-13.43,0.05-20.15,0c-0.92-0.01-1.83-0.35-2.4-0.46c-0.4-0.43-0.53-0.53-0.6-0.66c-0.07-0.14-0.12-0.3-0.13-0.46
	c-0.06-11.98-0.11-23.97-0.15-35.95c0-0.79,0.1-1.58,0.15-2.24c1.24-1.34,2.77-1.18,4.14-1.18c6.39,0.01,12.79-0.51,19.16,0.39
	c0.94,0.13,1.92,0.04,2.87,0.11c2.05,0.13,4.14,0,5.62,1.98c0.4,0.54,1.42,0.71,2.19,0.85c1.35,0.24,2.45,0.7,2.87,2.13
	C964.71,483.9,965.05,487.05,967.45,487.63z"/>
<path class="st1" d="M219.04,515.01c-0.96-2.09-1.18-3.73-1.3-5.53c-0.25-3.78,0.07-7.65-1.12-11.36c-0.2-0.62,0.02-1.63,0.44-2.14
	c1.2-1.45,0.78-2.6-0.28-3.81c-0.19-0.21-0.2-0.58-0.31-0.92c0.43-0.79,1.19-1.6,1.23-2.44c0.04-0.82-0.71-1.66-1.01-2.53
	c-0.14-0.41-0.24-1.12-0.02-1.32c1.92-1.78,1.08-3.41-0.35-4.9c1.03-1.46,1.92-2.72,2.97-4.2c4.64,0,9.43,0.01,14.22,0
	c1.99-0.01,3.87,1.62,5.97,0.41c0.17-0.1,0.65,0.13,0.84,0.35c1.69,1.91,3.99,1.82,6.21,1.88c1.81,0.05,3.46,0.32,4.85,1.64
	c0.55,0.52,1.34,1.01,2.06,1.08c1.46,0.13,2.07,1.25,3.07,1.96c1.89,1.35,1.76,4.07,3.88,5.12c0.19,1.58,0.44,3.15,0.54,4.74
	c0.1,1.43,0.01,2.87,0.05,4.31c0.05,2.12-0.24,4.09-1.75,5.79c-1.33,1.5-1.53,3.6-3.09,5.19c-1.44,1.46-3.21,2.45-4.65,3.88
	c-0.85,0.84-2.71,0.68-4.11,0.95c-0.78,0.15-1.82,0-2.31,0.45c-2.29,2.14-5.06,1.55-7.72,1.58c-4.48,0.05-8.95,0.03-13.43,0.01
	C222.34,515.18,220.75,515.07,219.04,515.01z"/>
<path class="st2" d="M837.53,656.05c3.94-1.21,7.43-0.81,10.9-0.55c0.59,0.04,1.48,0.32,1.66,0.74c0.68,1.55,2.41,1.42,3.35,2.34
	c0.82,0.81,1.07,2.02,2.13,2.91c1.71,1.43,1.5,5.14,0.04,7.01c-0.47,0.61-1.17,1.05-1.6,1.68c-0.33,0.48-0.39,1.14-0.56,1.71
	c-2.27,0.6-4.34,0.96-6.31,2.23c-2.45,1.57-5.52,1.27-8.32,0.36c-0.63-0.2-1.25-0.99-1.5-1.64c-0.32-0.86-0.36-1.87-0.37-2.81
	c-0.04-3.34-0.06-6.68,0.01-10.02C836.99,658.77,837.31,657.54,837.53,656.05z"/>
<path class="st0" d="M2533.42,458.7c2.11-0.63,4.47-0.16,5.59-2.53c0.17-0.35,1.16-0.44,1.77-0.44c3.51-0.02,7.03,0.01,10.54,0.04
	c1.31,0.01,2.54,0.26,3.44,1.35c0.3,0.36,0.64,0.85,1.04,0.94c5.12,1.19,7.09,6.01,10.53,9.12c0.41,0.37,0.46,1.15,0.64,1.75
	c0.27,0.92,0.26,2.06,0.82,2.73c2.86,3.38,1.18,7.34,1.56,11.02c0.05,0.52-0.47,1.12-0.77,1.66c-0.37,0.69-0.93,1.31-1.14,2.03
	c-1.29,4.46-3.84,7.77-8.26,9.48c-1.24,2.21-3.8,2.56-5.64,3.94c-0.83,0.63-1.99,1.06-3.03,1.12c-2.87,0.16-5.75,0.14-8.62,0.06
	c-1.26-0.03-2.5-0.26-3.52-1.25c-0.53-0.51-1.35-0.86-2.09-0.98c-2.86-0.45-4.4-2.69-6.16-4.54c-0.51-0.54-0.76-1.32-1.6-1.55
	c-0.9-0.25-1.14-0.96-1.35-1.77c-0.39-1.5-0.41-3.16-2.2-4.01c-0.47-0.22-0.69-1.38-0.7-2.12c-0.06-4.15-0.04-8.3-0.03-12.45
	c0-1.16,0.24-2.19,1.42-2.81c0.37-0.2,0.58-0.73,0.83-1.13c0.88-1.36,0.04-3.6,2.44-4.23c1.49-0.4,1.26-2.87,3.25-3.15
	C2532.65,460.93,2532.93,459.68,2533.42,458.7z M2535.84,464.58c-0.29,2.18-0.69,3.9-0.71,5.63c-0.08,6.38-0.05,12.76-0.01,19.13
	c0.01,0.94,0.12,1.93,0.47,2.78c0.17,0.41,0.98,0.69,1.53,0.74c0.32,0.03,0.95-0.49,1-0.82c0.2-1.57,0.23-3.16,0.34-4.74
	c0.12-1.86-0.33-3.79,0.59-5.72c2.44-0.28,4.78-0.42,6.97,0.21c0.62,0.97,0.95,2.12,1.67,2.49c1.33,0.67,1.91,1.67,2.08,2.96
	c0.2,1.49,0.33,2.84,2.18,3.26c0.39,0.09,0.54,1.08,0.89,1.6c0.24,0.36,0.63,0.62,1.14,1.1c1.11-0.52,2.19-1.04,3.68-1.74
	c-0.78-0.67-1.38-0.97-1.63-1.44c-1.78-3.29-4.21-6.21-5.46-9.78c-0.09-0.25,0.11-0.61,0.18-0.94c1.28-0.55,2.58-1.1,3.86-1.65
	c0.97-3.46,0.79-6.74,0.25-9.61c-1.43-1.39-2.54-2.46-3.58-3.46C2546.17,464.58,2541.25,464.58,2535.84,464.58z"/>
<path class="st2" d="M2535.84,464.58c5.42,0,10.34,0,15.44,0c1.04,1,2.14,2.07,3.58,3.46c0.53,2.87,0.72,6.16-0.25,9.61
	c-1.28,0.55-2.58,1.1-3.86,1.65c-0.07,0.33-0.27,0.69-0.18,0.94c1.26,3.57,3.68,6.5,5.46,9.78c0.26,0.48,0.85,0.77,1.63,1.44
	c-1.49,0.71-2.58,1.22-3.68,1.74c-0.5-0.47-0.89-0.74-1.14-1.1c-0.35-0.52-0.49-1.51-0.89-1.6c-1.86-0.43-1.99-1.78-2.18-3.26
	c-0.17-1.29-0.75-2.29-2.08-2.96c-0.72-0.36-1.05-1.51-1.67-2.49c-2.19-0.63-4.52-0.49-6.97-0.21c-0.92,1.92-0.47,3.86-0.59,5.72
	c-0.11,1.58-0.14,3.17-0.34,4.74c-0.04,0.33-0.67,0.85-1,0.82c-0.55-0.05-1.36-0.34-1.53-0.74c-0.35-0.85-0.47-1.85-0.47-2.78
	c-0.04-6.38-0.07-12.76,0.01-19.13C2535.15,468.48,2535.55,466.76,2535.84,464.58z M2538.91,475.73c1.98,0.09,3.69,0.2,5.39,0.23
	c1.42,0.02,2.86,0.07,4.26-0.13c0.9-0.13,1.8-0.58,2.59-1.08c1.32-0.84,1.37-3.16,0.11-4.09c-1.26-0.94-2.57-1.81-3.9-2.65
	c-0.51-0.32-1.15-0.66-1.72-0.65c-2.17,0.02-4.4-0.35-6.45,0.68C2538.32,470.44,2538.25,472.75,2538.91,475.73z"/>
<path class="st0" d="M2538.91,475.73c-0.67-2.98-0.59-5.28,0.27-7.69c2.05-1.03,4.29-0.66,6.45-0.68c0.57-0.01,1.21,0.33,1.72,0.65
	c1.33,0.84,2.64,1.71,3.9,2.65c1.26,0.94,1.22,3.25-0.11,4.09c-0.78,0.5-1.69,0.95-2.59,1.08c-1.4,0.2-2.84,0.16-4.26,0.13
	C2542.6,475.93,2540.89,475.82,2538.91,475.73z"/>
</svg>
