<?xml version="1.0" encoding="utf-8"?>
<!-- Generator: Adobe Illustrator 24.0.0, SVG Export Plug-In . SVG Version: 6.00 Build 0)  -->
<svg version="1.1" id="Layer_1" xmlns="http://www.w3.org/2000/svg" xmlns:xlink="http://www.w3.org/1999/xlink" x="0px" y="0px"
	 viewBox="0 0 2761 991" style="enable-background:new 0 0 2761 991;" xml:space="preserve">
<style type="text/css">
	.st0{fill:#1B2A4E;}
	.st1{fill:none;}
</style>
<g>
	<path class="st0" d="M1675.54,774.2c-1.06-1.32-1.89-2.09-2.42-3.04c-4.75-8.5-9.42-17.05-14.17-25.55
		c-5.07-9.06-10.21-18.08-15.3-27.13c-4.31-7.65-8.58-15.32-12.89-22.98c-5.17-9.18-10.37-18.34-15.54-27.52
		c-0.78-1.39-1.51-2.81-2.21-4.24c-0.59-1.18-1.37-2.13-2.51-2.61c-1.14,0.29-1.18,1.11-1.21,1.91c-0.03,0.96-0.01,1.92-0.01,2.88
		c0.01,32.13,0.02,64.26,0.02,96.4c0,6.44-0.09,6.53-6.31,6.53c-7.52,0.01-15.03,0.04-22.55-0.02c-4.36-0.03-4.87-0.61-4.94-5.06
		c-0.03-1.92,0-3.84,0-5.75c0-63.78,0-127.57,0-191.35c0-0.32-0.01-0.64,0-0.96c0.04-4.94,0.31-5.3,5.04-5.31
		c19.19-0.03,38.38,0.03,57.56-0.07c2.91-0.02,4.84,1.02,6.31,3.42c5.24,8.59,10.5,17.16,15.79,25.71
		c4.36,7.06,8.78,14.1,13.16,21.15c8.01,12.88,16.02,25.75,24.03,38.63c0.34,0.54,0.65,1.1,1,1.64c3.02,4.64,3.33,6.42,7.46-0.25
		c8.66-13.98,17.26-28,25.92-41.98c8.99-14.53,18.01-29.04,27.03-43.56c0.5-0.81,1.03-1.61,1.59-2.39c1.08-1.53,2.49-2.32,4.46-2.31
		c18.39,0.04,36.78,0.03,55.17,0.05c0.76,0,1.53,0.28,2.46,0.47c0.22,0.99,0.56,1.89,0.6,2.8c0.09,1.75,0.03,3.52,0.03,5.27
		c0,64.26-0.01,128.53,0.02,192.79c0,7.53-0.12,7.1-7.1,7.09c-20.79-0.01-41.57,0-62.36-0.01c-1.28,0-2.56,0.04-3.84-0.05
		c-2.05-0.15-2.74-0.88-2.92-3.04c-0.08-0.95-0.04-1.92-0.04-2.88c0-31.33,0.01-62.66,0.02-94c0-1.12,0.11-2.25-0.04-3.35
		c-0.1-0.71-0.4-1.67-0.93-1.98c-0.91-0.53-1.34,0.47-1.74,1.12c-3.48,5.73-6.89,11.5-10.43,17.2c-5.4,8.68-10.91,17.28-16.32,25.95
		c-4.99,8-9.87,16.06-14.84,24.07c-7.32,11.81-14.66,23.61-21.98,35.42c-1.01,1.63-1.9,3.32-2.95,4.92
		C1677.21,772.86,1676.52,773.3,1675.54,774.2z"/>
	<path class="st0" d="M1115.4,348.21c-0.51,0.88-0.98,1.36-1.06,1.9c-0.16,1.1-0.15,2.23-0.15,3.34c0,32.46,0.01,64.91,0.02,97.37
		c0,1.12,0.04,2.24-0.05,3.35c-0.12,1.56-0.81,2.26-2.41,2.46c-0.95,0.12-1.91,0.13-2.87,0.13c-7.68,0.01-15.35,0.01-23.03,0.01
		c-0.64,0-1.28,0.01-1.92-0.04c-2.52-0.18-3.11-0.75-3.22-3.15c-0.05-0.96,0-1.92,0-2.88c0-65.07,0-130.14,0-195.21
		c0-1.44-0.05-2.88,0.07-4.31c0.14-1.79,0.96-2.61,2.69-2.77c1.11-0.1,2.24-0.06,3.36-0.06c18.23,0,36.46-0.01,54.69,0
		c5.56,0,5.91,0.25,8.82,4.98c6.7,10.88,13.42,21.74,20.15,32.6c8.24,13.3,16.5,26.59,24.74,39.9c2.78,4.48,5.52,8.98,8.29,13.47
		c0.83,1.35,1.61,2.76,3.27,3.6c1.66-0.77,2.43-2.39,3.33-3.82c3.49-5.54,6.89-11.13,10.35-16.69c5.74-9.22,11.5-18.42,17.23-27.64
		c3.46-5.56,6.85-11.16,10.29-16.73c5.12-8.29,10.24-16.58,15.38-24.85c0.59-0.95,1.29-1.83,1.9-2.77c0.86-1.32,2.11-1.91,3.63-1.98
		c1.12-0.05,2.24-0.05,3.36-0.05c16.31,0,32.62-0.01,48.94,0c1.28,0,2.56,0,3.83,0.14c1.46,0.17,2.36,1.03,2.53,2.45
		c0.16,1.42,0.15,2.87,0.15,4.3c0,63.63,0,127.26,0,190.9c0,2.08,0.04,4.16,0.03,6.23c-0.01,3.93-0.36,4.27-4.44,4.38
		c-0.64,0.02-1.28,0.01-1.92,0.01c-21.11,0-42.22,0.01-63.33,0c-6.63,0-6.62-0.02-6.62-6.67c0.01-30.86,0.03-61.71-0.03-92.57
		c0-1.74,1.07-4.39-1.29-4.97c-1.95-0.48-2.44,2.19-3.32,3.58c-4.44,7.02-8.71,14.14-13.1,21.19c-5.48,8.81-11.04,17.57-16.52,26.38
		c-3.37,5.42-6.62,10.91-9.99,16.33c-5.99,9.62-12.04,19.21-18.04,28.82c-2.03,3.25-4,6.54-6,9.81c-0.42,0.68-0.8,1.39-1.29,2.01
		c-0.71,0.89-2.26,0.8-2.89-0.2c-1.1-1.76-2.13-3.56-3.16-5.37c-4.71-8.34-9.45-16.66-14.1-25.03c-3.8-6.83-7.46-13.74-11.27-20.56
		c-3.27-5.86-6.68-11.63-9.98-17.47c-4.47-7.93-8.89-15.89-13.33-23.83c-3.27-5.85-6.52-11.71-9.82-17.55
		C1116.86,349.88,1116.2,349.23,1115.4,348.21z"/>
	<path class="st0" d="M1322.87,664.19c0-32.61,0-65.22,0-97.83c0-1.12-0.04-2.24,0.05-3.35c0.12-1.51,0.86-2.28,2.43-2.45
		c1.27-0.14,2.55-0.14,3.83-0.14c47.49-0.01,94.98-0.02,142.47,0.01c8.45,0,16.41,2.2,24.02,5.77c5.11,2.39,9.69,5.58,13.88,9.32
		c4.07,3.65,7.44,7.95,10.26,12.58c5.77,9.5,8.69,19.94,8.42,31.03c-0.33,13.99-4.86,26.53-14.1,37.29
		c-6.17,7.19-13.62,12.43-22.32,16.01c-0.59,0.24-1.22,0.4-1.79,0.68c-1.18,0.58-1.59,1.63-1.04,2.78c0.41,0.86,0.92,1.69,1.47,2.46
		c9.05,12.77,18.09,25.54,27.18,38.27c7.05,9.88,14.18,19.7,21.24,29.56c4.28,5.97,8.52,11.96,12.76,17.96
		c0.55,0.77,1,1.63,1.38,2.5c0.41,0.94-0.24,1.99-1.3,2.1c-1.11,0.11-2.23,0.13-3.35,0.13c-27.02,0.01-54.05,0-81.07,0
		c-0.64,0-1.28-0.02-1.92,0c-2.26,0.06-3.88-0.79-5.13-2.82c-2.66-4.36-5.55-8.58-8.34-12.86c-7.05-10.84-14.12-21.67-21.15-32.53
		c-4.34-6.7-8.61-13.44-12.93-20.15c-4.15-6.44-8.32-12.87-12.54-19.26c-0.28-0.42-1.12-0.79-1.57-0.67
		c-0.46,0.12-0.99,0.81-1.09,1.34c-0.19,0.92-0.11,1.9-0.11,2.86c0.01,25.9,0.02,51.79,0.03,77.69c0,1.28,0.01,2.56-0.14,3.83
		c-0.17,1.47-1,2.27-2.5,2.44c-1.27,0.14-2.55,0.15-3.83,0.15c-22.23,0.01-44.45,0.01-66.68,0c-6.47,0-6.54-0.1-6.54-6.84
		C1322.87,729.41,1322.87,696.8,1322.87,664.19z M1402.54,625.83c0,9.11-0.02,18.22,0.01,27.32c0.02,5.16,0.58,5.7,5.85,5.71
		c11.35,0.02,22.7,0.02,34.04,0c5.85-0.01,6.21-0.4,6.21-6.26c0-17.74,0-35.47,0.01-53.21c0-5.9-0.24-6.17-6.27-6.17
		c-11.19-0.01-22.38-0.01-33.56,0c-5.83,0.01-6.27,0.44-6.29,6.24C1402.53,608.26,1402.54,617.05,1402.54,625.83z"/>
	<path class="st0" d="M836.76,664.49c0-32.62,0-65.23,0-97.85c0-0.96-0.04-1.92,0.01-2.88c0.12-2.73,0.61-3.2,3.52-3.34
		c0.96-0.05,1.92-0.03,2.88-0.03c21.59,0,43.18,0,64.77,0c1.44,0,2.88,0,4.31,0.14c1.58,0.16,2.34,0.91,2.47,2.43
		c0.12,1.43,0.08,2.87,0.08,4.31c0,23.98,0,47.97,0,71.95c0,1.28-0.02,2.56,0.12,3.83c0.17,1.53,0.97,2.31,2.45,2.49
		c0.95,0.11,1.91,0.11,2.87,0.11c11.51,0.01,23.03,0.02,34.54,0c5.73-0.01,6.04-0.32,6.05-5.89c0.01-21.74,0.02-43.49-0.03-65.23
		c-0.01-2.87-0.45-5.73-0.56-8.6c-0.19-5.11,0.18-5.51,5.26-5.52c15.99-0.03,31.99-0.01,47.98-0.01c6.24,0,12.47,0,18.71,0
		c0.96,0,1.92-0.02,2.88,0.04c2.64,0.18,3.2,0.8,3.3,3.6c0.03,0.8,0,1.6,0,2.4c0,50.36-0.03,100.73,0.01,151.09
		c0.01,14.86,0.25,29.73,0.35,44.59c0.05,6.66-0.06,6.74-6.61,6.75c-21.59,0.01-43.18,0-64.77,0c-1.28,0-2.57,0.01-3.83-0.14
		c-1.48-0.17-2.36-1-2.53-2.45c-0.17-1.42-0.16-2.87-0.16-4.31c-0.01-23.34,0-46.69,0-70.03c0-1.28,0.05-2.56-0.04-3.84
		c-0.15-2.14-0.87-2.88-2.89-3.1c-0.79-0.08-1.6-0.07-2.4-0.07c-11.83-0.01-23.67-0.01-35.5,0c-0.8,0-1.6-0.02-2.4,0.06
		c-1.82,0.18-2.58,0.89-2.74,2.7c-0.11,1.27-0.07,2.55-0.07,3.83c0,23.5,0,47.01,0,70.51c0,6.78-0.04,6.83-7.05,6.83
		c-21.43,0-42.86,0-64.29,0c-6.7,0-6.7,0-6.7-6.52C836.76,729.72,836.76,697.11,836.76,664.49z"/>
	<path class="st0" d="M1290.93,667.19c0.43,9.03-0.29,17.16-2.28,25.09c-1.86,7.41-4.21,14.69-7.47,21.68
		c-4.15,8.91-9.45,17.05-15.63,24.6c-4.64,5.67-9.96,10.74-15.75,15.29c-6.18,4.86-12.73,9.13-19.81,12.53
		c-7.2,3.46-14.66,6.15-22.48,8.05c-5.63,1.37-11.28,2.3-17,2.68c-5.57,0.36-11.18,0.26-16.76,0.12c-3.34-0.09-6.71-0.46-10-1.06
		c-4.23-0.78-8.44-1.74-12.57-2.95c-10.79-3.17-20.9-7.85-30.24-14.16c-9.6-6.49-17.96-14.31-25.19-23.37
		c-4.7-5.89-8.76-12.23-12.03-18.97c-3.12-6.44-5.83-13.1-7.62-20.1c-1.79-6.99-3.2-14.03-3.69-21.21
		c-0.58-8.46-0.4-16.92,0.95-25.33c2.24-14.03,6.81-27.28,14.07-39.47c4.32-7.26,9.35-14.05,15.32-20.16
		c6.73-6.9,14.06-12.95,22.25-18c6.14-3.78,12.65-6.79,19.38-9.37c9.03-3.47,18.47-5.3,28-6.19c7.92-0.74,15.96-0.95,23.88,0.66
		c4.38,0.89,8.81,1.56,13.15,2.6c6.85,1.64,13.38,4.2,19.76,7.17c6.69,3.12,12.83,7.13,18.75,11.48
		c6.45,4.74,12.19,10.3,17.36,16.42c8.85,10.48,15.57,22.21,20.05,35.18C1289.54,642.55,1291.82,655.06,1290.93,667.19z
		 M1204.08,666.02c0-3.03,0-6.07,0-9.1c0-19.01,0.01-38.01-0.01-57.02c0-1.59-0.04-3.19-0.18-4.78c-0.11-1.22-0.79-2.11-2.06-2.3
		c-0.94-0.14-1.91-0.17-2.86-0.17c-8.95-0.01-17.89-0.06-26.84,0.03c-3.82,0.04-7.65,0.36-11.47,0.64
		c-1.97,0.14-2.78,1.02-3.06,3.03c-0.11,0.79-0.11,1.59-0.12,2.39c-0.02,1.6,0,3.19,0,4.79c0,42.8,0,85.6,0,128.4
		c0,6.29,0.01,6.31,6.46,6.32c11.34,0.01,22.68,0.01,34.03,0c6.09-0.01,6.1-0.03,6.1-6.12
		C1204.09,710.1,1204.08,688.06,1204.08,666.02z"/>
	<path class="st0" d="M2366.81,671.58c-0.05,1.59-0.14,3.01-0.14,4.43c0,28.78,0,57.56,0,86.33c0,1.28,0.01,2.56-0.11,3.83
		c-0.15,1.52-0.93,2.31-2.42,2.53c-0.94,0.14-1.91,0.15-2.87,0.15c-10.71,0.01-21.43,0.02-32.14,0c-5.12-0.01-5.4-0.31-5.44-5.45
		c-0.02-2.72,0-5.44,0-8.15c0-62.99,0-125.98,0-188.97c0-1.12-0.04-2.24,0.06-3.35c0.13-1.53,0.86-2.26,2.45-2.42
		c1.11-0.12,2.23-0.1,3.35-0.1c12.63-0.01,25.27,0.1,37.9-0.07c3.33-0.04,5.84,0.96,8.03,3.34c3.03,3.29,6.12,6.52,9.24,9.72
		c3.9,3.99,7.92,7.88,11.8,11.89c7.65,7.92,15.23,15.91,22.87,23.83c2.99,3.1,6.13,6.06,9.14,9.14c4.34,4.45,8.6,8.99,12.94,13.44
		c6.91,7.09,13.89,14.11,20.8,21.2c2.67,2.74,5.21,5.62,7.87,8.37c1.05,1.08,2.06,2.93,3.85,1.98c1.45-0.77,0.77-2.62,0.77-4
		c0.02-30.7,0.02-61.39,0.01-92.09c0-6.74-0.01-6.76,6.5-6.77c7.52-0.02,15.03-0.04,22.55,0.02c4,0.03,4.33,0.42,4.4,4.42
		c0.03,1.92-0.01,3.84-0.01,5.76c0,63.63,0,127.26-0.01,190.89c0,2.2,0.43,4.49-0.91,6.84c-0.9,0.16-1.96,0.51-3.03,0.51
		c-15.03,0.04-30.06-0.01-45.1,0.08c-2.83,0.02-4.89-1.05-6.68-3.08c-5.38-6.12-10.77-12.22-16.19-18.31
		c-5.31-5.96-10.69-11.84-15.98-17.82c-7.29-8.25-14.49-16.57-21.77-24.82c-6.12-6.94-12.31-13.82-18.46-20.73
		c-3.19-3.58-6.37-7.17-9.55-10.75C2369.71,672.47,2368.98,671.35,2366.81,671.58z"/>
	<path class="st0" d="M2246.12,665.25c0.62-0.99,1.12-1.46,1.18-1.98c0.16-1.26,0.14-2.55,0.14-3.83c0-31.02,0-62.04,0.01-93.06
		c0-1.72-0.33-3.51,0.72-5.48c1.08-0.15,2.31-0.47,3.53-0.48c8-0.04,15.99-0.03,23.99-0.01c0.8,0,1.6,0.04,2.39,0.19
		c1.24,0.23,1.98,1.02,2.07,2.29c0.08,1.11,0.09,2.23,0.09,3.35c0,65.4,0,130.79,0,196.19c0,1.28,0.01,2.56-0.14,3.83
		c-0.18,1.48-1.01,2.28-2.5,2.47c-1.11,0.14-2.23,0.13-3.35,0.13c-13.91,0.01-27.83,0.01-41.74,0.01c-0.64,0-1.28-0.03-1.92-0.01
		c-2.25,0.06-3.92-0.9-5.39-2.6c-4.5-5.19-9.11-10.3-13.67-15.43c-4.03-4.54-8.06-9.07-12.09-13.61
		c-6.15-6.92-12.32-13.83-18.47-20.75c-6.47-7.28-12.95-14.56-19.41-21.86c-6.25-7.06-12.47-14.14-18.73-21.19
		c-0.7-0.78-1.56-1.43-2.57-2.34c-0.45,0.89-0.89,1.42-0.96,1.98c-0.15,1.26-0.13,2.55-0.13,3.83c0,28.3,0.01,56.6,0,84.9
		c0,1.59-0.02,3.2-0.22,4.78c-0.15,1.19-0.92,2.05-2.22,2.16c-1.11,0.09-2.23,0.12-3.35,0.13c-10.4,0.01-20.79,0.01-31.19,0
		c-0.96,0-1.92,0.02-2.88-0.07c-2.04-0.19-2.76-0.93-2.96-3.05c-0.1-1.11-0.07-2.24-0.07-3.35c0-65.4,0-130.79,0-196.19
		c0-0.16,0-0.32,0-0.48c0.03-5.08,0.21-5.3,5.51-5.31c12.96-0.03,25.91,0.05,38.86-0.05c2.78-0.02,4.72,0.87,6.63,2.94
		c4.54,4.94,9.42,9.56,14.09,14.38c6.78,6.98,13.48,14.04,20.25,21.04c3.22,3.33,6.53,6.56,9.77,9.88
		c4.56,4.69,9.07,9.43,13.63,14.11c7.03,7.21,14.1,14.37,21.13,21.57c5.35,5.49,10.68,11,16,16.53
		C2243.35,662.05,2244.46,663.39,2246.12,665.25z"/>
	<path class="st0" d="M252.99,353.1c0-32.78,0-65.55,0.01-98.33c0-1.28-0.01-2.56,0.12-3.83c0.16-1.52,0.96-2.32,2.45-2.48
		c1.11-0.12,2.23-0.11,3.35-0.11c47.66,0,95.32-0.02,142.98,0.01c13,0.01,24.51,4.47,34.46,12.57
		c10.35,8.42,17.41,19.26,19.96,32.41c2.19,11.26,1.85,22.54-2.32,33.54c-4.41,11.6-11.85,20.78-22,27.64
		c-4.72,3.19-9.96,5.57-15.56,7.25c-5.93,1.78-11.88,2.33-17.97,2.33c-19.83-0.01-39.66-0.01-59.49-0.01
		c-6.67,0-6.68,0.01-6.68,6.63c-0.01,26.54,0,53.08,0,79.62c0,1.44,0.01,2.88-0.11,4.31c-0.09,1.07-0.84,1.74-1.86,1.9
		c-1.1,0.17-2.23,0.2-3.34,0.2c-22.87,0.01-45.74,0.02-68.61,0c-5.32,0-5.39-0.12-5.39-5.34
		C252.99,418.66,252.99,385.88,252.99,353.1z M332.29,309.51c0,7.67-0.01,15.35,0,23.02c0.01,5.53,0.09,5.64,5.64,5.65
		c11.51,0.03,23.02,0.03,34.54,0c5.53-0.01,5.66-0.17,5.67-5.66c0.01-15.19,0-30.37,0-45.56c0-1.12,0.02-2.24-0.08-3.35
		c-0.15-1.55-0.87-2.22-2.46-2.41c-0.63-0.07-1.28-0.08-1.91-0.08c-12.31,0-24.62-0.03-36.94,0.01c-4.04,0.02-4.41,0.42-4.43,4.39
		C332.27,293.52,332.29,301.51,332.29,309.51z"/>
	<path class="st0" d="M1593.08,455.75c-1.07,0.4-1.77,0.82-2.5,0.9c-1.26,0.15-2.55,0.12-3.83,0.12c-24.62,0.01-49.25,0.01-73.87,0
		c-6.13,0-6.09-0.03-8.31-5.7c-2.56-6.54-5.31-13.02-7.73-19.61c-1.06-2.9-2.87-4.01-5.78-3.91c-1.92,0.07-3.84,0.02-5.76,0.02
		c-6.72,0-13.45-0.34-20.14,0.06c-17.1,1.01-34.2,0.38-51.3,0.49c-3.2,0.02-5.15,1.24-6.3,4.05c-2.17,5.32-4.32,10.65-6.49,15.97
		c-0.91,2.22-1.86,4.41-2.82,6.61c-0.49,1.12-1.39,1.74-2.59,1.87c-0.95,0.11-1.91,0.15-2.87,0.15c-9.11,0.01-18.23,0.03-27.34-0.01
		c-1.52-0.01-3.28,0.48-4.37-1.53c1.5-3.88,3.03-7.9,4.61-11.89c2.6-6.53,5.23-13.04,7.86-19.56c2.51-6.21,5.05-12.41,7.54-18.63
		c2.43-6.08,4.8-12.18,7.2-18.27c3.52-8.91,7-17.82,10.57-26.71c3.27-8.14,6.7-16.22,9.96-24.37c4.45-11.11,8.79-22.27,13.2-33.4
		c3.24-8.16,6.55-16.3,9.8-24.46c3.31-8.3,6.6-16.61,9.9-24.91c0.3-0.74,0.61-1.48,0.94-2.2c0.74-1.58,1.94-2.5,3.75-2.48
		c0.96,0.01,1.92-0.01,2.88-0.01c19.67,0,39.34,0.03,59-0.01c7.86-0.02,6.56,0.6,8.82,6.26c2.78,6.96,5.37,13.99,8.01,21
		c3.94,10.46,7.83,20.94,11.77,31.4c4.33,11.5,8.67,22.99,13.03,34.48c4.87,12.83,9.76,25.66,14.63,38.49
		c2.88,7.61,5.72,15.23,8.6,22.84c4.24,11.19,8.5,22.38,12.75,33.56c2.16,5.67,4.33,11.33,6.48,17
		C1592.61,453.95,1592.74,454.57,1593.08,455.75z M1453.15,319.3c-0.73,0.65-1.31,0.96-1.57,1.45c-0.68,1.26-1.28,2.58-1.81,3.91
		c-3.01,7.56-5.95,15.14-8.98,22.69c-2.14,5.33-4.39,10.62-6.55,15.94c-2.52,6.21-4.98,12.44-7.49,18.65
		c-1.2,2.96-2.48,5.88-3.66,8.85c-0.58,1.45,0.11,2.59,1.64,2.75c1.27,0.13,2.55,0.12,3.83,0.12c15.67,0.01,31.33,0.01,47,0
		c1.12,0,2.24,0.03,3.35-0.07c2.07-0.17,2.77-1.31,2-3.3c-1.15-2.97-2.45-5.89-3.57-8.88c-2.92-7.77-5.74-15.58-8.69-23.33
		c-2.21-5.81-4.57-11.55-6.82-17.34c-2.49-6.4-4.91-12.82-7.39-19.21C1454.17,320.84,1453.7,320.24,1453.15,319.3z"/>
	<path class="st0" d="M2031.27,768.86c-12.15,0-24.3,0-36.46,0c-0.48,0-0.96,0.01-1.44,0c-4.45-0.05-5.15-0.5-6.78-4.56
		c-2.86-7.11-5.76-14.21-8.51-21.36c-0.75-1.95-1.99-2.8-3.91-2.9c-1.28-0.07-2.56-0.06-3.84-0.07c-8.95,0-17.91-0.05-26.86,0.01
		c-16.14,0.11-32.29,0.29-48.43,0.45c-0.64,0.01-1.28,0.04-1.92,0.06c-1.42,0.05-2.38,0.74-2.95,2.05c-1.02,2.34-2.15,4.64-3.12,7
		c-2.06,5.01-4.17,10.01-6.03,15.1c-1.09,2.97-2.89,4.3-6.08,4.26c-9.43-0.1-18.87-0.03-28.3-0.05c-0.79,0-1.6-0.07-2.37-0.26
		c-0.87-0.21-1.37-0.87-1.21-1.77c0.14-0.77,0.44-1.52,0.73-2.26c3.82-9.65,7.63-19.3,11.47-28.94c6.32-15.86,12.66-31.72,19-47.57
		c3.79-9.47,7.64-18.93,11.43-28.4c6.47-16.15,12.94-32.29,19.36-48.46c3.3-8.3,6.48-16.65,9.76-24.96
		c2.88-7.27,5.83-14.52,8.77-21.76c0.3-0.74,0.73-1.42,1.08-2.14c0.62-1.3,1.68-1.86,3.08-1.88c1.12-0.02,2.24-0.05,3.36-0.05
		c19.83,0,39.65,0.01,59.48-0.01c6.97-0.01,5.71,0.11,7.79,5.46c4.23,10.85,8.28,21.77,12.43,32.65
		c4.43,11.64,8.92,23.25,13.32,34.9c3.83,10.14,7.51,20.34,11.35,30.48c3.85,10.15,7.84,20.24,11.72,30.38
		c2.28,5.96,4.42,11.97,6.67,17.94c4.05,10.74,8.14,21.47,12.22,32.2c2.33,6.12,4.67,12.23,6.99,18.35c0.34,0.9,0.66,1.8,0.94,2.72
		c0.7,2.33,0.09,3.18-2.47,3.35c-1.27,0.08-2.56,0.05-3.84,0.05C2055.57,768.86,2043.42,768.86,2031.27,768.86z M1933.92,631.6
		c-0.78,1.55-1.5,2.78-2.02,4.08c-6.32,15.7-12.6,31.41-18.92,47.11c-2.38,5.92-4.75,11.85-7.26,17.72
		c-2.29,5.37-1.01,5.63,3.98,5.61c15.99-0.06,31.98-0.02,47.98-0.02c0.96,0,1.92,0.03,2.88-0.05c1.58-0.14,2.35-1.11,2.03-2.57
		c-0.17-0.77-0.46-1.52-0.74-2.27c-2.96-7.75-5.95-15.5-8.9-23.26c-5.33-14.03-10.62-28.07-15.96-42.09
		C1936.44,634.41,1936.1,632.76,1933.92,631.6z"/>
	<path class="st0" d="M837.38,338.9c0.79,0.12,1.6,0.07,2.25,0.38c4.46,2.14,8.81,4.54,13.35,6.48c4.54,1.94,9.22,3.61,13.94,5.08
		c4.72,1.46,9.53,2.65,14.35,3.73c4.21,0.94,8.46,1.71,12.73,2.29c6.17,0.84,12.36,1.57,18.57,2.13c5.09,0.46,10.2,0.81,15.3,0.82
		c10.23,0.02,20.45-0.14,30.68-0.42c3.66-0.1,7.32-0.66,10.95-1.16c7.75-1.05,15.51-2.08,23.23-3.35c3.61-0.6,7.11-1.79,10.68-2.63
		c5.76-1.36,11.3-3.39,16.8-5.51c4.01-1.55,7.84-3.57,11.73-5.4c1.44-0.68,2.83-1.49,4.29-2.11c0.52-0.22,1.2-0.03,1.98-0.03
		c0.2,1.06,0.49,1.97,0.52,2.89c0.08,1.91,0.02,3.83,0.02,5.75c0,34.52-0.06,69.04,0.09,103.56c0.02,3.89-1.17,6.1-4.67,7.89
		c-11.3,5.76-23.04,10.21-35.45,12.86c-4.69,1-9.33,2.21-14.04,3.07c-3.61,0.66-7.3,0.83-10.93,1.35
		c-8.4,1.21-16.85,1.65-25.32,1.75c-6.23,0.07-12.47,0.01-18.7,0.01c-9.6,0-19.13-0.76-28.67-1.82c-9.41-1.04-18.61-2.96-27.77-5.13
		c-6.83-1.62-13.49-3.85-19.98-6.61c-4.56-1.94-9.09-3.89-13.44-6.29c-2.24-1.23-3.32-2.82-3.12-5.37c0.11-1.43,0.03-2.88,0.03-4.31
		c0-34.84-0.01-69.68,0.01-104.52C836.78,342.57,836.44,340.79,837.38,338.9z"/>
	<path class="st0" d="M1782.94,288.38c-2.06,1.43-4.03,1.08-5.92,1.09c-13.27,0.03-26.54,0.01-39.82,0.03
		c-1.59,0-3.2,0.04-4.78,0.22c-1.22,0.15-2.02,0.97-2.12,2.24c-0.1,1.27-0.09,2.55-0.09,3.83c0,50.99,0,101.99-0.01,152.98
		c0,1.75-0.04,3.51-0.18,5.26c-0.1,1.25-0.93,2.04-2.17,2.2c-1.1,0.14-2.23,0.15-3.35,0.15c-24.14,0.01-48.29,0.01-72.43,0
		c-5.79,0-6.07-0.29-6.07-6.37c-0.01-31.97,0-63.94,0-95.91c0-19.34,0-38.69,0-58.03c0-0.96,0.03-1.92-0.01-2.88
		c-0.15-3.34-0.91-4.06-4.42-4.18c-1.12-0.04-2.24-0.01-3.36-0.01c-12.63,0-25.26,0-37.9,0c-0.64,0-1.28,0.01-1.92,0
		c-4.74-0.08-5.38-0.61-5.4-5.15c-0.05-10.07-0.02-20.14-0.02-30.21c0-0.64-0.01-1.28,0.06-1.92c0.24-2.19,1.14-3.08,3.36-3.29
		c1.11-0.1,2.24-0.06,3.36-0.06c59,0,118.01,0,177.01,0c1.12,0,2.24-0.05,3.36,0.05c2.06,0.18,2.9,1,3.11,2.95
		c0.08,0.79,0.06,1.6,0.06,2.4c0,10.39,0.01,20.78-0.02,31.17C1783.28,286.16,1783.05,287.4,1782.94,288.38z"/>
	<path class="st0" d="M602.23,352.82c0-32.45,0-64.9,0-97.34c0-1.28-0.05-2.56,0.06-3.83c0.17-2.04,0.98-2.92,2.91-3.16
		c1.11-0.14,2.23-0.12,3.35-0.12c21.9-0.01,43.81-0.01,65.71-0.01c0.64,0,1.28-0.02,1.92,0.01c3.12,0.15,3.78,0.83,3.94,4.11
		c0.05,0.96,0.01,1.92,0.01,2.88c0,51.63,0,103.26,0,154.89c0,1.59,0.04,3.19,0.19,4.78c0.12,1.25,0.98,2.08,2.18,2.23
		c1.58,0.21,3.18,0.24,4.78,0.25c22.22,0.01,44.45,0.01,66.67,0.01c14.39,0,28.78-0.01,43.17,0c6.51,0,6.8,0.3,6.81,6.71
		c0.01,8.95,0,17.9,0,26.85c0,0.96,0.04,1.92-0.04,2.88c-0.14,1.78-0.87,2.55-2.71,2.73c-1.27,0.13-2.55,0.11-3.83,0.11
		c-9.91,0.01-19.83,0.01-29.74,0.01c-52.44,0-104.88,0-157.33,0c-1.6,0-3.2,0.05-4.79-0.06c-2.47-0.17-3.12-0.85-3.25-3.2
		c-0.05-0.96-0.01-1.92-0.01-2.88C602.23,418.03,602.23,385.43,602.23,352.82z"/>
	<path class="st0" d="M491.23,455.98c-0.12-1.24-0.31-2.32-0.31-3.41c0.06-67.42,0.14-134.84,0.24-202.26
		c0-0.42,0.39-0.85,0.74-1.56c1.12-0.12,2.36-0.38,3.6-0.38c22.69-0.02,45.39-0.02,68.08-0.02c0.32,0,0.64-0.01,0.96,0.01
		c3.75,0.16,4.34,0.75,4.44,4.61c0.05,1.76,0,3.51,0,5.27c0,64.07,0,128.14,0,192.21c0,0.96,0.04,1.92-0.01,2.88
		c-0.12,2.66-0.72,3.25-3.52,3.41c-1.12,0.07-2.24,0.03-3.36,0.03c-21.58,0-43.15,0.01-64.73-0.01
		C495.48,456.76,493.53,457.1,491.23,455.98z"/>
	<path class="st0" d="M938.11,200.46c15.44-0.47,30.67,1.35,45.75,4.35c9.42,1.88,18.6,4.78,27.24,8.98
		c6.02,2.93,11.7,6.48,16.61,11.2c4.86,4.67,8.43,10.13,10.12,16.53c1.35,5.1,1.17,10.36-0.65,15.56
		c-3.13,8.91-9.37,15.09-16.91,20.19c-8.42,5.7-17.82,9.19-27.56,11.94c-12.06,3.41-24.39,5.32-36.82,6.13
		c-9.87,0.64-19.81,0.17-29.71,0.25c-6.1,0.05-12.13-0.67-18.15-1.45c-9.68-1.25-19.21-3.13-28.59-5.96
		c-7.54-2.28-14.7-5.29-21.51-9.18c-5.34-3.05-10.1-6.93-13.88-11.67c-6.78-8.51-9.25-18.07-5.38-28.73
		c2.55-7.01,7.22-12.37,12.95-16.89c7.49-5.9,15.99-9.89,25.05-12.75c3.5-1.1,6.97-2.37,10.53-3.24c4.19-1.02,8.43-1.88,12.7-2.48
		c6.33-0.89,12.68-1.72,19.05-2.18C925.31,200.62,931.72,200.64,938.11,200.46z M938.05,278.37c6.09,0.48,12.1-0.42,18.12-1.17
		c8.82-1.11,17.08-3.82,24.7-8.45c4.96-3.02,8.39-7.33,10.63-12.57c1.52-3.56,2.24-7.29,1.35-11.22
		c-1.63-7.17-5.33-12.9-11.49-16.99c-6.61-4.39-13.96-6.92-21.68-8.46c-5.33-1.07-10.72-1.66-16.16-1.82
		c-7.51-0.22-15.01-0.17-22.45,0.95c-4.42,0.66-8.77,1.59-13.07,2.89c-5.09,1.54-9.84,3.77-14.22,6.7c-3.05,2.04-5.66,4.67-7.6,7.85
		c-2.56,4.19-3.99,8.72-3.61,13.65c0.61,7.67,4.5,13.61,10.56,18c6.83,4.96,14.76,7.65,22.99,9.01
		C923.34,277.93,930.65,278.98,938.05,278.37z"/>
	<path class="st0" d="M837.73,279.55c1.1,0.87,2.03,1.44,2.75,2.21c6.01,6.38,13.36,10.71,21.2,14.47
		c6.82,3.27,14.05,5.27,21.2,7.51c3.79,1.19,7.79,1.72,11.71,2.48c2.51,0.49,5.03,0.92,7.57,1.25c3.48,0.47,6.97,0.84,10.46,1.22
		c11.79,1.28,23.64,1.24,35.44,0.84c9.39-0.32,18.87-0.32,28.11-2.62c2.78-0.69,5.65-1.04,8.5-1.48c6.98-1.09,13.7-3.19,20.31-5.54
		c11.06-3.93,21.39-9.23,29.77-17.73c0.78-0.79,1.51-1.95,2.74-1.57c1.59,0.48,1.27,2.04,1.27,3.27c0.03,6.55-0.02,13.11,0.02,19.66
		c0.02,2.38-0.72,4.25-2.58,5.88c-4.47,3.92-9.23,7.36-14.52,10.06c-9.59,4.88-19.75,8.02-30.22,10.5
		c-10.01,2.37-20.1,3.62-30.3,4.43c-8.75,0.69-17.5,1.63-26.29,1.35c-5.9-0.19-11.78-0.75-17.67-1.16
		c-2.55-0.18-5.09-0.43-7.64-0.62c-8.3-0.62-16.53-1.66-24.59-3.85c-2.77-0.75-5.62-1.25-8.39-2.02c-8-2.23-15.86-4.85-23.17-8.86
		c-5.19-2.85-10.11-6.1-14.45-10.18c-1.24-1.17-2.13-2.41-2.13-4.1c0-7.99,0.04-15.98,0.09-23.97
		C836.91,280.71,837.2,280.44,837.73,279.55z"/>
	<path class="st0" d="M1284.06,538.22c12.4-0.1,21.24,10.05,21.24,21.32c0.01,12.59-9.56,22.02-21.75,21.91
		c-11.66-0.11-21.17-9.09-21.17-21.93C1262.38,547.26,1272.41,537.79,1284.06,538.22z"/>
	<path class="st0" d="M1058.45,559.8c-0.32-9.77,5.22-16.6,13.49-20.01c9.07-3.74,18.92,0.31,23.61,5.6
		c7.44,8.39,7.78,21.98-1.33,30.65c-5.38,5.12-14.08,7.83-22.13,4.07c-1.72-0.8-3.59-1.45-5.04-2.61
		C1061.26,572.86,1058.25,568.11,1058.45,559.8z"/>
	<path class="st1" d="M1402.54,625.83c0-8.79-0.02-17.58,0.01-26.36c0.01-5.8,0.46-6.24,6.29-6.24c11.19-0.01,22.38-0.01,33.56,0
		c6.03,0.01,6.27,0.28,6.27,6.17c-0.01,17.74-0.01,35.47-0.01,53.21c0,5.85-0.36,6.25-6.21,6.26c-11.35,0.02-22.7,0.02-34.04,0
		c-5.27-0.01-5.83-0.55-5.85-5.71C1402.52,644.05,1402.54,634.94,1402.54,625.83z"/>
	<path class="st1" d="M1204.08,666.02c0,22.04,0,44.08,0,66.12c0,6.09-0.02,6.11-6.1,6.12c-11.34,0.02-22.68,0.01-34.03,0
		c-6.45-0.01-6.46-0.02-6.46-6.32c0-42.8,0-85.6,0-128.4c0-1.6-0.01-3.19,0-4.79c0.01-0.8,0.01-1.6,0.12-2.39
		c0.28-2.01,1.09-2.88,3.06-3.03c3.82-0.28,7.64-0.6,11.47-0.64c8.94-0.1,17.89-0.04,26.84-0.03c0.95,0,1.92,0.03,2.86,0.17
		c1.27,0.19,1.95,1.08,2.06,2.3c0.14,1.59,0.18,3.19,0.18,4.78c0.01,19.01,0.01,38.01,0.01,57.02
		C1204.08,659.95,1204.08,662.99,1204.08,666.02z"/>
	<path class="st1" d="M332.29,309.51c0-7.99-0.03-15.99,0.01-23.98c0.02-3.97,0.4-4.38,4.43-4.39c12.31-0.05,24.62-0.02,36.94-0.01
		c0.64,0,1.28,0.01,1.91,0.08c1.6,0.19,2.31,0.85,2.46,2.41c0.11,1.11,0.08,2.23,0.08,3.35c0.01,15.19,0.01,30.37,0,45.56
		c0,5.48-0.14,5.64-5.67,5.66c-11.51,0.03-23.02,0.03-34.54,0c-5.55-0.01-5.63-0.13-5.64-5.65
		C332.28,324.85,332.29,317.18,332.29,309.51z"/>
	<path class="st1" d="M1453.15,319.3c0.55,0.93,1.02,1.53,1.29,2.21c2.48,6.4,4.9,12.82,7.39,19.21c2.25,5.79,4.62,11.54,6.82,17.34
		c2.95,7.76,5.77,15.57,8.69,23.33c1.12,2.98,2.42,5.9,3.57,8.88c0.77,1.99,0.07,3.13-2,3.3c-1.11,0.09-2.24,0.07-3.35,0.07
		c-15.67,0-31.33,0-47,0c-1.28,0-2.56,0.01-3.83-0.12c-1.53-0.16-2.21-1.3-1.64-2.75c1.18-2.97,2.47-5.89,3.66-8.85
		c2.51-6.21,4.97-12.44,7.49-18.65c2.16-5.32,4.41-10.61,6.55-15.94c3.03-7.55,5.97-15.13,8.98-22.69c0.53-1.33,1.13-2.65,1.81-3.91
		C1451.84,320.26,1452.42,319.95,1453.15,319.3z"/>
	<path class="st1" d="M1933.92,631.6c2.18,1.16,2.52,2.81,3.07,4.26c5.34,14.02,10.63,28.06,15.96,42.09
		c2.95,7.76,5.94,15.5,8.9,23.26c0.28,0.74,0.57,1.49,0.74,2.27c0.32,1.47-0.45,2.44-2.03,2.57c-0.95,0.08-1.92,0.05-2.88,0.05
		c-15.99,0-31.98-0.04-47.98,0.02c-4.99,0.02-6.28-0.24-3.98-5.61c2.51-5.87,4.88-11.8,7.26-17.72c6.31-15.7,12.6-31.41,18.92-47.11
		C1932.42,634.38,1933.14,633.16,1933.92,631.6z"/>
	<path class="st0" d="M938.05,278.37c-7.4,0.61-14.7-0.44-21.93-1.63c-8.23-1.36-16.16-4.05-22.99-9.01
		c-6.06-4.39-9.95-10.33-10.56-18c-0.39-4.93,1.04-9.46,3.61-13.65c1.95-3.18,4.55-5.81,7.6-7.85c4.38-2.93,9.12-5.16,14.22-6.7
		c4.3-1.3,8.66-2.23,13.07-2.89c7.44-1.12,14.95-1.17,22.45-0.95c5.43,0.16,10.82,0.75,16.16,1.82c7.72,1.55,15.07,4.08,21.68,8.46
		c6.16,4.08,9.85,9.82,11.49,16.99c0.9,3.93,0.18,7.66-1.35,11.22c-2.24,5.24-5.67,9.55-10.63,12.57
		c-7.62,4.63-15.87,7.34-24.7,8.45C950.14,277.95,944.14,278.85,938.05,278.37z"/>
</g>
</svg>
